<?xml version="1.0" encoding="utf-8"?>
<!-- Generator: Adobe Illustrator 21.0.0, SVG Export Plug-In . SVG Version: 6.00 Build 0)  -->
<svg version="1.1" id="Layer_1" xmlns="http://www.w3.org/2000/svg" xmlns:xlink="http://www.w3.org/1999/xlink" x="0px" y="0px"
	 viewBox="0 0 680 442" style="enable-background:new 0 0 680 442;" xml:space="preserve">
<style type="text/css">
	.st0{fill:#FFFFFF;}
	.st1{fill:#1A1A1A;}
	.st2{fill:#4284F3;}
	.st3{fill:#F5A623;}
	.st4{fill:none;}
	.st5{fill:#00021E;}
	.st6{fill:#FFFFFF;stroke:#000000;stroke-width:0.572;stroke-miterlimit:10;}
</style>
<g transform="translate(-345.19 -390.874)">
	<g transform="translate(-7066.942 73.865)">
		<rect x="7774.7" y="613.3" class="st0" width="272.6" height="144"/>
		<path class="st1" d="M7774.5,613.2c22.5-0.3,45-0.5,67.7-0.7s45.4-0.4,68.2-0.5c22.8-0.1,45.6-0.2,68.4-0.1l68.4,0.5h0.8v0.8
			l-0.2,18l-0.1,18c0,12-0.1,24,0,36l0.1,36l0.3,36v0.9h-0.9l-34.1,0.3l-34.1,0.2l-68.2,0.2l-34.1,0.1h-34.1
			c-22.7-0.1-45.4-0.1-68.2-0.2h-1.5v-1.4l0.2-36.2c0.1-12.1,0.2-24.1,0.3-36.1L7774.5,613.2z M7774.8,613.4l0.8,72.3
			c0.1,12,0.3,23.9,0.3,35.9l0.2,35.8l-1.5-1.5c22.7-0.2,45.4-0.2,68.2-0.2h34.1l34.1,0.1l68.2,0.2l34.1,0.2l34.1,0.3l-0.9,0.9
			l0.3-36l0.1-36c0.1-12,0-24,0-36l-0.1-18l-0.2-18l0.8,0.8l-67.9,0.5c-22.6,0.1-45.2,0-67.9-0.1c-22.7-0.1-45.3-0.2-68.1-0.5
			C7820.6,614,7797.7,613.7,7774.8,613.4L7774.8,613.4z"/>
		<rect x="7457.2" y="613.3" class="st2" width="272.6" height="144"/>
		<rect x="7774.7" y="389.8" class="st3" width="272.6" height="144"/>
		<rect x="7457.2" y="389.8" class="st0" width="272.6" height="144"/>
		<path class="st1" d="M7457.1,389.7c22.5-0.3,45-0.5,67.7-0.7s45.4-0.4,68.2-0.5c22.8-0.1,45.6-0.2,68.4-0.1l68.4,0.5h0.8v0.8
			l-0.2,18l-0.1,18c0,12-0.1,24,0,36l0.1,36l0.3,36v0.9h-0.9l-34.1,0.3l-34.1,0.2l-68.2,0.2l-34.1,0.1h-34.1
			c-22.7-0.1-45.4-0.1-68.2-0.2h-1.5v-1.4l0.2-36.2c0.1-12.1,0.2-24.1,0.3-36.1L7457.1,389.7z M7457.3,389.9l0.8,72.3
			c0.1,12,0.3,23.9,0.3,35.9l0.2,35.8l-1.5-1.5c22.7-0.2,45.4-0.2,68.2-0.2h34.1l34.1,0.1l68.2,0.2l34.1,0.2l34.1,0.3l-0.9,0.9
			l0.3-36l0.1-36c0.1-12,0-24,0-36l-0.1-18l-0.2-18l0.8,0.8l-67.9,0.5c-22.6,0.1-45.2,0-67.9-0.1c-22.7-0.1-45.3-0.2-68.1-0.5
			C7503.1,390.5,7480.3,390.2,7457.3,389.9L7457.3,389.9z"/>
		<path class="st1" d="M7611.9,407.8c6.8,2.1,9.3,8.6,8.3,15c-1.1,7.1,3.9,10.3,8.3,12.7l-35.4,3.7l-3.7-29.2L7611.9,407.8z"/>
		<path class="st0" d="M7591.7,389.8c0,0,11-5.7,21.1,2.3c0,0,10.3,9.5,8.5,24.3c-0.9,6.9-10.4,6.8-10.4,6.8l-5.4,22.7l-22.6-5.9
			l10.2-22.5c0,0,0.4-3.1-2.7-5.8C7590.2,411.8,7581,399.8,7591.7,389.8z"/>
		<path class="st1" d="M7591.6,389.7c2.4-1.1,5-1.8,7.6-2s5.3,0.1,7.8,0.9c1.3,0.4,2.5,1,3.6,1.6c0.3,0.2,0.6,0.3,0.8,0.5
			s0.6,0.4,0.8,0.6c0.3,0.2,0.5,0.4,0.8,0.6c0.2,0.2,0.5,0.5,0.7,0.7c1.8,1.9,3.3,4.1,4.6,6.4c2.6,4.7,3.8,10,3.6,15.3
			c0,0.7-0.1,1.3-0.2,2s-0.2,1.4-0.5,2c-0.6,1.3-1.5,2.4-2.6,3.2c-1.1,0.8-2.4,1.3-3.7,1.7c-1.3,0.3-2.7,0.5-4,0.6l0.6-0.5
			l-5.3,22.8l-0.2,0.8l-0.8-0.2c-7.6-1.9-15.1-3.8-22.7-5.7l-1.1-0.3l0.5-1.1l5.1-11.2l5.2-11.2l-0.1,0.2c0-0.2,0-0.4,0-0.6
			s0-0.5-0.1-0.7c-0.1-0.5-0.3-0.9-0.5-1.4c-0.2-0.4-0.5-0.9-0.8-1.3s-0.7-0.8-1-1.1l-0.1-0.1l0,0c-1.2-1.7-2.1-3.6-2.7-5.6
			s-0.9-4.1-0.8-6.2c0.1-1,0.2-2.1,0.5-3.1s0.7-2,1.2-2.9C7588.7,392.7,7590.1,391.1,7591.6,389.7z M7591.7,389.9
			c-1.4,1.4-2.6,3.1-3.4,4.9c-0.4,0.9-0.7,1.8-0.9,2.8c-0.2,1-0.3,1.9-0.3,2.9c0,2,0.4,3.9,1,5.8c0.7,1.8,1.6,3.6,2.8,5.1l-0.1-0.1
			c0.5,0.4,0.9,0.8,1.3,1.3s0.7,1,1,1.5s0.5,1.1,0.6,1.7c0.2,0.6,0.2,1.3,0.2,1.9v0.1l-0.1,0.1l-5,11.3l-5.1,11.3l-0.6-1.4
			c7.5,2,15,4.1,22.6,6.1l-1,0.6l5.6-22.7l0.1-0.5h0.5c2.5,0,5-0.6,7.1-1.9c1-0.7,1.8-1.6,2.3-2.7c0.2-0.6,0.4-1.1,0.5-1.7
			s0.2-1.3,0.2-1.9c0.3-5.2-0.8-10.3-3.2-14.9c-1.2-2.3-2.7-4.4-4.4-6.3c-0.2-0.2-0.4-0.5-0.7-0.7c-0.2-0.2-0.5-0.4-0.7-0.6
			s-0.5-0.4-0.8-0.6s-0.5-0.4-0.8-0.5c-1.1-0.7-2.3-1.2-3.5-1.7C7601.9,387.4,7596.5,387.7,7591.7,389.9L7591.7,389.9z"/>
		<path class="st1" d="M7610.7,422.7c0,0-5.1-0.6-7.9-2.2c0,0,2.1,3.5,7.5,6.8L7610.7,422.7z"/>
		<path class="st1" d="M7582.3,462.1c1,12.2,15.8,16,28.4,15.7"/>
		<path class="st1" d="M7538.9,443.9c-3.5-24.1,15.2-8.7,19.5-29.1c3.3-15.2,16.7-4,25.3-22.9c8.2-11.9,22.9-8.9,22.9-8.9
			c8.7,2.4,11.9,8.5,11.9,12.6c0,0.5-18.4,10-19.4,9.1c-1.1-1.1-2.2-1.3-3.3-0.3c0,0-1.6,2.5,2.1,7.2c0,0,3.3,2.7-1.4,9.9
			c0,0-7.1,15.7-13.8,17.9L7538.9,443.9z"/>
		<path class="st0" d="M7611.4,533.3c-15.2,9.2-66.2,0.5-66.2,0.5c-5.6,1.9,22.6-36.7,25-51.8c1-6.2,0.5-11.9,0.3-18.1
			c-0.2-5.9,1.1-11.8,3.5-17.1c6.2-11.8,22.5-9,31.4-0.8c0,0,3.6,6.3,10,15.4c4.6,6.5,5.2,15,1.6,22.1c-0.2,0.3-0.3,0.7-0.5,1
			C7609.6,496.6,7609,522.9,7611.4,533.3L7611.4,533.3z"/>
		<path class="st1" d="M7611.5,533.3c-0.3,0.2-0.6,0.4-1,0.6c-0.3,0.2-0.6,0.3-0.9,0.5c-0.6,0.3-1.3,0.6-1.9,0.8
			c-1.3,0.5-2.7,0.9-4.1,1.2c-2.7,0.6-5.5,1-8.3,1.3c-5.6,0.5-11.2,0.6-16.8,0.4c-5.6-0.2-11.2-0.6-16.8-1.1
			c-5.6-0.5-11.1-1.2-16.7-2.1h0.5c-0.4,0.1-0.8,0.2-1.1,0c-0.3-0.1-0.6-0.3-0.7-0.7c-0.1-0.2-0.2-0.4-0.2-0.6
			c0-0.5,0.1-0.9,0.2-1.4c0.2-0.7,0.5-1.4,0.8-2c0.6-1.3,1.2-2.5,1.9-3.7c1.3-2.4,2.7-4.8,4.1-7.1c2.8-4.7,5.6-9.3,8.3-14.1
			c2.7-4.7,5.3-9.5,7.5-14.4c1.1-2.4,2.1-4.9,2.8-7.5c0.3-1.3,0.5-2.6,0.7-3.9c0.1-1.3,0.2-2.7,0.3-4c0.1-2.7,0-5.4,0-8.1
			c-0.1-2.7-0.1-5.5,0.2-8.2c0.3-2.7,0.9-5.4,1.8-8.1c0.4-1.3,0.9-2.6,1.5-3.8c0.6-1.3,1.4-2.4,2.3-3.5c1.8-2.1,4.3-3.6,7-4.4
			c2.7-0.7,5.5-0.9,8.2-0.5c5.5,0.8,10.7,3.2,14.8,6.8l0,0v0.1c2,3.3,4.1,6.5,6.3,9.7c1.1,1.6,2.2,3.2,3.3,4.7
			c0.5,0.8,1.1,1.6,1.6,2.4c0.5,0.9,1,1.8,1.3,2.7c1.6,3.7,2.1,7.8,1.6,11.8c-0.3,2-0.9,3.9-1.7,5.8c-0.4,0.9-0.9,1.8-1.4,2.6
			c-0.2,0.4-0.4,0.8-0.6,1.2c-0.2,0.4-0.4,0.9-0.6,1.3c-1.4,3.5-2.5,7.2-3.1,10.9c-0.7,3.8-1.2,7.6-1.6,11.4
			c-0.3,3.8-0.4,7.7-0.4,11.5C7610.5,525.6,7610.8,529.4,7611.5,533.3L7611.5,533.3C7611.4,533.2,7611.4,533.3,7611.5,533.3z
			 M7611.3,533.3C7611.3,533.3,7611.2,533.3,7611.3,533.3L7611.3,533.3c-0.9-3.8-1.4-7.6-1.5-11.5c-0.2-3.9-0.2-7.7,0.1-11.6
			c0.2-3.9,0.6-7.7,1.3-11.6c0.6-3.9,1.7-7.6,3.1-11.3c0.2-0.5,0.4-0.9,0.6-1.4s0.4-0.9,0.7-1.3c0.5-0.9,0.9-1.7,1.3-2.5
			c0.7-1.7,1.2-3.5,1.5-5.3c0.5-3.7,0-7.4-1.4-10.9c-0.3-0.9-0.8-1.7-1.2-2.5c-0.4-0.8-1-1.6-1.5-2.4c-1.1-1.6-2.1-3.2-3.2-4.9
			c-2.1-3.3-4.1-6.5-6-9.9l0.1,0.1c-3.9-3.7-8.9-6.1-14.3-6.9c-2.7-0.4-5.4-0.2-8,0.5c-2.6,0.8-4.9,2.2-6.6,4.3
			c-0.9,1-1.6,2.1-2.1,3.3c-0.5,1.2-1,2.5-1.4,3.8c-0.8,2.6-1.3,5.2-1.5,7.9c-0.2,2.7-0.2,5.4,0,8.1c0.1,2.7,0.3,5.4,0.2,8.2
			c0,1.4-0.1,2.8-0.2,4.1c-0.1,1.4-0.3,2.8-0.6,4.1c-0.7,2.7-1.6,5.3-2.8,7.8c-2.2,5-4.8,9.9-7.5,14.6s-5.4,9.5-8.2,14.2
			c-1.4,2.3-2.8,4.7-4.1,7.1c-0.7,1.2-1.3,2.4-1.9,3.6c-0.3,0.6-0.5,1.2-0.7,1.8c-0.1,0.2-0.1,0.4-0.1,0.6c0,0,0,0,0-0.1
			c-0.1-0.2-0.2-0.3-0.4-0.3c-0.3-0.1-0.2,0-0.1,0l0.2-0.1l0.3,0.1c5.5,0.9,11,1.7,16.5,2.3c5.5,0.7,11.1,1.1,16.6,1.4
			c5.6,0.4,11.1,0.4,16.7,0.1c2.8-0.1,5.5-0.5,8.3-0.9c1.4-0.3,2.7-0.6,4-1c0.7-0.2,1.3-0.4,2-0.7c0.3-0.1,0.6-0.3,1-0.4
			C7610.7,533.5,7611,533.4,7611.3,533.3z"/>
		<path class="st1" d="M7579.6,465.6c0,0-2.7,22.5,20.9,34"/>
		
			<rect x="7686.6" y="459.4" transform="matrix(0.1172 -0.9931 0.9931 0.1172 6359.5059 8080.3042)" class="st0" width="76.3" height="7.3"/>
		<path class="st1" d="M7723.5,501.2c0.6-6.6,1.1-13,1.8-19.3c0.6-6.3,1.3-12.6,2-18.9c0.4-3.1,0.8-6.2,1.3-9.3l1.3-9.3
			c0.9-6.2,1.6-12.6,2.3-18.9l0.3,0.4l-7.3-0.7l0.6-0.5c-0.6,6.3-1.2,12.7-1.9,19c-0.7,6.3-1.3,12.6-2.1,19
			c-0.7,6.3-1.6,12.6-2.4,18.9s-1.7,12.6-2.7,18.9l-0.3-0.4L7723.5,501.2z M7723.6,501.4l-7.3-0.6h-0.4v-0.4
			c0.6-6.3,1.1-12.7,1.8-19c0.6-6.3,1.3-12.6,2.1-19c0.7-6.3,1.6-12.6,2.4-18.9s1.7-12.6,2.6-18.9l0.1-0.5l0.5,0.1l7.2,1l0.4,0.1
			v0.4c-0.9,6.3-1.6,12.6-2.2,19l-0.9,9.6c-0.3,3.2-0.6,6.4-1,9.6c-0.7,6.4-1.6,12.7-2.4,19C7725.5,489.1,7724.6,495.3,7723.6,501.4
			L7723.6,501.4z"/>
		
			<ellipse transform="matrix(2.795739e-02 -0.9996 0.9996 2.795739e-02 7123.7422 8097.644)" class="st0" cx="7725.5" cy="385.9" rx="40.2" ry="30.9"/>
		<path class="st1" d="M7755.7,393.2c0.7-4.6,0.7-9.3,0.1-13.9s-2-9.1-3.9-13.3c-1.9-4.2-4.5-8-7.7-11.3s-7.1-5.7-11.4-7.2
			c-4.4-1.4-9-1.5-13.5-0.4c-2.2,0.6-4.4,1.5-6.3,2.7c-2,1.2-3.8,2.6-5.5,4.2c-3.3,3.2-6,7.1-8,11.3c-1.9,4.2-3.2,8.7-3.8,13.3
			c-0.6,4.6-0.6,9.2,0,13.8c0.6,4.6,1.8,9,3.7,13.2c1.8,4.2,4.4,8,7.6,11.3c3.1,3.3,7.1,5.7,11.4,7.1c4.3,1.3,8.9,1.4,13.3,0.2
			c4.4-1.3,8.4-3.6,11.8-6.7c3.4-3.2,6.2-6.9,8.2-11.1C7753.6,402.3,7755,397.8,7755.7,393.2z M7755.9,393.3
			c-0.7,4.6-2,9.2-3.9,13.5s-4.6,8.3-7.8,11.7c-3.3,3.5-7.5,6.1-12.1,7.6c-4.7,1.4-9.7,1.4-14.4,0c-4.6-1.5-8.8-4.1-12.2-7.6
			c-3.3-3.5-6-7.5-7.8-12c-1.9-4.4-3-9-3.5-13.8c-1-9.5,0.7-19,4.8-27.6c2-4.3,4.8-8.1,8.1-11.5c3.4-3.4,7.5-5.9,12-7.4
			c4.6-1.4,9.6-1.5,14.2-0.1s8.8,4,12.1,7.5c3.3,3.5,5.9,7.5,7.6,12c1.8,4.4,2.9,9,3.3,13.7C7756.8,383.9,7756.6,388.6,7755.9,393.3
			L7755.9,393.3z"/>
		
			<ellipse transform="matrix(2.795739e-02 -0.9996 0.9996 2.795739e-02 7123.7314 8097.6455)" class="st0" cx="7725.5" cy="385.9" rx="33.7" ry="26"/>
		<path class="st1" d="M7750.8,392c1.2-7.7,0.1-15.7-3.2-22.8c-1.6-3.5-3.8-6.7-6.5-9.4c-2.6-2.7-5.9-4.8-9.5-6s-7.5-1.3-11.2-0.3
			c-1.9,0.5-3.6,1.2-5.3,2.2c-1.7,1-3.2,2.1-4.6,3.5c-2.8,2.7-5.1,5.9-6.7,9.5c-1.6,3.5-2.7,7.3-3.2,11.2c-0.5,3.8-0.5,7.7,0,11.6
			c0.5,3.8,1.5,7.5,3.1,11.1c1.5,3.5,3.7,6.7,6.3,9.4c2.6,2.7,5.9,4.7,9.5,5.9c3.6,1.1,7.4,1.2,11.1,0.2c3.7-1.1,7-3,9.8-5.5
			c2.9-2.6,5.2-5.8,6.9-9.2C7749,399.7,7750.2,395.9,7750.8,392z M7751,392.1c-0.6,3.9-1.7,7.7-3.3,11.3c-1.6,3.7-3.8,7-6.6,9.9
			c-2.8,3-6.3,5.2-10.2,6.4c-4,1.2-8.2,1.2-12.2,0c-3.9-1.2-7.5-3.5-10.3-6.4s-5-6.4-6.6-10.1c-3.1-7.4-3.9-15.6-2.5-23.5
			c0.7-3.9,1.9-7.7,3.6-11.3c1.7-3.6,4-6.8,6.8-9.6c2.8-2.8,6.3-5,10.1-6.3c3.9-1.2,8.1-1.3,12-0.2c3.9,1.2,7.4,3.4,10.2,6.3
			c2.8,2.9,4.9,6.4,6.4,10.1s2.4,7.6,2.7,11.5C7751.7,384.2,7751.6,388.2,7751,392.1L7751,392.1z"/>
		<path class="st1" d="M7755.8,393.2c3.4-21.8-7.5-42.8-24.2-46.9c-1.3-0.3-2.6-0.5-3.8-0.6l0,0l7.8,0.2l0,0c2,0,4,0.2,5.9,0.7
			c16.8,4.1,27.6,25,24.2,46.9c-3.2,20.6-17.9,34.5-33.5,32.7l-8-0.1C7739.1,426.7,7752.8,413,7755.8,393.2z"/>
		<path class="st1" d="M7755.7,393.2c0.8-5.1,0.8-10.2-0.1-15.3c-0.8-5-2.5-9.9-4.9-14.4c-2.4-4.4-5.6-8.4-9.5-11.5
			c-2-1.5-4.1-2.8-6.4-3.7c-1.1-0.5-2.3-0.9-3.5-1.2c-1.2-0.3-2.4-0.5-3.7-0.6l-0.9-0.1l0.1-0.8l0,0l0.1-0.7h0.7l7.8,0.3h0.2
			l0.1,0.1l0,0l-0.4-0.1c2.5,0,4.9,0.4,7.3,1.2c2.3,0.7,4.6,1.8,6.6,3.1c4,2.7,7.5,6.2,10.1,10.3c2.6,4.1,4.5,8.6,5.7,13.3
			c1.2,4.7,1.8,9.5,1.7,14.4c-0.1,4.9-0.9,9.7-2.4,14.4c-1.5,4.7-3.7,9.1-6.7,13c-3,4-6.8,7.2-11.2,9.6c-2.2,1.1-4.6,1.9-7.1,2.4
			s-5,0.5-7.5,0.2h0.1l-8-0.2l0.1-1.9c4,0.2,8-0.7,11.6-2.4c3.7-1.8,7-4.3,9.7-7.3c2.8-3.1,5-6.5,6.7-10.3
			C7753.9,401.3,7755.1,397.3,7755.7,393.2z M7755.9,393.3c-0.3,2.1-0.7,4.1-1.3,6.1c-0.5,2-1.2,4-2,5.9c-1.6,3.9-3.7,7.5-6.4,10.8
			c-2.7,3.3-6,6.1-9.7,8.1c-3.8,2-8.1,3-12.4,2.9l0.1-1.9l8,0.1l0,0h0.1c2.3,0.2,4.6,0.2,6.9-0.3c2.3-0.4,4.5-1.2,6.5-2.2
			c4.2-2.1,7.8-5.2,10.6-8.9c2.9-3.7,5.1-7.9,6.6-12.4s2.4-9.2,2.7-13.9c0.3-4.8-0.1-9.5-1.2-14.2s-2.9-9.1-5.5-13.1
			c-2.5-4-5.9-7.5-10-10c-2-1.2-4.2-2.2-6.5-2.8c-2.3-0.6-4.6-0.9-7-0.9h-0.2l-0.2-0.1l0,0l0.4,0.1l-7.8-0.1l0.8-0.7l0,0l-0.7-0.9
			c5.3,0.4,10.4,2.4,14.5,5.8c4.1,3.3,7.3,7.5,9.6,12.3c2.2,4.7,3.7,9.7,4.3,14.8C7756.8,383,7756.7,388.2,7755.9,393.3
			L7755.9,393.3z"/>
		<path class="st0" d="M7731,367.7c0,0-16.7,21.3-21.2,33.8"/>
		<path class="st1" d="M7731.1,367.7c-1.5,3-3.2,5.9-5,8.8c-0.4,0.7-0.9,1.4-1.3,2.1l-1.3,2.1c-0.9,1.4-1.8,2.8-2.7,4.2l-5.5,8.2
			c-1.8,2.8-3.6,5.5-5.4,8.4l-0.2-0.1c1.2-3.1,2.6-6.2,4.3-9c1.6-2.9,3.4-5.8,5.2-8.6c1.8-2.8,3.8-5.5,5.7-8.2c2-2.7,4-5.4,6-8
			L7731.1,367.7z"/>
		<path class="st0" d="M7727.9,385.7c0,0-9.1,11.6-11.5,18.4"/>
		<path class="st1" d="M7728,385.7c-0.6,1.8-1.3,3.5-2.2,5.1c-0.8,1.6-1.8,3.1-2.8,4.6s-2,2.9-3.1,4.4c-1.1,1.4-2.2,2.8-3.4,4.3
			l-0.2-0.1c0.6-1.7,1.4-3.4,2.3-4.9c0.9-1.6,1.8-3.1,2.8-4.7c1-1.5,2-3,3.1-4.5s2.2-2.9,3.3-4.3L7728,385.7z"/>
		<path class="st1" d="M7704.6,485.4c0,0,10.5,12.2,8.1,15.3c0,0-10.2-7-12.5-13.3L7704.6,485.4z"/>
		<path class="st0" d="M7688.7,493.8l46.3-23.5c0,0,3.1-2.3,0.7-8c0,0-5.8-12.1-9.5-5.4c0,0-1.8,4.6-6.1,4.7l2.4-11
			c-2.9,1.4-5,4.1-5.6,7.3c0,0-0.4,6.1-4,8.1c-10.4,6-33,13.5-33,13.5"/>
		<path class="st1" d="M7688.6,493.7c1.8-1.2,3.7-2.3,5.6-3.4s3.8-2.2,5.7-3.2c3.8-2.1,7.6-4.1,11.5-6l5.8-2.8
			c2-0.9,3.9-1.8,5.9-2.7c2-0.9,4-1.8,5.9-2.7c2-0.9,3.9-1.9,5.8-3l0,0c0.3-0.3,0.5-0.6,0.7-1s0.3-0.8,0.4-1.2
			c0.1-0.9,0.1-1.7-0.1-2.6c-0.2-0.8-0.5-1.7-0.8-2.5c-0.2-0.4-0.4-0.8-0.6-1.2c-0.2-0.4-0.5-0.8-0.7-1.2c-0.9-1.6-2-2.9-3.4-4.1
			c-0.5-0.5-1.2-0.7-1.9-0.6c-0.7,0.3-1.3,0.9-1.6,1.5v-0.1c-0.3,0.7-0.7,1.3-1.2,1.9c-0.4,0.6-1,1.1-1.5,1.6
			c-0.6,0.5-1.2,0.8-1.9,1.1c-0.7,0.3-1.4,0.4-2.2,0.4h-0.6l0.1-0.6l2.4-11l0.6,0.5c-2,0.9-3.6,2.5-4.6,4.5c-0.2,0.5-0.4,1-0.6,1.5
			c-0.1,0.3-0.1,0.5-0.2,0.8c0,0.1,0,0.1,0,0.2v0.2l-0.1,0.4c-0.2,1.2-0.5,2.3-0.9,3.4s-1,2.1-1.8,3.1c-0.4,0.5-0.9,0.8-1.4,1.2
			c-0.5,0.3-1,0.6-1.5,0.8c-1,0.6-2,1-3.1,1.5c-1,0.5-2.1,1-3.1,1.4c-4.2,1.8-8.4,3.5-12.7,5.1c-4.3,1.6-8.6,3.1-12.9,4.5l-0.1-0.2
			c4.3-1.5,8.6-3.1,12.8-4.7c4.2-1.6,8.5-3.4,12.6-5.2c1-0.5,2.1-1,3.1-1.5s2-1,3-1.6c0.5-0.3,1-0.5,1.5-0.8s0.9-0.6,1.2-1
			c0.7-0.8,1.2-1.8,1.6-2.8s0.6-2.1,0.8-3.2l0.1-0.4v-0.2c0-0.1,0-0.2,0-0.2c0.1-0.3,0.1-0.6,0.2-0.9c0.2-0.6,0.4-1.1,0.6-1.7
			c1-2.2,2.8-3.9,4.9-4.9l0.8-0.3l-0.2,0.8l-2.3,11l-0.5-0.6c0.6,0,1.2-0.2,1.8-0.4c0.6-0.3,1.1-0.6,1.6-1s0.9-0.9,1.2-1.4
			c0.4-0.5,0.7-1.1,0.9-1.6l0,0l0,0c0.2-0.5,0.5-0.9,0.9-1.3c0.4-0.5,0.9-0.8,1.5-1s1.2-0.2,1.9,0c0.5,0.2,1,0.4,1.5,0.7
			c0.8,0.6,1.5,1.3,2.2,2.1c0.6,0.8,1.2,1.6,1.7,2.4c0.3,0.4,0.5,0.8,0.7,1.3c0.2,0.4,0.5,0.9,0.7,1.3c0.4,0.9,0.6,1.9,0.7,2.9
			s0,2.1-0.3,3c-0.3,1-0.9,1.9-1.7,2.6l0,0l0,0c-2,0.9-3.9,1.9-5.8,2.9s-3.8,2.1-5.7,3.2c-1.9,1.1-3.8,2.1-5.7,3.2l-5.7,3.1
			c-3.8,2-7.7,3.9-11.6,5.8c-2,0.9-3.9,1.8-5.9,2.7c-2,0.9-4,1.7-6,2.5L7688.6,493.7z"/>
		<path class="st0" d="M7712.8,500.7c0,0-12.6,11-29,10.6c-15.2-0.4-16,4.9-28.9,13c0,0-4.3,2.4-6.9,2.9
			c-21.8,1.5-50.9-24.6-66.4-55.7c-3.6-7.3-1.6-11.4,1.3-13.7c3.5-2.6,8.3-2.9,12.1-0.8c14.8,8.1,39.8,34.6,49.8,40.8
			c0,0,30.7-24,54-26.3C7698.8,471.4,7697.6,491.4,7712.8,500.7z"/>
		<path class="st1" d="M7712.9,500.7c-0.1,0.2-0.3,0.3-0.5,0.4l-0.4,0.4c-0.3,0.2-0.6,0.5-0.9,0.7c-0.6,0.5-1.2,0.9-1.8,1.3
			c-0.6,0.4-1.2,0.8-1.9,1.2s-1.3,0.8-1.9,1.2c-2.6,1.5-5.4,2.7-8.2,3.7c-2.9,1-5.8,1.7-8.8,2l-1.1,0.1l-0.6,0.1h-0.6l-2.3,0.1
			c-1.5,0-3,0-4.4,0.1c-0.7,0-1.5,0.1-2.2,0.2c-0.7,0.1-1.4,0.3-2.1,0.4c-0.7,0.1-1.4,0.4-2.1,0.6l-1,0.4l-0.5,0.2l-0.5,0.2
			c-2.6,1.3-5.1,3-7.3,4.9c-2.4,1.8-4.8,3.6-7.3,5.3l-1,0.6l-0.2,0.2l-0.1,0.1l-0.1,0.1l-0.5,0.3c-0.7,0.4-1.4,0.7-2,1
			c-1.4,0.7-2.9,1.2-4.4,1.6l0,0l0,0c-3.9,0.2-7.8-0.3-11.6-1.5c-3.7-1.1-7.3-2.7-10.6-4.6c-6.6-3.9-12.7-8.6-18.1-14.1
			c-5.4-5.4-10.4-11.2-14.9-17.4c-4.5-6.2-8.5-12.7-11.9-19.6c-0.9-1.8-1.4-3.6-1.7-5.6c-0.2-2,0.2-4.1,1.3-5.8
			c1.1-1.7,2.8-3,4.7-3.7c1.9-0.8,3.9-1,5.9-0.7c1,0.1,2,0.4,2.9,0.8c0.5,0.2,0.9,0.4,1.4,0.6l1.2,0.7c1.7,0.9,3.3,2.1,4.9,3.1
			c3.1,2.2,6.2,4.6,9.1,7c5.9,4.9,11.6,10,17.3,15.1c2.8,2.5,5.7,5.1,8.6,7.5c2.8,2.5,5.8,4.8,8.9,7l-1.2,0.1
			c4.1-3.1,8.2-6,12.5-8.7s8.7-5.3,13.2-7.7c2.3-1.2,4.5-2.3,6.9-3.3c2.3-1,4.7-2,7.1-2.9c4.8-1.8,9.8-3,14.9-3.6l0.7-0.1v0.7
			c-0.1,2.8,0.1,5.6,0.6,8.3c0.5,2.8,1.3,5.4,2.3,8c0.5,1.3,1.2,2.5,1.9,3.8c0.7,1.2,1.5,2.4,2.4,3.5c0.4,0.6,0.9,1.1,1.4,1.6
			s1,1,1.5,1.5l0.8,0.7l0.8,0.7c0.3,0.2,0.6,0.4,0.9,0.6L7712.9,500.7z M7712.7,500.7c-0.6-0.3-1.2-0.7-1.7-1.1l-0.9-0.6l-0.8-0.7
			c-0.6-0.4-1.1-0.9-1.6-1.4s-1-1-1.5-1.6c-1.9-2.2-3.4-4.6-4.6-7.2s-2.1-5.4-2.6-8.2c-0.6-2.8-0.9-5.7-0.8-8.6l0.7,0.7
			c-5,0.7-9.8,1.9-14.5,3.8c-2.3,0.9-4.7,1.9-6.9,3s-4.5,2.2-6.7,3.4c-4.4,2.4-8.7,5-13,7.7c-4.2,2.7-8.4,5.6-12.3,8.7l-0.6,0.4
			l-0.6-0.4c-3.2-2.2-6.2-4.6-9.1-7.2c-2.9-2.5-5.7-5.1-8.5-7.6c-5.6-5.1-11.3-10.3-17.1-15.2c-2.9-2.5-5.9-4.8-8.9-7.1
			c-1.6-1.1-3.1-2.2-4.7-3.1l-1.2-0.7c-0.4-0.2-0.8-0.4-1.2-0.6c-0.8-0.4-1.7-0.6-2.6-0.8c-1.8-0.3-3.6-0.1-5.3,0.5
			c-1.7,0.6-3.2,1.7-4.2,3.2s-1.4,3.3-1.3,5.1c0.2,1.8,0.7,3.7,1.5,5.3c1.6,3.4,3.4,6.8,5.4,10c1.9,3.3,4,6.4,6.3,9.5
			c4.5,6.2,9.5,11.9,15,17.1s11.6,9.7,18.2,13.4c3.3,1.8,6.8,3.2,10.4,4.3s7.3,1.5,11,1.3h-0.1c1.4-0.3,2.7-0.8,4-1.4
			c0.7-0.3,1.3-0.6,2-1l0.5-0.3l0.1-0.1c0,0,0.1,0,0.1-0.1l0.2-0.1l0.9-0.6c2.5-1.6,4.9-3.3,7.2-5.1c2.3-1.9,4.9-3.6,7.6-5
			c2.8-1.2,5.9-1.9,8.9-2c1.5-0.1,3,0,4.5,0h2.2h0.6h0.5l1.1-0.1c2.9-0.3,5.8-0.9,8.6-1.8c2.8-0.9,5.6-2,8.2-3.4
			c0.7-0.3,1.3-0.7,2-1.1s1.3-0.8,1.9-1.1s1.3-0.8,1.9-1.2c0.3-0.2,0.6-0.4,0.9-0.6l0.4-0.3C7712.4,500.9,7712.6,500.7,7712.7,500.7
			L7712.7,500.7z"/>
		<path class="st0" d="M7623.2,672.1h-29.6c0-10.3-8.3-18.6-18.6-18.6l0,0c-10.3,0-18.6,8.3-18.6,18.6l0,0h-29.6v-29.5
			c10.3,0,18.6-8.3,18.6-18.6s-8.3-18.6-18.6-18.6l0,0l0,0v-29.5h29.6c0-10.3,8.3-18.6,18.6-18.6l0,0c10.3,0,18.6,8.3,18.6,18.6l0,0
			h29.6v29.5c-10.3,0-18.6,8.3-18.6,18.6l0,0c0,10.3,8.3,18.6,18.6,18.6l0,0V672.1z"/>
		<path class="st1" d="M7623.3,672.2l-14.7,0.4l-7.5,0.2c-2.5,0.1-5,0.1-7.5,0.1h-0.8V672c-0.1-4.7-2-9.1-5.4-12.4
			c-3.3-3.2-7.8-5-12.4-5c-9.5,0.1-17.2,7.8-17.2,17.4v1.4h-1.4c-4.9,0-9.8,0-14.8,0c-4.9,0-9.9-0.1-14.8-0.1h-1.3V672l0.1-7.4
			l0.1-7.4l0.2-14.8v-0.9h0.9c9.9,0.1,18-7.8,18.1-17.7s-7.8-18-17.7-18.1c-0.1,0-0.3,0-0.4,0h-0.5v-0.5c0-4.9-0.1-9.8-0.1-14.8
			l-0.2-14.8v-0.9h0.9l14.8-0.2c4.9-0.1,9.9-0.1,14.8-0.2l-1.3,1.3c-0.1-11,8.7-20,19.7-20.1h0.1c11.1,0,20.2,8.9,20.3,20.1
			l-1.7-1.6c4.9,0,9.9,0,14.8,0h16.5v1.7l-0.1,14.8c0,4.9,0,9.8-0.1,14.8v1.5h-1.5c-9.5-0.1-17.3,7.6-17.4,17.1
			c-0.1,9.7,7.7,17.6,17.4,17.8h0.8v0.8c0,2.5-0.1,5-0.1,7.5l-0.2,7.4L7623.3,672.2z M7623.1,672l-0.4-14.8l-0.2-7.3
			c-0.1-2.4-0.1-4.8-0.1-7.3l0.8,0.8c-10.8,0.1-19.7-8.5-19.9-19.3V624c-0.1-8.1,4.7-15.4,12.2-18.5c2.4-1,5-1.6,7.7-1.6l-1.5,1.5
			c-0.1-4.9-0.1-9.8-0.1-14.8l-0.1-14.8l1.7,1.7h-14.8c-4.9,0-9.8,0-14.8,0h-1.7v-1.6c0-9.4-7.5-17.1-17-17.1l0,0
			c-2.3,0-4.5,0.4-6.6,1.3c-2.1,0.9-4,2.1-5.6,3.7c-3.3,3.2-5.1,7.6-5.2,12.2v1.3h-1.3c-4.9,0-9.9-0.1-14.8-0.2l-14.8-0.2l0.9-0.9
			l-0.2,14.8c-0.1,4.9-0.1,9.8-0.1,14.8l-0.5-0.5c2.5,0,5,0.5,7.3,1.5s4.4,2.4,6.2,4.1c1.8,1.8,3.2,3.9,4.1,6.2
			c1,2.3,1.5,4.8,1.5,7.3c0,10.6-8.5,19.3-19.1,19.5l0.9-0.9l0.2,14.8l0.1,7.4l0.1,7.4l-1.3-1.3c4.9,0,9.9-0.1,14.8-0.1
			s9.8,0,14.8,0l-1.4,1.4c0-11,8.9-19.8,19.9-19.8h0.1c10.8,0,19.5,8.8,19.5,19.6c0,0.1,0,0.1,0,0.2l-0.8-0.8c2.4,0,4.8,0.1,7.3,0.1
			l7.3,0.2L7623.1,672z"/>
		<path class="st0" d="M7759.7,654.9l-9-26.3c9.2-3.1,14-13.1,10.9-22.2l0,0c-3.1-9.1-13.1-14-22.2-10.9l-9-26.3l-26.3,9
			c3.1,9.2-1.8,19.1-11,22.2c-9.1,3.1-19-1.8-22.1-10.9l-26.3,9l9,26.3c-9.2,3.1-14,13.1-10.9,22.2l0,0l0,0
			c3.1,9.1,13.1,14,22.2,10.9l9,26.3L7759.7,654.9z"/>
		<path class="st1" d="M7759.6,654.8l-4.9-13.1c-1.6-4.3-3.2-8.6-4.8-12.8l-0.3-0.8l0.9-0.3c2-0.7,3.9-1.9,5.5-3.3
			c1.6-1.5,2.9-3.2,3.8-5.1c0.9-1.9,1.4-4,1.6-6.2c0.3-6.5-3.3-12.6-9.1-15.5c-1.9-0.9-4-1.5-6.1-1.6s-4.2,0.2-6.2,0.8l-1.3,0.5
			l-0.5-1.3l-2.2-6.6l-2.2-6.6c-1.5-4.4-2.9-8.8-4.3-13.2l1.4,0.7l-13.2,4.2l-6.6,2.1l-6.6,2.1l0.4-0.8c3.1,9.6-2.1,19.8-11.7,22.9
			c-9.4,3-19.5-1.9-22.8-11.2l1,0.5l-13.1,4.7l-6.5,2.4l-6.6,2.3l0.8-1.6l4.6,13.1l4.6,13.1l0.5,1.4l-1.4,0.5
			c-8.3,2.9-12.7,12-9.8,20.3c2.9,8.2,11.8,12.6,20.1,9.8l1.6-0.5l0.5,1.6l4.4,13.2l4.3,13.2l-1.8-0.9l21.3-7l21.4-6.9L7759.6,654.8
			z M7759.8,655l-42.4,15.2l-21.5,7.7l-21.6,7.6l-1.3,0.5l-0.5-1.3l-4.6-13.1l-4.6-13.1l2.1,1c-2.4,0.8-4.9,1.2-7.4,1
			s-5-0.8-7.2-1.9c-9.5-4.6-13.4-16.1-8.7-25.5c2.2-4.6,6.2-8.1,11.1-9.7l-0.9,1.9l-4.4-13.2l-4.3-13.2l-0.4-1.2l1.2-0.4l6.6-2.2
			l6.6-2.1l13.2-4.3l0.8-0.3l0.2,0.8c2.8,8.8,12.3,13.6,21.1,10.8c0.1,0,0.2-0.1,0.2-0.1c2.1-0.7,4.1-1.8,5.8-3.3
			c1.7-1.5,3-3.3,4-5.3s1.5-4.2,1.7-6.4c0.1-2.2-0.2-4.4-1-6.5l-0.2-0.6l0.6-0.2l6.5-2.4l6.5-2.4l13.1-4.7l1-0.4l0.4,1.1
			c1.6,4.4,3.2,8.7,4.7,13.1l2.3,6.5l2.3,6.6l-1.8-0.9c9.8-3.4,20.4,1.8,23.8,11.6c1.6,4.8,1.3,10-1,14.5c-2.2,4.4-6.1,7.7-10.8,9.2
			l0.6-1.1c1.4,4.5,2.9,9,4.2,13.5L7759.8,655z"/>
		<path class="st1" d="M7524.1,670.6c0,0-1.3-3-0.2-8.4l4.7,1.2L7524.1,670.6z"/>
		<path class="st0" d="M7523.6,582.9c1.2-4.5,2.5-8.8,6.6-12.7c6.1-5.8,20.8-1.1,22.5,3.4c0.4,0.9-12.5-0.1-13.3,0.6
			c-1.8,1.6-2.2,3.3-2.1,5.6c0.1,0.6,0.6,0.5,1.4-0.6c0.9-1.3,5-5.5,6.3-4.5c1.8,1.4-2.6,7.6-4.3,9.7c-1.3,1.6-8.5,6-9.5,6.8
			l-20.8,40.9c16.1,7.8,41.2,20.2,41.2,20.2l-15.8,17.9l-42.1-19.6c-8.5-4.9-12.3-16.5-6.8-24.6L7523.6,582.9z"/>
		<path class="st1" d="M7523.6,582.9c0.5-2.4,1.2-4.8,2.2-7.1c1.1-2.3,2.5-4.3,4.4-6.1c1-0.9,2.1-1.5,3.3-1.9
			c1.2-0.4,2.5-0.7,3.7-0.7c2.5-0.2,5.1,0.1,7.5,0.8c1.2,0.3,2.4,0.7,3.6,1.3c1.2,0.5,2.3,1.2,3.3,2c0.5,0.4,1,0.9,1.4,1.5
			c0.1,0.2,0.2,0.3,0.3,0.5l0.1,0.1v0.1c0.1,0.1,0.1,0.3,0,0.5c0,0.1,0,0.2-0.1,0.2l-0.1,0.1c-0.1,0.1-0.1,0.1-0.2,0.2
			c-0.1,0-0.2,0.1-0.2,0.1c-0.4,0.1-0.7,0.2-1.1,0.2c-1.3,0.1-2.5,0.1-3.8,0.1c-2.5,0-5-0.1-7.3,0c-0.3,0-0.5,0-0.8,0.1
			c0,0-0.1,0,0.1-0.1l-0.1,0.1c-0.1,0.1-0.2,0.2-0.3,0.3c-0.4,0.4-0.7,0.8-0.9,1.3c-0.4,1-0.6,2.1-0.5,3.2v-0.1c0,0,0,0.1,0,0
			s-0.1-0.1-0.1-0.2c-0.1-0.1-0.2-0.1-0.3-0.1c-0.2,0-0.2,0-0.2,0s0,0,0.1-0.1c0.2-0.2,0.4-0.4,0.5-0.7c0.4-0.6,0.9-1.1,1.4-1.7
			c1-1.1,2.1-2,3.3-2.8c0.4-0.2,0.8-0.4,1.2-0.5c0.3-0.1,0.6-0.1,0.9,0c0.4,0.1,0.7,0.2,0.9,0.5c0.4,0.4,0.5,1,0.5,1.6
			c0,0.4-0.1,0.8-0.2,1.2c-0.5,1.4-1.1,2.7-1.9,3.9c-0.7,1.2-1.5,2.4-2.4,3.5c-0.2,0.3-0.5,0.6-0.7,0.9c-0.3,0.3-0.6,0.5-0.8,0.7
			c-0.6,0.4-1.1,0.9-1.7,1.3c-1.1,0.8-2.3,1.6-3.5,2.3l-1.7,1.1c-0.6,0.4-1.2,0.8-1.7,1.1l0.2-0.2l-10.6,20.3l-5.3,10.2l-5.2,10.2
			l-0.1-0.4l10.3,5c3.4,1.7,6.9,3.3,10.3,5l20.7,9.8l0.8,0.4l-0.6,0.7l-15.7,18l-0.4,0.5l-0.6-0.3l-21.1-9.7l-10.5-4.9l-10.5-4.9
			l0,0l0,0c-4.4-2.6-7.6-6.7-9-11.6c-0.7-2.4-0.9-4.9-0.6-7.4s1.2-4.9,2.7-7l0,0l0,0l9.2-10.6c3.1-3.5,6.2-7,9.3-10.6l9.3-10.6
			L7523.6,582.9z M7523.7,583l-8.9,10.8l-9,10.8c-3,3.6-6,7.2-9.1,10.8l-9.1,10.8l0.1-0.1c-1.2,1.9-2,4-2.3,6.2
			c-0.2,2.2,0,4.5,0.6,6.7c1.3,4.4,4.3,8.1,8.2,10.3h-0.1l10.5,4.9l10.5,4.9l21,9.9l-1,0.2l16-17.8l0.2,1.1l-20.5-10.3
			c-3.4-1.7-6.8-3.4-10.3-5.1l-10.3-5.1l-0.3-0.1l0.1-0.3l5.2-10.2l5.1-10.3l10.1-20.6l0.1-0.1l0.1-0.1c0.6-0.5,1.2-0.8,1.7-1.2
			l1.7-1.2c1.1-0.8,2.3-1.5,3.4-2.3c0.5-0.4,1.1-0.8,1.6-1.2c0.3-0.2,0.5-0.4,0.7-0.6c0.2-0.2,0.4-0.5,0.6-0.7
			c0.8-1.1,1.6-2.2,2.3-3.3c0.7-1.1,1.3-2.3,1.7-3.5c0.1-0.3,0.1-0.5,0.1-0.8c0-0.1,0-0.3-0.1-0.4c0,0,0.1,0,0,0s-0.1,0-0.2,0
			c-0.3,0.1-0.5,0.2-0.7,0.3c-1.1,0.7-2.1,1.5-3,2.5c-0.5,0.5-0.9,0.9-1.3,1.4c-0.2,0.3-0.5,0.6-0.8,0.9c-0.1,0.1-0.2,0.2-0.3,0.2
			c-0.2,0.1-0.4,0.2-0.7,0.2c-0.2,0-0.4-0.1-0.6-0.2c-0.1-0.1-0.2-0.2-0.3-0.3c-0.1-0.2-0.2-0.3-0.2-0.5l0,0v-0.1
			c-0.1-1.4,0.1-2.7,0.6-4c0.3-0.6,0.7-1.2,1.2-1.7c0.1-0.1,0.2-0.2,0.4-0.4l0.2-0.2c0.1-0.1,0.3-0.2,0.5-0.2
			c0.4-0.1,0.7-0.1,1.1-0.1c2.6-0.1,5,0,7.5,0.1c1.2,0,2.5,0,3.6,0c0.2,0,0.5,0,0.7-0.1l0,0l-0.1,0.1c0,0,0,0.1-0.1,0.1
			c0,0.1-0.1,0.1-0.1,0.2c0,0.1,0,0.2,0,0.4l0,0v-0.1c-0.1-0.1-0.1-0.2-0.2-0.3c-0.3-0.5-0.7-0.9-1.1-1.2c-1.9-1.5-4-2.5-6.3-3.2
			s-4.7-1-7.1-0.9c-2.4,0-4.7,0.8-6.6,2.3c-1.8,1.6-3.3,3.5-4.4,5.7C7525.2,578.3,7524.3,580.6,7523.7,583L7523.7,583z"/>
		<path class="st0" d="M7547.4,679.6c-7.5-2.8-9.7-1.4-14.2-2.1c-5.3-0.9-7.1-3.4-8.3-7.1c0,0,8.5-15,9.1-27.3c0,0,5.4,2.3,12.5,5.4
			c4.2,1.8,33.9,7.8,34.9,21.9c0.5,4.6-2.1,8.9-6.3,10.8c-2.9,1.3-6.1,1.6-9.2,0.8C7558.4,679.8,7555.3,682.5,7547.4,679.6z"/>
		<path class="st1" d="M7547.3,679.7c-2-0.8-4.1-1.3-6.3-1.6c-2.2-0.3-4.3,0-6.5-0.1c-1.1-0.1-2.2-0.2-3.3-0.4
			c-1.1-0.2-2.2-0.7-3.2-1.3s-1.9-1.5-2.5-2.5s-1.1-2-1.5-3.1l-0.1-0.3l0.2-0.3c0.6-1,1.1-2.1,1.6-3.2l1.6-3.2c1-2.2,2-4.3,2.9-6.6
			c0.9-2.2,1.7-4.5,2.3-6.8c0.6-2.3,1-4.7,1.1-7.1v-0.4l0.4,0.2c3.8,1.6,7.5,3.2,11.3,4.8c0.5,0.2,1,0.4,1.4,0.6
			c0.4,0.2,0.9,0.3,1.4,0.4c1,0.3,2,0.5,3,0.8c2,0.5,4,1.1,5.9,1.7c2,0.6,3.9,1.3,5.9,2c1.9,0.7,3.8,1.5,5.7,2.5
			c1.9,0.9,3.7,1.9,5.5,3.1c1.8,1.2,3.4,2.6,4.8,4.2c1.5,1.7,2.5,3.7,3,5.8c0.1,0.5,0.2,1.1,0.2,1.6c0.1,0.6,0.1,1.1,0,1.7
			c-0.1,1.1-0.3,2.2-0.6,3.3c-0.4,1.1-0.9,2-1.6,2.9s-1.5,1.7-2.4,2.3s-1.9,1.1-2.9,1.5s-2,0.7-3.1,0.8c-2.1,0.3-4.3,0.2-6.3-0.5
			c-1.9-0.6-3.9-0.9-6-1c-2-0.1-4.1,0.1-6.2-0.2C7551.3,680.9,7549.3,680.4,7547.3,679.7z M7547.4,679.5c1.9,0.7,3.9,1.2,5.9,1.3
			c2,0.2,4.1,0,6.1,0c2.1,0,4.2,0.2,6.2,0.7c1.9,0.5,3.9,0.6,5.9,0.2c1-0.2,1.9-0.5,2.8-0.9s1.7-0.9,2.4-1.5
			c1.5-1.2,2.5-2.8,3.1-4.6c0.3-0.9,0.4-1.8,0.5-2.8c0-0.5,0-0.9,0-1.4s-0.1-0.9-0.2-1.4c-0.5-1.8-1.4-3.5-2.6-4.9
			c-2.7-2.9-6-5.3-9.5-7c-1.8-0.9-3.6-1.7-5.5-2.5s-3.8-1.5-5.7-2.2c-1.9-0.7-3.9-1.3-5.8-2l-2.9-1c-0.5-0.2-1-0.3-1.5-0.5l-1.4-0.6
			c-3.7-1.7-7.5-3.4-11.2-5l0.4-0.3c-0.1,1.2-0.2,2.4-0.4,3.6c-0.2,1.2-0.4,2.4-0.7,3.6c-0.3,1.2-0.5,2.4-0.9,3.6
			c-0.3,1.2-0.7,2.3-1,3.5c-0.8,2.3-1.6,4.6-2.5,6.9c-0.5,1.1-1,2.2-1.5,3.3s-1.1,2.2-1.7,3.2l0.1-0.7c0.3,1,0.7,1.9,1.2,2.8
			c0.5,0.9,1.2,1.6,1.9,2.2c1.7,1.2,3.8,1.9,5.8,2.1c1.1,0.1,2.1,0.2,3.2,0.2s2.2,0.1,3.3,0.3
			C7543.2,678.1,7545.4,678.7,7547.4,679.5L7547.4,679.5z"/>
		<path class="st0" d="M7603.2,612.4c0,0,5.4,12.4,4.6,22.5c0,0-0.5,8.7-9.2,5.6l-2.6-2.1l-2.8,16L7569,658l11.2-20.4
			c0,0,4.5-4.5,3.4-9c0,0-5.1-4.6-3.9-10.7c0,0,1.5-9,12.8-10.3C7592.6,607.6,7600.5,606.9,7603.2,612.4z"/>
		<path class="st1" d="M7603.3,612.3c0.6,1.4,1.1,2.8,1.6,4.2s1,2.9,1.4,4.3c0.9,2.9,1.6,5.9,2,8.9l0.1,1.1c0,0.4,0.1,0.8,0.1,1.1
			c0.1,0.8,0.1,1.5,0.1,2.3v0.6c0,0.2,0,0.4-0.1,0.6c-0.1,0.4-0.1,0.8-0.2,1.2c-0.2,0.8-0.5,1.6-0.9,2.3c-0.9,1.5-2.4,2.6-4.2,2.9
			c-1.6,0.2-3.3,0-4.8-0.6h-0.1l-0.1-0.1l-2.5-2.2l1.3-0.5l-1.6,7.9c-0.5,2.6-1.1,5.3-1.6,7.9v0.2h-0.2c-2,0.3-4,0.6-6.1,0.9
			c-2,0.3-4,0.6-6.1,1c-4,0.7-8,1.4-12.1,2.1l-1.2,0.2l0.6-1.1l2.7-5.2l2.7-5.2l5.5-10.3l0.1-0.1l0.1-0.1c0.5-0.6,1-1.2,1.4-1.8
			s0.8-1.3,1.1-2c0.3-0.7,0.5-1.4,0.6-2.1c0.1-0.7,0.1-1.4-0.1-2.1l0.3,0.5c-0.7-0.7-1.3-1.4-1.8-2.1c-0.5-0.8-1-1.6-1.4-2.4
			c-0.8-1.7-1.2-3.6-1.1-5.5c0-0.5,0.1-0.9,0.2-1.4s0.2-0.9,0.4-1.4c0.3-0.9,0.7-1.7,1.2-2.5c1-1.6,2.3-2.9,3.8-4
			c1.5-1,3.2-1.7,4.9-2.2l1.3-0.3l1.3-0.2l0.7-0.1c0.2,0,0.5,0,0.7,0c0.4,0,0.9,0,1.3,0.1c1.8,0.1,3.5,0.6,5.1,1.4
			C7601.2,609.5,7602.5,610.8,7603.3,612.3z M7603.2,612.4c-0.8-1.5-2.1-2.7-3.7-3.5c-1.6-0.7-3.3-1-5-1.1c-0.4,0-0.9,0-1.3,0
			c-0.2,0-0.4,0-0.6,0.1l-0.6,0.1l-1.2,0.3l-1.2,0.4c-1.6,0.5-3.1,1.3-4.4,2.3s-2.3,2.3-3.1,3.7c-0.4,0.7-0.7,1.4-1,2.2
			c-0.1,0.4-0.2,0.7-0.3,1.1c-0.1,0.4-0.1,0.8-0.1,1.2c-0.2,3.1,1.6,6.2,3.8,8.5l0.3,0.3l0.1,0.3c0.2,0.9,0.2,1.9,0.1,2.9
			c-0.2,0.9-0.4,1.8-0.8,2.6s-0.8,1.6-1.3,2.3s-1.1,1.4-1.7,2.1l0.2-0.2l-5.7,10.1l-2.9,5.1l-2.9,5l-0.6-0.9c4.1-0.5,8.1-1,12.2-1.6
			c2-0.3,4-0.6,6.1-0.9c2-0.3,4-0.6,6-1l-0.3,0.3c0.4-2.7,0.8-5.3,1.2-8l1.2-8l0.2-1.3l1.1,0.9l2.6,2.1l-0.3-0.1
			c1.3,0.5,2.7,0.6,4,0.5c1.3-0.2,2.4-0.9,3-2c0.4-0.6,0.6-1.2,0.8-1.8c0.1-0.3,0.2-0.7,0.2-1c0-0.2,0.1-0.3,0.1-0.5v-0.5
			c0.1-0.7,0.1-1.5,0.1-2.2c0-0.4,0-0.7,0-1.1l-0.1-1.1c-0.2-3-0.6-5.9-1.3-8.9c-0.3-1.5-0.8-2.9-1.2-4.3
			C7604.2,615.2,7603.7,613.8,7603.2,612.4L7603.2,612.4z"/>
		<path class="st1" d="M7574.6,609.3c0,0-6.5,6.7,1.1,16.3c1.1,1.5,1.8,3.2,2.1,5l0.7,9.2c2.2-1.2,4.2-2.5,6.2-4
			c0,0,5.5-4.5,3.1-7.3c-4.1-4.7-2.3-6.4-2.3-6.4c1.8-2,5.1-0.2,5.1-0.2s2.9,0.5,2.9-2c0,0-0.3-3,1.7-3.3c0,0,7.8-0.6,9.9-4.4
			c1.3-3.5,1.6-7.3,1.1-11.1c0,0-10.7,2.9-15.4,2.6C7590.7,603.8,7580.4,601.7,7574.6,609.3z"/>
		<path class="st1" d="M7592.9,621.5c0,0,6,18.1,14.7,7.1c0,0,3.4,8.4-3,12.2c-3.1,1.4-6.7,0.4-8.6-2.4l-2.3-6.7l-4.7-13.8"/>
		<path class="st0" d="M7526.3,752.7c0,0,9.7-76.8,42.3-99.6c0,0,9.4-8.2,28.5,2.1c0,0,13.6,9,9.4,36.7c0,0-7.6,43-6.4,65.1h-74.5
			L7526.3,752.7z"/>
		<path class="st1" d="M7526.2,752.7c0.6-4.6,1.4-9.1,2.2-13.7c0.8-4.5,1.7-9.1,2.7-13.6c1.9-9,4.4-18,7.3-26.7
			c0.8-2.2,1.6-4.4,2.4-6.5c0.8-2.2,1.7-4.3,2.7-6.4c1.9-4.3,4-8.4,6.3-12.4s5-7.9,8-11.5s6.4-6.8,10.3-9.6l-0.1,0.1
			c0.5-0.4,1.1-0.8,1.8-1.1c0.6-0.3,1.2-0.6,1.8-0.8c1.2-0.5,2.5-0.8,3.8-1c2.6-0.4,5.2-0.4,7.7,0s5,1.1,7.4,2s4.7,2,6.9,3.2l0,0
			l0,0c0.9,0.7,1.8,1.5,2.5,2.4c0.7,0.8,1.4,1.7,2,2.7c1.2,1.9,2.2,3.9,3,6c1.5,4.2,2.4,8.6,2.5,13c0.2,4.4-0.1,8.8-0.8,13.2
			c-0.7,4.3-1.5,8.6-2.1,13c-1.3,8.7-2.3,17.4-3,26.1c-0.4,4.4-0.7,8.7-0.8,13.1c-0.2,4.4-0.2,8.7,0,13.1v0.8h-0.9
			c-3.1,0-6.2,0-9.3,0s-6.2,0-9.3,0c-3.1,0-6.2,0-9.3-0.1l-9.3-0.1l-18.6-0.3c-3.1-0.1-6.2-0.1-9.3-0.1c-3.1,0-6.2-0.1-9.3-0.1h-0.1
			v-0.1L7526.2,752.7z M7526.4,752.7l-0.7,4.3l-0.1-0.1c3.1,0,6.2,0,9.3-0.1c3.1,0,6.2-0.1,9.3-0.1l18.6-0.3l9.3-0.1
			c3.1,0,6.2-0.1,9.3-0.1c3.1,0,6.2,0,9.3,0c3.1,0,6.2,0,9.3,0l-0.8,0.9c-0.2-4.4-0.1-8.8,0.2-13.2c0.3-4.4,0.7-8.8,1.1-13.1
			c1-8.7,2.2-17.4,3.5-26.1c0.7-4.3,1.3-8.7,2-13s0.9-8.7,0.6-13c-0.2-4.3-1.2-8.6-2.8-12.6c-0.8-2-1.8-3.9-3-5.7
			c-0.6-0.9-1.3-1.7-2-2.5s-1.5-1.5-2.3-2.1h0.1c-2.2-1.2-4.4-2.2-6.8-3c-2.3-0.8-4.7-1.4-7.1-1.7s-4.8-0.3-7.2,0.1
			c-1.2,0.2-2.3,0.5-3.4,0.9c-0.5,0.2-1.1,0.5-1.6,0.7c-0.5,0.3-1,0.6-1.4,0.9l0,0l0,0c-3.7,2.7-7,5.8-9.8,9.3
			c-2.9,3.5-5.5,7.3-7.7,11.2c-4.5,8-8.4,16.3-11.5,24.9c-3.2,8.6-5.9,17.4-8.2,26.3C7529.5,734.5,7527.7,743.6,7526.4,752.7
			L7526.4,752.7z"/>
		<path class="st1" d="M7613.1,721.1c0,0,1.6,0.6,4.6-4.8l-4.2-3.8L7613.1,721.1z"/>
		<path class="st1" d="M7630.7,694.9c0,0,0.7,2.5-2.1,6.7l-3.3-3.6L7630.7,694.9z"/>
		<path class="st0" d="M7604.2,714.5c0,0,31,10.8,36,9.5c6.5-1.7,47.5-37.1,54.9-39c6.9-1.2,13.3-2.9,16.9-5.8
			c0.7-0.6,3.1-6.3,3.1-6.3s3.6-3,2.8-4.3c-0.9-1.4-5.1,2.6-7.2,3.2c-2,0.6-4.1,1-6.2,1.4c-0.5-0.1-0.4-0.5,0.6-1.1
			c1.1-0.7,5.9-2.6,5.1-4.2c-0.8-1.6-7.6,1.1-9.2,2.4c-1.3,1-6.3,5.1-7,5.8l-54.3,28.8l-19.8-10.5"/>
		<path class="st1" d="M7604.3,714.4c4.2,1.3,8.4,2.6,12.6,3.8s8.4,2.4,12.6,3.4c2.1,0.5,4.2,1,6.4,1.3c1,0.2,2.1,0.3,3.1,0.3
			c0.2,0,0.5,0,0.7,0s0.4-0.1,0.6-0.1c0.5-0.2,0.9-0.4,1.4-0.7c1.9-1.1,3.6-2.3,5.4-3.6s3.5-2.6,5.2-3.9c3.5-2.6,6.9-5.3,10.4-8
			s6.9-5.4,10.4-8s7-5.3,10.5-7.8c1.8-1.3,3.6-2.5,5.4-3.7c0.9-0.6,1.9-1.2,2.8-1.7c0.5-0.3,1-0.6,1.5-0.8c0.5-0.3,1.1-0.5,1.7-0.7
			l0,0l0,0c2.1-0.3,4.1-0.7,6.1-1.2s4-1.1,5.9-1.8c1-0.4,1.9-0.8,2.8-1.3c0.5-0.2,0.9-0.5,1.3-0.8l0.6-0.4c0,0,0.1-0.1,0.1-0.2
			c0.1-0.1,0.1-0.2,0.2-0.3c1-1.8,1.9-3.7,2.7-5.6l0.1-0.1l0.1-0.1c0.6-0.5,1.2-1.1,1.7-1.7c0.3-0.3,0.5-0.6,0.7-0.9
			c0.2-0.3,0.3-0.6,0.3-0.9c0-0.2-0.1-0.3-0.4-0.2c-0.4,0.1-0.7,0.2-1,0.4c-0.7,0.4-1.4,0.8-2.1,1.3c-0.7,0.4-1.4,0.9-2.2,1.3
			c-0.4,0.2-0.8,0.4-1.2,0.5c-0.4,0.1-0.8,0.2-1.2,0.3c-1.6,0.4-3.3,0.7-4.9,1h-0.1h-0.1c-0.1,0-0.2-0.1-0.3-0.1
			c-0.2-0.1-0.2-0.3-0.2-0.5s0.1-0.4,0.3-0.6c0.2-0.2,0.5-0.4,0.7-0.6c0.5-0.3,1-0.6,1.6-0.8c1-0.5,2-1.1,2.9-1.8
			c0.4-0.4,0.7-0.8,0.5-1.2c-0.1-0.3-0.8-0.4-1.3-0.3c-1.1,0.1-2.2,0.4-3.3,0.8c-1.1,0.4-2.1,0.9-3.1,1.4c-0.2,0.1-0.5,0.3-0.7,0.4
			c-0.2,0.2-0.5,0.3-0.7,0.5l-1.3,1.1l-2.6,2.2l-1.3,1.1c-0.4,0.4-0.9,0.8-1.2,1.1l-0.1,0.1h-0.1l-13.5,7.4l-6.8,3.7l-6.8,3.6
			l-13.6,7.1l-6.8,3.5l-6.8,3.5l-0.3,0.1l-0.3-0.1c-3.3-1.8-6.5-3.6-9.8-5.4c-3.2-1.8-6.5-3.7-9.7-5.5l0.1-0.2c3.4,1.6,6.7,3.3,10,5
			s6.6,3.4,10,5.1h-0.5l6.7-3.7l6.8-3.7l13.5-7.3l6.8-3.6l6.8-3.5l13.7-7l-0.1,0.1c0.4-0.4,0.9-0.8,1.4-1.2l1.4-1.1l2.7-2.2l1.4-1.1
			c0.2-0.2,0.5-0.4,0.7-0.5c0.3-0.2,0.5-0.3,0.8-0.4c1-0.5,2.1-1,3.2-1.4s2.3-0.7,3.5-0.8c0.3,0,0.6,0,0.9,0
			c0.4,0.1,0.7,0.3,0.9,0.6c0.2,0.3,0.2,0.8,0,1.1s-0.4,0.5-0.6,0.8c-0.9,0.8-1.9,1.4-3,1.9c-0.5,0.3-1,0.5-1.5,0.8
			c-0.2,0.1-0.4,0.3-0.6,0.5c0,0.1-0.1,0.1-0.1,0.2v-0.1h0.1h-0.1c1.6-0.3,3.3-0.6,4.9-1c0.4-0.1,0.8-0.2,1.2-0.3
			c0.4-0.1,0.7-0.3,1.1-0.5c0.7-0.4,1.4-0.9,2.1-1.3c0.7-0.5,1.4-0.9,2.1-1.4c0.4-0.2,0.8-0.4,1.3-0.5c0.3-0.1,0.6,0,0.9,0.2
			s0.5,0.5,0.5,0.8c0,0.5-0.1,1-0.4,1.4c-0.2,0.4-0.5,0.7-0.8,1.1c-0.6,0.7-1.2,1.3-1.8,1.8l0.1-0.2c-0.8,2-1.6,3.9-2.6,5.8
			c-0.1,0.1-0.1,0.2-0.2,0.4s-0.2,0.3-0.4,0.4l-0.7,0.5c-0.4,0.3-0.9,0.6-1.4,0.9c-0.9,0.5-1.9,1-2.9,1.4c-2,0.8-4,1.5-6.1,2
			s-4.1,1-6.2,1.4h0.1c-0.5,0.1-0.9,0.3-1.4,0.6c-0.5,0.2-0.9,0.5-1.4,0.8c-0.9,0.5-1.8,1.1-2.7,1.7c-1.8,1.2-3.6,2.5-5.3,3.8
			c-3.5,2.6-7,5.2-10.4,7.9c-6.9,5.4-13.8,10.8-20.8,16c-1.8,1.3-3.5,2.6-5.3,3.8c-1.8,1.3-3.7,2.5-5.6,3.6
			c-0.5,0.3-1.1,0.5-1.6,0.7c-0.3,0.1-0.7,0.2-1,0.2s-0.6,0-0.9,0c-1.1-0.1-2.3-0.2-3.4-0.4c-2.2-0.4-4.3-0.9-6.4-1.5
			c-8.5-2.4-16.7-5.2-24.9-8.3L7604.3,714.4z"/>
		<path class="st0" d="M7581.9,698.9c1,7.4,8.2,7.6,13.1,10.9c6,4,2.6,7.2,7.2,10.4c4.3,2.9,7.8,2,10.9,0.3c0,0-0.2-18.1,16.1-24.1
			c4.3-1.6-3.8-7.1-5.6-8.3c-2.5-1.6-4.6-2.3-6.5-3.4c-7.1-4.3-13.9-9.1-20.5-14.3c0,0-10.1-10.5-17.4-6c-5.1,2.7-8,8.3-7.3,14.1
			c0.5,3.9,2.3,7.5,5,10.3C7578.7,690.4,7580.8,693.6,7581.9,698.9z"/>
		<path class="st1" d="M7582,698.9c0.2,1.8,1,3.4,2.2,4.7c1.3,1.2,2.8,2.2,4.4,2.8c1.6,0.7,3.3,1.3,4.9,2c1.7,0.8,3.2,1.8,4.5,3.2
			c0.6,0.7,1.1,1.6,1.5,2.5c0.3,0.9,0.6,1.8,0.9,2.5s0.7,1.4,1.2,2l0.4,0.4l0.5,0.4c0.3,0.2,0.7,0.5,1,0.7c1.4,0.8,3,1.3,4.6,1.2
			c1.7-0.1,3.3-0.7,4.7-1.5l-0.4,0.7c0-1.6,0.2-3.2,0.6-4.8c0.3-1.6,0.8-3.1,1.3-4.6c1.1-3,2.8-5.8,4.9-8.2s4.6-4.3,7.5-5.7l1.1-0.5
			l1.1-0.4c0.3-0.1,0.7-0.3,1-0.5s0.4-0.5,0.4-0.8c-0.1-0.7-0.4-1.4-0.9-1.9c-0.5-0.6-1-1.1-1.6-1.6c-1.2-1-2.4-1.9-3.7-2.7
			c-1.3-0.8-2.7-1.5-4.1-2.1c-0.7-0.3-1.4-0.6-2.2-1c-0.7-0.4-1.4-0.8-2.1-1.2c-1.4-0.8-2.7-1.6-4-2.4c-5.3-3.3-10.5-7-15.4-10.8
			l0,0l-0.1-0.1c-1.1-1.1-2.4-2.1-3.6-3.1c-1.3-0.9-2.6-1.8-4.1-2.4c-1.4-0.7-2.8-1.1-4.4-1.2c-1.4-0.1-2.9,0.2-4.1,0.9l0,0h-0.1
			c-0.7,0.4-1.3,0.8-1.9,1.2c-0.6,0.5-1.2,1-1.7,1.6c-1.1,1.1-1.9,2.5-2.5,3.9c-1.2,3-1.3,6.2-0.4,9.3c0.4,1.6,1.1,3,2,4.4
			c0.4,0.7,0.9,1.4,1.4,2s1.1,1.3,1.6,1.9c1,1.4,1.8,2.8,2.4,4.4C7581.2,695.6,7581.7,697.2,7582,698.9z M7581.8,698.9
			c-0.3-1.6-0.8-3.2-1.5-4.7c-0.6-1.5-1.5-2.9-2.5-4.2c-0.5-0.6-1.1-1.2-1.7-1.8s-1.1-1.3-1.6-2c-1-1.4-1.8-2.9-2.4-4.5
			c-0.3-0.8-0.5-1.6-0.7-2.5l-0.1-0.6l-0.1-0.6c0-0.4-0.1-0.9-0.1-1.3c0-1.8,0.2-3.5,0.8-5.2c0.6-1.7,1.5-3.2,2.7-4.5
			c0.6-0.7,1.2-1.3,1.9-1.8c0.7-0.6,1.5-1.1,2.3-1.5l-0.1,0.1c1.6-1,3.5-1.4,5.3-1.3c1.8,0.2,3.5,0.7,5.1,1.4c1.5,0.7,3,1.6,4.4,2.7
			c1.4,1,2.6,2.1,3.8,3.3l-0.1-0.1c4.9,3.9,9.9,7.6,15,11.1l3.9,2.6c0.7,0.4,1.3,0.9,2,1.2c0.7,0.4,1.4,0.7,2.1,1.1
			c1.4,0.7,2.8,1.5,4.1,2.4c1.3,0.9,2.5,1.9,3.7,2.9c0.6,0.5,1.2,1.1,1.7,1.7c0.3,0.3,0.5,0.7,0.7,1c0.2,0.4,0.3,0.8,0.4,1.3
			c0,0.5-0.2,0.9-0.6,1.2c-0.3,0.2-0.7,0.4-1.1,0.6l-1.1,0.4l-1.1,0.5c-1.4,0.7-2.7,1.5-3.9,2.5c-1.2,1-2.3,2.1-3.3,3.3
			c-3.7,4.9-5.7,10.9-5.7,17.1v0.5l-0.4,0.2c-1.6,1-3.5,1.6-5.4,1.8c-2,0.1-3.9-0.4-5.5-1.5c-0.8-0.5-1.6-1.1-2.3-1.8
			c-0.7-0.7-1.2-1.6-1.5-2.6c-0.3-0.9-0.4-1.8-0.7-2.6c-0.2-0.8-0.6-1.5-1.1-2.2c-1.1-1.3-2.5-2.4-4-3.2c-1.5-0.9-3.2-1.5-4.8-2.3
			c-0.8-0.4-1.6-0.8-2.3-1.3c-0.8-0.5-1.4-1.1-2-1.8C7582.7,702.4,7582,700.7,7581.8,698.9L7581.8,698.9z"/>
		<path class="st1" d="M7948.3,684.9c0,0,2.4,18.1-15.1,32.5"/>
		<path class="st0" d="M7857.3,723c-5.9,1.4-22,3.4-28.1,4.3c-4.9-0.3-12.4-2.6-18-0.3c-1.1,0.4-6.1,6.7-6.1,6.7s-5.5,2.5-5,4.3
			c0.6,2,7.2-1.4,10.1-1.4c2.7,0,5.5,0.2,8.2,0.5c0.6,0.3,0.3,0.7-1.1,1.2c-1.6,0.5-8.2,1.1-7.8,3.4s9.8,1.3,12.3,0.3
			c2-0.9,4-2,5.8-3.2c5.4,0,30.2-1.7,31.3-1.4"/>
		<path class="st1" d="M7857.3,723.1c-2.3,0.7-4.6,1.1-6.9,1.6c-2.3,0.4-4.7,0.9-7,1.3c-4.7,0.8-9.4,1.5-14,2.3h-0.1h-0.1
			c-2.4-0.1-4.6-0.5-6.8-0.8c-2.2-0.3-4.4-0.5-6.6-0.4c-1.1,0-2.1,0.2-3.1,0.5c-0.2,0.1-0.5,0.1-0.7,0.2c-0.1,0-0.3,0.1-0.2,0.1
			c-0.1,0.1-0.2,0.1-0.2,0.2c-0.4,0.3-0.8,0.7-1.1,1.1c-1.5,1.6-3,3.4-4.5,5.1l-0.1,0.2l-0.2,0.1c-0.9,0.4-1.9,0.9-2.7,1.4
			c-0.4,0.3-0.8,0.6-1.2,0.9c-0.3,0.2-0.5,0.6-0.7,0.9c0,0.1,0,0.1,0,0.2c0,0,0.1,0.1,0.3,0.1c0.5,0,0.9,0,1.4-0.1
			c1-0.2,2.1-0.5,3.1-0.8s2.1-0.6,3.2-0.8c0.6-0.1,1.1-0.2,1.7-0.2c0.5,0,1.1,0,1.6,0.1c2.2,0.1,4.3,0.3,6.4,0.6h0.1l0,0
			c0.1,0.1,0.2,0.1,0.3,0.2c0.1,0.1,0.2,0.3,0.2,0.4c0,0.1-0.1,0.3-0.2,0.4c-0.1,0.1-0.1,0.1-0.2,0.2c-0.3,0.2-0.6,0.3-0.9,0.4
			c-0.6,0.2-1.3,0.3-1.9,0.5c-1.2,0.2-2.5,0.6-3.7,1c-0.6,0.2-1.1,0.5-1.6,0.8c-0.2,0.1-0.3,0.3-0.4,0.5c0,0.1,0,0.3,0.1,0.4
			c0.4,0.3,0.8,0.5,1.3,0.5c0.6,0.1,1.2,0.1,1.8,0.1c2.5,0,5-0.3,7.4-0.9c1.2-0.3,2.3-0.8,3.3-1.4c1.1-0.6,2.2-1.2,3.3-1.9l0.2-0.1
			h0.2c2.6,0,5.2-0.1,7.8-0.2l7.8-0.3c2.6-0.1,5.2-0.2,7.8-0.2l3.9-0.1c0.7,0,1.3,0,2,0s1.3,0,2,0.1l-0.1,0.2
			c-1.2,0-2.6,0.1-3.9,0.2l-3.9,0.3l-7.8,0.6c-2.6,0.2-5.2,0.4-7.8,0.6c-2.6,0.2-5.2,0.3-7.9,0.4l0.4-0.1c-1.1,0.7-2.2,1.4-3.3,2.1
			c-0.6,0.3-1.2,0.6-1.8,0.9c-0.3,0.1-0.6,0.3-0.9,0.4c-0.3,0.1-0.7,0.2-1,0.3c-1.3,0.3-2.6,0.5-3.9,0.6s-2.6,0.1-4,0
			c-0.7,0-1.3-0.1-2-0.3c-0.4-0.1-0.7-0.2-1-0.4c-0.4-0.2-0.7-0.5-1-0.8c-0.2-0.4-0.3-1-0.1-1.4c0.2-0.4,0.5-0.7,0.8-0.9
			c0.6-0.4,1.2-0.6,1.9-0.8c1.3-0.3,2.5-0.6,3.8-0.8c0.6-0.1,1.2-0.2,1.8-0.4c0.3-0.1,0.6-0.2,0.8-0.4c0.1-0.1,0.2-0.2,0.2-0.1
			c0,0.1,0,0-0.1-0.1h0.1c-2.1-0.2-4.3-0.4-6.4-0.4c-0.5,0-1.1,0-1.6,0s-1,0.1-1.5,0.2c-1,0.2-2,0.6-3,0.9c-1,0.4-2.1,0.7-3.1,1
			c-0.6,0.2-1.2,0.2-1.8,0.2c-0.4,0-0.8-0.2-1.1-0.6c-0.3-0.4-0.4-0.9-0.3-1.3c0.2-0.7,0.6-1.3,1.1-1.7c0.4-0.4,0.9-0.7,1.4-1.1
			c0.9-0.6,1.9-1.2,2.9-1.6l-0.3,0.2c1.4-1.8,2.8-3.6,4.4-5.3c0.4-0.5,0.8-0.9,1.3-1.3c0.1-0.1,0.3-0.2,0.5-0.3s0.4-0.2,0.6-0.2
			c0.3-0.1,0.6-0.2,0.9-0.3c1.2-0.3,2.4-0.6,3.6-0.6c2.3-0.1,4.7,0,7,0.4c2.3,0.3,4.5,0.8,6.7,0.9h-0.2c2.4-0.3,4.7-0.6,7.1-0.9
			l7.1-0.8c2.4-0.3,4.7-0.5,7.1-0.8s4.7-0.6,7-0.9L7857.3,723.1z"/>
		<path class="st0" d="M7837.5,748.4c10.7,0.7,21.5-0.6,31.7-4c11.8-4.1,19.6-3.3,32.1-2.5c15.9,1.5,37.8-27.1,46.1-54.4
			c1.9-6.4-0.3-9.5-2.9-10.9c-3.2-1.6-7.1-1.2-9.9,1.1c-10.9,8.7-27.5,33.6-34.7,40c0,0-41,2.9-60.2,4.2
			C7840,730.7,7839.3,739.7,7837.5,748.4z"/>
		<path class="st1" d="M7837.6,748.4h0.1h0.2h0.4h0.8c0.6,0,1.1,0,1.7,0c1.1,0,2.2,0,3.4-0.1c2.2-0.1,4.5-0.2,6.7-0.5
			c4.4-0.5,8.8-1.3,13.1-2.5c1.1-0.3,2.1-0.6,3.2-1l3.2-1.1c2.2-0.7,4.4-1.3,6.6-1.8c4.5-0.9,9-1.2,13.6-1.1c2.3,0,4.5,0.2,6.8,0.3
			l3.4,0.2c0.6,0,1.1,0.1,1.6,0.1s1,0,1.6-0.1c2.1-0.3,4.2-0.9,6.1-1.9c2-1,3.8-2.1,5.5-3.5c3.5-2.7,6.7-5.8,9.6-9.1
			c2.9-3.4,5.6-6.9,8-10.7c2.4-3.7,4.7-7.6,6.6-11.6c2-4,3.8-8.1,5.3-12.3c0.4-1,0.7-2.1,1.1-3.2c0.4-1,0.7-2.1,0.9-3.2
			c0.6-2,0.4-4.2-0.5-6.2c-1.1-1.8-3-3-5.1-3.3s-4.3,0.2-6.1,1.3c-1.8,1.3-3.5,2.8-5,4.4c-1.6,1.6-3.1,3.2-4.6,4.9
			c-3,3.4-5.8,6.8-8.6,10.4c-2.8,3.5-5.5,7.1-8.2,10.7c-1.4,1.8-2.8,3.5-4.2,5.3c-1.4,1.8-3,3.5-4.6,5l-0.2,0.1h-0.2
			c-5,0.4-10,0.9-15,1.2c-5,0.4-10,0.7-15,1.1l-15,1l-7.5,0.5l-7.5,0.4l0.6-0.6c0.1,2.3,0.1,4.5,0,6.7s-0.2,4.5-0.5,6.7
			c-0.2,2.2-0.5,4.4-0.9,6.7c-0.2,1.1-0.4,2.2-0.6,3.3S7837.8,747.3,7837.6,748.4z M7837.4,748.5l0.5-3.4c0.2-1.1,0.3-2.2,0.4-3.3
			c0.3-2.2,0.5-4.4,0.6-6.6c0.1-2.2,0.2-4.4,0.2-6.7c0-2.2,0-4.5-0.2-6.6v-0.6l0.6-0.1l7.5-0.6l7.5-0.6l15-1.1c5-0.4,10-0.7,15-1
			s10-0.6,15.1-0.9l-0.4,0.2c1.6-1.5,3.2-3.1,4.6-4.8c1.5-1.7,2.9-3.4,4.3-5.1c2.9-3.5,5.6-7,8.5-10.5c2.8-3.5,5.7-7,8.6-10.4
			c1.5-1.7,3-3.4,4.6-5c0.8-0.8,1.6-1.6,2.4-2.4c0.4-0.4,0.8-0.8,1.3-1.1l0.6-0.6c0.2-0.2,0.5-0.4,0.7-0.5c2-1.3,4.3-1.9,6.7-1.6
			c1.2,0.2,2.3,0.6,3.3,1.2c1.1,0.6,1.9,1.5,2.6,2.5c0.6,1.1,1,2.2,1,3.4c0.1,1.2,0,2.4-0.2,3.5s-0.5,2.2-0.9,3.3
			c-0.3,1.1-0.7,2.2-1,3.2c-3,8.6-6.9,16.7-11.8,24.4c-2.4,3.8-5.1,7.5-8,11s-6.2,6.7-9.9,9.5c-1.8,1.4-3.8,2.6-5.9,3.6
			c-2.1,1.1-4.4,1.7-6.8,2c-0.6,0.1-1.2,0.1-1.8,0.1c-0.6,0-1.2-0.1-1.7-0.1l-3.4-0.2c-2.2-0.2-4.5-0.3-6.7-0.4
			c-4.4-0.2-8.9,0-13.3,0.8c-2.2,0.4-4.3,0.9-6.5,1.6l-3.2,1c-1.1,0.3-2.2,0.6-3.3,0.9c-4.4,1.1-8.9,1.8-13.4,2.1
			c-2.3,0.2-4.5,0.2-6.8,0.2c-1.1,0-2.3,0-3.4-0.1c-0.6,0-1.1-0.1-1.7-0.1l-0.8-0.1h-0.4L7837.4,748.5
			C7837.6,748.5,7837.5,748.5,7837.4,748.5L7837.4,748.5z"/>
		<path class="st1" d="M7835.4,738.5c0,0-1.2,9.8,2,10l1.6-10.1L7835.4,738.5z"/>
		<path class="st0" d="M7935.8,606.2c0,0-12.3,17.7-2.9,30.6c0,0,2.4,3.1,9.7,0.9c0,0-1.9,12.6-5.8,19.8l25.4-7.2
			c0,0-4.4-5.7-4.4-18.1c0,0,6.9-9.5,4.4-20.2c0,0-4.3-10.9-13.3-11.4C7948.8,600.7,7939.8,601.8,7935.8,606.2z"/>
		<path class="st1" d="M7948.9,602c7.7,0.5,11.7,9.6,12.1,10.5c2.3,10-4.1,18.9-4.2,19l-0.2,0.3v0.4c0,9.2,2.4,14.8,3.7,17.3
			l-21.1,6c3.1-7.3,4.6-17.2,4.7-17.6l0.3-2l-1.9,0.6c-1.4,0.4-2.9,0.7-4.3,0.7c-2.8,0-3.9-1.1-3.9-1.2c-8.4-11.6,2.1-27.9,2.9-29.1
			C7940.3,603.3,7947.9,602.1,7948.9,602 M7948.8,600.7c0,0-9,1.1-13,5.5c0,0-12.3,17.7-2.9,30.6c0,0,1.3,1.7,4.9,1.7
			c1.6,0,3.2-0.3,4.7-0.8c0,0-1.9,12.6-5.8,19.8l25.4-7.2c0,0-4.4-5.7-4.4-18.1c0,0,6.9-9.5,4.4-20.2
			C7962.2,612.1,7957.9,601.2,7948.8,600.7L7948.8,600.7z"/>
		<path class="st0" d="M7912.2,757.3l8.1-28.8c0.7-6.3,0.8-12.6,0.3-18.9l-4.8-17.9c-2.5-7,15.6-30.5,15.6-30.5
			c4.4-6.1,11.1-10.1,18.5-11.1c19.3-2.3,18.4,28.2,18.4,28.2s-2.1,24.2-4.2,35.3c-0.5,2.5-0.6,5.1-0.4,7.6
			c0.4,4.8,1.9,9.4,4.2,13.6l11.9,22.5L7912.2,757.3z"/>
		<path class="st1" d="M7912.1,757.4l3.7-14.4l3.8-14.6v0.1c0.2-1.6,0.3-3.1,0.4-4.7c0.1-1.6,0.1-3.1,0.1-4.7c0-1.6,0-3.1-0.1-4.7
			c-0.1-1.6-0.2-3.1-0.3-4.7v0.1l-2.5-8.9c-0.8-3-1.6-6-2.4-8.9v0.1c-0.3-1-0.4-2.1-0.2-3.2c0.2-1,0.4-1.9,0.7-2.8
			c0.6-1.8,1.4-3.5,2.3-5.2c1.8-3.3,3.7-6.5,5.8-9.6c2.1-3.1,4.3-6.1,6.5-9.1c2.2-3.1,4.9-5.7,8-7.8s6.7-3.6,10.4-4.3
			c1.9-0.4,3.8-0.4,5.7-0.1c1.9,0.3,3.7,1,5.3,2.1c1.6,1.1,2.9,2.5,4,4.1s1.9,3.3,2.6,5c1.3,3.5,2.2,7.2,2.6,11
			c0.2,1.9,0.4,3.7,0.4,5.6c0,0.2,0,0.4,0,0.7l-0.1,0.7l-0.1,1.4l-0.2,2.8c-0.3,3.7-0.7,7.4-1,11.1c-0.4,3.7-0.8,7.4-1.3,11.1
			c-0.2,1.9-0.5,3.7-0.8,5.5c-0.1,0.9-0.3,1.9-0.5,2.8c-0.2,0.9-0.3,1.8-0.3,2.7c-0.1,1.8-0.1,3.6,0.1,5.4c0.2,1.8,0.6,3.6,1.1,5.3
			s1.1,3.4,1.9,5.1c0.2,0.4,0.4,0.8,0.6,1.2s0.4,0.8,0.7,1.2l1.3,2.5l10.4,19.8l0.7,1.4h-1.6l-17.1-0.2c-5.7-0.1-11.4-0.1-17-0.2
			L7912.1,757.4z M7912.3,757.2l34-0.5c5.6-0.1,11.2-0.1,16.8-0.2l16.7-0.2l-0.8,1.4l-10.4-19.7l-1.3-2.5c-0.2-0.4-0.4-0.8-0.7-1.2
			c-0.2-0.4-0.4-0.9-0.6-1.3c-0.8-1.7-1.5-3.5-2-5.4c-0.5-1.8-0.9-3.7-1.1-5.6c-0.2-1.9-0.3-3.8-0.1-5.8c0.1-1,0.2-1.9,0.4-2.8
			c0.2-0.9,0.3-1.8,0.5-2.7c0.3-1.8,0.6-3.7,0.8-5.5c0.5-3.7,0.9-7.4,1.4-11s0.8-7.4,1.2-11.1l0.3-2.8l0.1-1.4l0.1-0.7v-0.7
			c0-1.8-0.1-3.7-0.2-5.5c-0.3-3.7-1-7.3-2.2-10.8c-0.6-1.7-1.4-3.4-2.4-4.9s-2.2-2.9-3.7-4s-3.2-1.7-5-2s-3.7-0.2-5.4,0.1
			c-1.8,0.3-3.6,0.9-5.3,1.6c-1.7,0.7-3.3,1.6-4.8,2.6c-1.5,1.1-2.9,2.2-4.2,3.6c-0.6,0.7-1.2,1.4-1.8,2.1c-0.6,0.7-1.1,1.5-1.7,2.2
			c-2.2,3-4.3,6.1-6.2,9.2c-2,3.1-3.8,6.3-5.5,9.6c-0.8,1.6-1.5,3.3-2.1,5c-0.3,0.8-0.5,1.7-0.6,2.6c-0.1,0.8-0.1,1.6,0.1,2.4l0,0
			l0,0c0.8,3,1.6,6,2.4,8.9l2.4,9v0.1v0.1c0.1,1.6,0.2,3.2,0.3,4.8c0,1.6,0.1,3.2,0,4.8c0,1.6-0.1,3.2-0.2,4.8s-0.3,3.2-0.5,4.7v0.1
			l0,0l-4.2,14.1L7912.3,757.2z"/>
		<line class="st4" x1="7944.6" y1="690.9" x2="7920.4" y2="730.2"/>
		<path class="st1" d="M7944.7,691c-1.5,3.6-3.2,7-5.1,10.4c-0.9,1.7-1.9,3.4-2.8,5l-3,4.9c-1,1.6-2,3.3-3.1,4.9
			c-1.1,1.6-2.1,3.2-3.2,4.8c-2.2,3.2-4.5,6.3-7.1,9.2l-0.1-0.1l12.1-19.7l12.2-19.6L7944.7,691z"/>
		<path class="st1" d="M7949.7,633c-1.9,1.3-3.9,2.4-6,3.2c0,0-0.6,3-1,6C7945.6,639.6,7948,636.5,7949.7,633z"/>
		<path class="st1" d="M7846.8,696.2c0,0-0.7-0.1-3,1.3l3.2,2.4L7846.8,696.2z"/>
		<path class="st1" d="M7838.3,707.3c-1,3.1-1.7,6.4-2,9.6l4.2-6.5L7838.3,707.3z"/>
		<path class="st0" d="M7925.7,717.6l-22.6,15.2c-12.4,7.9-31.9,5.8-38.8,2.4c-13.4-6.7-21.6-23.3-35.4-40.2c-3-3.7-9.5-5.6-9.5-5.6
			c-3.6-0.3-4.5-2.3-4.5-2.3l-6.4-10.9c-1.5-3.4,1.9-2.7,1.9-2.7l20.1,14.6c0,0,41.4,31,55.4,31.9l28-29"/>
		<path class="st1" d="M7925.8,717.7c-2.2,1.6-4.5,3.2-6.8,4.8s-4.5,3.2-6.8,4.8l-6.8,4.7c-2.3,1.7-4.7,3.1-7.3,4.1
			c-2.6,1-5.3,1.8-8.1,2.2c-2.8,0.5-5.6,0.7-8.4,0.7s-5.6-0.2-8.4-0.6c-2.8-0.4-5.6-1.1-8.2-2.1l-1-0.4c-0.3-0.2-0.6-0.3-0.9-0.5
			c-0.6-0.4-1.2-0.7-1.8-1.1l-1.7-1.2c-0.6-0.4-1.1-0.9-1.7-1.3c-1.1-0.9-2.1-1.9-3.1-2.8c-0.5-0.5-1-1-1.5-1.5s-1-1-1.4-1.5
			c-3.6-4.2-7-8.6-10.1-13.2c-3.2-4.5-6.3-9-9.7-13.4c-0.8-1.1-1.7-2.2-2.6-3.2c-0.4-0.5-0.9-1.1-1.3-1.6c-0.2-0.2-0.5-0.5-0.7-0.7
			c-0.3-0.2-0.5-0.4-0.8-0.6c-2.2-1.6-4.7-2.8-7.3-3.5h0.1c-0.5,0-0.9-0.1-1.4-0.2c-0.5-0.1-0.9-0.2-1.3-0.4s-0.8-0.4-1.2-0.7
			c-0.4-0.3-0.8-0.7-1-1.1l0,0l-6.5-10.8l0,0l0,0l-0.2-0.6c-0.1-0.2-0.1-0.4-0.2-0.6c-0.1-0.5,0-1.1,0.2-1.6
			c0.3-0.5,0.8-0.8,1.4-0.9c0.5-0.1,0.9-0.1,1.4,0h0.1l0.1,0.1c6.1,4.3,12.1,8.6,18.2,12.9c6,4.4,12,8.7,18.2,12.8
			c3.1,2.1,6.2,4.1,9.3,6.1c3.1,2,6.3,3.9,9.5,5.8s6.4,3.6,9.8,5.2c1.7,0.8,3.3,1.5,5.1,2.1c1.7,0.6,3.4,1.1,5.2,1.3l-0.6,0.2
			l7.1-7.2l7.1-7.1c2.4-2.4,4.8-4.8,7.1-7.1l7.2-7.1l0.1,0.1l-6.8,7.4c-2.3,2.5-4.6,4.9-6.9,7.4l-6.9,7.4l-6.9,7.3l-0.2,0.3h-0.4
			c-1.9-0.2-3.8-0.6-5.6-1.3c-1.8-0.6-3.5-1.3-5.3-2.1c-3.4-1.5-6.7-3.3-10-5.2c-6.5-3.7-12.8-7.7-18.9-11.9s-12.2-8.6-18.1-13
			c-6-4.4-12-8.8-17.9-13.2l0.3,0.1c-0.3-0.1-0.6-0.1-0.9,0c-0.2,0-0.4,0.1-0.5,0.2c-0.1,0.2-0.1,0.4-0.1,0.6c0,0.1,0.1,0.3,0.1,0.5
			l0.2,0.5v-0.1l6.2,11l0,0l0,0c0.2,0.3,0.4,0.6,0.7,0.8c0.3,0.3,0.7,0.5,1,0.6c0.4,0.2,0.8,0.3,1.2,0.4c0.4,0.1,0.8,0.2,1.2,0.2
			l0,0l0,0c1.3,0.4,2.6,1,3.9,1.6s2.5,1.3,3.6,2.2c0.3,0.2,0.5,0.4,0.8,0.7c0.3,0.2,0.5,0.5,0.8,0.7c0.5,0.5,0.9,1.1,1.3,1.6
			c0.9,1.1,1.7,2.2,2.5,3.3c3.4,4.4,6.6,8.9,9.9,13.3c3.2,4.5,6.7,8.7,10.4,12.8c0.5,0.5,0.9,1,1.4,1.5s1,1,1.5,1.4
			c1,0.9,2,1.8,3.1,2.6c1.1,0.9,2.2,1.6,3.3,2.3c0.6,0.4,1.2,0.7,1.8,1c0.3,0.2,0.6,0.3,0.9,0.5l0.9,0.4c2.5,1,5.1,1.6,7.8,2
			c5.4,0.8,10.9,0.8,16.3,0c2.7-0.4,5.3-1.1,7.9-2c2.5-1,4.9-2.2,7.2-3.8l6.9-4.5c2.3-1.5,4.6-3,7-4.5c2.3-1.5,4.7-3,7-4.4
			L7925.8,717.7z"/>
		<path class="st0" d="M7946.2,666.5c-12.7-5.9-36.8,27.4-36.8,27.4l-23.5,26.1l-38.9-23.4c-0.1,5.3-10.4,19.7-10.4,19.7l-0.3,2.3
			c-0.2,7.3,0.3,15.7,6.2,20c5.4,3.9,12.7,2.3,19.4,2.1c6.5-0.2,13,0.9,19,3.4c3.4,1.4,6.8,3.3,10.4,3.4c5,0.2,9.5-2.8,13.5-5.8
			c4.8-3.6,13.7-11.5,13.7-11.5s15.5-16.7,21.5-25.4l7.8-10.2C7962.2,672.8,7946.2,666.5,7946.2,666.5z"/>
		<path class="st1" d="M7946.1,666.5c-1.8-0.8-3.9-0.9-5.8-0.3c-1.9,0.5-3.8,1.3-5.5,2.4c-3.4,2.1-6.5,4.6-9.4,7.5
			c-2.9,2.8-5.6,5.7-8.1,8.8c-2.6,3.1-5,6.2-7.3,9.5l0,0l0,0c-3.9,4.4-7.7,8.8-11.6,13.2l-11.7,13.1l-0.6,0.6l-0.7-0.4l-9.7-5.8
			l-9.7-5.9l-19.4-11.8l1.3-0.7c-0.1,1-0.3,2-0.7,3c-0.3,0.9-0.7,1.8-1.1,2.7c-0.8,1.7-1.7,3.4-2.7,5c-1.9,3.2-4,6.4-6.2,9.4
			l0.1-0.3l-0.3,2.2v-0.1c-0.1,2.2-0.1,4.3,0.1,6.5c0.1,2.1,0.5,4.3,1.1,6.3s1.6,3.9,3.1,5.5c1.5,1.5,3.3,2.6,5.4,3.2
			c2.1,0.6,4.2,0.8,6.4,0.7c2.2,0,4.3-0.2,6.5-0.4c4.4-0.3,8.8-0.1,13.1,0.8c2.2,0.4,4.3,1,6.4,1.8c2.1,0.7,4.1,1.7,6.1,2.5
			c2,0.9,4.1,1.4,6.2,1.5c2.1,0,4.2-0.5,6.1-1.4s3.8-2.1,5.5-3.4c1.7-1.3,3.4-2.7,5.1-4.1c3.3-2.8,6.6-5.7,9.9-8.6l-0.1,0.1
			c2.2-2.4,4.4-4.8,6.6-7.3c2.2-2.4,4.3-4.9,6.5-7.4c2.1-2.5,4.2-5,6.2-7.5c0.5-0.6,1-1.3,1.5-1.9c0.5-0.7,1-1.3,1.5-2l3-3.9l3-3.9
			l0.8-1c0.3-0.3,0.5-0.6,0.7-1c0.4-0.7,0.9-1.3,1.3-2s0.8-1.4,1.2-2.1l0.6-1.1l0.5-1.1c0.4-0.7,0.6-1.5,0.9-2.2
			c0.3-0.8,0.5-1.5,0.7-2.3c0.9-3.1,0.9-6.5-0.2-9.5C7951.5,670.4,7949.1,667.9,7946.1,666.5z M7946.2,666.4c3,1.4,5.5,3.9,6.7,6.9
			c0.6,1.5,0.9,3.2,1,4.8c0,1.7-0.2,3.3-0.6,4.9c-0.2,0.8-0.4,1.6-0.7,2.4c-0.3,0.8-0.5,1.6-0.9,2.3l-0.5,1.1l-0.5,1.1
			c-0.4,0.7-0.8,1.5-1.2,2.2c-0.4,0.7-0.9,1.4-1.3,2.1c-0.2,0.4-0.4,0.7-0.7,1l-0.7,1l-2.9,4l-2.9,4c-0.5,0.7-1,1.3-1.4,2
			c-0.5,0.7-1,1.3-1.4,2c-2,2.6-4,5.2-6.1,7.7c-4.2,5-8.6,9.9-13,14.7l0,0l0,0c-3.3,2.9-6.7,5.7-10.1,8.4c-1.7,1.4-3.4,2.7-5.2,4
			c-1.8,1.3-3.7,2.4-5.8,3.3c-2.1,0.9-4.3,1.4-6.6,1.3c-2.2-0.2-4.4-0.8-6.4-1.7s-4-1.8-6-2.6s-4.1-1.3-6.3-1.8
			c-4.3-0.9-8.6-1.1-13-0.7c-2.2,0.2-4.4,0.4-6.6,0.4c-2.2,0.1-4.4-0.1-6.6-0.7c-1.1-0.3-2.1-0.7-3.1-1.3s-1.9-1.3-2.7-2.1
			c-1.6-1.6-2.7-3.6-3.4-5.8c-0.7-2.1-1.1-4.3-1.3-6.5c-0.2-2.2-0.3-4.4-0.2-6.6l0,0l0,0l0.3-2.3v-0.2l0.1-0.2
			c2.1-3.1,4.1-6.2,6-9.4c0.9-1.6,1.8-3.2,2.6-4.9c0.4-0.8,0.7-1.7,1-2.5s0.5-1.6,0.5-2.5v-1.5l1.3,0.8l19.5,11.6l9.7,5.8l9.7,5.8
			l-1.3,0.2l11.8-13c4-4.3,7.9-8.6,11.9-12.9v0.1c2.5-3.2,5-6.3,7.7-9.3s5.5-5.9,8.5-8.6c1.5-1.4,3-2.7,4.6-3.9s3.3-2.4,5-3.4
			s3.6-1.8,5.6-2.3C7942.2,665.4,7944.3,665.6,7946.2,666.4L7946.2,666.4z"/>
		<path class="st1" d="M8008.4,705.3c-0.5-2.1-14.4-2.3-16.3-2.6c-12.2-1.4-23.8-7.4-26.3-20.5c-1.2-6.7,2.7-14.8-2.2-20.5
			c-12.1-14.1-11.2-21.1-10.6-28.8c0.5-6.3,6.6-9.6,6-13.3c-0.6-3.1-5.5-1-5.5-1c-6.4,1.2-6.1-8.2-6.1-8.2
			c-11.2,8.3-16.6,4.1-17.3,4.1c0,0-2.8-19.7,21.2-20c7.9,0.9,14.5,6.3,17.1,13.9c0.8,7.4,5.8,13.4,10.6,18.6
			c4.5,5,10.4,7,12.9,13.9c1.3,3.5,1.7,7.3,2.9,10.8c2,5.5,6.1,10,8.1,15.5c2.4,6.7,1.1,14.2,1.9,21.3
			C8005.6,694.2,8007.2,699.8,8008.4,705.3z"/>
		<path class="st1" d="M7838.4,470.8c0,0-5,15.4,0.2,13.5l11.7-10.4L7838.4,470.8z"/>
		<path class="st0" d="M7858,460.2c-4.1-1.5-23-6.9-29.7-6.8c-5.3-1.2-10.9-1.1-16.1,0.3c-1.2,0.3-7.5,6.2-7.5,6.2s-6.3,1.8-5.9,3.8
			c0.4,2.3,7.9-0.4,10.9,0c2.9,0.4,5.8,1,8.6,1.8c0.6,0.4,0.2,0.8-1.3,1.1c-1.8,0.3-8.9-0.1-8.8,2.4s10.2,2.9,13.1,2.2
			c2.3-0.7,4.5-1.5,6.7-2.5c5.8,0.9,23.9,12,24.9,12.5"/>
		<path class="st1" d="M7858,460.3c-2.4-0.7-4.9-1.3-7.4-1.9s-4.9-1.2-7.4-1.7s-5-1.1-7.4-1.5c-2.4-0.5-4.9-0.8-7.4-0.8h-0.1h-0.1
			c-2.1-0.4-4.2-0.7-6.3-0.7c-2.1-0.1-4.2,0.1-6.3,0.4c-1,0.2-2.1,0.4-3.1,0.6c0,0,0,0-0.1,0.1s-0.2,0.1-0.3,0.2
			c-0.2,0.1-0.4,0.3-0.6,0.4c-0.4,0.3-0.8,0.6-1.2,1c-1.7,1.4-3.3,2.8-4.9,4.2l-0.2,0.1h-0.2c-1.1,0.3-2.1,0.7-3.1,1.1
			c-0.5,0.2-1,0.5-1.4,0.8c-0.4,0.2-0.7,0.5-0.9,0.9c0,0.1,0,0.2,0,0.3c0,0,0.1,0.1,0.3,0.2c0.5,0.1,1,0.2,1.5,0.1
			c1.1,0,2.2-0.2,3.4-0.4c1.1-0.2,2.3-0.3,3.5-0.4c0.6,0,1.2,0,1.8,0.1c0.6,0.1,1.1,0.2,1.7,0.3c2.3,0.5,4.5,1,6.8,1.6h0.1l0,0
			c0.1,0.1,0.2,0.1,0.2,0.2c0.1,0.1,0.1,0.3,0.1,0.5s-0.1,0.3-0.2,0.4s-0.2,0.1-0.3,0.2c-0.3,0.1-0.7,0.3-1.1,0.3
			c-0.7,0.1-1.4,0.2-2.1,0.2c-1.4,0.1-2.7,0.2-4.1,0.5c-0.6,0.1-1.2,0.3-1.8,0.6c-0.2,0.1-0.4,0.3-0.5,0.5s-0.1,0.3,0,0.5
			c0.4,0.4,0.8,0.7,1.4,0.8c0.6,0.2,1.3,0.3,1.9,0.4c2.7,0.4,5.3,0.4,8,0.2c1.3-0.2,2.6-0.5,3.8-1c1.3-0.5,2.5-1,3.8-1.5l0.2-0.1
			h0.2c1.2,0.2,2.4,0.6,3.5,1.1s2.2,0.9,3.2,1.5c2.1,1,4.2,2.1,6.2,3.3s4,2.4,6,3.6l5.9,3.7l-0.1,0.2c-2.1-1-4.1-2.2-6.2-3.3
			c-2.1-1.1-4.1-2.2-6.2-3.2c-2.1-1.1-4.2-2.1-6.3-3c-1.1-0.5-2.1-0.9-3.2-1.3c-1-0.4-2.1-0.7-3.2-0.9l0.4-0.1
			c-1.3,0.6-2.5,1.2-3.8,1.7c-0.7,0.3-1.3,0.5-2,0.7c-0.3,0.1-0.7,0.2-1.1,0.3c-0.4,0.1-0.7,0.1-1.1,0.2c-1.4,0.1-2.8,0.2-4.3,0.1
			c-1.4-0.1-2.8-0.3-4.2-0.6c-0.7-0.1-1.4-0.4-2.1-0.6c-0.4-0.1-0.7-0.3-1-0.5c-0.4-0.2-0.7-0.6-0.9-1c-0.2-0.5-0.1-1,0.1-1.5
			c0.2-0.4,0.6-0.7,1-0.8c0.7-0.3,1.4-0.5,2.1-0.6c1.4-0.2,2.8-0.3,4.2-0.3c0.7,0,1.3-0.1,2-0.2c0.3,0,0.6-0.1,0.9-0.2
			c0.1,0,0.1-0.1,0.2-0.1c0,0.1,0-0.1-0.1-0.1h0.1c-2.2-0.6-4.5-1.1-6.7-1.4c-0.6-0.1-1.1-0.2-1.7-0.2c-0.5-0.1-1.1-0.1-1.6,0
			c-1.1,0.1-2.2,0.3-3.4,0.5c-1.1,0.2-2.3,0.4-3.5,0.5c-0.6,0.1-1.3,0-1.9-0.1c-0.4-0.1-0.8-0.4-1.1-0.7c-0.3-0.4-0.3-0.9-0.1-1.4
			c0.3-0.7,0.8-1.2,1.4-1.6c0.5-0.3,1-0.7,1.6-0.9c1.1-0.5,2.2-0.9,3.3-1.3l-0.3,0.2c1.6-1.5,3.2-3,4.8-4.4c0.4-0.4,0.8-0.7,1.3-1.1
			c0.2-0.2,0.5-0.3,0.7-0.5c0.1-0.1,0.3-0.2,0.4-0.3c0.2-0.1,0.4-0.2,0.6-0.3c1.1-0.3,2.2-0.5,3.3-0.7c2.2-0.4,4.4-0.6,6.7-0.5
			c2.2,0.1,4.4,0.4,6.6,0.9h-0.2c1.3,0,2.6,0.2,3.9,0.4c1.3,0.2,2.5,0.4,3.8,0.7c2.5,0.5,5,1.2,7.4,1.9c2.5,0.7,4.9,1.4,7.3,2.2
			c2.4,0.8,4.8,1.6,7.2,2.6L7858,460.3z"/>
		<path class="st0" d="M7895.9,498c-12,3-16.9-5.7-24.8-8.9c-10.5-5.2-25.2,6.2-33.1-4.6c5.8-8.2,8.8-18,8.7-28l42.5,8.2
			c0,0,18,6.4,30.4-22.6c0,0,14.1,8.7,12.5,15.3C7923.4,492.4,7895.9,498,7895.9,498"/>
		<path class="st1" d="M7896,498c-4.5,1.4-9.4,0.9-13.5-1.4c-2-1.1-3.9-2.4-5.8-3.7c-1.8-1.3-3.8-2.4-5.8-3.3l0,0l0,0
			c-2.6-1.1-5.4-1.5-8.2-1.2c-2.8,0.2-5.7,0.7-8.6,1.2c-3,0.6-6,0.7-9,0.2c-1.5-0.3-3-0.9-4.3-1.7c-1.3-0.9-2.4-2-3.3-3.2l-0.4-0.5
			l0.4-0.5c1.4-2,2.7-4,3.8-6.2c1.1-2.2,2-4.5,2.8-6.8s1.4-4.7,1.8-7.2c0.4-2.4,0.6-4.9,0.6-7.4V456l0.4,0.1
			c3.5,0.7,7.1,1.4,10.6,2.1l10.6,2l10.6,1.9l10.7,1.9l0,0h0.1c0.8,0.2,1.6,0.4,2.4,0.4c0.8,0.1,1.7,0.1,2.5,0
			c1.7-0.1,3.3-0.4,4.9-0.9c3.2-1.1,6-2.8,8.5-5.1c2.5-2.3,4.6-4.9,6.4-7.8s3.3-5.9,4.7-9l0.5-1.1l1,0.6c2.8,1.8,5.4,3.8,7.9,6.1
			c1.2,1.2,2.3,2.4,3.3,3.8c1.1,1.5,1.7,3.2,1.9,5c0,0.5,0,1-0.2,1.5l-0.3,1.2c-0.2,0.8-0.4,1.6-0.7,2.4l-0.8,2.3
			c-0.3,0.8-0.6,1.5-0.9,2.3c-1.2,3.1-2.6,6-4.2,8.9c-1.6,2.8-3.5,5.5-5.7,8c-2.1,2.5-4.5,4.8-7.1,6.8s-5.3,3.8-8.2,5.3
			C7902.2,496.2,7899.2,497.3,7896,498v-0.2c3.1-0.9,6.1-2.2,8.9-3.8c2.8-1.6,5.4-3.4,7.9-5.5c2.4-2.1,4.7-4.4,6.7-6.9
			s3.8-5.1,5.3-7.9s2.8-5.7,3.9-8.7c0.3-0.8,0.6-1.5,0.8-2.3l0.7-2.3c0.2-0.8,0.4-1.5,0.6-2.3l0.3-1.2c0.1-0.3,0.1-0.6,0.1-0.9
			c-0.1-1.4-0.7-2.8-1.6-3.9c-0.9-1.3-1.9-2.4-3.1-3.5c-2.3-2.2-4.8-4.1-7.5-5.8l1.4-0.4c-1.4,3.2-3,6.3-4.9,9.3s-4.2,5.7-6.8,8.1
			c-2.6,2.4-5.8,4.2-9.2,5.3c-1.7,0.5-3.5,0.8-5.3,0.9c-0.9,0-1.8,0-2.7-0.1c-0.9-0.1-1.8-0.3-2.7-0.6h0.1l-10.6-2.2l-10.6-2.2
			l-10.6-2.1c-3.5-0.7-7.1-1.4-10.6-2l0.4-0.3c0.1,2.5-0.1,5-0.4,7.5s-0.8,5-1.5,7.4s-1.6,4.8-2.7,7.1c-1,2.3-2.3,4.5-3.8,6.6v-1
			c1.6,2.2,4,3.7,6.7,4.2c2.8,0.4,5.6,0.3,8.4-0.2c2.9-0.4,5.8-0.9,8.7-1.1c3-0.3,6.1,0.3,8.9,1.6l0,0c2.1,1,4.1,2.2,6,3.6
			c1.8,1.4,3.7,2.6,5.6,3.8c1.9,1.2,4,1.9,6.3,2.3c2.2,0.3,4.5,0.2,6.7-0.3H7896z"/>
		<path class="st0" d="M7921.3,435.4c3.1-7.3,4-15.4,1.9-19.4c0,0-12.1,5.3-14.6-3c0,0-4.8-13.4,4-30.2c0,0,11.6-16.3,25.9-2.9
			c0,0,8,8,4.6,16.1c0,0-7,11-4,15.7c2.4,6.4,6.3,12.2,11.3,16.9"/>
		<path class="st1" d="M7921.8,435.6l-1.2-0.5c2.9-7,3.8-14.4,2.2-18.4c-1.8,0.7-7.3,2.5-11.2,0.7c-1.8-0.8-3.1-2.4-3.6-4.4
			c-0.2-0.5-4.8-13.8,4-30.7v-0.1c0.2-0.3,5.5-7.6,13.4-8.4c4.6-0.5,9.1,1.4,13.5,5.4c1.5,1.6,2.7,3.3,3.7,5.2
			c2.1,4.1,2.5,8.1,1,11.6v0.1c-1.9,3-6.3,11.4-4,15l0.1,0.1c2.4,6.3,6.2,12,11.1,16.6l-0.9,0.9c-5.1-4.7-9-10.6-11.4-17.1
			c-3-4.9,3.5-15.3,4-16.2c3.1-7.6-4.4-15.3-4.5-15.4c-4-3.8-8.2-5.5-12.4-5.1c-7.1,0.7-12.1,7.3-12.5,7.8c-3.4,6.5-5.2,13.7-5.2,21
			c0,2.9,0.4,5.9,1.3,8.7c0.4,1.6,1.5,2.9,2.9,3.6c4.1,1.9,10.7-0.9,10.8-1l0.6-0.2l0.3,0.5C7925.8,419.8,7925.1,427.9,7921.8,435.6
			z"/>
		<path class="st5" d="M7941.1,415.6c0,0-5.9-9.8-7.3-14.3c-0.3-0.9-0.1-2,0.5-2.7c0.7-0.9,2.2-1.8,2.3-3.1c0,0,0.9-3.6-2.3-3.3
			c-1.8,0.1-3.3,1.3-3.9,2.9c0,0-1.4,3.6-2.6,2.1c-1.4-3.1-2-6.6-1.7-10l-15.7-0.5c0,0,2.7-9.9,7.2-13.6c0,0,6.6-2.5,19.3,1.3
			c0,0,6.1,2,9.9,6.7c0,0,3.5,5.2-0.7,13.5c0,0-5.3,8.9-6,11.1C7939.1,408.8,7941.1,415.6,7941.1,415.6z"/>
		<path class="st1" d="M7930,411.2c0,0-1.1,5-6.3,10.4c-0.1-2.8-0.4-5.2-1-6.4C7922.7,415.2,7928.7,413,7930,411.2z"/>
		<path class="st0" d="M7983.9,533.5l-78.4,0.3l3.4-66c1-21.7,10.8-31.5,10.8-31.5c8-10.2,28.5-10,28.5-10
			S7988.6,469.5,7983.9,533.5z"/>
		<path class="st1" d="M7984,533.6l-19.4,0.4l-19.6,0.3l-19.7,0.2c-3.3,0-6.6,0.1-9.9,0.1h-9.9h-0.9l0.1-0.8l1.6-24.9
			c0.5-8.3,1-16.6,1.5-25l0.6-12.5c0.1-4.2,0.4-8.4,1-12.5c0.7-4.2,1.8-8.2,3.3-12.1c0.8-2,1.7-3.9,2.7-5.7c1-1.9,2.3-3.6,3.7-5.2
			l-0.1,0.1c1.7-2.1,3.8-3.9,6.2-5.1c2.3-1.3,4.8-2.3,7.3-3s5.1-1.3,7.7-1.6c2.6-0.4,5.2-0.6,7.9-0.6h0.4l0.3,0.3
			c3.2,3.6,6.3,7.5,9,11.5c2.8,4,5.3,8.1,7.7,12.4c2.4,4.2,4.5,8.6,6.5,13c1,2.2,1.9,4.5,2.8,6.7c0.9,2.3,1.7,4.6,2.4,6.9
			c3.1,9.2,5.2,18.7,6.4,28.3c0.6,4.8,0.9,9.6,1,14.5c0,2.4,0,4.8-0.1,7.3c0,1.2-0.1,2.4-0.2,3.6S7984.1,532.4,7984,533.6z
			 M7983.9,533.4l0.1-3.6c0-1.2,0.1-2.4,0.1-3.6c0-2.4-0.1-4.8-0.2-7.2c-0.2-4.8-0.7-9.6-1.4-14.4c-1.4-9.5-3.7-18.9-6.9-27.9
			c-1.6-4.5-3.4-9-5.3-13.4c-2-4.4-4.2-8.6-6.5-12.8c-2.3-4.2-4.9-8.3-7.6-12.2c-2.7-4-5.6-7.8-8.7-11.4l0.7,0.3
			c-2.5,0-5.1,0.2-7.6,0.5s-5,0.8-7.5,1.5c-2.4,0.7-4.8,1.6-7.1,2.8c-2.2,1.2-4.2,2.7-5.8,4.7l0,0l0,0c-1.4,1.5-2.6,3.1-3.6,4.9
			c-1.1,1.8-2,3.6-2.8,5.5c-1.6,3.8-2.8,7.8-3.5,11.9c-0.4,2-0.7,4.1-0.8,6.2c-0.2,2.1-0.3,4.1-0.4,6.2l-0.7,12.5
			c-0.4,8.3-0.8,16.6-1.1,25l-1,25l-0.8-0.8l9.7-0.1c3.2,0,6.5,0,9.7,0l19.5,0.1l19.6,0.2L7983.9,533.4z"/>
		<path class="st6" d="M7959,543.6"/>
		<path class="st0" d="M7891.4,525.8c-3.8,2.2-21.4,11-27.9,12.1c-5,2.1-10.5,3-15.9,2.6c-1.2-0.1-8.5-4.7-8.5-4.7s-6.5-0.6-6.5-2.6
			c-0.1-2.3,7.8-1.1,10.7-2c2.8-1,5.5-2.1,8.2-3.3c0.5-0.5,0.1-0.9-1.5-0.8c-1.8,0-8.7,1.7-9.1-0.7s9.5-4.7,12.4-4.6
			c2.4,0.2,4.7,0.6,7,1.3c5.5-1.9,21.8-5.2,22.8-5.9"/>
		<path class="st1" d="M7891.4,525.9c-2.2,1.3-4.4,2.5-6.7,3.7c-2.3,1.2-4.5,2.3-6.8,3.4s-4.6,2.1-7,3.1c-1.2,0.5-2.4,1-3.6,1.4
			s-2.5,0.8-3.7,1.1h0.1c-2,0.9-4.1,1.5-6.3,2c-2.2,0.5-4.4,0.7-6.6,0.7c-1.1,0-2.2,0-3.3-0.1c-0.3,0-0.7-0.1-1-0.3
			c-0.3-0.1-0.5-0.2-0.8-0.4c-0.5-0.3-1-0.5-1.5-0.8c-1.9-1.1-3.7-2.2-5.6-3.4l0.2,0.1c-1.2-0.1-2.3-0.3-3.5-0.6
			c-0.6-0.2-1.2-0.3-1.7-0.6c-0.6-0.2-1.2-0.7-1.5-1.2c-0.2-0.4-0.2-0.8-0.1-1.2c0.2-0.4,0.4-0.6,0.8-0.8c0.6-0.2,1.2-0.4,1.8-0.5
			c1.2-0.1,2.3-0.2,3.5-0.2s2.3,0,3.4-0.1c0.6,0,1.1-0.2,1.6-0.3c0.5-0.2,1.1-0.3,1.6-0.5c2.2-0.8,4.3-1.7,6.4-2.7h-0.1
			c0.1-0.1,0.2-0.2,0.1-0.3c0,0-0.2-0.1-0.3-0.2c-0.3-0.1-0.7-0.1-1-0.1c-0.7,0-1.4,0.1-2,0.2c-1.4,0.2-2.7,0.4-4.1,0.5
			c-0.7,0-1.4,0-2.1-0.2c-0.4-0.1-0.7-0.3-1-0.6s-0.4-0.8-0.4-1.2c0.1-0.4,0.3-0.8,0.7-1c0.3-0.3,0.6-0.5,0.9-0.7
			c0.6-0.4,1.2-0.7,1.9-0.9c2.6-1,5.4-1.7,8.1-2c0.4,0,0.7,0,1.1,0s0.7,0.1,1.1,0.1c0.7,0.1,1.4,0.2,2.1,0.3
			c1.4,0.3,2.7,0.6,4.1,0.9h-0.3c1.9-0.6,3.8-1.1,5.7-1.6c1.9-0.5,3.8-0.9,5.8-1.3s3.8-0.8,5.8-1.2l2.9-0.6c1-0.2,1.9-0.4,2.8-0.7
			l0.1,0.1c-0.5,0.2-0.9,0.4-1.4,0.5s-0.9,0.3-1.4,0.4l-2.9,0.8c-1.9,0.5-3.8,1-5.7,1.5c-1.9,0.5-3.8,1-5.7,1.5
			c-1.9,0.5-3.8,1-5.6,1.6h-0.1h-0.1c-1.3-0.3-2.7-0.6-4-0.8c-1.3-0.3-2.6-0.4-4-0.3c-2.7,0.3-5.4,0.8-7.9,1.7
			c-0.6,0.2-1.2,0.5-1.8,0.8c-0.6,0.3-1.1,0.7-1.3,1.2c-0.1,0.2,0,0.5,0.2,0.7s0.4,0.4,0.7,0.4c0.6,0.2,1.3,0.3,2,0.3
			c1.4,0,2.7-0.1,4.1-0.3c0.7-0.1,1.4-0.2,2.1-0.2c0.4,0,0.7,0,1.1,0.1c0.2,0,0.4,0.2,0.5,0.4c0,0.1,0,0.3,0,0.4
			c0,0.1-0.1,0.2-0.2,0.3l0,0l0,0c-2.1,1-4.2,1.9-6.3,2.8c-0.5,0.2-1.1,0.4-1.6,0.6c-0.6,0.2-1.1,0.3-1.7,0.4
			c-1.2,0.1-2.3,0.2-3.5,0.2c-1.1,0-2.3,0.1-3.4,0.2c-0.5,0.1-1,0.2-1.5,0.4c-0.4,0.2-0.5,0.5-0.3,0.9c0.3,0.4,0.7,0.7,1.2,0.8
			c0.5,0.2,1,0.4,1.6,0.5c1.1,0.3,2.2,0.4,3.3,0.5h0.1l0.1,0.1c1.8,1.1,3.7,2.3,5.6,3.3c0.5,0.3,0.9,0.5,1.4,0.7
			c0.2,0.1,0.5,0.2,0.7,0.3s0.4,0.1,0.6,0.2c1.1,0,2.1,0.1,3.2,0c2.1,0,4.3-0.3,6.3-0.7c2.1-0.5,4.1-1.1,6.1-1.9h0.1h0.1
			c2.4-0.5,4.8-1.3,7.2-2.2c2.4-0.9,4.7-1.9,7-2.9s4.6-2.1,6.9-3.1s4.6-2.2,6.8-3.3L7891.4,525.9z"/>
		<path class="st1" d="M7945.9,451.2c0,0,38,57.7-0.8,68.4"/>
		<path class="st0" d="M7956.2,498.6c0,0,1.6-27.8-6.9-48.5c-1.2-3-3.2-5.6-5.9-7.5c-2.4-1.7-5.5-2.9-8.9-1.8c-3.1,1-5.4,3.6-6,6.8
			c-1.7,8-5.7,29.5-4.8,48.8c0,0-37.6,10.5-50.6,21.6c-0.9,2-1.3,4.1-1.3,6.2c0,0-1,9.1,5.7,12.7c5.5,2.9,12-1.7,18.2-2.6
			c6.6-1,14.1,0.9,19.5-3c2.2-1.6,3.8-3.9,5.9-5.6c4.8-3.8,11.4-3.8,17.5-4.3h0.2c8.5-0.8,15.3-7.3,16.4-15.7L7956.2,498.6z"/>
		<path class="st1" d="M7956.1,498.6c0.4-10.6-0.4-21.2-2.5-31.5c-1-5.2-2.5-10.2-4.4-15.1c-0.2-0.6-0.5-1.2-0.7-1.8
			c-0.3-0.6-0.5-1.1-0.9-1.7c-0.6-1.1-1.4-2.1-2.2-3c-0.9-0.9-1.8-1.7-2.9-2.4c-1-0.7-2.2-1.2-3.4-1.5c-2.4-0.6-4.9-0.1-6.8,1.4
			c-1,0.7-1.7,1.7-2.3,2.8c-0.3,0.5-0.5,1.1-0.7,1.7c-0.1,0.3-0.2,0.6-0.2,0.9l-0.2,1c-1.1,5.2-2.1,10.4-2.9,15.6
			c-1.7,10.4-2.4,21-2,31.6v0.2l-0.2,0.1c-4.4,1.3-8.8,2.7-13.2,4.2c-4.4,1.5-8.7,3.1-12.9,4.9c-4.3,1.7-8.5,3.6-12.6,5.7
			c-4.1,2-8,4.4-11.5,7.2l0.2-0.3c-0.2,0.4-0.4,0.9-0.5,1.4c-0.2,0.5-0.3,1-0.4,1.5c-0.2,1-0.3,2-0.3,3l0,0v0.1
			c-0.2,2.2,0.1,4.4,0.9,6.5c0.7,2,2,3.8,3.8,4.9c0.9,0.6,1.8,0.9,2.9,1.1c1.1,0.1,2.1,0.1,3.2-0.1c2.2-0.5,4.4-1.1,6.5-1.9
			c1.1-0.4,2.2-0.7,3.4-1c1.2-0.3,2.4-0.5,3.6-0.6c2.4-0.2,4.8-0.2,7.1-0.2c2.3,0,4.5-0.2,6.7-0.6c1.1-0.3,2.1-0.7,3-1.2
			s1.8-1.2,2.6-2c1.6-1.5,3.1-3.5,5.3-4.8c2.1-1.3,4.4-2.1,6.8-2.6c2.3-0.4,4.7-0.6,7-0.7c1.2-0.1,2.3-0.1,3.5-0.2
			c1.1-0.1,2.3-0.3,3.3-0.6c2.2-0.6,4.3-1.7,6.1-3.1c1.8-1.4,3.4-3.2,4.5-5.2c1.2-2,1.9-4.2,2.3-6.5L7956.1,498.6z M7956.3,498.6
			l-0.9,6.9c-0.3,2.3-1,4.6-2.2,6.7c-1.1,2.1-2.7,3.9-4.5,5.5c-1.8,1.5-3.9,2.7-6.2,3.4c-1.1,0.4-2.3,0.6-3.5,0.8
			c-1.2,0.1-2.3,0.2-3.5,0.4c-2.3,0.2-4.6,0.5-6.8,1c-2.2,0.5-4.3,1.3-6.2,2.5c-1.8,1.2-3.2,3-4.9,4.8c-0.9,0.9-1.9,1.7-2.9,2.3
			c-1.1,0.6-2.3,1.1-3.5,1.4c-2.4,0.5-4.8,0.8-7.2,0.8c-2.4,0-4.7,0-6.9,0.2c-1.1,0.1-2.2,0.3-3.3,0.6c-1.1,0.3-2.2,0.6-3.3,1
			c-1.1,0.4-2.2,0.8-3.3,1.1c-1.2,0.4-2.3,0.7-3.5,0.9c-1.3,0.2-2.5,0.2-3.8,0s-2.5-0.7-3.6-1.4c-2.1-1.4-3.7-3.5-4.5-5.9
			c-0.4-1.2-0.7-2.4-0.8-3.6c-0.1-1.2-0.2-2.5-0.1-3.7v0.1c0-1.1,0.1-2.3,0.3-3.4c0.1-0.6,0.3-1.1,0.4-1.6c0.2-0.6,0.4-1.1,0.6-1.6
			l0.1-0.2l0.1-0.1l2.8-2.1l3-1.9c2-1.1,4.1-2.3,6.2-3.2c4.2-2,8.5-3.8,12.8-5.4s8.7-3.2,13.1-4.6s8.8-2.8,13.2-4l-0.2,0.3
			c-0.3-10.6,0.3-21.2,1.6-31.8c0.6-5.3,1.5-10.5,2.4-15.7l0.2-1c0.1-0.3,0.1-0.7,0.2-1c0.2-0.7,0.4-1.4,0.7-2
			c0.6-1.3,1.6-2.4,2.7-3.3c2.3-1.8,5.4-2.5,8.2-1.7c5.6,1.5,9.5,6.4,11.1,11.5c1.8,5,3.1,10.2,4,15.5c0.9,5.2,1.4,10.5,1.6,15.8
			c0.1,2.6,0.2,5.3,0.2,8C7956.4,493.3,7956.4,496,7956.3,498.6L7956.3,498.6z"/>
	</g>
	<g transform="translate(345.19 428.592) rotate(-20)">
		<g transform="translate(0)">
			<path class="st1" d="M84.7,26.2c-1.3-3.3-5.8-5-8.2-4.7c-0.1,0-0.3,0-0.4,0c-4-0.2-7.9,1.5-10.4,4.7c-1.7,2.2-3.6,4.2-6.6,4.3
				c-0.9,0-2.2-0.1-2.5-0.5c-0.4-0.9-0.3-1.9,0.2-2.7c1.6-2.4,3.3-4.7,5.1-6.9c2.5-3,2.1-6.6-0.2-11.3c0,0-19.3-30.4-24.7-34.4
				c-2.2-1.5-4.5-2.7-7-3.6c-0.8-0.4-2.5-0.9-3,0.1c-0.7,0.9,0.3,2.4,0.9,3.1c0.6,0.8,1.1,1.6,1.6,2.4c-0.9-0.4-1.7-0.7-2.6-1
				c-3.1-0.7-6.1-1.3-9.2-1.9c-0.7-0.2-1.4,0.2-1.8,0.8c-0.4,1.1,0.2,1.5,0.7,2.1c0.7,0.7,1.5,1.3,2.3,1.9c1.3,0.9,1.9,1.3,3.2,2.3
				c-1.1,0.1-2.1-0.3-3-0.4c-3.1-0.1-6.2-0.1-9.4,0C8.9-19.4,8.2-18.8,8-18c0.1,0.8,0.5,1.6,1.2,2c1.3,0.8,2.7,1.4,4.1,1.9
				c2.2,0.9,4.5,1.8,6.7,2.7c-0.3,0.2-0.7,0.4-1.1,0.3c-3.3,0.1-6.6,0-9.8,0.4c-0.9,0.1-2.7,0.1-2.4,2.4c0.2,1.1,1.4,1.7,2.3,2
				c1.8,0.6,3.7,1.2,5.6,1.6C12.2-4,10-3.3,7.9-2.5C7-2.1,5.3-0.4,6.2,0.6c1.1,1.3,4,2.1,5.6,2.7c-1,1.1-10,9.8-12.6,13.8
				c-1,1.4-1.6,3-1.6,4.8c0.2,2.8,3,4.6,5.6,5.6c2.5,1,5.2,1.6,7.6,2.9c2.4,1.3,4.5,3.5,4.9,6.2c0,0.8,0.1,1.5,0.3,2.2
				c0.5,1.5,2.1,2.3,3.3,3.3c1.2,1,2.1,3,0.9,4.1c-1.8,2.7-2.9,4.5-5.2,6.3c-1.5,1.1-3.1,2-4.7,2.7c-5.6,2.3-7.9,2.7-14,1.8
				c-1.2-0.1-2.9-0.3-5.2-0.7c-0.4-0.1-0.7,0.5-0.5,0.9c1.4,1.9,3.4,3.3,5.7,4c-2.4,1.5-9,2.6-11.4,2.8l-7.9,0.7
				c-1.4,0.1,0,1.8,0.4,2.2c1,0.6,1.9,1.3,2.8,2.1c1,1,1.2,2.5,2,3.7c1.4,2.1,4.3,2.7,6.8,2.6c9.7-0.4,11.7-7.9,21-10.7
				c0,0,5.6-1.6,16.3-1.2c0,0,21.4,1,37.8-13.2c0,0,8.8-9,15.9-10.1C85.7,39,86.9,31.7,84.7,26.2z"/>
			<path class="st1" d="M84.7,26.2c-0.7-1.5-1.9-2.8-3.4-3.5c-0.7-0.4-1.5-0.7-2.3-0.9c-0.8-0.2-1.6-0.3-2.5-0.2l0,0
				c-1.9-0.1-3.9,0.2-5.7,0.9c-1.8,0.7-3.4,1.9-4.7,3.3c-1.1,1.6-2.6,2.9-4.2,4c-0.9,0.5-1.8,0.7-2.8,0.8c-0.5,0-1,0-1.5-0.1
				c-0.2,0-0.5-0.1-0.7-0.2c-0.1,0-0.2-0.1-0.3-0.2s-0.2-0.2-0.2-0.3c-0.2-0.5-0.2-1-0.1-1.5c0.1-0.5,0.2-1,0.5-1.4
				c0.5-0.8,1.1-1.6,1.7-2.4c1.1-1.6,2.3-3.1,3.6-4.6c0.6-0.8,1-1.6,1.2-2.6c0.2-0.9,0.3-1.9,0.1-2.8c-0.3-1.9-0.9-3.7-1.9-5.4l0,0
				c-2.4-3.8-4.9-7.5-7.3-11.2c-2.5-3.7-5-7.4-7.6-11.1c-1.3-1.8-2.6-3.6-4-5.4c-1.4-1.8-2.7-3.5-4.2-5.2c-1.5-1.6-3.4-2.9-5.4-3.7
				c-1-0.5-2-0.9-3.1-1.4c-0.5-0.2-1-0.4-1.6-0.5c-0.5-0.1-1.1,0-1.3,0.4l0,0l0,0c-0.3,0.4-0.3,0.9,0,1.3c0.2,0.5,0.5,0.9,0.8,1.3
				c0.3,0.4,0.6,0.9,0.9,1.3l0.8,1.4l0.3,0.4l-0.5-0.2c-0.9-0.4-1.8-0.8-2.7-1l-2.9-0.6l-5.8-1.2c-0.2-0.1-0.5-0.1-0.7-0.1
				s-0.5,0-0.7,0.1s-0.4,0.2-0.5,0.4c-0.1,0.2-0.2,0.4-0.2,0.6c-0.1,0.5,0.1,0.9,0.5,1.2c0.2,0.2,0.3,0.4,0.5,0.5s0.4,0.3,0.6,0.5
				c1.5,1.2,3.2,2.3,4.8,3.5l0.3,0.2h-0.4c-1.3,0.1-2.4-0.4-3.6-0.4s-2.4-0.1-3.6-0.1c-1.2,0-2.4,0-3.6,0h-0.9c-0.3,0-0.6,0-0.9,0.1
				c-0.5,0.3-0.9,0.7-1.2,1.2c-0.1,0.3-0.1,0.5,0,0.8s0.2,0.5,0.4,0.8c0.2,0.2,0.4,0.4,0.6,0.6c0.2,0.2,0.5,0.3,0.8,0.5
				c1.1,0.6,2.2,1,3.3,1.5l6.7,2.7l0.1,0.1l-0.1,0.1c-0.3,0.2-0.6,0.3-0.9,0.3s-0.6,0-0.9,0h-1.9c-1.2,0-2.5,0-3.7,0.1
				C11.5-11,10.2-11,9-10.8c-0.6,0-1.2,0.2-1.7,0.6c-0.5,0.7-0.7,1.4-0.6,2l0,0C6.9-7.5,7.4-7,8.1-6.7C8.8-6.3,9.5-6,10.2-5.8
				c1.4,0.5,2.9,0.8,4.3,1.2l0.2,0.1l-0.2,0.1c-1.4,0.4-2.8,0.8-4.1,1.2C9.7-3.1,9-2.9,8.4-2.6C7.7-2.4,7.1-1.9,6.7-1.4
				C6.4-1.1,6.2-0.9,6.1-0.5C6-0.2,6,0.1,6.1,0.4c0.2,0.3,0.5,0.5,0.7,0.7c0.3,0.2,0.6,0.4,0.9,0.5c1.3,0.6,2.6,1.1,4,1.5h0.1
				l-0.1,0.1c-3.4,3.7-7,7.2-10.2,11.1c-0.8,0.9-1.6,1.9-2.3,3c-0.7,1-1.2,2.2-1.5,3.4c-0.2,1.2,0.1,2.5,0.8,3.5
				c0.8,1,1.7,1.8,2.8,2.4s2.3,1.1,3.4,1.4c1.2,0.4,2.4,0.8,3.6,1.2s2.3,1,3.4,1.7c1.1,0.7,2,1.6,2.7,2.6c0.8,1,1.2,2.3,1.3,3.6
				c0,0.6,0.1,1.2,0.3,1.8c0.2,0.6,0.6,1.1,1.1,1.4c0.5,0.4,1,0.8,1.5,1.1c0.5,0.4,1,0.8,1.4,1.3s0.7,1.1,0.8,1.8
				c0.1,0.7-0.1,1.4-0.6,1.9l0,0c-0.9,1.5-1.9,2.9-3,4.2c-1.2,1.3-2.5,2.4-4,3.3c-0.7,0.5-1.5,0.9-2.3,1.3c-0.8,0.4-1.6,0.7-2.4,1
				c-1.6,0.7-3.3,1.1-5,1.4c-1.7,0.2-3.5,0.2-5.2,0c-1.7-0.2-3.4-0.4-5.2-0.7l-1.3-0.2l-0.6-0.1H-9h-0.1c-0.1,0-0.1,0.1-0.1,0.1
				c-0.1,0.1-0.1,0.3,0,0.4c0.1,0.1,0.2,0.3,0.4,0.5c0.3,0.3,0.5,0.7,0.8,0.9c1.3,1.1,2.8,2,4.4,2.5l0.4,0.1l-0.4,0.2
				c-1.1,0.6-2.3,1.1-3.5,1.4c-1.2,0.3-2.4,0.6-3.6,0.8s-2.5,0.4-3.7,0.6l-3.7,0.3l-3.7,0.3l-0.9,0.1c-0.3,0-0.5,0.1-0.5,0.3
				c0,0.3,0.1,0.5,0.3,0.7c0.2,0.2,0.3,0.5,0.5,0.7c0.8,0.8,2.1,1.3,3,2.3c0.7,1,1.3,2.1,1.8,3.3c0.6,1,1.6,1.8,2.7,2.3
				c1.1,0.4,2.4,0.6,3.6,0.6c2.5,0,4.9-0.6,7.1-1.7c2.1-1.2,4.2-2.7,6-4.3c1.9-1.6,4.1-2.9,6.4-3.9c1.2-0.5,2.4-0.9,3.6-1.1
				c1.2-0.2,2.5-0.4,3.7-0.5c2.5-0.3,5-0.4,7.4-0.4h1.9h1.9c1.2,0,2.5,0,3.7-0.1c2.5-0.1,4.9-0.4,7.4-0.9c4.9-0.8,9.7-2.3,14.2-4.3
				s8.8-4.7,12.5-7.9l0,0c2.1-2.1,4.4-4,6.8-5.8s5.1-3.2,7.9-4.1c0.7-0.2,1.5-0.3,2.2-0.5c0.3-0.1,0.7-0.3,1-0.5s0.6-0.4,0.9-0.6
				c1.1-1,1.9-2.3,2.3-3.7C86,32.1,85.8,29,84.7,26.2z M84.8,26.2c1.1,2.8,1.3,5.9,0.6,8.8c-0.4,1.5-1.2,2.8-2.3,3.8
				c-0.3,0.2-0.6,0.5-0.9,0.7s-0.7,0.3-1,0.5c-0.7,0.2-1.4,0.4-2.2,0.5c-2.8,0.9-5.5,2.3-7.9,4.1c-2.4,1.7-4.7,3.7-6.8,5.8l0,0
				c-3.8,3.2-8,5.9-12.6,8c-4.5,2-9.3,3.5-14.2,4.4c-2.4,0.5-4.9,0.8-7.4,0.9c-1.2,0.1-2.5,0.1-3.7,0.1h-1.9h-1.9
				c-2.5,0-5,0.2-7.4,0.4c-2.5,0.2-4.9,0.7-7.2,1.6c-2.3,1-4.4,2.3-6.3,3.9s-3.9,3.1-6.1,4.3c-2.2,1.1-4.7,1.7-7.3,1.7
				c-1.3,0-2.5-0.2-3.7-0.7s-2.2-1.3-2.9-2.4c-0.5-1.1-1-2.2-1.7-3.2c-0.8-0.9-2-1.3-2.9-2.3c-0.2-0.2-0.4-0.5-0.6-0.8
				s-0.3-0.6-0.3-1c0-0.1,0.1-0.2,0.1-0.3c0.1-0.1,0.2-0.1,0.3-0.2c0.2-0.1,0.3-0.1,0.5-0.1l0.9-0.1l3.7-0.3l3.7-0.3
				c1.2-0.1,2.5-0.3,3.7-0.6s2.4-0.5,3.6-0.8s2.3-0.7,3.4-1.3l0,0.4C-5.4,61-7,60.1-8.3,58.9c-0.3-0.3-0.6-0.6-0.9-1
				c-0.1-0.2-0.3-0.3-0.4-0.6s-0.1-0.6,0.1-0.8c0.1-0.1,0.2-0.2,0.4-0.3c0.1,0,0.2,0,0.2,0h0.2l0.6,0.1l1.3,0.2
				c3.4,0.4,6.9,1.2,10.3,0.7c1.7-0.3,3.4-0.7,4.9-1.4c0.8-0.3,1.6-0.6,2.4-1c0.8-0.4,1.5-0.8,2.3-1.2c1.5-0.9,2.8-1.9,4-3.2
				c1.1-1.3,2.1-2.7,3-4.2l0,0l0,0c0.4-0.4,0.6-1,0.5-1.6s-0.4-1.1-0.7-1.6c-0.4-0.5-0.8-0.9-1.3-1.2c-0.5-0.4-1-0.7-1.5-1.2
				c-0.5-0.4-0.9-1-1.1-1.6c-0.2-0.6-0.3-1.3-0.3-1.9c-0.1-1.2-0.5-2.4-1.2-3.4c-0.7-1-1.6-1.9-2.7-2.6c-1-0.7-2.2-1.2-3.3-1.7
				C7.2,29,6,28.6,4.8,28.2s-2.4-0.9-3.5-1.5s-2.1-1.4-2.9-2.4c-0.8-1-1.1-2.4-0.9-3.7c0.3-1.2,0.8-2.4,1.5-3.5s1.5-2.1,2.3-3
				c3.3-3.8,6.8-7.3,10.4-10.9v0.1C10.4,3,9,2.4,7.7,1.8C7.4,1.7,7.1,1.5,6.8,1.3C6.5,1.1,6.2,0.8,6,0.5S5.8-0.3,6-0.6
				c0.1-0.3,0.3-0.7,0.6-0.9c0.5-0.6,1.1-1,1.8-1.2C9-3,9.7-3.3,10.3-3.5c1.4-0.4,2.8-0.8,4.1-1.2v0.1C13-5,11.5-5.3,10.1-5.8
				c-0.7-0.1-1.4-0.4-2-0.8C7.3-6.9,6.8-7.5,6.6-8.2l0,0C6.5-8.8,6.7-9.5,7.1-10c0.5-0.4,1.1-0.6,1.8-0.6c1.2-0.1,2.5-0.2,3.7-0.3
				c1.2-0.1,2.5-0.1,3.7-0.1h1.9c0.3,0,0.6,0,0.9,0s0.6-0.1,0.8-0.3v0.2L13.3-14c-1.1-0.4-2.2-0.9-3.3-1.5c-0.3-0.1-0.5-0.3-0.8-0.5
				s-0.5-0.4-0.7-0.7c-0.2-0.2-0.3-0.5-0.5-0.8c-0.1-0.2-0.1-0.3-0.1-0.5s0-0.3,0.1-0.5c0.3-0.6,0.7-1,1.3-1.3
				c0.2-0.1,0.3-0.1,0.5-0.1h0.5h0.9c1.2,0,2.4-0.1,3.6-0.1c1.2,0,2.4,0,3.6,0.1c1.2-0.1,2.4,0.4,3.6,0.4v0.3
				c-1.6-1.1-3.3-2.2-4.8-3.5c-0.2-0.2-0.4-0.3-0.6-0.5s-0.4-0.4-0.5-0.5c-0.2-0.2-0.3-0.4-0.5-0.6c-0.1-0.3-0.1-0.5-0.1-0.8
				c0-0.3,0.1-0.5,0.3-0.7s0.4-0.4,0.6-0.5c0.5-0.2,1-0.2,1.5,0l5.8,1.2l2.9,0.6c1,0.3,1.9,0.6,2.8,1.1l-0.2,0.2l-0.8-1.3
				c-0.3-0.4-0.6-0.9-0.9-1.3c-0.3-0.4-0.6-0.9-0.8-1.4c-0.1-0.3-0.2-0.5-0.2-0.8s0.1-0.6,0.3-0.8l0,0c0.1-0.3,0.4-0.5,0.7-0.6
				c0.3-0.1,0.6-0.1,0.9,0c0.6,0.1,1.1,0.3,1.6,0.5c1,0.4,2.1,0.9,3.1,1.4s2,1,3,1.6c0.5,0.3,0.9,0.6,1.4,1c0.4,0.4,0.8,0.8,1.2,1.2
				c1.5,1.7,2.9,3.4,4.3,5.2c1.3,1.8,2.7,3.6,3.9,5.4C49.5-9.7,52-6,54.5-2.3S59.4,5.2,61.8,9l0,0c0.9,1.7,1.6,3.6,1.9,5.5
				c0.1,1,0.1,2-0.1,2.9c-0.2,1-0.7,1.9-1.3,2.6c-1.2,1.5-2.4,3-3.6,4.6c-0.6,0.8-1.1,1.6-1.7,2.4c-0.3,0.4-0.5,0.8-0.5,1.3
				c-0.1,0.5,0,0.9,0.1,1.4c0.1,0.2,0.2,0.4,0.4,0.5s0.5,0.1,0.7,0.2c0.5,0.1,1,0.1,1.4,0.1c1-0.1,1.9-0.3,2.7-0.8
				c1.6-1,3-2.4,4.2-4c1.3-1.5,2.9-2.6,4.7-3.3c1.8-0.7,3.8-1,5.7-0.8l0,0c0.8-0.1,1.7,0,2.5,0.2c0.8,0.2,1.6,0.5,2.3,0.9
				C82.9,23.4,84.1,24.7,84.8,26.2L84.8,26.2z"/>
		</g>
		<path class="st0" d="M55.9,31.8c-0.8-0.2-1.5-0.6-2.1-1.1c-0.6-0.6-1-1.3-1.3-2.1c-0.3-0.8-0.4-1.6-0.4-2.4c0-0.8,0.2-1.6,0.4-2.4
			c0.2-0.7,0.5-1.5,0.9-2.2c0.3-0.7,0.5-1.4,0.7-2.1s0.3-1.4,0.3-2.1c0-0.7,0-1.5,0-2.2c-0.2-3-0.7-6-1.6-8.9
			c-0.4-1.5-0.8-3-1.3-4.5c-0.4-1.5-0.7-3-1-4.6h0.1c0.7,3,1.8,5.9,2.8,8.8s1.6,6,1.8,9.1c0.1,1.5,0,3.1-0.3,4.6
			c-0.2,0.8-0.4,1.5-0.8,2.2c-0.3,0.7-0.7,1.4-0.9,2.1c-0.3,0.7-0.4,1.5-0.5,2.2c0,0.8,0.1,1.5,0.3,2.3c0.2,0.7,0.6,1.4,1.1,2
			C54.5,31,55.2,31.5,55.9,31.8L55.9,31.8z"/>
		<path class="st0" d="M49.7,6.4c-0.3-0.5-0.6-1.1-0.9-1.6L48,3.2l-0.9-1.6L46.2,0c-1.2-2.1-2.5-4.2-3.9-6.2c-1.3-2-2.7-4-4.1-6.1
			c-0.7-1-1.4-2-2.1-3L35-16.8c-0.4-0.5-0.7-1-1.1-1.5l0.1-0.1c3.3,3.7,6.3,7.6,9,11.7C45.8-2.6,48,1.8,49.7,6.4L49.7,6.4z"/>
		<path class="st0" d="M15.8,3.3c1.5-0.3,3-0.3,4.4-0.1c1.5,0.2,2.9,0.5,4.4,0.9c1.4,0.5,2.8,1,4.1,1.7c1.3,0.7,2.5,1.5,3.6,2.5v0.1
			c-2.5-1.5-5.2-2.6-7.9-3.5C21.5,4,18.7,3.5,15.8,3.3L15.8,3.3z"/>
		<path class="st0" d="M39.2,39c-0.9,1.1-1.8,2.1-2.9,2.9c-1.1,0.9-2.2,1.6-3.5,2.2c-1.2,0.6-2.5,1.1-3.9,1.5
			c-1.3,0.4-2.7,0.5-4.1,0.5V46c2.6-0.5,5.2-1.4,7.6-2.7C34.9,42.2,37.1,40.7,39.2,39L39.2,39z"/>
		<path class="st0" d="M26.8,40.5c0.6-0.4,1.3-0.8,2-1.2c0.7-0.3,1.3-0.6,2-0.9c0.7-0.3,1.3-0.6,2.1-0.8c0.7-0.3,1.5-0.5,2.2-0.6
			v0.1c-1.3,0.8-2.6,1.6-4,2.2C29.8,39.8,28.3,40.3,26.8,40.5L26.8,40.5z"/>
		<path class="st0" d="M28.3-15.6c1,0.3,1.9,0.8,2.8,1.4c0.4,0.3,0.8,0.6,1.3,0.9c0.4,0.3,0.8,0.6,1.2,1s0.7,0.7,1.1,1.1
			c0.3,0.4,0.7,0.8,1,1.2c0.7,0.8,1.1,1.8,1.3,2.8h-0.1c-0.5-0.9-1.1-1.7-1.8-2.4c-0.7-0.7-1.4-1.4-2.1-2.1
			C31.5-13.1,29.9-14.3,28.3-15.6L28.3-15.6z"/>
		<path class="st0" d="M21.8-1.9c1.2,0.1,2.4,0.3,3.6,0.6c1.2,0.3,2.4,0.6,3.5,1c0.6,0.2,1.2,0.4,1.7,0.7c0.6,0.3,1.1,0.6,1.6,0.9
			c1.1,0.6,2,1.5,2.8,2.5l0,0c-0.9-0.8-2-1.4-3-1.9c-1.1-0.5-2.2-1-3.3-1.4c-1.1-0.4-2.3-0.8-3.4-1.2L21.8-1.9L21.8-1.9z"/>
		<path class="st0" d="M35.4,30.8c-1.1,0.7-2.3,1.3-3.6,1.8c-1.2,0.5-2.5,0.9-3.8,1.2c-1.3,0.3-2.7,0.5-4,0.5c-1.3,0.1-2.7,0-4-0.3
			v-0.1c2.6-0.1,5.3-0.4,7.8-1C30.4,32.4,32.9,31.6,35.4,30.8L35.4,30.8z"/>
		<g transform="translate(56.553 53.862)">
			<path class="st0" d="M27.3-29.2c-5.2-1-9.4-1.2-13.3,1.5c-2,1.3-3.9,5.2-5.7,6.7C-1.4-12.9-13.9-8.7-23-0.2
				c-0.5,0.5-1,1.1-0.8,1.7c0.3,1,1.8,0.9,2.6,1.6c0.8,0.7,0.7,1.9,0.3,2.9c-0.5,0.9-0.7,1.9-0.8,2.9c7.8-1,19.5-4,29.4-12.6
				c0,0,8.8-9,15.9-10.1c5.5-1.1,6.7-8.4,4.5-13.9C28-28.2,27.7-28.7,27.3-29.2z"/>
			<path class="st1" d="M27.3-29.1c-1.5-0.2-2.9-0.4-4.4-0.5c-1.5-0.1-2.9,0.1-4.4,0.4c-1.4,0.3-2.8,0.9-4,1.7
				c-1.1,0.9-2.1,1.9-2.9,3.2c-0.8,1.3-1.8,2.5-2.8,3.6c-1.2,1-2.3,1.9-3.6,2.8c-2.4,1.7-5,3.3-7.6,4.8c-5.2,2.9-10.6,5.6-15.4,9
				c-1.2,0.9-2.4,1.8-3.5,2.7c-0.5,0.5-1.1,1-1.7,1.5c-0.3,0.2-0.5,0.5-0.6,0.8s-0.1,0.6,0.1,0.9c0.2,0.2,0.5,0.4,0.8,0.5
				c0.4,0.1,0.7,0.2,1.1,0.4c0.4,0.2,0.7,0.5,0.9,0.8c0.2,0.4,0.3,0.8,0.3,1.2c0,0.8-0.2,1.6-0.5,2.3c-0.3,0.6-0.4,1.3-0.4,2
				l-0.4-0.3c2.7-0.4,5.3-1,7.9-1.7s5.1-1.6,7.6-2.7c4.9-2.1,9.5-4.9,13.5-8.4l0,0c2.2-2.2,4.7-4.3,7.3-6.1c1.3-0.9,2.7-1.7,4.1-2.4
				s3-1.3,4.5-1.6c0.4-0.1,0.7-0.1,1.1-0.2c0.3-0.1,0.7-0.2,1-0.4c0.6-0.3,1.2-0.8,1.7-1.3c0.9-1.2,1.6-2.6,1.8-4
				c0.3-1.5,0.3-3,0-4.6c-0.1-0.8-0.3-1.5-0.5-2.3c-0.1-0.4-0.2-0.7-0.4-1.1C27.7-28.5,27.5-28.8,27.3-29.1z M27.3-29.2
				c0.5,0.6,0.9,1.3,1.2,2.1c0.3,0.7,0.5,1.5,0.7,2.3c0.3,1.6,0.4,3.2,0.2,4.7c-0.2,1.6-0.8,3.2-1.8,4.5c-0.5,0.7-1.2,1.2-1.9,1.6
				c-0.4,0.2-0.8,0.4-1.2,0.5c-0.4,0.1-0.8,0.2-1.2,0.3c-1.5,0.3-2.9,0.9-4.2,1.6c-1.4,0.7-2.7,1.5-3.9,2.4c-2.5,1.8-4.9,3.8-7,6
				l0,0l0,0C6.1-1.4,3.9,0.2,1.5,1.6C-0.8,3-3.3,4.3-5.8,5.3s-5.1,1.9-7.8,2.5c-2.6,0.7-5.3,1.2-8,1.5H-22V9c0-0.8,0.1-1.6,0.5-2.3
				c0.3-0.6,0.5-1.3,0.6-2c0.1-0.7-0.3-1.3-0.9-1.6c-0.3-0.2-0.7-0.3-1-0.4c-0.4-0.1-0.8-0.4-1-0.7c-0.3-0.4-0.3-0.9-0.1-1.3
				c0.2-0.4,0.4-0.7,0.7-1c0.6-0.5,1.1-1,1.7-1.5s1.2-0.9,1.7-1.4c0.5-0.5,1.2-0.9,1.8-1.4C-13.2-8-8-11-2.9-14.1
				c2.5-1.5,5.1-3.1,7.5-4.8c0.6-0.4,1.2-0.9,1.8-1.3c0.6-0.5,1.2-0.9,1.7-1.4c1-1,1.9-2.2,2.8-3.4c0.4-0.6,0.9-1.2,1.4-1.8
				c0.5-0.6,1.1-1.1,1.8-1.5c1.3-0.8,2.8-1.4,4.3-1.7c1.5-0.3,3-0.3,4.5-0.1S25.9-29.6,27.3-29.2L27.3-29.2z"/>
		</g>
		<g transform="translate(103.931 52.626)">
			<path class="st0" d="M-23.3-28.5c0,0-1.7,9,0,12.6c0,0,0.8,3.9,9.3,1.3c0,0,13.3-5.8,21.5-2.6c0,0-1.8-7.6-11.5-10.7
				C-4-27.9-14.9-31.5-23.3-28.5z"/>
			<path class="st1" d="M-23.3-28.5c-0.1,1-0.2,2.1-0.3,3.1c-0.1,1-0.1,2.1-0.1,3.2c0,1,0,2.1,0.1,3.1c0.1,1,0.3,2,0.7,2.9l0,0v0.1
				c0,0.1,0.1,0.3,0.2,0.4c0.1,0.1,0.2,0.3,0.3,0.4c0.3,0.2,0.6,0.4,0.9,0.6c0.7,0.3,1.5,0.4,2.3,0.4s1.6-0.1,2.4-0.2
				c0.8-0.1,1.6-0.3,2.5-0.5l0,0c1.7-0.7,3.5-1.2,5.3-1.7s3.6-0.9,5.4-1.2C-3-18-2.5-18-2.1-18.1c0.5-0.1,0.9-0.1,1.4-0.2l1.4-0.1
				h1.4c1.9,0,3.8,0.2,5.6,0.8l-0.6,0.5c-0.5-1.4-1.1-2.6-2-3.8c-0.8-1.2-1.9-2.2-3-3.1c-2.3-1.8-5-3-7.8-3.7
				c-2.9-0.8-5.8-1.2-8.7-1.4c-0.7-0.1-1.5-0.1-2.2-0.1h-1.1c-0.4,0-0.7,0-1.1,0.1l-1.1,0.1l-1.1,0.2l-0.6,0.1l-0.5,0.1L-23.3-28.5z
				 M-23.4-28.5c2.8-1.1,5.9-1.6,8.9-1.6s6.1,0.4,9,1.1c0.7,0.2,1.5,0.4,2.2,0.6l1.1,0.4c0.4,0.1,0.7,0.3,1.1,0.5
				c0.7,0.3,1.4,0.7,2,1.1s1.3,0.9,1.9,1.4c2.4,2,4.2,4.6,5.1,7.6l0.2,0.9l-0.8-0.3c-1.7-0.6-3.5-1-5.3-1.1c-1.8-0.1-3.7,0-5.5,0.3
				c-1.8,0.3-3.6,0.7-5.4,1.3c-1.7,0.6-3.4,1.2-5.1,2l0,0l0,0c-0.8,0.3-1.7,0.5-2.5,0.7c-0.9,0.2-1.7,0.3-2.6,0.3s-1.8-0.2-2.7-0.5
				c-1-0.4-1.7-1.1-2-2.1v0.1c-0.4-1-0.6-2.1-0.7-3.3c-0.1-1.1,0-2.2,0.1-3.2c0.1-1.1,0.2-2.1,0.4-3.2
				C-23.8-26.4-23.6-27.4-23.4-28.5L-23.4-28.5z"/>
		</g>
		<path class="st1" d="M79.8,31.7c2.7-0.4,5.4-0.7,8.1-0.9c2.7-0.2,5.4-0.2,8.1,0c2.7,0.1,5.4,0.6,8,1.2c2.6,0.6,5.1,1.8,7.3,3.4
			c-2.2-1.5-4.8-2.5-7.4-3.1s-5.3-0.9-8-0.9c-2.7-0.1-5.4,0-8.1,0.3c-2.7,0.2-5.3,0.6-8,1.2V31.7z"/>
		<path class="st1" d="M106.9,28.5c-0.9,0.1-1.7,0.1-2.6,0.1c-0.7-0.1-1.4,0.1-2,0.5c-0.3,0.3-0.6,0.7-0.8,1.1
			c-0.5,0.6-1.2,1-1.9,1.2c4.4,0.5,8.7,1.7,11.8,4C110.6,32.7,109.1,30.4,106.9,28.5z"/>
		<g transform="translate(98.181 56.642)">
			<path class="st1" d="M-20.5-27.7c0,0.5-0.1,1.1-0.4,1.6s-0.9,0.8-1.5,0.8c-0.6-0.1-1.1-0.4-1.4-0.8s-0.5-1-0.6-1.5
				c-0.1-0.6,0.1-1.2,0.5-1.6c0.4-0.5,0.9-0.8,1.6-0.8c0.6,0,1.2,0.3,1.5,0.8C-20.6-28.8-20.5-28.3-20.5-27.7z M-20.5-27.7
				c0-0.5-0.2-1-0.6-1.3c-0.3-0.3-0.8-0.5-1.2-0.5c-0.5,0-0.9,0.2-1.2,0.6c-0.3,0.4-0.5,0.8-0.6,1.3s0.1,1,0.4,1.4s0.8,0.6,1.3,0.5
				c0.5,0,0.9-0.2,1.2-0.6C-20.8-26.7-20.5-27.2-20.5-27.7z"/>
			<path class="st1" d="M-21-29.2c-0.1,0-0.1,0-0.2,0c-0.7,0-1.2,0.6-1.2,1.3c0,0.7,0.5,1.3,1.2,1.3c0.2,0,0.3,0,0.5-0.1
				c0.2-0.3,0.2-0.7,0.2-1C-20.5-28.3-20.7-28.8-21-29.2z"/>
		</g>
	</g>
</g>
</svg>
