<?xml version="1.0" encoding="utf-8"?>
<!-- Generator: Adobe Illustrator 21.0.0, SVG Export Plug-In . SVG Version: 6.00 Build 0)  -->
<svg version="1.1" id="Layer_1" xmlns="http://www.w3.org/2000/svg" xmlns:xlink="http://www.w3.org/1999/xlink" x="0px" y="0px"
	 viewBox="0 0 400 256" style="enable-background:new 0 0 400 256;" xml:space="preserve">
<style type="text/css">
	.st0{fill:#4284F3;}
	.st1{fill:#FFFFFF;}
	.st2{fill:#333333;}
	.st3{fill:#F5A623;}
	.st4{fill:#00021E;}
	.st5{fill:#FFFFFF;stroke:#000000;stroke-width:0.434;stroke-miterlimit:10;}
	.st6{fill:none;stroke:#F5A623;stroke-width:1.384;stroke-miterlimit:10;}
	.st7{fill:#E5E5E5;}
</style>
<g transform="translate(1555.834 -2662.016)">
	<g transform="translate(-1347.942 2681.143)">
		<path class="st0" d="M36.2,2c0,0-15.7,72.7-19.5,102.8h75.1L111.9,2H36.2z"/>
		<path d="M36.2,2l-5.1,25.6c-1.7,8.6-3.4,17.1-5,25.7s-3.3,17.1-4.8,25.7s-3,17.2-4.2,25.8l-0.4-0.5l18.8,0.1l9.4,0.1l9.4,0
			c6.3,0,12.5,0,18.8,0c6.3,0,12.5-0.1,18.8-0.1l-0.3,0.2L96.4,79l4.9-25.7l5-25.7l5-25.7l0.5,0.6c-6.3,0-12.6,0-18.8-0.1L74.2,2.4
			L36.2,2z M36.1,2l37.7-0.3l19-0.1c6.3,0,12.7,0,19-0.1h0.7l-0.1,0.7l-5,25.7l-5.1,25.7l-5.1,25.7l-5.1,25.7l0,0.2h-0.2
			c-6.3,0-12.5-0.1-18.8-0.1c-6.3,0-12.5,0-18.8,0l-9.4,0l-9.4,0.1l-18.8,0.1h-0.5l0.1-0.5c1.1-8.7,2.5-17.3,4.1-25.9
			c1.6-8.6,3.2-17.2,4.9-25.7c0.8-4.3,1.7-8.6,2.6-12.8l2.7-12.8c0.9-4.3,1.8-8.5,2.8-12.8l1.4-6.4l0.7-3.2l0.4-1.6l0.2-0.8L36.1,2z
			"/>
	</g>
	<g transform="translate(-1336.159 2737.702)">
		<path class="st1" d="M78.8,6.3c-2.2,0.1-4.4,0.2-6.7,0.3c-2.2,0-4.4,0.1-6.7,0c-2.2,0-4.4-0.2-6.7-0.2c-2.2,0-4.4,0-6.7,0.1
			c-2.2,0.1-4.4,0.1-6.7,0.2c-2.2,0-4.4,0.1-6.7,0.1c-4.4,0-8.9-0.1-13.3-0.4V6.2c4.4-0.3,8.9-0.4,13.3-0.4c2.2,0,4.4,0,6.7,0.1
			c2.2,0,4.4,0.1,6.7,0.2c2.2,0.1,4.4,0.1,6.7,0.1s4.4-0.2,6.7-0.2c2.2-0.1,4.4,0,6.7,0C74.4,5.9,76.6,6,78.8,6.3L78.8,6.3z"/>
		<path class="st1" d="M75,13.3c-2.2,0.1-4.4,0.2-6.7,0.3c-2.2,0-4.4,0.1-6.7,0c-2.2,0-4.4-0.2-6.7-0.2s-4.4,0-6.7,0.1
			s-4.4,0.1-6.7,0.2c-2.2,0-4.4,0.1-6.7,0.1c-4.4,0-8.9-0.1-13.3-0.4v-0.1c4.4-0.3,8.9-0.4,13.3-0.4c2.2,0,4.4,0,6.7,0.1
			c2.2,0,4.4,0.1,6.7,0.2s4.4,0.1,6.7,0.1s4.4-0.2,6.7-0.2s4.4,0,6.7,0C70.6,12.9,72.8,13,75,13.3L75,13.3z"/>
		<path class="st1" d="M71.7,20.3c-2.2,0.1-4.4,0.2-6.7,0.3c-2.2,0-4.4,0.1-6.7,0s-4.4-0.2-6.7-0.2c-2.2,0-4.4,0-6.7,0.1
			s-4.4,0.1-6.7,0.2c-2.2,0-4.4,0.1-6.7,0.1c-4.4,0-8.9-0.1-13.3-0.4v-0.1c4.4-0.3,8.9-0.4,13.3-0.4c2.2,0,4.4,0,6.7,0.1
			c2.2,0,4.4,0.1,6.7,0.2s4.4,0.1,6.7,0.1c2.2,0,4.4-0.2,6.7-0.2s4.4,0,6.7,0C67.3,20,69.5,20,71.7,20.3L71.7,20.3z"/>
		<path class="st1" d="M70.4,27.3c-2.2,0.1-4.4,0.2-6.7,0.3c-2.2,0-4.4,0.1-6.7,0s-4.4-0.2-6.7-0.2c-2.2,0-4.4,0-6.7,0.1
			c-2.2,0.1-4.4,0.1-6.7,0.2c-2.2,0-4.4,0.1-6.7,0.1c-4.4,0-8.9-0.1-13.3-0.4v-0.1c4.4-0.3,8.9-0.4,13.3-0.4c2.2,0,4.4,0,6.7,0.1
			s4.4,0.1,6.7,0.2s4.4,0.1,6.7,0.1s4.4-0.2,6.7-0.2s4.4,0,6.7,0C65.9,27,68.1,27,70.4,27.3L70.4,27.3z"/>
	</g>
	<g transform="translate(-1318.442 2695.917)">
		<g transform="translate(2.537 0)">
			<path class="st1" d="M37.3,10.1c3.9-0.1,7.5,2.2,8.9,5.9l7.2-3.1c-2-6.1-7.6-10.2-14.8-10.2c-7.8,0-15.3,4.7-19.4,11.5l6.4,2.6
				C28.1,12.8,32.5,10.3,37.3,10.1z"/>
			<path class="st2" d="M37.3,10.1c1.9,0,3.8,0.5,5.5,1.5c1.7,1,3,2.6,3.7,4.4l-0.3-0.1c1.2-0.5,2.4-1.1,3.6-1.6
				c1.2-0.5,2.4-1,3.6-1.5L53.1,13c-1.1-3.4-3.3-6.3-6.4-8.1C43.7,3.2,40.1,2.5,36.5,3c-3.5,0.5-6.8,1.8-9.7,3.8
				c-2.9,2-5.4,4.6-7.2,7.6l-0.2-0.5l3.2,1.3c1.1,0.4,2.1,0.9,3.2,1.3l-0.4,0.1c0.7-1,1.4-1.9,2.3-2.7c0.9-0.8,1.8-1.5,2.9-2.1
				c1-0.6,2.1-1,3.3-1.3C34.9,10.2,36.1,10.1,37.3,10.1z M37.3,10.1c-1.2,0-2.3,0.2-3.4,0.5c-1.1,0.3-2.2,0.8-3.1,1.5
				c-1,0.6-1.9,1.3-2.7,2.2c-0.8,0.8-1.5,1.7-2.1,2.7l-0.1,0.2l-0.2-0.1c-1.1-0.4-2.1-0.8-3.2-1.3l-3.2-1.3l-0.4-0.2l0.2-0.4
				c1.9-3.1,4.4-5.7,7.5-7.7c3-2,6.5-3.3,10.1-3.6c1.8-0.2,3.6-0.1,5.4,0.2c1.8,0.3,3.5,0.9,5,1.8c3.2,1.8,5.6,4.7,6.8,8.1l0.1,0.3
				l-0.3,0.1c-1.2,0.5-2.4,1-3.6,1.5s-2.4,1-3.6,1.5l-0.2,0.1L46,16.1c-0.6-1.8-1.8-3.3-3.3-4.4c-0.8-0.5-1.6-0.9-2.6-1.2
				C39.2,10.3,38.2,10.1,37.3,10.1z"/>
		</g>
		<g transform="translate(0 12.038)">
			<path class="st1" d="M35.6,21.2c-6.3,0-10.5-5.2-9.4-11.6c0.2-1.1,0.5-2.2,1-3.2l-6.4-2.6c-0.9,1.8-1.6,3.8-1.9,5.8
				c-1.9,10.5,5,18.9,15.3,18.9c7.4,0,14.7-4.4,18.9-10.7L46.9,15C44.4,18.7,40.2,21.1,35.6,21.2z"/>
			<path class="st2" d="M35.6,21.2c-1.7,0-3.4-0.4-5-1.2c-1.5-0.8-2.8-2.1-3.6-3.6c-0.8-1.5-1.3-3.3-1.2-5c0-0.2,0-0.4,0-0.7
				l0.1-0.6c0-0.4,0.1-0.9,0.2-1.3c0.2-0.9,0.5-1.7,0.9-2.5l0.2,0.4c-0.5-0.2-1.1-0.4-1.6-0.6L24,5.4c-1.1-0.4-2.1-0.9-3.2-1.3
				L21.1,4c-0.5,1-1,2.1-1.4,3.2c-0.4,1.1-0.6,2.3-0.8,3.4c-0.4,2.3-0.2,4.7,0.4,7c0.6,2.3,1.8,4.3,3.4,6.1c1.6,1.7,3.6,3,5.8,3.7
				c0.3,0.1,0.6,0.2,0.8,0.3l0.8,0.2c0.3,0.1,0.6,0.1,0.9,0.2l0.9,0.1c1.2,0.1,2.3,0.2,3.5,0.1c2.3-0.2,4.6-0.8,6.7-1.7
				c2.1-1,4.1-2.2,5.9-3.7c1.8-1.5,3.3-3.3,4.7-5.2l0.1,0.5c-2.1-1-4.1-2-6.2-3l0.3-0.1c-1.3,1.8-3.1,3.3-5.1,4.4
				c-1,0.5-2,1-3.1,1.3C37.8,21.1,36.7,21.2,35.6,21.2z M35.6,21.2c2.2,0,4.4-0.7,6.3-1.8c1.9-1.1,3.5-2.7,4.8-4.5l0.1-0.2l0.2,0.1
				c2.1,0.9,4.2,1.9,6.3,2.8l0.4,0.2L53.4,18c-1.3,2-2.9,3.8-4.8,5.4c-1.8,1.5-3.9,2.8-6.1,3.8c-2.2,0.9-4.6,1.5-7,1.7
				c-2.4,0.1-4.8-0.2-7.1-1c-2.3-0.8-4.3-2.2-5.9-4c-1.6-1.8-2.8-3.9-3.4-6.2c-0.6-2.3-0.8-4.7-0.5-7.1c0.3-2.4,0.9-4.7,2-6.8
				l0.1-0.2L21,3.6c1.1,0.4,2.1,0.8,3.2,1.3l1.6,0.6c0.5,0.2,1.1,0.4,1.6,0.6l0.3,0.1l-0.1,0.3c-0.4,0.8-0.7,1.5-0.9,2.4
				c-0.1,0.4-0.2,0.8-0.2,1.2l-0.1,0.6c0,0.2,0,0.4,0,0.6c-0.1,1.7,0.2,3.4,1,4.9c0.8,1.5,1.9,2.8,3.4,3.6
				C32.2,20.7,33.9,21.2,35.6,21.2z"/>
		</g>
		<g transform="translate(27.013 10.641)">
			<path class="st1" d="M22.2,11c-0.2,1.3-0.7,2.6-1.3,3.7l6.2,2.9c1.1-2.1,1.9-4.3,2.4-6.6c0.4-2.4,0.4-4.8-0.1-7.1L22.2,7
				C22.4,8.3,22.4,9.7,22.2,11z"/>
			<path class="st2" d="M22.2,11c-0.1,0.7-0.3,1.3-0.5,1.9c-0.2,0.6-0.4,1.3-0.7,1.9l-0.1-0.2c0.5,0.2,1.1,0.4,1.6,0.6
				c0.5,0.2,1,0.5,1.6,0.7c0.5,0.2,1,0.5,1.5,0.7c0.5,0.3,1,0.5,1.5,0.8l-0.3,0.1c0.6-1,1.1-2.1,1.6-3.2c0.4-1.1,0.7-2.3,0.9-3.4
				c0.2-1.2,0.2-2.3,0.2-3.5c0-1.2-0.2-2.3-0.4-3.5l0.5,0.2c-1.2,0.5-2.4,1-3.6,1.5s-2.4,1-3.7,1.4l0.1-0.2c0.1,0.7,0.1,1.4,0.1,2.1
				C22.4,9.7,22.3,10.4,22.2,11z M22.1,11c0.1-0.7,0.2-1.3,0.1-2c0-0.7-0.1-1.3-0.3-2l0-0.1l0.2-0.1c1.2-0.6,2.3-1.2,3.5-1.7
				c1.2-0.5,2.4-1.1,3.6-1.5l0.4-0.2l0.1,0.4C30,5,30.1,6.2,30.1,7.4c0,1.2-0.2,2.4-0.4,3.6c-0.3,1.2-0.6,2.3-1,3.4
				c-0.4,1.1-0.8,2.2-1.4,3.3l-0.1,0.2L27,17.8c-0.5-0.2-1.1-0.4-1.6-0.7c-0.5-0.2-1-0.5-1.6-0.7c-0.5-0.2-1-0.5-1.5-0.8
				s-1-0.5-1.5-0.8l-0.2-0.1l0.1-0.2c0.3-0.6,0.6-1.1,0.9-1.8C21.8,12.3,22,11.7,22.1,11L22.1,11z"/>
		</g>
	</g>
	<g transform="translate(-1472.151 2692.312)">
		<path class="st3" d="M21.5,2.8H104l-9.6,55.8H7.2L21.5,2.8z"/>
		<path d="M21.5,2.7l10.2-0.1L42,2.5l10.3-0.1l10.3-0.1l10.3,0l5.2,0l5.2,0l10.4,0L104,2.4h0.4l-0.1,0.4l-2.5,13.9l-2.5,13.9
			c-0.8,4.6-1.6,9.3-2.4,14s-1.5,9.3-2.3,14l0,0.2h-0.2L72.6,59l-21.8,0.1c-7.3,0-14.5,0.1-21.8,0l-21.8,0H6.5l0.2-0.7l3.7-14
			l3.7-14L21.5,2.7z M21.5,2.8l-6.9,28.1l-3.5,13.9L7.7,58.8l-0.5-0.7l21.8,0c7.3,0,14.5,0,21.8,0l21.8,0.1l21.8,0.2l-0.3,0.2
			c0.8-4.6,1.7-9.3,2.5-13.9s1.6-9.3,2.4-14l2.3-14l2.3-14l0.3,0.4L93.8,3.2l-10.3,0l-5.1,0l-5.1,0l-10.3,0L52.6,3.1L42.3,3
			L31.9,2.9L21.5,2.8z"/>
	</g>
	<g transform="translate(-1426.692 2662.016)">
		<path class="st1" d="M21.3,0.5h61.1l-7.1,41.3H10.8L21.3,0.5z"/>
		<path d="M21.3,0.4l7.6-0.1l7.6-0.1l7.6-0.1l7.7-0.1C56.8,0,62,0,67.1,0l7.7,0l7.7,0.1h0.4l-0.1,0.4l-1.9,10.3L79,21.2
			c-0.6,3.4-1.2,6.9-1.8,10.3c-0.6,3.4-1.1,6.9-1.7,10.3l0,0.2h-0.2l-16.1,0.2L43,42.3l-16.1,0.1l-16.1,0h-0.7l0.2-0.7L13,31.3
			c0.9-3.5,1.8-6.9,2.8-10.3l2.8-10.3L21.3,0.4z M21.4,0.5L18.9,11l-2.5,10.4c-0.8,3.5-1.7,6.9-2.5,10.3l-2.5,10.3l-0.5-0.7l16.1,0
			L43,41.3l16.1,0.1l16.1,0.2L75,41.7c0.6-3.4,1.3-6.9,1.9-10.3c0.6-3.4,1.2-6.9,1.8-10.3l1.7-10.3l1.7-10.4l0.3,0.4l-7.6,0.1
			l-7.6,0c-5.1,0-10.1,0-15.2-0.1l-7.6-0.1l-7.6-0.1l-7.7-0.1L21.4,0.5z"/>
	</g>
	<g transform="translate(-1422.923 2716.865)">
		<path class="st1" d="M30.3,4.7c0,0-15.7,72.7-19.5,102.8h96.7L127.7,4.7H30.3z"/>
		<path d="M30.4,4.8l-5.1,25.6c-1.7,8.6-3.4,17.1-5,25.7s-3.3,17.1-4.8,25.7s-3,17.2-4.2,25.8l-0.4-0.5l24.2,0.1l12.1,0.1l12.1,0
			c8.1,0,16.1,0,24.2,0c8.1,0,16.1-0.1,24.2-0.1l-0.3,0.2l4.9-25.7l4.9-25.7l5-25.7l5-25.7l0.5,0.7c-8.1,0-16.2,0-24.2-0.1L79.1,5.1
			L30.4,4.8z M30.3,4.7l48.6-0.3l24.4-0.1c8.1,0,16.3,0,24.4-0.1h0.7l-0.1,0.7l-5,25.7l-5.1,25.7L113,81.9l-5.1,25.7l0,0.2h-0.2
			c-8.1,0-16.1-0.1-24.2-0.1s-16.1,0-24.2,0l-12.1,0L35,107.8L10.8,108h-0.5l0.1-0.5c1.1-8.7,2.5-17.3,4.1-25.9
			c1.6-8.6,3.2-17.2,4.9-25.7c0.8-4.3,1.7-8.6,2.6-12.8l2.7-12.8c0.9-4.3,1.8-8.5,2.8-12.8l1.4-6.4l0.7-3.2l0.4-1.6l0.2-0.8
			L30.3,4.7z"/>
	</g>
	<g transform="translate(-1494.715 2772.258)">
		<path d="M108.7,49.5c0,0,3,6.8,0.5,6.2l-5.9-4.2L108.7,49.5z"/>
		<g transform="translate(87.6 29.223)">
			<path class="st1" d="M11.6,16.4c1.8-0.9,10.2-4.3,13.3-4.5c2.4-0.8,4.9-1,7.4-0.6c1.3,0.7,2.6,1.6,3.7,2.5c0,0,3,0.5,2.9,1.5
				c-0.1,1.1-3.6,0.2-5,0.5c-1.3,0.3-2.6,0.7-3.9,1.2c-0.2,0.2-0.1,0.4,0.7,0.4c0.8,0,4.1-0.5,4.2,0.7c0.1,1.2-4.5,1.8-5.9,1.6
				c-1.1-0.2-2.1-0.5-3.2-0.8c-2.6,0.7-10.4,6.7-10.8,6.9"/>
			<path d="M11.6,16.3c1-0.5,2.1-1,3.2-1.5c1.1-0.5,2.2-0.9,3.3-1.3c1.1-0.4,2.2-0.8,3.3-1.2c1.1-0.4,2.3-0.7,3.5-0.9l-0.1,0
				c1-0.3,2-0.6,3-0.7c1-0.1,2-0.2,3.1-0.1c0.5,0,1,0.1,1.5,0.2c0.2,0,0.3,0.1,0.5,0.2c0.1,0.1,0.2,0.1,0.3,0.2
				c0.2,0.1,0.4,0.3,0.6,0.4c0.8,0.6,1.6,1.2,2.4,1.8l-0.1-0.1c0.5,0.1,1.1,0.2,1.6,0.4c0.3,0.1,0.5,0.2,0.8,0.3
				c0.3,0.1,0.5,0.4,0.7,0.6c0.1,0.2,0.1,0.4,0,0.6c-0.1,0.2-0.2,0.3-0.4,0.4c-0.3,0.1-0.6,0.1-0.9,0.1c-0.5,0-1.1,0-1.6-0.1
				c-0.5,0-1.1-0.1-1.6-0.1c-0.3,0-0.5,0-0.8,0.1c-0.3,0.1-0.5,0.1-0.8,0.2c-1,0.3-2,0.6-3,1l0,0c-0.3,0.1,0.2,0.2,0.5,0.2
				c0.3,0,0.6,0,0.9,0c0.6-0.1,1.3-0.1,1.9-0.1c0.3,0,0.7,0.1,1,0.2c0.2,0.1,0.3,0.2,0.5,0.3c0.1,0.2,0.2,0.4,0.1,0.6
				c-0.1,0.2-0.2,0.4-0.4,0.5c-0.1,0.1-0.3,0.2-0.4,0.3c-0.3,0.1-0.6,0.3-0.9,0.4c-0.6,0.2-1.3,0.3-1.9,0.4C30.8,20,30.2,20,29.5,20
				c-0.2,0-0.3,0-0.5,0c-0.2,0-0.3-0.1-0.5-0.1c-0.3-0.1-0.6-0.1-0.9-0.2c-0.6-0.2-1.2-0.4-1.8-0.6l0.2,0c-1,0.3-1.9,0.8-2.8,1.4
				c-0.9,0.5-1.8,1.1-2.7,1.7L17.7,24c-0.9,0.6-1.8,1.2-2.7,1.8l0-0.1l2.6-2c0.9-0.7,1.7-1.3,2.6-1.9c0.9-0.6,1.8-1.2,2.7-1.8
				c0.5-0.3,0.9-0.6,1.4-0.8c0.5-0.3,1-0.5,1.5-0.7l0.1,0l0.1,0c0.6,0.2,1.2,0.4,1.8,0.5c0.6,0.2,1.2,0.3,1.8,0.3
				c1.2,0,2.5-0.2,3.7-0.5c0.3-0.1,0.6-0.2,0.9-0.3c0.2-0.1,0.5-0.2,0.6-0.5c0-0.1,0-0.2,0-0.3c-0.1-0.1-0.2-0.2-0.3-0.2
				c-0.3-0.1-0.6-0.2-0.9-0.2c-0.6,0-1.3-0.1-1.9,0c-0.3,0-0.6,0-1,0c-0.2,0-0.3,0-0.5-0.1c-0.1,0-0.2-0.1-0.3-0.2
				c0-0.1,0-0.2,0.1-0.3l0,0l0,0c1-0.4,2-0.7,3-1c0.3-0.1,0.5-0.2,0.8-0.2c0.3-0.1,0.5-0.1,0.8-0.1c0.5,0,1.1,0,1.6,0
				c0.5,0,1.1,0,1.6,0c0.2,0,0.5-0.1,0.7-0.1c0.2-0.1,0.2-0.2,0.1-0.3c-0.1-0.2-0.3-0.3-0.5-0.4c-0.2-0.1-0.5-0.2-0.7-0.3
				c-0.5-0.2-1-0.3-1.5-0.4l-0.1,0l-0.1,0c-0.8-0.6-1.6-1.2-2.4-1.7c-0.2-0.1-0.4-0.3-0.6-0.4c-0.1-0.1-0.2-0.1-0.3-0.2
				c-0.1,0-0.2-0.1-0.2-0.1c-0.5-0.1-1-0.1-1.5-0.1c-1-0.1-2,0-2.9,0.1c-1,0.1-1.9,0.3-2.9,0.6l0,0h0c-1.1,0.2-2.3,0.4-3.4,0.7
				c-1.1,0.3-2.2,0.7-3.3,1.1c-1.1,0.4-2.2,0.8-3.3,1.2S12.7,15.9,11.6,16.3L11.6,16.3z"/>
		</g>
		<g transform="translate(55.538 28.968)">
			<path class="st1" d="M28.1,35.7c5.6,0.8,7.5-3.4,11-5.3c4.6-2.9,11.8,1.6,15-3.7c-3-3.5-4.9-7.8-5.3-12.4l-19.1,5.8
				c0,0-7.9,3.8-15-8.9c0,0-6,4.7-5,7.6C15.2,34.5,28.1,35.7,28.1,35.7"/>
			<path d="M28.1,35.7c1,0.1,2.1,0.1,3.1-0.2c1-0.3,1.9-0.7,2.8-1.3c0.8-0.6,1.6-1.3,2.4-2c0.8-0.7,1.6-1.4,2.6-1.9l0,0
				c1.2-0.7,2.6-1.1,4-1.1c1.4-0.1,2.7,0,4.1,0.1c1.3,0.1,2.6,0,3.9-0.3c0.6-0.2,1.2-0.5,1.7-0.8c0.5-0.4,0.9-0.9,1.2-1.4l0,0.4
				c-0.8-0.9-1.5-1.8-2.1-2.8c-0.6-1-1.1-2-1.6-3.1c-0.4-1.1-0.8-2.2-1.1-3.3c-0.3-1.1-0.4-2.3-0.5-3.4l0.2,0.1L44,15.9l-4.8,1.5
				l-9.5,3l0,0c-0.8,0.3-1.6,0.5-2.4,0.6c-0.8,0.1-1.6,0-2.5-0.2c-1.6-0.3-3.1-1-4.4-2c-1.3-1-2.5-2.1-3.5-3.4c-1-1.3-1.9-2.6-2.7-4
				l0.6,0.1c-1.1,0.9-2.2,1.9-3.2,3c-0.5,0.5-0.9,1.1-1.2,1.8c-0.4,0.6-0.5,1.2-0.5,1.9c0,0.2,0,0.3,0.1,0.5l0.2,0.5
				c0.1,0.3,0.3,0.7,0.4,1c0.3,0.7,0.6,1.4,0.9,2c0.6,1.3,1.4,2.6,2.2,3.8c1.7,2.4,3.8,4.5,6.3,6.2c1.2,0.8,2.5,1.6,3.9,2.1
				C25.2,35,26.6,35.5,28.1,35.7L28.1,35.7c-1.5-0.1-3-0.5-4.4-1c-1.4-0.5-2.8-1.2-4-2c-1.3-0.8-2.5-1.7-3.6-2.8
				c-1.1-1-2.1-2.2-3-3.4c-0.9-1.2-1.7-2.5-2.4-3.9c-0.2-0.3-0.3-0.7-0.5-1l-0.5-1c-0.1-0.3-0.3-0.7-0.4-1.1l-0.2-0.5
				c-0.1-0.2-0.1-0.4-0.1-0.6c0-0.8,0.2-1.6,0.6-2.3c0.4-0.7,0.8-1.3,1.3-1.9c1-1.2,2.1-2.2,3.3-3.1l0.3-0.3l0.2,0.4
				c0.7,1.4,1.6,2.7,2.6,3.9c1,1.2,2.1,2.3,3.3,3.3c1.2,0.9,2.7,1.6,4.2,1.9c0.8,0.2,1.5,0.2,2.3,0.2c0.8,0,1.5-0.2,2.2-0.5l0,0l0,0
				l9.6-2.8l4.8-1.4l4.8-1.5l0.2,0l0,0.2c0.2,2.3,0.8,4.5,1.7,6.6c0.5,1,1,2,1.6,3c0.6,1,1.3,1.9,2,2.7l0.2,0.2l-0.1,0.2
				c-0.4,0.6-0.8,1.2-1.4,1.6c-0.6,0.4-1.2,0.8-1.9,1c-1.3,0.3-2.7,0.4-4.1,0.3c-1.4-0.1-2.7-0.2-4-0.1c-1.3,0-2.6,0.3-3.7,1l0,0h0
				c-0.9,0.5-1.8,1.1-2.5,1.8c-0.8,0.7-1.6,1.4-2.5,2c-0.9,0.6-1.9,1-2.9,1.3C30.2,36,29.1,36,28.1,35.7L28.1,35.7z"/>
		</g>
		<g transform="translate(37.788 71.692)">
			<path class="st1" d="M17.8,17c0,0-10.6,2.1-9.8,0.4c0.3-0.7,4.9-3.3,8.9-3.3"/>
			<path d="M17.8,17c-1.6,0.4-3.3,0.7-4.9,0.9c-0.8,0.1-1.7,0.2-2.5,0.3c-0.4,0-0.8,0-1.3,0c-0.2,0-0.4,0-0.6-0.1
				c-0.1,0-0.2-0.1-0.3-0.1C8,18,7.9,17.9,7.8,17.8c-0.1-0.2-0.1-0.3,0-0.5C7.8,17.2,7.9,17,8,16.9c0.1-0.2,0.3-0.3,0.5-0.5
				c0.3-0.3,0.7-0.5,1.1-0.6c0.4-0.1,0.8-0.3,1.2-0.4c0.4-0.2,0.7-0.4,1.1-0.6c0.4-0.2,0.8-0.4,1.2-0.5c0.4-0.2,0.8-0.3,1.2-0.4
				c0.8-0.2,1.7-0.2,2.6,0v0.1c-0.8,0.2-1.6,0.4-2.4,0.6c-0.4,0.1-0.8,0.2-1.2,0.3c-0.4,0.1-0.8,0.2-1.2,0.3
				c-0.4,0.1-0.8,0.2-1.2,0.4c-0.4,0.2-0.7,0.4-1,0.7c-0.3,0.2-0.7,0.5-1,0.7c-0.2,0.1-0.3,0.2-0.5,0.3c-0.1,0-0.2,0.1-0.2,0.1
				c0,0.1,0,0.1,0,0.1c0.1,0.1,0.3,0.2,0.4,0.2c0.2,0,0.4,0.1,0.6,0.1c0.4,0,0.8,0,1.2,0c0.8,0,1.7-0.1,2.5-0.2
				C14.5,17.4,16.1,17.2,17.8,17L17.8,17z"/>
		</g>
		<g transform="translate(0 65.896)">
			<g transform="translate(0 42.264)">
				<path d="M28.3,20.6l-6.1-3.9L17,24L4.8,27.5c0,0-0.3,3.5,2.6,4.1l26.1-0.3L32,20.1L28.3,20.6z"/>
				<g transform="translate(24.984 3.602)">
					<path class="st1" d="M12.6,17l-5.6,0.4l1.4,9.5l7.1-0.2L12.6,17z"/>
					<path d="M12.6,17c-1,0.1-1.9,0.2-2.8,0.4c-0.9,0.1-1.8,0.2-2.7,0.3l0.3-0.4c0.1,0.8,0.3,1.6,0.4,2.4S8,21.2,8.1,22
						c0.2,1.6,0.4,3.2,0.6,4.8l-0.3-0.2c1.2,0,2.4,0.1,3.6,0c1.2,0,2.4-0.1,3.6-0.2l-0.2,0.2c-0.3-0.8-0.6-1.6-0.8-2.3
						c-0.3-0.8-0.5-1.6-0.7-2.4C13.4,20.4,13,18.8,12.6,17z M12.6,16.9c0.6,1.5,1.2,3.1,1.7,4.7c0.3,0.8,0.5,1.6,0.8,2.5
						s0.4,1.7,0.6,2.5l0.1,0.2l-0.2,0c-1.2,0-2.4,0-3.6,0S9.6,27,8.4,27.1l-0.2,0l0-0.2c-0.3-1.6-0.6-3.2-0.8-4.7
						c-0.1-0.8-0.2-1.6-0.3-2.4c-0.1-0.8-0.2-1.6-0.3-2.4l0-0.4L7,17C8,17,9,17,9.9,17C10.8,16.9,11.8,16.9,12.6,16.9z"/>
				</g>
			</g>
			<path d="M71,55.2L54,33.4c0,0-6.4-11.3-3.9-19.5l24.1-0.5l23.4,46.3c0,0,3,12.5-10.4,13.1l-47.5,0.5L35,62.2c-1-2.3-2-4.6-3-7
				c-0.5-1.3-0.9-1.8,0.6-2.6c1.8-0.9,4.2-0.4,6,0.3c2.4,1,4.6,2.5,7.2,3c3.6,0.7,7.3-1,10.9-1.7c3-0.6,6.1-0.4,9.1,0.4
				c1.8,0.7,3.6,1.1,5.5,1.3"/>
			<path class="st1" d="M87.1,38.8L74.3,13.4l-16.7,4.8C64.1,31.4,73.8,38.4,87.1,38.8z"/>
		</g>
		<g transform="translate(102.493 110.486)">
			<path class="st1" d="M12.8,17.4l1.4,3.5l10.2-0.1l-1.6-3.5L12.8,17.4z"/>
			<path d="M12.8,17.4c0.3,0.6,0.6,1.2,0.9,1.7c0.3,0.5,0.6,1,0.8,1.6l-0.3-0.2c0.9,0,1.7-0.1,2.6-0.1c0.9,0,1.7,0.1,2.6,0.1
				c0.9,0.1,1.7,0.1,2.6,0.1c0.9,0,1.7-0.1,2.6-0.1l-0.2,0.4c-0.3-0.6-0.6-1.1-0.9-1.7c-0.3-0.6-0.6-1.1-0.9-1.7l0.4,0.3
				c-0.8,0-1.6,0.1-2.4,0.1c-0.8,0-1.6,0-2.4-0.1C16.4,17.7,14.7,17.5,12.8,17.4z M12.8,17.4c1.5-0.1,3.1-0.3,4.8-0.4
				c0.9-0.1,1.7-0.1,2.6-0.1c0.9,0,1.8,0,2.6,0h0.3l0.1,0.2c0.3,0.6,0.5,1.2,0.8,1.8c0.3,0.6,0.5,1.2,0.7,1.8l0.2,0.4l-0.4,0
				c-0.9,0-1.7-0.1-2.6-0.1c-0.9,0-1.7,0-2.6,0.1c-0.9,0.1-1.7,0.2-2.6,0.2c-0.9,0-1.7,0-2.6,0l-0.3,0L13.9,21
				c-0.2-0.6-0.4-1.3-0.6-1.9L12.8,17.4z"/>
			<path d="M13.2,20l5.2,13.6l25.8-0.3c0,0,1.1-4-5.7-6c0,0-10.1-0.6-12.7-7.8L13.2,20z"/>
		</g>
		<g transform="translate(46.861 0.803)">
			<path class="st1" d="M22.1,36.4c-1.8-3.2-2.5-6.9-1.8-8.8c0,0,5.8,1.9,6.5-2.1c0,0,1.6-6.4-3.3-13.7c0,0-6.1-6.9-12-0.1
				c0,0-3.3,4.1-1.3,7.6c0,0,3.7,4.7,2.6,7c-0.8,3.1-2.3,5.9-4.4,8.3"/>
			<path d="M22.1,36.4c-0.4-0.7-0.8-1.3-1.1-2.1c-0.3-0.7-0.6-1.4-0.8-2.2c-0.2-0.8-0.4-1.5-0.4-2.3c-0.1-0.8,0-1.6,0.2-2.4l0.1-0.2
				l0.3,0.1c0.9,0.2,1.8,0.4,2.7,0.4c0.9,0,1.7-0.2,2.5-0.6c0.3-0.2,0.6-0.5,0.8-0.9c0.2-0.4,0.3-0.8,0.3-1.2
				c0.1-0.9,0.2-1.8,0.2-2.7c0-1.8-0.3-3.7-0.9-5.4c-0.6-1.7-1.4-3.4-2.4-4.9l0,0c-0.6-0.7-1.3-1.2-2.1-1.7c-0.8-0.5-1.6-0.8-2.5-1
				C18,9,17.2,9,16.3,9.1c-0.9,0.2-1.7,0.5-2.4,1c-0.7,0.5-1.4,1.1-2,1.8c-0.5,0.7-1,1.5-1.3,2.3c-0.3,0.8-0.5,1.7-0.6,2.5
				c0,0.9,0.2,1.7,0.6,2.5l0-0.1c0.4,0.5,0.8,1.1,1.1,1.6c0.4,0.6,0.7,1.1,0.9,1.7c0.3,0.6,0.5,1.2,0.6,1.9c0.2,0.7,0.1,1.4-0.2,2.1
				l0-0.1c-0.2,0.8-0.5,1.5-0.8,2.3c-0.3,0.7-0.7,1.4-1.1,2.1c-0.4,0.7-0.8,1.4-1.3,2c-0.5,0.6-1,1.2-1.5,1.8l-0.1,0
				c0.5-0.6,0.9-1.3,1.4-1.9c0.4-0.7,0.8-1.3,1.2-2c0.4-0.7,0.7-1.4,0.9-2.1c0.3-0.7,0.5-1.5,0.7-2.2l0,0l0,0
				c0.2-0.5,0.2-1.1,0.1-1.7c-0.2-0.6-0.4-1.2-0.7-1.7c-0.3-0.6-0.6-1.1-0.9-1.6c-0.3-0.5-0.7-1.1-1.1-1.5l0,0l0,0
				c-0.5-0.9-0.7-1.9-0.7-2.9c0-1,0.3-1.9,0.7-2.8c0.4-0.9,0.9-1.7,1.5-2.5c0.6-0.7,1.3-1.3,2.1-1.9c0.8-0.5,1.7-0.9,2.7-1
				c0.9-0.2,1.9-0.1,2.8,0.2c0.9,0.3,1.8,0.7,2.5,1.2c0.8,0.5,1.5,1.1,2.1,1.8l0,0v0c1,1.6,1.8,3.2,2.5,5c0.2,0.4,0.3,0.9,0.4,1.3
				c0.1,0.4,0.2,0.9,0.3,1.4c0.2,0.9,0.3,1.8,0.4,2.8c0.1,0.9,0,1.9-0.1,2.8c-0.1,0.5-0.2,1-0.4,1.4c-0.2,0.5-0.6,0.9-1,1.2
				C25,28.2,24,28.4,23,28.3c-1,0-1.9-0.2-2.8-0.5l0.4-0.2c-0.2,0.7-0.3,1.4-0.3,2.2c0,0.8,0.1,1.5,0.3,2.2
				C21,33.6,21.5,35,22.1,36.4L22.1,36.4z"/>
		</g>
		<path class="st4" d="M59,29.1c1.1-2.2,1.9-4.5,2.7-6.9c0.1-0.4-0.1-0.9-0.4-1.2c-0.4-0.4-1.1-0.7-1.2-1.3c0,0-0.6-1.6,0.9-1.6
			c0.8,0,1.6,0.4,1.9,1.1c0,0,0.8,1.6,1.3,0.9c0.5-1.5,0.6-3.1,0.3-4.7l7.2-1c0,0-1.7-4.4-4-5.9c0,0-3.2-0.8-8.8,1.5
			c-1.7,0.8-3.1,2-4.2,3.5c0,0-1.3,2.6,0.9,6.2c0,0,2.8,3.8,3.3,4.8C59.5,25.9,59,29.1,59,29.1z"/>
		<path d="M134.9,128.4l-21.8-38.2c0,0-1.8-4.6-8.1-6.1l-25.9-4.9l-29.1,0.5c0,0,6.4,20.7,40.1,23.8c1.6,0.3,3.2,0.5,4.8,0.6
			c2,0,3,1.7,3.4,3.6c0.8,2.6,1.8,5.1,2.9,7.6c1,2.5,3.6,4,5,6.2c0.6,1.2,1.2,2.4,1.7,3.7c1.4,3,3.2,3.3,6.2,3.3l7.2-0.1l13.1-0.1
			C134.6,128.4,134.8,128.3,134.9,128.4z"/>
		<path d="M63.8,26.6c0.7,1.7,1.9,3.3,3.4,4.5c-0.1-1-0.1-2,0.2-3C67.4,28,64.5,27.3,63.8,26.6z"/>
		<g transform="translate(36.093 23.532)">
			<path class="st1" d="M9.6,65.5c2.6-1.9,5.7-3.1,8.9-3.3c3.2-0.4,6.4-0.2,9.7-0.4c3.6-0.2,7.1-0.7,10.6-1.7
				c2.2-0.6,4.5-1.4,5.9-3.2l-4.6-29C38.6,18.1,33.7,14,33.7,14c-4.2-4.3-11.5-3.4-11.5-3.4s-5.5,0-9.3,9.2
				C12.8,19.8,4.3,36.5,9.6,65.5"/>
			<path d="M9.6,65.5c1.2-1,2.5-1.8,4-2.3c1.5-0.5,3-0.9,4.5-1.1c3.1-0.4,6.2-0.3,9.2-0.5c3.1-0.1,6.1-0.5,9.1-1.2
				c1.5-0.3,3-0.7,4.4-1.2c1.4-0.5,2.7-1.3,3.7-2.4l-0.1,0.2c-0.6-3.7-1.1-7.4-1.7-11.1l-0.8-5.6l-0.9-5.6c-0.3-1.9-0.6-3.7-0.9-5.6
				c-0.2-0.9-0.3-1.9-0.5-2.8c-0.2-0.9-0.4-1.8-0.7-2.7c-0.5-1.8-1.3-3.5-2.2-5.1c-0.4-0.8-1-1.6-1.5-2.3c-0.5-0.7-1.2-1.4-1.8-2
				l0,0l0,0c-0.7-0.7-1.5-1.3-2.4-1.8c-0.9-0.5-1.9-0.8-2.8-1.1c-1-0.2-2-0.4-3-0.5c-1-0.1-2-0.1-3,0l0,0h0c-0.5,0-1.1,0.2-1.5,0.4
				c-0.5,0.2-1,0.4-1.5,0.7c-0.9,0.6-1.8,1.3-2.5,2.2c-1.5,1.7-2.6,3.7-3.4,5.8l0,0l0,0c-0.8,1.7-1.5,3.5-2,5.4
				c-0.6,1.8-1,3.7-1.4,5.6C9,34.8,8.5,38.6,8.3,42.4c-0.2,3.9-0.2,7.7,0,11.6C8.6,57.9,9,61.7,9.6,65.5l-0.1,0.1
				C8.8,61.8,8.2,57.9,7.9,54c-0.2-1.9-0.3-3.9-0.3-5.8c0-1.9,0-3.9,0.1-5.8c0.2-3.9,0.6-7.8,1.4-11.6c0.4-1.9,0.8-3.8,1.4-5.7
				c0.5-1.9,1.2-3.7,2-5.5l0,0c0.9-2.2,2.1-4.2,3.6-5.9c0.8-0.9,1.7-1.7,2.7-2.3c0.5-0.3,1-0.6,1.6-0.8c0.6-0.2,1.2-0.4,1.8-0.4h0
				c1.1-0.1,2.1-0.1,3.2,0c1.1,0.1,2.1,0.3,3.1,0.5c1,0.3,2,0.7,2.9,1.1c0.9,0.5,1.8,1.1,2.5,1.9l0,0c0.7,0.6,1.3,1.4,1.9,2.2
				c0.6,0.8,1.1,1.6,1.5,2.4c0.9,1.7,1.6,3.4,2.1,5.3c0.3,0.9,0.5,1.8,0.7,2.7s0.3,1.9,0.5,2.8c0.3,1.9,0.6,3.7,0.9,5.6l0.9,5.6
				l0.9,5.5c0.6,3.7,1.3,7.4,1.9,11.1l0,0.1L45,57.2c-1,1.2-2.4,2.1-3.9,2.6c-1.5,0.5-3,0.9-4.5,1.2c-3,0.7-6.1,1-9.2,1.1
				c-3.1,0.1-6.2-0.1-9.2,0.3c-1.5,0.2-3,0.5-4.5,1C12.3,63.9,10.9,64.6,9.6,65.5L9.6,65.5z"/>
		</g>
		<path class="st5" d="M56.9,88.6"/>
		<g transform="translate(76.32 59.894)">
			<path class="st1" d="M10.7,17.4c1.8,0.8,10.3,4,13.4,4.2c2.4,0.7,5,0.9,7.4,0.4c1.3-0.8,2.5-1.6,3.7-2.6c0,0,3-0.6,2.9-1.5
				c-0.1-1.1-3.6-0.1-5-0.4c-1.3-0.3-2.6-0.7-3.9-1.1c-0.3-0.2-0.1-0.4,0.7-0.4c0.8-0.1,4.1,0.4,4.1-0.8s-4.6-1.7-5.9-1.5
				c-1.1,0.2-2.1,0.5-3.2,0.9C22.3,14,14.6,13.3,14.1,13"/>
			<path d="M10.7,17.4c1.1,0.4,2.2,0.8,3.3,1.2s2.2,0.8,3.3,1.1c1.1,0.4,2.2,0.7,3.4,1c1.1,0.3,2.2,0.5,3.4,0.7h0l0,0
				c0.9,0.3,1.9,0.5,2.9,0.6c1,0.1,2,0.1,2.9,0c0.5,0,1-0.1,1.5-0.2c0.1,0,0.2-0.1,0.3-0.1c0.1-0.1,0.2-0.1,0.3-0.2
				c0.2-0.1,0.4-0.3,0.6-0.4c0.8-0.6,1.6-1.2,2.4-1.8l0,0l0.1,0c0.5-0.1,1-0.2,1.5-0.4c0.2-0.1,0.5-0.2,0.7-0.3
				c0.2-0.1,0.4-0.2,0.5-0.4c0.1-0.2,0-0.3-0.2-0.4c-0.2-0.1-0.5-0.1-0.7-0.1c-0.5,0-1.1,0-1.6,0.1c-0.5,0-1.1,0.1-1.6,0.1
				c-0.3,0-0.5,0-0.8-0.1c-0.3-0.1-0.5-0.1-0.8-0.2c-1-0.3-2-0.6-3-1l0,0l0,0C29,16.4,29,16.3,29,16.2c0-0.1,0.1-0.2,0.2-0.2
				c0.2-0.1,0.3-0.1,0.5-0.1c0.3,0,0.6,0,1,0c0.6,0,1.3,0,1.9,0c0.3,0,0.6-0.1,0.9-0.2c0.1-0.1,0.2-0.1,0.3-0.2
				c0.1-0.1,0.1-0.2,0-0.3c-0.2-0.2-0.4-0.4-0.6-0.5c-0.3-0.1-0.6-0.2-0.9-0.3c-1.2-0.3-2.5-0.4-3.7-0.4c-0.6,0-1.2,0.2-1.8,0.3
				c-0.6,0.2-1.2,0.4-1.8,0.6l-0.1,0l-0.1,0c-0.9-0.2-1.8-0.3-2.7-0.5s-1.8-0.3-2.7-0.4s-1.8-0.3-2.7-0.4l-1.3-0.2
				c-0.5-0.1-0.9-0.2-1.3-0.3l0,0c0.4,0.1,0.9,0.2,1.3,0.2l1.4,0.1c0.9,0.1,1.8,0.2,2.7,0.3c0.9,0.1,1.8,0.2,2.7,0.3
				c0.9,0.1,1.8,0.3,2.7,0.4l-0.1,0c0.6-0.2,1.2-0.4,1.8-0.6c0.3-0.1,0.6-0.2,0.9-0.2c0.3-0.1,0.7-0.1,1-0.1c0.6,0,1.3,0,1.9,0.1
				c0.6,0.1,1.3,0.2,1.9,0.4c0.3,0.1,0.6,0.2,0.9,0.3c0.2,0.1,0.3,0.2,0.4,0.3c0.2,0.1,0.3,0.3,0.3,0.4c0.1,0.2,0,0.4-0.1,0.6
				c-0.1,0.1-0.3,0.3-0.4,0.3c-0.3,0.1-0.6,0.2-1,0.2c-0.6,0-1.3,0-1.9,0c-0.3,0-0.6,0-0.9,0c-0.2,0-0.3,0-0.4,0.1
				c-0.2,0.1-0.2,0.1-0.1,0.2l0,0c1,0.3,2,0.7,3,0.9c0.3,0.1,0.5,0.1,0.8,0.2c0.3,0.1,0.5,0.1,0.8,0.1c0.5,0,1-0.1,1.6-0.1
				c0.5-0.1,1.1-0.1,1.6-0.1c0.3,0,0.6,0,0.8,0.1c0.2,0.1,0.3,0.2,0.4,0.3c0.1,0.2,0.1,0.4,0,0.5c-0.1,0.3-0.4,0.5-0.7,0.6
				c-0.2,0.1-0.5,0.3-0.8,0.3c-0.5,0.2-1,0.3-1.6,0.5l0.1,0c-0.8,0.6-1.6,1.3-2.4,1.8c-0.2,0.1-0.4,0.3-0.6,0.4
				c-0.1,0.1-0.2,0.1-0.3,0.2c-0.1,0.1-0.3,0.1-0.4,0.2c-0.5,0.1-1,0.2-1.5,0.2c-1,0.1-2,0.1-3.1,0c-1-0.1-2-0.3-3-0.6l0.1,0
				c-1.2-0.2-2.3-0.4-3.5-0.8c-1.1-0.3-2.2-0.7-3.4-1.1C15,19.2,12.8,18.4,10.7,17.4L10.7,17.4z"/>
		</g>
		<path d="M58.5,45.6c0,0-14.7,28.3,3.7,31.3"/>
		<g transform="translate(46.763 29.287)">
			<path class="st1" d="M9.2,38.6c0,0-2.1-12.7,0.9-22.6c0.4-1.4,1.2-2.7,2.3-3.7c1.1-1,2.5-1.5,4-1.3c1.5,0.3,2.6,1.4,3.1,2.8
				c1.2,3.6,4,13.2,4.5,22.2c0,0,17.7,3,24.3,7.5c0.5,0.9,0.8,1.8,0.9,2.8c0,0,0.9,4.1-2,6.1c-2.4,1.6-5.6-0.2-8.5-0.3
				c-3.1-0.1-6.4,1.1-9.1-0.4c-1.1-0.6-1.9-1.6-3-2.3c-2.4-1.5-5.4-1.2-8.2-1.2h-0.1c-3.9,0-7.4-2.6-8.3-6.4L9.2,38.6z"/>
			<path d="M9.2,38.6c-0.4-2.4-0.6-4.9-0.7-7.3c-0.1-2.4-0.1-4.9,0-7.3c0.1-2.5,0.5-4.9,1.1-7.3c0.2-1.2,0.8-2.4,1.5-3.4
				c0.7-1.1,1.8-1.9,3-2.3c1.3-0.5,2.7-0.3,3.8,0.4c0.6,0.4,1,0.8,1.4,1.4c0.2,0.3,0.3,0.6,0.4,0.9c0.1,0.3,0.2,0.6,0.3,0.9
				c0.7,2.3,1.3,4.7,1.9,7.1c0.5,2.4,1,4.8,1.4,7.2s0.7,4.8,0.8,7.3l-0.1-0.1c2.1,0.4,4.2,0.8,6.3,1.2s4.2,0.9,6.2,1.5
				c2.1,0.5,4.1,1.2,6.1,1.9c2,0.7,4,1.6,5.8,2.7l0.1,0l0,0.1c0.1,0.2,0.3,0.5,0.4,0.7c0.1,0.2,0.2,0.5,0.3,0.7
				c0.2,0.5,0.3,1,0.3,1.5l0,0c0.1,0.6,0.2,1.1,0.1,1.7c0,0.6-0.1,1.1-0.2,1.7c-0.2,1.1-0.9,2.2-1.8,2.9c-0.5,0.4-1,0.7-1.6,0.8
				c-0.6,0.1-1.1,0.2-1.7,0.2c-1.1-0.1-2.2-0.3-3.2-0.6c-1-0.3-2.1-0.4-3.1-0.4c-1,0-2.1,0.1-3.2,0.2c-1.1,0.1-2.2,0.1-3.3,0
				c-0.6-0.1-1.1-0.2-1.6-0.5c-0.5-0.2-1-0.5-1.4-0.9c-0.8-0.7-1.6-1.4-2.5-1.9c-0.9-0.5-1.9-0.8-3-0.9c-1.1-0.1-2.1-0.1-3.2-0.1
				c-0.5,0-1.1,0-1.6,0c-0.5,0-1.1-0.1-1.6-0.2c-1.1-0.2-2.1-0.7-3-1.3c-0.9-0.6-1.7-1.4-2.3-2.3c-0.6-0.9-1.1-1.9-1.3-2.9L9.2,38.6
				z M9.3,38.6c0.6,2,0.8,4.3,2.1,6c0.6,0.9,1.4,1.6,2.3,2.2c0.9,0.6,1.9,0.9,2.9,1.1c0.5,0.1,1,0.1,1.6,0.1c0.5,0,1.1,0,1.6-0.1
				c1.1-0.1,2.2-0.1,3.3,0c1.1,0.1,2.2,0.4,3.2,0.9c0.9,0.6,1.8,1.2,2.6,2c0.4,0.3,0.8,0.6,1.3,0.8c0.5,0.2,1,0.3,1.5,0.4
				c1,0.1,2.1,0.1,3.1,0c1.1-0.1,2.1-0.2,3.2-0.2c1.1,0,2.2,0.2,3.3,0.4c1,0.3,2.1,0.5,3.1,0.6c1,0.1,2-0.2,2.8-0.8
				c0.8-0.6,1.3-1.5,1.5-2.5c0.2-1,0.3-2,0.1-3l0,0v0c0-0.5-0.1-0.9-0.3-1.4c-0.1-0.2-0.2-0.4-0.2-0.7c-0.1-0.2-0.2-0.4-0.3-0.6
				l0.1,0.1c-1.8-1.1-3.7-2.1-5.7-2.8c-2-0.8-4-1.4-6-2c-4.1-1.2-8.2-2.1-12.4-2.9l-0.1,0v-0.1c-0.1-2.4-0.4-4.9-0.9-7.3
				c-0.4-2.4-0.9-4.8-1.6-7.1s-1.3-4.7-2-7c-0.1-0.3-0.2-0.6-0.3-0.9c-0.1-0.3-0.2-0.5-0.4-0.8c-0.3-0.5-0.7-0.9-1.2-1.2
				c-1-0.6-2.2-0.7-3.3-0.3c-0.5,0.2-1,0.5-1.5,0.9c-0.5,0.4-0.9,0.8-1.2,1.2c-0.7,1-1.2,2-1.4,3.2c-0.6,2.3-1.1,4.7-1.3,7.2
				c-0.2,2.4-0.3,4.9-0.2,7.3C8.7,33.7,8.9,36.2,9.3,38.6L9.3,38.6z"/>
		</g>
	</g>
	<g transform="translate(-1555.834 2680.455)">
		<g transform="translate(60.248 26.847)">
			<path d="M9.9,32.5c1.4,0.5,2.8,0.6,4.2,0.3l-0.5-2.4L9.9,32.5z"/>
			<g transform="translate(5.333 14.581)">
				<path class="st1" d="M5.2,12.1L16,31.9l15.3,16.9c0,0,3.3,3,4.6,4.6c0.2,1.4,0.5,2.8,0.8,4.2c0.4,1.2,3,4.9,4,4.4
					s-0.9-3.2-1.2-3.9c-0.3-0.6-0.2-0.9,0.1-0.8c1,0.9,1.9,1.8,2.7,2.8c0.9,1.1,1.7,4.5,2.6,4.1c0.8-0.4,0-3.1,0-3.1
					c0.3-1.4,0.5-2.9,0.5-4.3c-0.7-2.3-2-4.4-3.7-6.1c-2.2-2.4-17.3-23.2-17.3-23.2C20.9,19.2,14.4,4.6,14.4,4.6"/>
				<path d="M5.2,12.1L8,17c0.9,1.6,1.9,3.3,2.8,4.9c1.8,3.3,3.7,6.5,5.5,9.8l0-0.1l3.9,4.2c1.3,1.4,2.6,2.8,3.8,4.2l3.8,4.2
					c1.3,1.4,2.5,2.8,3.8,4.3l0,0c0.8,0.8,1.6,1.5,2.3,2.3s1.5,1.6,2.2,2.4l0,0l0,0.1c0.2,1.3,0.4,2.6,0.7,3.8
					c0.2,0.6,0.5,1.2,0.8,1.7c0.3,0.6,0.7,1.1,1.1,1.6c0.2,0.2,0.4,0.5,0.7,0.7c0.2,0.2,0.5,0.4,0.8,0.5c0.1,0.1,0.3,0.1,0.4,0
					c0.1-0.1,0.2-0.2,0.2-0.3c0-0.3,0-0.6-0.1-0.9c-0.2-0.6-0.5-1.2-0.9-1.7c-0.2-0.3-0.3-0.6-0.5-0.9c-0.1-0.2-0.1-0.3-0.2-0.5
					c0-0.1,0-0.3,0.1-0.4c0.1-0.1,0.1-0.1,0.2-0.1c0.1,0,0.1,0,0.2,0l0,0l0,0c0.8,0.7,1.5,1.4,2.2,2.2c0.2,0.2,0.4,0.4,0.5,0.6
					c0.2,0.2,0.3,0.4,0.5,0.7c0.3,0.5,0.5,0.9,0.7,1.4c0.2,0.5,0.4,0.9,0.7,1.4c0.1,0.2,0.2,0.4,0.4,0.5c0.2,0.1,0.2,0.1,0.3,0
					c0.1-0.2,0.1-0.4,0.1-0.6c0-0.2,0-0.5-0.1-0.7c-0.1-0.5-0.2-1-0.3-1.5l0-0.1l0-0.1c0.1-0.8,0.3-1.7,0.4-2.5
					c0.1-0.4,0.1-0.8,0.1-1.2c0-0.1,0-0.2,0-0.3c0,0,0-0.1,0-0.1v0l0-0.1c-0.1-0.2-0.1-0.4-0.2-0.6c-0.6-1.5-1.4-3-2.5-4.2
					c-0.3-0.3-0.5-0.6-0.8-0.9c-0.3-0.3-0.6-0.6-0.9-1c-0.5-0.7-1.1-1.3-1.6-2c-1-1.3-2.1-2.7-3.1-4c-2-2.7-4-5.4-6-8.2
					s-4-5.5-5.9-8.2l0,0l0,0c-1.6-3.8-3.3-7.6-4.9-11.5l-2.4-5.7l-2.4-5.8l0.1,0l2.6,5.7l2.6,5.7c1.7,3.8,3.4,7.6,5.2,11.4l0-0.1
					l12,16.3c1,1.4,2,2.7,3,4.1c0.5,0.7,1,1.3,1.5,2c0.3,0.3,0.5,0.6,0.8,0.9c0.3,0.3,0.6,0.6,0.9,1c1.1,1.3,2,2.9,2.5,4.5
					c0.1,0.2,0.1,0.4,0.2,0.6l0,0.1c0,0,0,0.1,0,0.1c0,0.1,0,0.1,0,0.2c0,0.1,0,0.2,0,0.3c0,0.4-0.1,0.9-0.2,1.3
					c-0.1,0.8-0.3,1.7-0.4,2.5l0-0.1c0.1,0.5,0.2,1,0.3,1.6c0,0.3,0,0.5,0,0.8c0,0.3-0.1,0.6-0.3,0.9c-0.1,0.2-0.3,0.3-0.5,0.3
					c-0.2,0-0.4-0.1-0.5-0.2c-0.2-0.2-0.4-0.4-0.5-0.7c-0.2-0.5-0.5-0.9-0.6-1.4c-0.2-0.5-0.4-0.9-0.6-1.4c-0.1-0.2-0.2-0.4-0.4-0.6
					c-0.2-0.2-0.3-0.4-0.5-0.6c-0.7-0.8-1.4-1.5-2.2-2.2l0.1,0c-0.1,0-0.1,0,0,0c0,0,0,0,0,0.1c0,0.1,0.1,0.3,0.1,0.4
					c0.1,0.3,0.3,0.6,0.5,0.9c0.3,0.6,0.6,1.2,0.9,1.8c0.1,0.3,0.2,0.7,0.1,1c-0.1,0.2-0.2,0.4-0.4,0.5c-0.2,0.1-0.4,0-0.6,0
					c-0.3-0.2-0.6-0.4-0.8-0.6c-0.2-0.2-0.5-0.5-0.7-0.7c-0.4-0.5-0.8-1-1.2-1.6c-0.4-0.6-0.7-1.2-0.9-1.8c-0.2-0.6-0.3-1.3-0.4-1.9
					c-0.1-0.6-0.2-1.3-0.3-1.9l0,0.1c-0.7-0.8-1.5-1.6-2.3-2.3c-0.8-0.7-1.6-1.5-2.4-2.2l0,0l0,0c-1.3-1.4-2.6-2.8-3.9-4.2l-3.9-4.2
					c-1.3-1.4-2.5-2.8-3.8-4.2l-3.8-4.2l0,0l0,0c-1.8-3.3-3.6-6.6-5.3-9.9c-0.9-1.7-1.8-3.3-2.6-5L5.2,12.1L5.2,12.1z"/>
			</g>
			<path class="st1" d="M5.9,20.7c1.2,3.8,0.5,4.9,0.8,7.2c0,2,1.4,3.8,3.4,4.3c0,0,7.7-4,13.9-4c0,0-1.1-2.7-2.5-6.3
				C20.6,19.7,18.3,4.7,11.2,4C8.9,3.6,6.7,4.8,5.7,6.9c-0.7,1.4-0.9,3-0.6,4.6C6,15.2,4.6,16.7,5.9,20.7z"/>
			<path d="M5.9,20.7c0.4,1,0.6,2.1,0.7,3.2c0.1,0.5,0.1,1.1,0.1,1.6c0,0.5,0,1.1,0,1.6c0,1.1,0.4,2.1,0.9,3c0.3,0.4,0.7,0.8,1.1,1
				c0.4,0.3,0.9,0.5,1.4,0.7l-0.3,0c0.6-0.3,1.1-0.5,1.7-0.8s1.1-0.5,1.7-0.7c1.1-0.4,2.3-0.8,3.5-1.1s2.4-0.6,3.6-0.8
				c0.6-0.1,1.2-0.2,1.8-0.3s1.2-0.1,1.8-0.1l-0.1,0.2c-0.8-1.9-1.5-3.8-2.3-5.7l-0.3-0.7c-0.1-0.3-0.2-0.5-0.2-0.7l-0.4-1.5
				c-0.3-1-0.6-2-0.9-2.9c-0.6-1.9-1.3-3.9-2.1-5.7c-0.8-1.8-1.9-3.5-3.3-4.9c-0.7-0.7-1.5-1.2-2.4-1.4c-0.2-0.1-0.5-0.1-0.7-0.1
				c-0.2,0-0.5-0.1-0.7-0.1c-0.5,0-0.9,0.1-1.4,0.2C8.1,4.8,7.3,5.3,6.7,6C6,6.8,5.6,7.6,5.3,8.6c-0.2,1-0.2,2,0,2.9
				c0.2,1,0.3,2.1,0.2,3.1c-0.1,1-0.2,2-0.1,3.1C5.4,18.7,5.6,19.7,5.9,20.7z M5.9,20.7c-0.3-1-0.5-2-0.6-3c-0.1-1,0-2.1,0-3.1
				c0-1-0.1-2-0.4-3c-0.3-1-0.3-2.1-0.1-3.2C5,7.4,5.5,6.4,6.1,5.6c0.3-0.4,0.7-0.8,1.2-1.1c0.5-0.3,1-0.6,1.5-0.7
				c0.5-0.2,1.1-0.2,1.6-0.3c0.3,0,0.6,0,0.8,0c0.3,0,0.5,0.1,0.8,0.1c1.1,0.3,2,0.9,2.8,1.6c0.8,0.7,1.4,1.6,2,2.5
				c0.5,0.9,1,1.8,1.4,2.8c0.8,1.9,1.5,3.9,2,5.9c0.3,1,0.5,2,0.7,3l0.3,1.5c0.1,0.2,0.1,0.5,0.2,0.7c0.1,0.2,0.2,0.5,0.3,0.7
				c0.7,1.9,1.4,3.8,2.2,5.8l0.1,0.2h-0.2c-1.2,0-2.4,0.1-3.6,0.4c-1.2,0.3-2.3,0.6-3.5,1c-1.1,0.4-2.3,0.9-3.4,1.3
				c-1.1,0.5-2.2,1-3.3,1.5l-0.2,0.1l-0.2-0.1c-0.5-0.2-1.1-0.5-1.5-0.8c-0.5-0.3-0.9-0.8-1.2-1.3c-0.5-1-0.8-2.1-0.8-3.3
				c0-1.1,0.2-2.2,0.1-3.3C6.4,22.8,6.2,21.8,5.9,20.7L5.9,20.7z"/>
		</g>
		<g transform="translate(26.237 139.365)">
			<path class="st1" d="M14.7,12.1L2.4,27L19,37.3l10.6-0.9c0,0,0.5-3.4-9.3-6.8c0,0-4.1-2.5-1.1-8.2l5.6-8.5L14.7,12.1z"/>
			<path d="M14.8,12.1c-1,1.3-2,2.6-3,3.9l-3,3.8c-2,2.5-4,5-6.1,7.5l-0.1-0.5c2.8,1.7,5.5,3.6,8.2,5.3c1.4,0.9,2.7,1.8,4.1,2.6
				c1.4,0.8,2.8,1.7,4.2,2.5l-0.1,0l5.3-0.5c1.8-0.2,3.5-0.4,5.3-0.5l-0.3,0.3c0-0.1,0-0.2,0-0.3c0-0.1-0.1-0.2-0.1-0.3
				c-0.1-0.2-0.2-0.4-0.3-0.6c-0.3-0.4-0.6-0.8-0.9-1.1c-0.7-0.7-1.5-1.2-2.4-1.7c-1.7-1-3.6-1.8-5.4-2.4l0,0c0,0,0,0-0.1,0
				c-0.7-0.5-1.3-1.1-1.7-1.8c-0.4-0.7-0.6-1.5-0.7-2.3c0-0.8,0-1.6,0.3-2.4c0.2-0.8,0.5-1.5,0.9-2.2v0l0,0l2.8-4.2l2.8-4.2l0.2,0.3
				C21.4,12.9,18.1,12.5,14.8,12.1z M14.7,12c3.3,0.2,6.7,0.4,10.1,0.7c0.1,0,0.2,0.1,0.2,0.2l0,0c0,0,0,0.1,0,0.1v0l-2.7,4.3
				l-2.7,4.3l0,0c-0.7,1.3-1,2.7-1,4.1c0.1,0.7,0.3,1.4,0.6,2c0.2,0.3,0.4,0.6,0.6,0.8c0.2,0.2,0.5,0.5,0.8,0.7l-0.1,0
				c1.9,0.6,3.8,1.5,5.6,2.5c0.9,0.5,1.7,1.1,2.5,1.9c0.4,0.4,0.7,0.8,1,1.2c0.1,0.2,0.3,0.5,0.4,0.7c0,0.1,0.1,0.3,0.1,0.4
				c0,0.2,0,0.3,0,0.5c0,0.2-0.1,0.3-0.3,0.3h0c-1.8,0.1-3.5,0.3-5.3,0.4L19,37.5h0c0,0-0.1,0-0.1,0c-1.4-0.9-2.8-1.7-4.1-2.6
				s-2.8-1.7-4.2-2.6c-2.8-1.7-5.6-3.3-8.4-5C2,27.2,2,27,2.1,26.9c0,0,0,0,0,0c0,0,0,0,0,0v0c2.1-2.5,4.2-5,6.3-7.5l3.2-3.7
				C12.6,14.4,13.7,13.2,14.7,12L14.7,12z"/>
		</g>
		<path d="M37.1,156.1l8.4,4.5l-0.1,0.2c-3,5.7,1.1,8.2,1.1,8.2c9.8,3.4,9.3,6.8,9.3,6.8l-10.6,0.9l-16.6-10.3L37.1,156.1z"/>
		<path d="M50.2,119.7l-2.7-21.9c-0.6-7.1,0.3-14.2,2.8-20.8l24.4-6.4l-4.9,48.6c-0.2,0.9-0.5,1.8-0.9,2.6l-20.5,39.8l-18.8-9.6
			c1.5-3.7,3.1-5.7,5.9-8.6c1.4-1.4,2.9-2.6,4.4-3.9c3.2-2.9,2-8.1,5.4-12.3C47.3,124.8,49.9,124.2,50.2,119.7z"/>
		<path class="st1" d="M62.2,73.9c-0.7,3-2,17.2-1.8,20.3c0.3,4,0.4,5.8,3.2,17.3c1.5,6.1,2.7,9.9,4.1,12.6l1.2-2.3
			c0.4-0.8,0.7-1.7,0.9-2.6l4.9-48.6L62.2,73.9z"/>
		<g transform="translate(58.278 147.134)">
			<g transform="translate(3.454)">
				<path class="st1" d="M8,12.7l-2.7,7.1l10.8,0l3.3-5.9L8,12.7z"/>
				<path d="M8,12.7c-0.8,2.5-1.5,4.9-2.4,7.2l-0.3-0.5c0.9,0,1.8,0,2.7,0s1.8,0.1,2.7,0.2c0.9,0.1,1.8,0.1,2.7,0.1
					c0.9,0,1.8-0.1,2.7-0.1l-0.2,0.1c0.5-1,1-2,1.5-3l1.6-3l0.3,0.7c-0.9-0.1-1.9-0.2-2.8-0.3c-0.9-0.1-1.9-0.2-2.8-0.4
					s-1.9-0.3-2.8-0.4S9,12.9,8,12.7z M8,12.6c0.9,0,1.8,0,2.8,0.1s1.9,0.1,2.9,0.1s1.9,0.1,2.9,0.2s2,0.2,2.9,0.3l0.7,0.1l-0.3,0.6
					L18.1,17c-0.6,1-1.2,1.9-1.8,2.9L16.3,20l-0.1,0c-0.9-0.1-1.8-0.1-2.7-0.1s-1.8,0-2.7,0.1c-0.9,0.1-1.8,0.1-2.7,0.2
					s-1.8,0-2.7,0l-0.5,0L5,19.6C6,17.2,7,14.8,8,12.6z"/>
			</g>
			<path d="M8.6,19.1L4.5,29.2l26,0c0,0-0.4-3.1-4.6-4.5c0,0-7.9-0.5-5.6-5.9L8.6,19.1z"/>
		</g>
		<path d="M72.6,125.5l-9.4-20c-4.7-11.1-3.8-26.1-3.8-26.1L80.7,76l10.4,42.8c0.1,0.9,0.1,1.8-0.1,2.7l-7.6,41.8l-19.6,0.9
			c0.2-4,0.6-8,2.3-11.6c0.8-1.8,2-3.3,3-5c2.1-3.7-0.6-8.3,1.3-13.4C71.5,131.1,73.8,129.8,72.6,125.5z"/>
		<g transform="translate(51.784 0)">
			<g transform="translate(1.98 3.429)">
				<path class="st1" d="M15.7,3.2c0,0,3.5,5,4.1,9.6c0,0,0.6,3.9-3.6,3.3l-1.3-0.7l0.2,7.3L4.6,26.5l3.2-10.1c0,0,1.6-2.4,0.7-4.3
					c-1.5-0.9-2.5-2.6-2.7-4.4c0,0-0.1-4.1,4.7-5.7C10.5,2,14,1,15.7,3.2z"/>
				<path d="M15.7,3.1c0.4,0.6,0.7,1.1,1.1,1.7s0.7,1.2,1,1.8c0.7,1.2,1.2,2.5,1.7,3.8c0.1,0.3,0.2,0.7,0.3,1s0.2,0.7,0.2,1l0,0.3
					c0,0.1,0,0.2,0,0.3c0,0.2,0,0.4,0,0.6c0,0.4-0.1,0.7-0.2,1.1c-0.3,0.8-0.8,1.4-1.6,1.7c-0.7,0.2-1.5,0.3-2.2,0.2l-0.1,0l-0.1,0
					l-1.3-0.7l0.5-0.3l0,3.7c0,1.2,0,2.4,0,3.7v0.1l-0.1,0c-0.9,0.3-1.7,0.6-2.6,0.9l-2.6,1c-1.7,0.6-3.4,1.3-5.2,2l-0.5,0.2
					l0.1-0.5c0.5-1.7,1-3.4,1.5-5.1l1.5-5l0,0l0-0.1c0.2-0.3,0.3-0.6,0.5-0.9c0.1-0.3,0.2-0.7,0.3-1c0.1-0.3,0.1-0.7,0.1-1
					c0-0.3-0.1-0.6-0.2-0.9l0.2,0.2c-0.7-0.5-1.3-1-1.8-1.7c-0.5-0.7-0.9-1.5-1-2.3c0-0.2,0-0.4,0-0.6c0-0.2,0-0.4,0-0.7
					c0.1-0.4,0.2-0.8,0.3-1.2C6,5.1,6.5,4.4,7,3.8c0.6-0.6,1.3-1.1,2-1.4l0.6-0.3L10.2,2l0.3-0.1c0.1,0,0.2,0,0.3-0.1
					c0.2,0,0.4-0.1,0.6-0.1c0.8-0.1,1.6,0,2.4,0.2C14.5,2.1,15.2,2.5,15.7,3.1z M15.6,3.2c-0.5-0.6-1.2-1-1.9-1.2
					c-0.8-0.2-1.5-0.2-2.3,0c-0.2,0-0.4,0.1-0.6,0.1c-0.1,0-0.2,0.1-0.3,0.1l-0.3,0.1L9.8,2.5L9.3,2.8C8.6,3.2,8,3.7,7.5,4.2
					C7,4.8,6.7,5.5,6.5,6.2C6.4,6.5,6.3,6.9,6.2,7.2c0,0.2,0,0.3,0,0.5c0,0.2,0,0.4,0.1,0.5c0.3,1.4,1.2,2.6,2.4,3.4l0.1,0.1
					l0.1,0.1c0.2,0.4,0.3,0.8,0.3,1.3c0,0.4,0,0.8-0.1,1.3c-0.1,0.4-0.2,0.8-0.4,1.2c-0.2,0.4-0.3,0.7-0.6,1.1l0.1-0.1l-1.6,5
					c-0.6,1.7-1.1,3.3-1.7,5l-0.4-0.3c1.8-0.6,3.5-1.2,5.2-1.8l2.6-0.9c0.9-0.3,1.7-0.6,2.6-1l-0.1,0.2c0-1.2-0.1-2.4-0.2-3.7
					l-0.2-3.7l0-0.6L15,15l1.3,0.7l-0.1,0c0.6,0.1,1.2,0,1.8-0.1c0.5-0.2,1-0.6,1.2-1.2c0.2-0.6,0.3-1.2,0.2-1.8
					c0-0.3-0.1-0.7-0.2-1c-0.1-0.3-0.1-0.7-0.2-1c-0.3-1.3-0.8-2.6-1.4-3.8C17.1,5.5,16.4,4.3,15.6,3.2L15.6,3.2z"/>
			</g>
			<path d="M4.6,7.8c0,0-2.3,3.6,2,7.1c0.6,0.6,1.1,1.3,1.4,2l1.1,4c0.9-0.7,1.7-1.5,2.4-2.3c0,0,2-2.5,0.7-3.5
				c-2.3-1.7-1.6-2.6-1.6-2.6c0.6-1,2.2-0.5,2.2-0.5s1.3,0,1.1-1.2c0,0-0.4-1.3,0.5-1.6c0,0,3.4-1,4-2.9c0.2-1.7,0.1-3.4-0.5-5
				c0,0-4.5,2.3-6.6,2.5C11.3,3.9,6.6,3.9,4.6,7.8z"/>
			<path d="M13.9,11.6c0,0,4.3,7.5,7.2,1.8c0,0,2.2,3.4-0.2,5.7c-1.2,0.9-2.9,0.8-4-0.3L15.2,16l-3.3-5.7"/>
		</g>
		<g transform="translate(44.154 21.246)">
			<path class="st1" d="M4.1,54c0.1-1.4,0.2-2.8,0.1-4.1C3.7,42.8,3,17.7,13.5,6.5c3.4-3.3,8.7-4,12.8-1.6c4.6,3.8,7.3,9.5,7.5,15.4
				c0,0,0.8,23.3,4.5,34.4c1.3,4.1-4.4,2-11.4,2.5c-4.2,0.3-6.6-0.4-12,2c-2.4,1.1-8.9,1.1-11.4,0.4L4.1,54z"/>
			<path d="M4,54c0.1-1.3,0.1-2.6,0.1-3.9c-0.1-1.3-0.2-2.6-0.2-4c-0.1-2.6-0.1-5.3-0.1-7.9s0.2-5.3,0.5-7.9C4.6,27.6,5,25,5.5,22.4
				c0.6-2.6,1.4-5.2,2.4-7.6c1-2.5,2.3-4.9,3.9-7c0.4-0.5,0.9-1,1.3-1.5c0.5-0.5,1-0.9,1.6-1.3c1.2-0.8,2.4-1.3,3.8-1.6
				c1.3-0.3,2.7-0.3,4.1-0.1c1.4,0.2,2.7,0.7,3.9,1.4l0,0l0,0c0.8,0.6,1.5,1.3,2.1,2c0.6,0.7,1.2,1.5,1.7,2.3
				c1.1,1.6,1.9,3.3,2.5,5.1c0.3,0.9,0.5,1.8,0.7,2.7c0.2,0.9,0.3,1.9,0.4,2.8c0.1,0.9,0.1,1.9,0.1,2.8l0.1,2.8
				c0.3,7.5,1.2,14.9,2.5,22.3c0.4,1.8,0.8,3.6,1.3,5.4c0.1,0.4,0.3,0.9,0.4,1.3l0.2,0.7c0.1,0.2,0.1,0.5,0.2,0.7c0,0.3,0,0.6,0,0.8
				c-0.1,0.3-0.2,0.6-0.5,0.8c-0.4,0.3-0.9,0.5-1.5,0.6c-1,0.1-1.9,0.1-2.9,0.1l-2.8-0.1c-0.9,0-1.9,0-2.8,0c-0.5,0-0.9,0-1.4,0.1
				c-0.5,0-0.9,0.1-1.4,0.1c-1.9,0-3.7,0.1-5.6,0.3c-1.8,0.3-3.6,0.8-5.3,1.6c-0.9,0.3-1.9,0.5-2.8,0.5c-0.9,0.1-1.9,0.1-2.8,0.1
				c-0.9,0-1.9,0-2.8-0.1c-0.9-0.1-1.9-0.2-2.8-0.4l-0.1,0l0-0.1L4,54z M4.1,54l-0.5,5.7l0-0.1C5.4,60,7.2,60.1,9.1,60
				c0.9,0,1.9-0.1,2.8-0.2c0.9-0.1,1.8-0.3,2.7-0.6c1.7-0.8,3.5-1.4,5.4-1.8c1.9-0.3,3.8-0.4,5.6-0.4c0.5,0,0.9,0,1.4-0.1
				c0.5,0,0.9-0.1,1.4-0.1c0.9,0,1.9,0,2.8,0L34,57c0.9,0.1,1.8,0.1,2.7,0c0.4,0,0.8-0.2,1.1-0.4c0.3-0.2,0.4-0.6,0.3-1
				c0-0.2-0.1-0.4-0.1-0.6l-0.2-0.7c-0.1-0.5-0.3-0.9-0.4-1.4c-0.5-1.8-0.8-3.7-1.1-5.5c-0.6-3.7-1.1-7.4-1.5-11.1
				c-0.4-3.7-0.7-7.4-1-11.2l-0.2-2.8c-0.1-0.9-0.1-1.9-0.2-2.8c-0.1-0.9-0.2-1.8-0.4-2.7c-0.2-0.9-0.5-1.8-0.8-2.7
				c-0.6-1.7-1.5-3.4-2.5-4.9c-0.5-0.8-1.1-1.5-1.7-2.2c-0.6-0.7-1.3-1.3-2-1.9l0,0c-1.1-0.6-2.3-1-3.6-1.2
				c-1.3-0.2-2.5-0.2-3.8,0.1c-1.2,0.3-2.4,0.8-3.5,1.5c-0.5,0.3-1,0.7-1.5,1.2c-0.4,0.5-0.9,1-1.3,1.5c-1.6,2.1-2.9,4.3-3.8,6.8
				c-1,2.4-1.8,4.9-2.3,7.5c-0.6,2.6-1.1,5.1-1.4,7.7c-0.4,2.6-0.6,5.2-0.7,7.9c-0.1,2.6-0.2,5.3-0.2,7.9c0,1.3,0.1,2.6,0.1,4
				C4.3,51.4,4.3,52.7,4.1,54L4.1,54z"/>
		</g>
		<g transform="translate(55.356 30.576)">
			<path d="M16.9,33.3c0,0,0.6,0.5,2.6-1.5l-1.3-2.2L16.9,33.3z"/>
			<path d="M27.9,24.2c-0.2,1.1-0.9,2-1.8,2.6l-1-2L27.9,24.2z"/>
			<g transform="translate(9.261 17.816)">
				<path class="st1" d="M15.8,5.1l5.9,8.2l27.3,10.6c3.1,0,6.2,0.3,8,1.4c0.7,0.8,1.3,1.7,1.8,2.6c0,0,1.8,1.1,1.6,1.7
					c-0.3,0.7-2.4-0.8-3.4-0.9c-1-0.1-1.9-0.2-2.9-0.2c-0.2,0.1-0.1,0.2,0.3,0.5c0.5,0.2,2.8,0.7,2.6,1.5s-3.5,0-4.3-0.4
					c-0.9-0.6-1.7-1.2-2.5-1.8c-3.4-0.7-11.6-1.9-14-2.5c-3-0.8-15.1-3.9-18.1-4.5c-2.3-0.5-13.1-13-13.1-13"/>
				<path d="M15.9,5.1c1,1.3,2,2.7,3.1,4s2,2.7,3,4.1l-0.1-0.1l3.4,1.3l3.4,1.3l6.8,2.6c2.3,0.9,4.5,1.8,6.8,2.7l6.8,2.8l-0.1,0
					c1,0,1.9,0.1,2.9,0.2c1,0.1,1.9,0.2,2.8,0.4c0.5,0.1,0.9,0.2,1.4,0.4c0.2,0.1,0.4,0.2,0.7,0.3l0.3,0.2c0.1,0.1,0.2,0.2,0.3,0.3
					c0.6,0.8,1.1,1.6,1.6,2.4l0,0c0.3,0.2,0.6,0.4,0.9,0.7c0.2,0.1,0.3,0.3,0.4,0.4c0.2,0.2,0.3,0.4,0.3,0.6c0,0.1,0,0.3-0.1,0.4
					c-0.1,0.1-0.2,0.1-0.4,0.1c-0.2,0-0.4,0-0.6-0.1c-0.4-0.1-0.7-0.3-1.1-0.4c-0.3-0.2-0.7-0.3-1-0.4c-0.2-0.1-0.3-0.1-0.5-0.1
					c-0.2,0-0.4,0-0.6-0.1c-0.7-0.1-1.5-0.1-2.2-0.1l0.1,0l0,0c0,0,0-0.1,0-0.1c0-0.1,0,0,0,0c0.1,0.1,0.2,0.1,0.3,0.1
					c0.2,0.1,0.4,0.1,0.7,0.2c0.5,0.1,0.9,0.3,1.4,0.5c0.3,0.1,0.5,0.3,0.7,0.6c0,0.1,0.1,0.2,0.1,0.3c0,0.1,0,0.2-0.1,0.3
					c-0.1,0.2-0.2,0.3-0.4,0.4c-0.3,0.1-0.5,0.1-0.8,0.1c-0.3,0-0.5,0-0.8,0c-0.5-0.1-1-0.2-1.5-0.3c-0.5-0.1-1-0.3-1.4-0.5
					c-0.8-0.5-1.6-1.1-2.4-1.7l0.2,0.1c-4.2-0.8-8.4-1.4-12.7-2.1l-0.8-0.2c-0.3-0.1-0.5-0.1-0.8-0.2l-1.5-0.4l-3.1-0.8L25,23.3
					c-2.1-0.5-4.1-1.1-6.2-1.5l-0.4-0.1l-0.2,0l-0.1,0l-0.1,0c-0.3-0.1-0.6-0.2-0.8-0.4c-0.4-0.3-0.9-0.7-1.3-1
					c-0.8-0.7-1.6-1.5-2.3-2.2c-3-3.1-5.8-6.3-8.5-9.6l0.1-0.1c1.5,1.6,2.9,3.1,4.4,4.7s3,3.1,4.5,4.6c0.8,0.7,1.5,1.5,2.4,2.2
					c0.4,0.3,0.8,0.7,1.2,0.9c0.2,0.1,0.4,0.2,0.6,0.3l0.1,0l0.1,0l0.2,0L19,21c2.1,0.5,4.2,0.9,6.3,1.4c2.1,0.5,4.2,1,6.2,1.5
					l3.1,0.8l1.6,0.4c0.3,0.1,0.5,0.1,0.8,0.2l0.8,0.2c4.2,0.8,8.4,1.4,12.6,2.3l0.1,0l0.1,0.1c0.7,0.6,1.5,1.2,2.3,1.7
					c0.4,0.2,0.8,0.4,1.2,0.5c0.5,0.1,0.9,0.2,1.4,0.3c0.2,0,0.5,0.1,0.7,0.1c0.2,0,0.4,0,0.6-0.1c0,0,0.1,0,0.1-0.1c0,0,0,0,0,0
					c0,0,0,0,0-0.1c-0.1-0.2-0.3-0.3-0.4-0.4c-0.4-0.2-0.8-0.4-1.3-0.5c-0.2-0.1-0.5-0.1-0.7-0.3c-0.1-0.1-0.2-0.1-0.4-0.2
					c-0.1-0.1-0.2-0.2-0.2-0.3c0-0.1,0-0.2,0.1-0.3c0,0,0.1-0.1,0.1-0.1l0,0h0c0.8,0,1.5,0.1,2.3,0.1c0.2,0,0.4,0,0.6,0.1
					c0.2,0,0.4,0.1,0.6,0.2c0.4,0.1,0.7,0.3,1.1,0.5c0.3,0.2,0.7,0.3,1,0.4c0.2,0.1,0.3,0.1,0.5,0.1c0.2,0,0.2-0.1,0.2-0.2
					c0-0.2-0.1-0.3-0.2-0.4c-0.1-0.1-0.2-0.3-0.4-0.4c-0.3-0.2-0.6-0.5-0.9-0.6l0,0l0,0c-0.5-0.8-1-1.6-1.6-2.3
					c-0.1-0.1-0.1-0.2-0.2-0.2l-0.3-0.2C56.5,25.1,56.3,25,56,25c-0.4-0.2-0.9-0.3-1.3-0.4c-1.9-0.3-3.7-0.5-5.6-0.5h0l0,0l-6.9-2.5
					c-2.3-0.8-4.6-1.7-6.8-2.6l-6.8-2.7L25.1,15l-3.4-1.4l-0.1,0l0-0.1c-1-1.4-1.9-2.8-2.9-4.2S16.7,6.6,15.9,5.1L15.9,5.1z"/>
			</g>
			<path class="st1" d="M6.3,19.6c-0.5,3.4,2.5,4.3,4.3,6.4c2.1,2.5,0.2,3.5,1.8,5.5c1.1,1.5,3,2.1,4.7,1.5c0,0,2.3-7.9,10.1-8.3
				c2.1-0.1-0.7-3.6-1.3-4.3c-0.9-1-1.7-1.6-2.4-2.3c-2.5-2.8-4.8-5.8-7-8.9c0,0-3-5.9-6.7-4.9c-2.6,0.5-4.6,2.6-5,5.1
				c-0.3,1.7,0,3.5,0.8,5.1C6.2,16.1,6.5,17.9,6.3,19.6z"/>
			<path d="M6.3,19.6c-0.1,0.8,0,1.6,0.3,2.3c0.4,0.7,0.9,1.3,1.5,1.8c0.6,0.5,1.3,1,1.9,1.5c0.6,0.6,1.1,1.2,1.5,2
				c0.2,0.4,0.3,0.8,0.3,1.3c0,0.4,0,0.8,0,1.2c0,0.4,0.1,0.7,0.3,1l0.1,0.2l0.2,0.2c0.1,0.2,0.2,0.3,0.4,0.4
				c0.5,0.5,1.1,0.9,1.8,1.1c0.7,0.2,1.5,0.1,2.2,0l-0.3,0.3c0.5-1.4,1.2-2.7,2.1-3.8c0.9-1.2,2-2.1,3.2-2.9c1.2-0.8,2.6-1.3,4-1.5
				l1.1-0.1c0.2,0,0.3,0,0.5-0.1c0.1,0,0.2-0.1,0.3-0.3c0-0.3,0-0.6-0.2-0.9c-0.1-0.3-0.3-0.6-0.5-0.9c-0.4-0.6-0.8-1.1-1.3-1.7
				c-0.5-0.5-1-1-1.5-1.5c-0.3-0.2-0.5-0.5-0.8-0.7c-0.3-0.3-0.5-0.5-0.7-0.8c-0.5-0.5-1-1.1-1.4-1.6c-1.9-2.1-3.6-4.4-5.3-6.7l0,0
				l0,0c-0.3-0.6-0.7-1.2-1.2-1.8C14.4,7,14,6.5,13.4,6c-0.5-0.5-1.1-0.8-1.7-1.1c-0.6-0.3-1.3-0.3-1.9-0.1h0h0
				C9.1,4.9,8.4,5.1,7.8,5.5C7.2,5.8,6.7,6.3,6.2,6.9c-0.9,1.1-1.4,2.5-1.4,4c0,0.7,0.1,1.5,0.3,2.2c0.1,0.4,0.2,0.7,0.3,1.1
				c0.1,0.3,0.3,0.7,0.4,1c0.2,0.7,0.4,1.5,0.4,2.2C6.4,18.1,6.4,18.8,6.3,19.6z M6.2,19.6c0.2-1.5,0-3-0.5-4.4
				c-0.1-0.3-0.3-0.7-0.5-1c-0.2-0.3-0.3-0.7-0.4-1.1c-0.2-0.7-0.4-1.5-0.4-2.3c0-0.4,0-0.8,0-1.2c0-0.2,0.1-0.4,0.1-0.6
				c0-0.2,0.1-0.4,0.1-0.6c0.2-0.8,0.6-1.5,1-2.1c0.5-0.6,1.1-1.2,1.8-1.6C8.1,4.3,8.8,4,9.6,3.9l0,0c0.8-0.2,1.7-0.2,2.5,0.1
				c0.7,0.3,1.4,0.7,2,1.3c0.6,0.5,1.1,1.1,1.5,1.7c0.5,0.6,0.9,1.3,1.2,2l0-0.1c1.6,2.3,3.3,4.6,5.1,6.8l1.3,1.6
				c0.2,0.3,0.5,0.5,0.7,0.8c0.2,0.2,0.5,0.5,0.8,0.7c0.5,0.5,1,1,1.5,1.6c0.4,0.6,0.9,1.2,1.2,1.8c0.2,0.3,0.4,0.6,0.5,1
				c0.2,0.4,0.2,0.7,0.2,1.1c-0.1,0.2-0.2,0.4-0.4,0.5c-0.2,0.1-0.4,0.1-0.6,0.1l-1,0.1c-0.2,0-0.3,0.1-0.5,0.1l-0.5,0.1
				c-0.2,0-0.3,0.1-0.5,0.1l-0.5,0.2c-0.3,0.1-0.6,0.3-0.9,0.4c-0.3,0.2-0.6,0.3-0.9,0.5c-1.1,0.8-2.1,1.8-2.9,2.9
				c-0.8,1.1-1.4,2.4-1.8,3.7l-0.1,0.2l-0.2,0c-0.8,0.2-1.7,0.2-2.6,0.1c-0.9-0.2-1.6-0.7-2.2-1.4c-0.3-0.3-0.6-0.7-0.8-1.1
				c-0.2-0.4-0.3-0.9-0.3-1.3c0-0.4,0-0.8,0-1.2c0-0.4-0.1-0.7-0.2-1.1c-0.3-0.7-0.8-1.4-1.3-1.9C9.2,25,8.6,24.4,8,23.9
				c-0.6-0.5-1.1-1.2-1.5-1.9C6.2,21.2,6.1,20.4,6.2,19.6L6.2,19.6z"/>
		</g>
		<path d="M0,176.4l3-0.1l3-0.1l6.1-0.2c4.1-0.1,8.1-0.2,12.2-0.2c4.1-0.1,8.1-0.1,12.2-0.1l12.2,0l12.2,0c4.1,0,8.1,0.1,12.2,0.1
			c4.1,0.1,8.1,0.1,12.2,0.2l6.1,0.2l3,0.1l3,0.1l-3,0.1l-3,0.1l-6.1,0.2c-4.1,0.1-8.1,0.2-12.2,0.2c-4.1,0.1-8.1,0.1-12.2,0.1
			l-12.2,0l-12.2,0c-4.1,0-8.1-0.1-12.2-0.1c-4.1-0.1-8.1-0.1-12.2-0.2l-6.1-0.2l-3-0.1L0,176.4z"/>
	</g>
	<g transform="translate(-1459.62 2703.814)">
		<path d="M8.6,32.3c0.6-1.5,1.5-3,2.7-4.2c1.1-1.2,2.5-2.3,4-3.1c1.5-0.8,3.1-1.4,4.7-1.7c1.6-0.4,3.3-0.5,5-0.4
			c1.7,0.1,3.3,0.5,4.9,0.9c1.6,0.4,3.2,0.9,4.7,1.3c3.2,0.9,6.4,1.1,9.7,0.6c1.6-0.3,3.2-0.7,4.7-1.2c1.5-0.5,2.9-1.3,4.2-2.2
			c2.6-1.9,4.6-4.5,6.6-7c2-2.7,4.4-5,7.1-7c2.8-1.9,5.8-3.2,9.1-4l0.1,0.3c-1.5,0.6-3,1.2-4.5,2c-1.4,0.8-2.8,1.6-4.1,2.6
			c-1.3,1-2.5,2.1-3.6,3.2c-1.1,1.2-2.2,2.4-3.2,3.7c-1,1.3-2.1,2.5-3.2,3.8c-1.1,1.2-2.4,2.4-3.8,3.3c-0.3,0.2-0.7,0.4-1.1,0.7
			c-0.4,0.2-0.7,0.4-1.1,0.6c-0.8,0.3-1.6,0.6-2.4,0.9c-1.6,0.4-3.2,0.8-4.9,0.9c-3.3,0.4-6.6,0.2-9.9-0.5c-3.2-0.7-6.4-1.3-9.6-1.8
			c-0.8-0.1-1.6-0.1-2.4,0c-0.8,0-1.6,0.1-2.4,0.3c-1.6,0.3-3.1,0.8-4.5,1.5c-0.7,0.4-1.4,0.8-2.1,1.2c-0.3,0.2-0.6,0.5-1,0.7
			c-0.3,0.3-0.6,0.5-0.9,0.8c-1.2,1.1-2.1,2.4-2.8,3.9L8.6,32.3z"/>
		<g transform="translate(0 25.823)">
			<path d="M8,8.6c0.8-0.9,1.6-1.7,2.6-2.3l-1.8,0L7.5,5.2C7.9,6.3,8,7.4,8,8.6z"/>
		</g>
		<g transform="translate(62.406 0)">
			<path d="M15.8,4c-0.9,0.7-1.8,1.5-2.5,2.5l0.1-1.8l-1.1-1.5C13.4,3.6,14.6,3.9,15.8,4z"/>
		</g>
	</g>
	<g transform="translate(-1409.747 2750.008)">
		<line class="st6" x1="86.8" y1="56.2" x2="11.4" y2="56.2"/>
		<line class="st6" x1="21" y1="11.9" x2="96.4" y2="11.9"/>
		<line class="st6" x1="18.6" y1="23" x2="94" y2="23"/>
		<line class="st6" x1="16.2" y1="34.1" x2="91.6" y2="34.1"/>
		<line class="st6" x1="13.8" y1="45.2" x2="89.2" y2="45.2"/>
		<path class="st0" d="M17.5,56.1c2.6-2.1,5.3-4,7.9-5.9c2.6-1.9,5.3-3.8,7.9-5.5c1.3-0.9,2.6-1.8,3.9-2.7l4-2.6l2-1.3l2-1.3l4-2.5
			l0.3-0.2h0.3l1.8,0l1.8,0l3.6,0l-0.8,0.4c2.5-2.5,5.1-4.8,7.7-7.2c2.6-2.4,5.1-4.7,7.7-7.1c1.3-1.2,2.6-2.3,3.9-3.5
			c1.3-1.2,2.6-2.3,3.9-3.4c2.6-2.3,5.2-4.5,7.8-6.6l0,0.2L56.3,36.5l0,0h0l-7.1,0l0.1,0L17.5,56.3L17.5,56.1z"/>
	</g>
	<g transform="translate(-1397.623 2736.527)">
		<path class="st7" d="M23.6,9.3H12.3l0.8-3.6h11.2L23.6,9.3z"/>
		<path class="st7" d="M39.6,9.3H28.4l0.8-3.6h11.2L39.6,9.3z"/>
		<path class="st7" d="M55.7,9.3H44.5l0.8-3.6h11.2L55.7,9.3z"/>
		<path class="st7" d="M71.8,9.3H60.5l0.8-3.6h11.2L71.8,9.3z"/>
		<path class="st7" d="M87.8,9.3H76.6l0.8-3.6h11.2L87.8,9.3z"/>
	</g>
	<g transform="translate(-1313.119 2718.313)">
		<g transform="translate(14.051 30.318)">
			<path d="M52,37.2c-1.3,0.8-2.8,1.3-4.4,1.3l-0.1-2.6L52,37.2z"/>
			<g transform="translate(0 9.808)">
				<path class="st1" d="M52.4,13.1l-6.8,23.4L33.5,57.8c0,0-2.8,4-3.8,5.9c0.1,1.5,0.2,3,0.1,4.6c-0.2,1.4-2,5.9-3.1,5.5
					c-1.1-0.4,0.2-3.5,0.4-4.4c0.1-0.8,0-1-0.3-0.8c-0.8,1.2-1.6,2.4-2.2,3.6c-0.7,1.3-0.7,5.1-1.8,4.9c-1-0.2-0.7-3.3-0.7-3.3
					c-0.6-1.4-1.2-2.9-1.6-4.4c0.2-2.6,1.1-5.1,2.5-7.3c1.8-3,12.7-28.4,12.7-28.4c1.8-9.5,5.2-26.4,5.2-26.4"/>
				<path d="M52.5,13.1L50.9,19c-0.5,2-1.1,3.9-1.6,5.9l-1.6,5.9c-0.5,2-1.1,3.9-1.7,5.9l0,0l0,0L43,42c-1,1.8-2,3.6-3,5.3
					s-2,3.6-3.1,5.3L33.8,58l0,0l0,0c-0.7,0.9-1.4,1.9-2,2.9c-0.3,0.5-0.6,1-1,1.5c-0.3,0.5-0.6,1-0.9,1.5l0-0.1
					c0,0.7,0.1,1.4,0.1,2.1c0,0.7,0,1.4,0,2.1c-0.1,0.7-0.3,1.4-0.5,2.1c-0.2,0.7-0.5,1.3-0.9,2c-0.2,0.3-0.4,0.6-0.6,0.9
					c-0.2,0.3-0.5,0.6-0.7,0.8C27.2,74,26.9,74,26.7,74c-0.2,0-0.4-0.2-0.5-0.4c-0.1-0.4-0.2-0.8-0.1-1.1c0.1-0.7,0.3-1.4,0.5-2.1
					c0.1-0.3,0.2-0.7,0.3-1c0-0.2,0-0.3,0-0.5c0-0.1,0-0.1,0-0.1c0.1,0,0,0,0,0l0,0c-0.6,0.9-1.2,1.8-1.8,2.8
					c-0.1,0.2-0.3,0.5-0.4,0.7c-0.1,0.2-0.2,0.5-0.3,0.7c-0.1,0.5-0.2,1.1-0.3,1.6c-0.1,0.5-0.2,1.1-0.4,1.6
					c-0.1,0.3-0.2,0.6-0.4,0.8c-0.1,0.2-0.3,0.3-0.5,0.4c-0.2,0-0.5,0-0.6-0.2c-0.2-0.2-0.4-0.5-0.5-0.9c-0.1-0.3-0.1-0.6-0.2-0.9
					c-0.1-0.6-0.1-1.1,0-1.7l0,0.2c-0.4-0.8-0.7-1.7-1.1-2.5c-0.2-0.4-0.3-0.9-0.5-1.3c0-0.1-0.1-0.2-0.1-0.4c0-0.1,0-0.1,0-0.2
					c0-0.1,0-0.1,0-0.2l0-0.1c0-0.2,0-0.5,0.1-0.7c0.2-1.9,0.8-3.7,1.6-5.3c0.2-0.4,0.4-0.8,0.7-1.2c0.2-0.4,0.4-0.8,0.6-1.2
					c0.4-0.8,0.8-1.6,1.2-2.5c0.8-1.7,1.5-3.3,2.2-5l8.8-20l0,0.1l1.4-6.6l1.4-6.6l1.4-6.6l1.5-6.6l0.1,0L39.8,14l-1.2,6.6l-1.2,6.6
					l-1.2,6.6l0,0l0,0c-1.4,3.4-2.8,6.7-4.3,10c-1.4,3.3-2.9,6.7-4.4,10c-0.8,1.7-1.5,3.3-2.3,5c-0.4,0.8-0.8,1.6-1.2,2.5
					c-0.2,0.4-0.4,0.8-0.7,1.2c-0.2,0.4-0.5,0.8-0.7,1.2c-0.8,1.6-1.4,3.3-1.6,5c0,0.2-0.1,0.4-0.1,0.7l0,0.1v0c0,0,0,0.1,0,0.1
					c0,0.1,0,0.2,0.1,0.3c0.1,0.4,0.3,0.8,0.4,1.3c0.3,0.8,0.6,1.7,1,2.5l0,0.1l0,0.1c0,0.5,0,1.1,0,1.6c0,0.3,0.1,0.5,0.1,0.8
					c0,0.2,0.1,0.4,0.3,0.6c0.1,0.1,0.2,0.1,0.3-0.1c0.1-0.2,0.2-0.4,0.3-0.7c0.2-0.5,0.3-1.1,0.4-1.6c0.1-0.5,0.2-1.1,0.4-1.6
					c0.1-0.3,0.2-0.6,0.3-0.8c0.1-0.2,0.3-0.5,0.4-0.7c0.6-1,1.2-1.9,1.8-2.8l0,0l0,0c0.1,0,0.1-0.1,0.2-0.1c0.1,0,0.2,0,0.3,0.1
					c0.1,0.1,0.2,0.2,0.1,0.4c0,0.2,0,0.4-0.1,0.6c-0.1,0.4-0.2,0.7-0.3,1c-0.2,0.7-0.4,1.3-0.5,2c-0.1,0.3,0,0.6,0.1,1
					c0.1,0.1,0.2,0.2,0.3,0.2c0.1,0,0.3,0,0.4-0.1c0.3-0.2,0.5-0.5,0.7-0.7c0.2-0.3,0.4-0.6,0.5-0.9c0.3-0.6,0.6-1.3,0.8-1.9
					c0.3-0.6,0.4-1.3,0.5-2c0-1.4,0-2.8-0.2-4.2l0-0.1l0-0.1c0.3-0.5,0.6-1,0.9-1.6s0.6-1,0.9-1.5c0.6-1,1.3-2,1.9-3l0,0l3-5.4
					c1-1.8,2-3.6,3-5.3c1-1.8,2-3.6,3.1-5.3l3.1-5.3l0,0.1c0.6-1.9,1.1-3.9,1.7-5.8l1.8-5.8c0.6-1.9,1.2-3.9,1.8-5.8L52.5,13.1
					L52.5,13.1z"/>
			</g>
			<g transform="translate(14.829)">
				<path class="st1" d="M38.6,23.9c-0.4,4.3,0.6,5.2,0.9,7.7c0.4,2.1-0.6,4.3-2.5,5.3c0,0-9-2.4-15.6-1c0,0,0.5-3.1,1.1-7.2
					c0.4-2.5-0.6-18.8,6.6-21.2c2.3-0.9,5-0.2,6.5,1.8c1.1,1.3,1.7,3,1.7,4.7C37.2,18.1,39,19.3,38.6,23.9z"/>
				<path d="M38.6,23.9c-0.1,1.2-0.1,2.3,0,3.5c0.2,1.2,0.6,2.2,0.9,3.4c0.3,1.2,0.3,2.4,0,3.6c-0.2,0.6-0.5,1.2-1,1.6
					c-0.4,0.5-0.9,0.9-1.4,1.2L37,37.4l-0.2,0c-0.6-0.1-1.3-0.3-1.9-0.4L33,36.6c-1.3-0.2-2.6-0.5-3.9-0.6c-1.3-0.2-2.6-0.2-3.9-0.2
					c-1.3,0-2.6,0.1-3.9,0.4l-0.2,0l0-0.2c0.3-2.2,0.6-4.4,0.9-6.6c0-0.3,0.1-0.6,0.1-0.8c0-0.3,0-0.5,0-0.8l0-1.7
					c0-1.1,0-2.2,0.1-3.3c0.1-2.2,0.3-4.5,0.7-6.7c0.2-1.1,0.5-2.2,0.9-3.3c0.4-1.1,0.9-2.1,1.5-3.1c0.7-1,1.6-1.8,2.6-2.4
					c0.3-0.1,0.5-0.3,0.8-0.3c0.3-0.1,0.6-0.2,0.9-0.2c0.6-0.1,1.2-0.2,1.8-0.1c0.6,0,1.2,0.2,1.8,0.4c0.6,0.2,1.1,0.5,1.5,0.9
					c0.9,0.8,1.6,1.7,2,2.8c0.5,1.1,0.7,2.2,0.6,3.3c0,1.1,0.1,2.2,0.3,3.2c0.2,1.1,0.6,2.1,0.8,3.2C38.7,21.7,38.8,22.8,38.6,23.9z
					 M38.5,23.9c0.1-1.1,0.1-2.2-0.1-3.3c-0.2-1.1-0.6-2.1-0.9-3.2c-0.3-1.1-0.5-2.2-0.5-3.3c0-1.1-0.2-2.1-0.7-3.1
					c-0.5-1-1.1-1.8-2-2.4c-0.8-0.6-1.8-0.9-2.8-1c-0.5,0-1,0-1.5,0.1c-0.2,0.1-0.5,0.1-0.7,0.2C29,8,28.8,8.1,28.5,8.3
					c-0.9,0.5-1.7,1.2-2.2,2.1c-1.1,1.8-1.9,3.8-2.3,6c-0.2,1.1-0.4,2.1-0.5,3.2c-0.1,1.1-0.3,2.2-0.3,3.3S23,25,22.9,26.1l-0.1,1.7
					c0,0.3,0,0.6-0.1,0.8l-0.1,0.8c-0.4,2.2-0.7,4.4-1.1,6.5l-0.2-0.2c0.6-0.1,1.3-0.2,2-0.3c0.7-0.1,1.3-0.1,2-0.2
					c1.3-0.1,2.6-0.1,4,0s2.6,0.2,3.9,0.4c0.7,0.1,1.3,0.2,2,0.3c0.6,0.1,1.3,0.3,1.9,0.4l-0.3,0.1c0.5-0.3,0.9-0.6,1.3-1
					c0.4-0.4,0.7-0.8,0.9-1.3c0.4-1.1,0.5-2.2,0.3-3.3c-0.1-0.6-0.2-1.1-0.3-1.7c-0.1-0.6-0.2-1.2-0.3-1.8
					C38.4,26.2,38.4,25,38.5,23.9L38.5,23.9z"/>
			</g>
		</g>
		<path d="M75.3,85.4c0,0,7.9,1.8,8.5,3.7c0,0,1.1,1.3-8.9,1"/>
		<g transform="translate(9.126 60.024)">
			<g transform="translate(16.73)">
				<path class="st1" d="M25.2,11.1L21,57.4c0,0-0.9,9.3,8.9,17.1L84,124.4l13.9-18.5l-0.1-0.2c-5.5-3.4-10-8.3-12.9-14.2
					c-1.5-3.1-2.7-6.4-5.2-8.8c-3-2.8-7.3-3.6-11.2-4.8c-4.4-1.5-8.5-3.7-12-6.7c0,0-4.3-49.7-13-62.3L25.2,11.1z"/>
				<path d="M25.2,11.1l-2.8,34.9c-0.2,2.9-0.5,5.8-0.7,8.7l-0.2,2.2l0,0.5c0,0.2,0,0.3,0,0.5c0,0.3,0,0.7,0,1.1
					c0.1,1.4,0.4,2.8,0.9,4.2c0.9,2.7,2.3,5.2,4.2,7.3c0.9,1.1,2,2.1,3.1,3c0.6,0.4,1.1,1,1.6,1.4l1.6,1.5
					c8.6,7.8,17.2,15.8,25.8,23.7l25.8,23.7l-1.3,0.1l3.5-4.6l3.5-4.6l7-9.2l-0.1,0.8L97,106l0.3,0.4c-4.1-2.5-7.6-5.8-10.3-9.7
					c-1.4-1.9-2.6-4-3.5-6.2c-0.8-2.1-1.9-4.1-3.2-6c-1.4-1.7-3.2-3-5.3-3.8c-2.1-0.8-4.3-1.4-6.6-2.1c-4.5-1.5-8.7-3.8-12.4-6.9
					l-0.2-0.2l0-0.3c-0.4-5.3-1-10.6-1.7-15.9c-0.6-5.3-1.4-10.6-2.2-15.8S50,29.1,48.8,23.9c-0.6-2.6-1.3-5.1-2.2-7.7
					c-0.8-2.5-1.9-4.9-3.3-7.2l0.2,0.1L25.2,11.1z M25.2,11.1l18.4-2.2h0l0,0c1.4,2.3,2.6,4.7,3.4,7.2c0.9,2.5,1.6,5.1,2.3,7.7
					c1.3,5.2,2.3,10.4,3.2,15.7c0.9,5.3,1.7,10.5,2.3,15.8c0.7,5.3,1.3,10.6,1.8,15.9l0-0.1c3.6,3,7.7,5.2,12.1,6.7
					c2.2,0.7,4.5,1.3,6.6,2.1c1.1,0.4,2.1,1,3.1,1.6c1,0.7,1.8,1.5,2.5,2.4c1.3,1.9,2.5,4,3.3,6.1c1,2.1,2.1,4.1,3.5,6
					c2.7,3.8,6.1,7,10.1,9.5l0,0l0,0l0.1,0.2l0,0l0,0l-13.9,18.5l-0.1,0.1l-0.1-0.1L32.5,77l-1.6-1.5c-0.5-0.5-1.1-1-1.6-1.5
					c-1.1-0.9-2.2-2-3.1-3.1c-1.9-2.2-3.4-4.8-4.3-7.6c-0.5-1.4-0.7-2.8-0.9-4.3c-0.1-0.7-0.1-1.5,0-2.2l0.2-2.2L22,46L25.2,11.1z"
					/>
				<g transform="translate(56.699 98.103)">
					<path class="st1" d="M34.8,16.4l13.9,11.2L35.6,41.1h-9.8c0,0-1.1-3,7.2-7.9c0,0,3.2-3-0.5-7.6L30,22.8L34.8,16.4z"/>
					<path d="M34.8,16.4l3.5,2.6l3.6,2.7c1.2,0.9,2.4,1.8,3.6,2.8c1.2,0.9,2.4,1.9,3.6,2.8h0c0.2,0.1,0.2,0.4,0.1,0.6c0,0,0,0,0,0
						l0,0c-2.2,2.2-4.5,4.4-6.7,6.6c-1.1,1.1-2.2,2.2-3.3,3.4c-1.1,1.1-2.2,2.3-3.2,3.4c0,0-0.1,0.1-0.1,0.1h0l-4.9,0.1
						c-1.6,0-3.3,0.1-4.9,0.1h0c-0.2,0-0.3-0.1-0.4-0.3c0-0.2-0.1-0.3-0.1-0.5c0-0.1,0-0.3,0-0.4c0-0.1,0-0.3,0.1-0.4
						c0-0.1,0.1-0.3,0.1-0.4c0.2-0.5,0.4-0.9,0.7-1.3c0.6-0.8,1.2-1.5,1.9-2.2c0.7-0.6,1.4-1.2,2.2-1.8c0.8-0.5,1.6-1,2.4-1.5
						l-0.1,0.1c0.1-0.2,0.3-0.3,0.4-0.5c0.1-0.2,0.2-0.4,0.3-0.6c0.2-0.4,0.3-0.8,0.4-1.3c0.1-0.9-0.1-1.9-0.5-2.7
						c-0.1-0.2-0.2-0.4-0.3-0.6c-0.1-0.2-0.2-0.4-0.4-0.6L32.1,26l-0.5-0.6c-0.6-0.8-1.3-1.6-1.9-2.3l0,0c-0.1-0.1-0.1-0.3,0-0.4
						l2.6-3.2L34.8,16.4z M34.8,16.5l-2.3,3.3L30.2,23l0-0.4c0.7,0.7,1.4,1.5,2,2.3l0.5,0.6c0.2,0.2,0.3,0.4,0.5,0.6
						c0.2,0.2,0.3,0.4,0.5,0.7c0.2,0.2,0.3,0.5,0.4,0.7c0.5,1,0.7,2.1,0.7,3.2c-0.1,0.6-0.2,1.1-0.4,1.6c-0.1,0.3-0.3,0.5-0.4,0.7
						c-0.2,0.2-0.3,0.5-0.6,0.7c0,0,0,0-0.1,0.1l0,0c-0.8,0.5-1.6,1-2.3,1.5c-0.7,0.5-1.5,1.1-2.1,1.7c-0.7,0.6-1.3,1.2-1.8,2
						c-0.2,0.3-0.4,0.7-0.6,1.1c0,0.1-0.1,0.2-0.1,0.3c0,0.1-0.1,0.2-0.1,0.3c0,0.1,0,0.2,0,0.3c0,0.1,0,0.2,0,0.2l-0.4-0.3
						c1.6,0,3.3,0.1,4.9,0.1l4.9,0.1L35.5,41c1.1-1.1,2.2-2.2,3.3-3.3c1.1-1.1,2.2-2.3,3.2-3.4c2.1-2.3,4.2-4.7,6.4-6.9l0,0.6
						c-1.1-0.9-2.3-1.8-3.4-2.8c-1.1-0.9-2.2-1.9-3.4-2.8l-3.4-2.9L34.8,16.5z"/>
				</g>
				<path d="M95.8,118l-6.8,5.6l0.1,0.1c3.8,4.6,0.5,7.6,0.5,7.6c-8.2,4.9-7.2,7.9-7.2,7.9h9.8l13.1-13.5L95.8,118z"/>
			</g>
			<g transform="translate(0 103.24)">
				<path class="st1" d="M39.3,16.8c-0.9,5.9-5.2,10.6-10.9,12.1c0,0-8.4,2.2-8.6,6.4h27.5c0,0-2.8-11.7,1.3-18.1L39.3,16.8z"/>
				<path d="M39.4,16.8C39.4,16.9,39.4,16.9,39.4,16.8l0,0.2c0,0.1,0,0.1,0,0.2l-0.1,0.4c-0.1,0.3-0.1,0.6-0.2,0.9
					c-0.1,0.3-0.1,0.6-0.2,0.9s-0.2,0.6-0.3,0.9c-0.4,1.1-1,2.2-1.7,3.2c-1.4,2-3.3,3.6-5.5,4.7l-0.8,0.4c-0.3,0.1-0.6,0.2-0.9,0.3
					c-0.6,0.2-1.2,0.4-1.7,0.6c-1.1,0.3-2.2,0.8-3.3,1.2c-1.1,0.5-2.1,1.1-3,1.8c-0.9,0.7-1.5,1.7-1.7,2.8l-0.2-0.2
					c2.3,0.1,4.6,0.1,6.9,0.1c2.3,0,4.6-0.1,6.9-0.1l3.4-0.1l3.4-0.1l6.9-0.1l-0.5,0.6c-0.4-1.5-0.6-3.1-0.8-4.6
					c-0.2-1.6-0.2-3.1-0.2-4.7c0-1.6,0.2-3.2,0.6-4.7c0.3-1.6,1-3.1,1.8-4.4l0.3,0.5l-4.6-0.3L39.4,16.8z M39.3,16.8h4.6l4.7,0
					c0.2,0,0.4,0.2,0.3,0.4c0,0,0,0,0,0c0,0.1,0,0.1,0,0.2l0,0c-0.8,1.3-1.3,2.7-1.6,4.2c-0.3,1.5-0.4,3-0.4,4.5
					c0,1.5,0.1,3.1,0.2,4.6c0.2,1.5,0.4,3,0.7,4.5v0c0.1,0.3-0.1,0.5-0.4,0.6c0,0-0.1,0-0.1,0l-6.9-0.1L37,35.7l-3.4-0.1
					c-2.3-0.1-4.6-0.1-6.9-0.1s-4.6,0-6.9,0.1c-0.1,0-0.2-0.1-0.2-0.2l0,0v0c0-0.6,0.2-1.3,0.5-1.8c0.3-0.5,0.7-1,1.2-1.4
					c0.9-0.8,1.9-1.5,3-2c1.1-0.5,2.2-1,3.4-1.4c0.6-0.2,1.1-0.4,1.7-0.6c0.3-0.1,0.5-0.2,0.8-0.3l0.8-0.4c2.1-1,3.9-2.5,5.4-4.3
					c0.7-0.9,1.3-1.9,1.8-3c0.1-0.3,0.2-0.5,0.3-0.8s0.2-0.5,0.3-0.8s0.2-0.6,0.3-0.8l0.1-0.4c0-0.1,0-0.1,0-0.2l0-0.1
					C39.3,16.9,39.3,16.8,39.3,16.8z"/>
			</g>
			<path d="M46.6,126.6h-10c-2,2.7-4.9,4.7-8.2,5.6c0,0-8.4,2.2-8.6,6.4h27.5C46.5,134.6,46.2,130.6,46.6,126.6z"/>
			<g transform="translate(3.285 2.682)">
				<path class="st1" d="M54.9,119.1c-4.8-6.6-7.1-12.3-4-20.1c2.4-6,7.4-12.1,7.5-18.6c0.3-14.8-6.2-23.6-0.9-38.7
					c1.4-3.9,4.5-11.7,5.2-15.8c1-5.7-3.5-12-6.9-16.8l-18,4.1L20,121.8l36.6-0.5L54.9,119.1z"/>
				<path d="M54.9,119.1c-1.5-1.9-2.7-4-3.8-6.2c-0.5-1.1-0.9-2.3-1.2-3.4c-0.3-1.2-0.4-2.4-0.5-3.6c0-2.4,0.5-4.9,1.5-7.1
					c1-2.2,2-4.4,3.2-6.5c1.2-2.1,2.2-4.3,3-6.6c0.2-0.6,0.4-1.1,0.5-1.7c0.1-0.6,0.3-1.2,0.3-1.8c0.1-0.6,0.1-1.2,0.2-1.8
					c0-0.6,0-1.2,0-1.8l0-0.9c0-0.3,0-0.6-0.1-0.9l-0.1-1.8c-0.1-1.2-0.3-2.4-0.4-3.6c-0.3-2.4-0.8-4.8-1.3-7.1
					c-0.4-2.4-0.9-4.8-1.1-7.2c-0.2-2.4-0.2-4.9,0-7.3c0.1-0.6,0.2-1.2,0.3-1.8l0.1-0.9c0.1-0.3,0.1-0.6,0.2-0.9l0.4-1.8l0.5-1.8
					c0.3-1.2,0.8-2.3,1.2-3.5l1.2-3.4c0.8-2.3,1.6-4.6,2.3-6.9c0.3-1.1,0.6-2.3,0.8-3.4c0.1-0.6,0.1-1.1,0.1-1.7L62,22.9
					c0-0.3-0.1-0.6-0.2-0.8c-0.6-2.3-1.5-4.4-2.7-6.4c-1.2-2.1-2.6-4-4-6l0.8,0.3l-18,4.2l0.7-0.7l-1.1,6.8L36.5,27l-2.3,13.6
					c-1.5,9-3,18.1-4.6,27.1l-9.4,54.2l-0.2-0.2l36.6-0.3l0,0.1L54.9,119.1z M54.9,119.1l1.7,2.2l0.1,0.1h-0.1L20,121.9h-0.1l0-0.1
					L37.8,13.3l0-0.1l0.1,0l18-4.1l0.1,0l0,0c1.4,2,2.8,4,4,6.1c1.3,2.1,2.2,4.3,2.7,6.7c0.1,0.3,0.1,0.6,0.2,0.9l0.1,0.9
					c0,0.6,0,1.2-0.1,1.8c-0.2,1.2-0.5,2.4-0.8,3.5c-0.7,2.3-1.5,4.6-2.3,6.9l-1.3,3.4c-0.4,1.1-0.9,2.3-1.2,3.4l-0.5,1.7l-0.4,1.8
					c-0.1,0.3-0.1,0.6-0.2,0.9l-0.1,0.9c-0.1,0.6-0.2,1.2-0.3,1.8c-0.2,2.4-0.3,4.8-0.1,7.2c0.2,2.4,0.6,4.8,1,7.2
					c0.4,2.4,0.9,4.8,1.2,7.2c0.2,1.2,0.3,2.4,0.4,3.6l0.1,1.8c0,0.3,0,0.6,0,0.9l0,0.9c0.1,2.4-0.2,4.9-1.1,7.1
					c-0.9,2.3-1.9,4.5-3.1,6.6c-1.2,2.1-2.3,4.3-3.2,6.5c-0.9,2.2-1.5,4.6-1.5,7c0,1.2,0.2,2.4,0.4,3.6c0.3,1.2,0.7,2.3,1.2,3.4
					C52.2,115.1,53.5,117.1,54.9,119.1L54.9,119.1z"/>
			</g>
		</g>
		<g transform="translate(23.236 27.545)">
			<path class="st1" d="M60.5,61.5C40.3,50.8,29.4,59,21.3,49.8c2.7-8.9,4.7-14.9,2.4-21.6c-1.4-4-0.8-8.4,1.7-11.8
				C28,13.1,32,7.7,32,7.7c6.4-3.3,14.3,1,15.2,4.6c2.1,8.9,1.9,15.5,4.9,21.6C52.1,34,61.4,52.4,60.5,61.5z"/>
			<path d="M60.6,61.6l-2.4-1.1c-0.8-0.4-1.6-0.7-2.4-1c-1.6-0.6-3.2-1.2-4.9-1.7c-3.3-0.9-6.7-1.6-10.2-1.9
				c-1.7-0.2-3.4-0.3-5.2-0.4c-1.7-0.1-3.5-0.2-5.2-0.5c-1.8-0.2-3.5-0.8-5.1-1.5c-1.6-0.8-3.1-1.9-4.2-3.3L20.7,50l0.1-0.3
				c0.6-1.8,1.1-3.6,1.6-5.4s1-3.6,1.3-5.5c0.4-1.8,0.5-3.7,0.4-5.5c0-0.9-0.2-1.8-0.4-2.7c-0.1-0.5-0.2-0.9-0.3-1.3
				c-0.1-0.4-0.3-0.9-0.4-1.4c-0.6-1.9-0.7-3.9-0.4-5.8c0.3-1.9,1-3.8,2.1-5.4l7-9l0,0l0,0c1.3-0.7,2.7-1,4.2-1.1
				c1.5-0.1,2.9,0.1,4.3,0.5c1.4,0.4,2.7,1,4,1.8c0.6,0.4,1.2,0.9,1.7,1.4c0.5,0.5,0.9,1.2,1.2,1.9c0.4,1.4,0.7,2.8,1,4.2
				c0.3,1.4,0.6,2.8,0.8,4.2c0.3,1.4,0.5,2.8,0.8,4.2s0.5,2.8,0.9,4.2c0.4,1.4,0.8,2.7,1.3,4l0.4,1l0.5,1c0.3,0.7,0.6,1.3,0.9,2
				c1.2,2.6,2.3,5.3,3.3,8c1,2.7,1.9,5.5,2.6,8.3c0.3,1.4,0.6,2.8,0.8,4.3c0,0.4,0.1,0.7,0.1,1.1c0,0.4,0,0.7,0.1,1.1
				c0,0.4,0,0.7,0,1.1C60.7,60.8,60.6,61.2,60.6,61.6z M60.5,61.5c0-0.4,0-0.7,0-1c0-0.4,0-0.7-0.1-1.1c0-0.4-0.1-0.7-0.1-1.1
				c-0.1-0.4-0.1-0.7-0.2-1.1c-0.2-1.4-0.6-2.8-0.9-4.2c-0.8-2.8-1.7-5.5-2.8-8.1c-1-2.7-2.2-5.3-3.4-7.9c-0.3-0.6-0.6-1.3-0.9-1.9
				l-0.5-1l-0.5-1c-0.6-1.3-1-2.7-1.4-4.1c-0.6-2.8-1.1-5.7-1.5-8.5c-0.2-1.4-0.4-2.8-0.7-4.2c-0.2-1.4-0.5-2.8-0.8-4.2
				c-0.2-0.7-0.6-1.2-1.1-1.8c-0.5-0.5-1-1-1.6-1.4c-1.2-0.8-2.5-1.4-3.9-1.8c-2.7-0.8-5.7-0.5-8.3,0.8l0.1-0.1L25.4,17
				c-1,1.6-1.6,3.3-1.9,5.1c-0.3,1.8-0.1,3.7,0.5,5.4c0.1,0.4,0.3,0.9,0.4,1.4c0.1,0.5,0.3,0.9,0.4,1.4c0.2,0.9,0.3,1.9,0.4,2.9
				c0.1,1.9,0,3.9-0.4,5.8c-0.8,3.7-1.8,7.4-3,11l-0.1-0.5c1.1,1.3,2.4,2.3,3.9,3.1c1.5,0.7,3.1,1.2,4.8,1.5
				c1.7,0.3,3.4,0.4,5.1,0.6c1.7,0.1,3.5,0.3,5.2,0.5c3.5,0.4,6.9,1.1,10.2,2.2c1.7,0.5,3.3,1.2,4.9,1.9c0.8,0.4,1.6,0.7,2.4,1.1
				c0.4,0.2,0.8,0.4,1.2,0.6C59.8,61.1,60.1,61.3,60.5,61.5L60.5,61.5z"/>
		</g>
		<g transform="translate(29.872)">
			<g transform="translate(0 7.233)">
				<path class="st1" d="M24.1,6.7c0,0-4.9,7.7-1.2,13.8c0,0,0.9,1.5,4.3,0.8c-0.4,2.8-1.3,5.4-2.7,7.9l10.9-1.4
					c0,0-1.7-2.7-1.2-8.2c0,0,3.5-3.9,2.8-8.8c0,0-1.4-5.1-5.4-5.7C31.6,5.1,26.1,4.9,24.1,6.7z"/>
				<path d="M24.2,6.7c-0.7,1.4-1.3,2.9-1.7,4.4c-0.4,1.5-0.6,3.1-0.6,4.6c0.1,1.5,0.5,3,1.2,4.4l0.1,0.1l0,0.1l0,0
					c0.1,0.1,0.1,0.1,0.2,0.2c0.1,0.1,0.3,0.2,0.4,0.3c0.3,0.2,0.7,0.3,1,0.3c0.8,0.1,1.5,0.1,2.3-0.1l0.4-0.1l-0.1,0.4
					c-0.1,0.7-0.3,1.4-0.5,2.1c-0.2,0.7-0.4,1.4-0.6,2s-0.5,1.3-0.8,2c-0.3,0.6-0.6,1.3-1,1.8l-0.1-0.2c1.8-0.2,3.6-0.5,5.5-0.7
					l5.5-0.8L35.1,28c-0.4-0.6-0.6-1.3-0.8-2c-0.2-0.7-0.3-1.4-0.4-2.1c-0.1-0.7-0.1-1.4-0.1-2.1c0-0.4,0-0.7,0-1.1l0.1-1.1l0-0.1
					l0.1-0.1c0.5-0.6,0.9-1.2,1.3-1.9c0.4-0.7,0.7-1.4,0.9-2.1c0.3-0.7,0.4-1.5,0.5-2.2c0.1-0.8,0.1-1.5,0-2.3l0,0.1
					c-0.2-0.6-0.4-1.2-0.8-1.8c-0.3-0.6-0.7-1.1-1.1-1.7c-0.4-0.5-0.9-0.9-1.5-1.3c-0.6-0.3-1.2-0.6-1.8-0.7h0c-0.6,0-1.3,0-1.9,0
					c-0.6,0-1.3,0.1-1.9,0.1c-0.6,0.1-1.3,0.2-1.9,0.4C25.3,6.1,24.7,6.3,24.2,6.7z M24.1,6.7c0.5-0.4,1.1-0.8,1.7-1
					c0.6-0.2,1.2-0.4,1.9-0.5C28.3,5.1,29,5,29.6,4.9c0.6-0.1,1.3-0.1,2-0.1h0h0c0.7,0.1,1.4,0.4,2,0.7C34.3,6,34.8,6.4,35.3,7
					c0.5,0.5,0.9,1.1,1.2,1.8c0.4,0.6,0.6,1.3,0.9,2l0,0v0c0.1,0.8,0.1,1.6,0,2.5c-0.1,0.8-0.3,1.6-0.6,2.4c-0.3,0.8-0.6,1.5-1,2.2
					c-0.4,0.7-0.9,1.4-1.4,2l0.1-0.2l-0.1,1c0,0.3,0,0.7,0,1c0,0.7,0,1.4,0.1,2.1c0.1,0.7,0.2,1.4,0.4,2c0.2,0.7,0.4,1.3,0.7,1.9
					l0.2,0.4l-0.4,0l-5.5,0.6c-1.8,0.2-3.6,0.4-5.5,0.7l-0.3,0l0.1-0.2c0.4-0.6,0.7-1.2,1-1.8c0.3-0.6,0.5-1.3,0.7-2
					c0.2-0.7,0.4-1.3,0.5-2c0.1-0.7,0.3-1.4,0.4-2l0.4,0.3c-0.8,0.2-1.7,0.2-2.5,0.1c-0.4-0.1-0.9-0.2-1.2-0.4
					c-0.2-0.1-0.4-0.2-0.6-0.4c-0.1-0.1-0.2-0.2-0.3-0.3c0,0,0-0.1-0.1-0.1l0-0.1l-0.1-0.1c-0.8-1.5-1.2-3.1-1.2-4.7
					c0-1.6,0.3-3.2,0.8-4.8c0.2-0.8,0.5-1.5,0.9-2.2C23.3,8,23.7,7.3,24.1,6.7L24.1,6.7z"/>
			</g>
			<path d="M35.5,40.2c-4.8-6.8-3.6-9.9-3-13.3c0.5-2.8,2.9-4,2.8-5.6c-0.1-1.4-2.4-0.7-2.4-0.7c-0.9-0.1-2.4-3.9-2.4-3.9
				s-0.2,1.5-0.9,1.7c0,0-6.6-1.4-6.9-1.4c0,0-0.4-8.2,10.3-7.2c4.8,0.4,7.3,5.2,8.6,9c2,6.1,7.7,10.1,14,11.4
				c-0.8,2.1-2,4.1-3.5,5.7c-2.4,2-5.2,3.6-8.2,4.5c-2.4,0.6-4.9,1-7.4,1.1L35.5,40.2z"/>
			<ellipse cx="35.8" cy="8.6" rx="4.3" ry="4.3"/>
			<path d="M30.9,26.8l-5.1,1.7c0.5,0.1,1.3-0.1,1.5,0.1c-0.1,0.7-0.3,1.4-0.5,2C30.2,28.7,30.9,26.8,30.9,26.8z"/>
		</g>
		<g transform="translate(0 34.589)">
			<path d="M61.6,38.3c-1.5,0.5-3,0.6-4.6,0.3l0.5-2.6L61.6,38.3z"/>
			<g transform="translate(0 8.695)">
				<path class="st1" d="M65.1,15.8L53.4,37.1c0,0-22.4,18.9-23.8,20.6c-0.2,1.5-0.5,3-0.9,4.5c-0.5,1.3-3.2,5.3-4.3,4.7
					c-1-0.6,1-3.4,1.3-4.2c0.3-0.7,0.2-0.9-0.1-0.8c-1,0.9-2,2-3,3c-1,1.1-1.8,4.9-2.8,4.4c-0.9-0.4,0-3.4,0-3.4
					c-0.3-1.5-0.5-3.1-0.6-4.6c0.8-2.5,2.2-4.8,4-6.6c2.4-2.5,20.9-22.5,20.9-22.5c3.9-8.8,10.8-24.6,10.8-24.6"/>
				<path d="M65.2,15.8l-2.8,5.4c-0.9,1.8-1.9,3.6-2.8,5.4l-2.9,5.4c-1,1.8-1.9,3.6-2.9,5.4l0,0.1l-0.1,0l-6,5.1c-2,1.7-4,3.4-6,5.1
					l-6,5.1l-3,2.6l-1.5,1.3c-0.5,0.4-1,0.9-1.4,1.3l0-0.1c-0.1,0.7-0.2,1.4-0.4,2.1c-0.1,0.7-0.3,1.4-0.5,2.1
					c-0.2,0.7-0.6,1.3-1,1.9c-0.4,0.6-0.8,1.2-1.3,1.7c-0.2,0.3-0.5,0.5-0.7,0.8c-0.3,0.3-0.6,0.5-0.9,0.6c-0.2,0.1-0.4,0.1-0.6,0
					c-0.2-0.1-0.4-0.3-0.4-0.5c-0.1-0.4,0-0.8,0.1-1.1c0.3-0.7,0.6-1.3,0.9-1.9c0.2-0.3,0.4-0.6,0.5-0.9c0.1-0.1,0.1-0.3,0.2-0.5
					c0-0.1,0-0.1,0-0.1c0.1,0,0,0,0,0l0.1,0c-0.8,0.8-1.6,1.5-2.3,2.3c-0.2,0.2-0.4,0.4-0.5,0.6c-0.2,0.2-0.3,0.4-0.4,0.7
					c-0.2,0.5-0.5,1-0.7,1.5c-0.2,0.5-0.4,1-0.7,1.5c-0.1,0.3-0.3,0.5-0.5,0.7c-0.2,0.1-0.4,0.2-0.6,0.2c-0.2,0-0.4-0.1-0.6-0.3
					c-0.2-0.3-0.3-0.6-0.3-1c0-0.3,0-0.6,0-0.9c0.1-0.6,0.2-1.1,0.3-1.7l0,0.2c-0.2-0.9-0.3-1.8-0.5-2.7C19,62.9,19,62.5,18.9,62
					c0-0.1,0-0.2,0-0.4c0-0.1,0-0.1,0-0.2c0,0,0-0.1,0-0.1l0-0.1l0,0c0.1-0.2,0.1-0.4,0.2-0.6c0.6-1.7,1.5-3.4,2.7-4.8
					c0.6-0.7,1.2-1.4,1.8-2l1.8-2l3.7-4c2.4-2.7,4.9-5.3,7.3-7.9c2.5-2.6,4.9-5.3,7.4-7.9l-0.1,0.1l2.8-6.1l2.8-6.1l2.8-6.1l2.8-6.1
					l0.1,0l-2.6,6.2L50,20.1l-2.6,6.2l-2.7,6.2l0,0.1l-0.1,0.1c-2.4,2.7-4.9,5.3-7.3,8c-2.4,2.7-4.9,5.3-7.4,7.9l-3.7,3.9l-1.8,2
					c-0.6,0.7-1.2,1.3-1.8,2c-1.1,1.4-2,2.9-2.6,4.5c-0.1,0.2-0.2,0.4-0.2,0.6l0,0l0,0c0,0,0,0,0,0c0,0,0,0.1,0,0.1
					c0,0.1,0,0.2,0,0.3c0,0.4,0.1,0.9,0.1,1.3c0.1,0.9,0.3,1.8,0.4,2.7l0,0.1l0,0.1c-0.2,0.5-0.3,1-0.4,1.6c0,0.3-0.1,0.5-0.1,0.8
					c0,0.2,0,0.4,0.1,0.6c0.1,0.1,0.1,0.1,0.3,0c0.2-0.2,0.3-0.4,0.4-0.6c0.3-0.5,0.5-1,0.7-1.5s0.4-1,0.7-1.5
					c0.1-0.3,0.3-0.5,0.5-0.7c0.2-0.2,0.4-0.4,0.6-0.6c0.8-0.8,1.6-1.6,2.4-2.3l0,0l0,0c0.1,0,0.1,0,0.2,0c0.1,0,0.2,0,0.3,0.1
					c0.1,0.1,0.1,0.3,0.1,0.4c0,0.2-0.1,0.4-0.2,0.5c-0.2,0.3-0.3,0.6-0.5,0.9c-0.4,0.6-0.7,1.2-0.9,1.9c-0.1,0.3-0.2,0.6-0.1,0.9
					c0,0.1,0.1,0.2,0.2,0.3c0.1,0,0.3,0,0.4,0c0.3-0.1,0.6-0.3,0.8-0.6c0.3-0.2,0.5-0.5,0.7-0.8c0.4-0.5,0.9-1.1,1.2-1.7
					c0.4-0.6,0.7-1.2,0.9-1.9c0.3-1.4,0.6-2.8,0.7-4.2l0-0.1l0,0c0.5-0.5,0.9-1,1.4-1.4l1.4-1.3l2.9-2.6c2-1.8,3.9-3.5,5.9-5.2
					c2-1.7,4-3.4,6-5.1l6-5.1l-0.1,0.1c1-1.8,2-3.5,3-5.3l3-5.3c1-1.8,2-3.5,3-5.3L65.2,15.8L65.2,15.8z"/>
			</g>
			<g transform="translate(25.333)">
				<path class="st1" d="M40.6,25.6c-1.3,4.1-0.5,5.2-0.8,7.7c0,2.2-1.5,4.1-3.6,4.6c0,0-8.3-4.3-15-4.3c0,0,1.1-2.9,2.6-6.8
					c0.9-2.3,3.5-18.5,11.1-19.3c2.5-0.3,4.9,0.9,6,3.2c0.8,1.5,1,3.3,0.6,4.9C40.5,19.6,42,21.2,40.6,25.6z"/>
				<path d="M40.6,25.6c-0.4,1.1-0.6,2.3-0.7,3.4c-0.1,1.2,0.1,2.3,0.1,3.5c0,1.2-0.2,2.5-0.8,3.6c-0.3,0.6-0.8,1-1.3,1.4
					c-0.5,0.4-1.1,0.6-1.7,0.9l-0.2,0.1l-0.2-0.1c-0.6-0.3-1.2-0.5-1.8-0.8l-1.8-0.8c-1.2-0.5-2.4-1-3.6-1.4
					c-1.2-0.4-2.5-0.8-3.7-1.1c-1.3-0.3-2.6-0.4-3.9-0.5h-0.2l0.1-0.2c0.8-2.1,1.6-4.1,2.3-6.2c0.1-0.3,0.2-0.5,0.3-0.8
					c0.1-0.2,0.1-0.5,0.2-0.8l0.4-1.6c0.2-1.1,0.5-2.2,0.8-3.2c0.6-2.2,1.3-4.3,2.2-6.3c0.4-1,1-2,1.6-3c0.6-1,1.3-1.9,2.2-2.7
					c0.9-0.8,1.9-1.4,3.1-1.8C34.2,7.1,34.5,7,34.8,7c0.3,0,0.6-0.1,0.9-0.1c0.6,0,1.2,0.1,1.8,0.3C38,7.4,38.6,7.6,39.1,8
					c0.5,0.3,0.9,0.8,1.3,1.2c0.7,0.9,1.2,2,1.4,3.2c0.2,1.1,0.2,2.3-0.1,3.4c-0.3,1.1-0.4,2.1-0.4,3.2c0,1.1,0.1,2.2,0,3.3
					C41.2,23.4,41,24.5,40.6,25.6z M40.5,25.6c0.3-1,0.5-2.1,0.6-3.2c0-1.1-0.1-2.2-0.2-3.3c-0.1-1.1,0-2.2,0.2-3.3
					c0.2-1,0.2-2.1,0-3.2c-0.2-1-0.7-2-1.4-2.8c-0.7-0.8-1.6-1.3-2.6-1.6c-0.5-0.1-1-0.2-1.5-0.2c-0.3,0-0.5,0-0.7,0.1
					c-0.3,0-0.5,0.1-0.8,0.2c-1,0.3-1.9,0.8-2.6,1.5C30,11.2,28.8,13,28,15c-0.5,1-0.9,2-1.2,3c-0.4,1-0.7,2.1-1,3.1
					c-0.3,1.1-0.6,2.1-0.9,3.2l-0.5,1.6c-0.1,0.3-0.2,0.5-0.3,0.8l-0.3,0.8c-0.8,2-1.7,4.1-2.5,6.2l-0.1-0.2c0.7,0,1.3,0.1,2,0.1
					c0.7,0.1,1.3,0.2,2,0.3c1.3,0.2,2.6,0.5,3.9,0.9c1.3,0.4,2.5,0.8,3.8,1.2c0.6,0.2,1.2,0.5,1.8,0.8c0.6,0.3,1.2,0.5,1.8,0.9
					l-0.4,0c0.5-0.2,1-0.4,1.5-0.7c0.5-0.3,0.9-0.7,1.2-1.1c0.6-1,0.9-2.1,1-3.2c0-0.6,0-1.2,0-1.8c0-0.6,0-1.2,0.1-1.8
					C39.9,27.8,40.1,26.7,40.5,25.6L40.5,25.6z"/>
			</g>
		</g>
	</g>
	<g transform="translate(-1409.462 2670.4)">
		<path class="st0" d="M13.5,20.3c1.2,0,2.4-0.1,3.6-0.1l1.8,0l1.8,0c1.2,0,2.4,0.1,3.6,0.1s2.4,0.1,3.6,0.2l-0.6,0.2
			c0.9-0.7,1.9-1.3,2.9-2l2.9-1.9L36,15c1-0.6,1.9-1.2,2.9-1.8l-0.2,0.1c0.9-0.9,1.8-1.8,2.8-2.6c1-0.9,1.9-1.7,2.8-2.6l1.4-1.3
			l1.5-1.2c1-0.8,2-1.6,3-2.4l0.1,0.1L39.6,14l0,0l0,0l-5.8,3.8L28,21.6l0,0h0l-14.5-1.2L13.5,20.3z"/>
		<ellipse class="st0" cx="13.5" cy="19.9" rx="2" ry="2"/>
		<ellipse class="st0" cx="27.9" cy="21" rx="2" ry="2"/>
		<ellipse class="st0" cx="39.5" cy="13.5" rx="2" ry="2"/>
		<ellipse class="st0" cx="50.3" cy="2.7" rx="2" ry="2"/>
	</g>
	<path d="M-1407.4,2916.8c10.5-0.3,21-0.4,31.5-0.5l7.9-0.1l7.9,0c5.2,0,10.5,0,15.7,0l15.7,0.2l7.9,0.1l7.9,0.1
		c10.5,0,21,0,31.5-0.2c10.5-0.2,21-0.3,31.5-0.3l15.7-0.1c5.2,0,10.5,0,15.7,0c21,0.1,41.9,0.3,62.9,0.8v0.2
		c-21,0.5-41.9,0.7-62.9,0.8c-5.2,0-10.5,0-15.7,0l-15.7-0.1c-10.5,0-21-0.1-31.5-0.3c-10.5-0.1-21-0.2-31.5-0.2l-7.9,0.1l-7.9,0.1
		l-15.7,0.2c-5.2,0-10.5,0.1-15.7,0l-7.9,0l-7.9-0.1c-10.5-0.1-21-0.2-31.5-0.5V2916.8z"/>
</g>
</svg>
