<?xml version="1.0" encoding="utf-8"?>
<!-- Generator: Adobe Illustrator 21.0.0, SVG Export Plug-In . SVG Version: 6.00 Build 0)  -->
<svg version="1.1" id="Layer_1" xmlns="http://www.w3.org/2000/svg" xmlns:xlink="http://www.w3.org/1999/xlink" x="0px" y="0px"
	 viewBox="0 0 600 334" style="enable-background:new 0 0 600 334;" xml:space="preserve">
<style type="text/css">
	.st0{fill:#FFFFFF;}
	.st1{fill:#1A1A1A;}
	.st2{fill:#F5A623;}
	.st3{fill:#E6E6E6;}
	.st4{fill:#4284F3;}
	.st5{fill:#00021E;}
	.st6{fill:#FFFFFF;stroke:#000000;stroke-width:0.426;stroke-miterlimit:10;}
	.st7{clip-path:url(#SVGID_1_);}
</style>
<g transform="translate(-7518.061 -484.256)">
	<rect x="7600.8" y="485.8" class="st0" width="453.6" height="273.5"/>
	<path class="st1" d="M8054.5,759.4l-113,0.6l-113.4,0.4l-56.8,0.1h-56.8l-28.4-0.1l-28.4-0.1l-56.8-0.3h-0.8v-0.8l0.3-68.4
		l0.1-34.2l0-34.2l-0.1-68.4l-0.3-68.4V485h0.8l113.4-0.4l113.4-0.2l113.4-0.1l113.4,0.1h1.4v1.4l-0.2,68.6l-0.3,68.5L8054.5,759.4z
		 M8054.3,759.2l-0.8-137l-0.3-68.2l-0.2-68.2l1.4,1.4l-113.4,0.1l-113.4-0.1l-113.4-0.2l-113.4-0.4l0.8-0.8l-0.3,68.4l-0.1,68.4
		l0,34.2l0.1,34.2l0.3,68.4l-0.8-0.8l56.6-0.3l28.3-0.1l28.3-0.1h56.6l56.6,0.1l113.4,0.4L8054.3,759.2z"/>
	<rect x="7650.5" y="598.4" class="st2" width="101.6" height="81.5"/>
	<rect x="7650.5" y="550.6" class="st3" width="101.6" height="6.7"/>
	<rect x="7650.5" y="562.4" class="st3" width="101.6" height="6.7"/>
	<rect x="7650.5" y="574.1" class="st3" width="101.6" height="6.7"/>
	<rect x="7650.5" y="586.3" class="st3" width="101.6" height="6.7"/>
	<rect x="7650.5" y="515" class="st3" width="101.6" height="6.7"/>
	<rect x="7650.5" y="526.7" class="st3" width="101.6" height="6.7"/>
	<rect x="7650.5" y="538.9" class="st3" width="101.6" height="6.7"/>
	<rect x="7761.8" y="637.3" class="st3" width="101.6" height="6.7"/>
	<rect x="7761.8" y="649" class="st3" width="101.6" height="6.7"/>
	<rect x="7761.8" y="660.8" class="st3" width="101.6" height="6.7"/>
	<rect x="7761.8" y="673" class="st3" width="101.6" height="6.7"/>
	<rect x="7761.8" y="601.6" class="st3" width="101.6" height="6.7"/>
	<rect x="7761.8" y="613.4" class="st3" width="101.6" height="6.7"/>
	<rect x="7761.8" y="625.6" class="st3" width="101.6" height="6.7"/>
	<rect x="7871.8" y="550.6" class="st3" width="131" height="6.7"/>
	<rect x="7871.8" y="562.4" class="st3" width="131" height="6.7"/>
	<rect x="7871.8" y="574.1" class="st3" width="131" height="6.7"/>
	<rect x="7871.8" y="586.3" class="st3" width="131" height="6.7"/>
	<rect x="7871.8" y="515" class="st3" width="131" height="6.7"/>
	<rect x="7871.8" y="526.7" class="st3" width="131" height="6.7"/>
	<rect x="7871.8" y="538.9" class="st3" width="131" height="6.7"/>
	<rect x="7761.8" y="515.3" class="st4" width="101.6" height="77.7"/>
	<rect x="7871.8" y="601.6" class="st4" width="73.8" height="78"/>
	<rect x="7761.8" y="688" class="st2" width="101.6" height="42.3"/>
	<rect x="7650.5" y="723.7" class="st3" width="101.6" height="6.7"/>
	<rect x="7650.5" y="688" class="st3" width="101.6" height="6.7"/>
	<rect x="7650.5" y="699.7" class="st3" width="101.6" height="6.7"/>
	<rect x="7650.5" y="711.9" class="st3" width="101.6" height="6.7"/>
	<rect x="7871.8" y="723.7" class="st3" width="131" height="6.7"/>
	<rect x="7871.8" y="688" class="st3" width="131" height="6.7"/>
	<rect x="7871.8" y="699.7" class="st3" width="131" height="6.7"/>
	<rect x="7871.8" y="711.9" class="st3" width="131" height="6.7"/>
	<rect x="7952.1" y="637.3" class="st3" width="50.8" height="6.7"/>
	<rect x="7952.1" y="649" class="st3" width="50.8" height="6.7"/>
	<rect x="7952.1" y="660.8" class="st3" width="50.8" height="6.7"/>
	<rect x="7952.1" y="673" class="st3" width="50.8" height="6.7"/>
	<rect x="7952.1" y="601.6" class="st3" width="50.8" height="6.7"/>
	<rect x="7952.1" y="613.4" class="st3" width="50.8" height="6.7"/>
	<rect x="7952.1" y="625.6" class="st3" width="50.8" height="6.7"/>
	<path class="st1" d="M7675,636.6c0,0,4.4,10.1,0.7,9.2l-8.6-6.3L7675,636.6z"/>
	
		<rect x="7684.5" y="608.9" transform="matrix(0.9868 -0.1619 0.1619 0.9868 -0.8921 1252.7435)" class="st0" width="4.4" height="45.9"/>
	<path class="st1" d="M7692.5,654.1c-0.9-3.9-1.6-7.8-2.4-11.5c-0.7-3.8-1.4-7.5-2-11.2c-0.3-1.9-0.5-3.7-0.8-5.6l-0.7-5.6
		c-0.5-3.7-1.1-7.5-1.8-11.3l0.4,0.3l-4.3,0.9l0.4-0.5c0.8,3.7,1.5,7.5,2.2,11.3c0.7,3.8,1.4,7.5,2,11.3c0.6,3.8,1.2,7.6,1.7,11.3
		c0.5,3.8,1,7.6,1.4,11.4l-0.4-0.3L7692.5,654.1z M7692.7,654.2c-1.4,0.3-2.8,0.7-4.3,1l-0.3,0.1l-0.1-0.4
		c-0.8-3.7-1.6-7.5-2.3-11.2c-0.7-3.8-1.4-7.5-2-11.3c-0.6-3.8-1.2-7.6-1.7-11.3c-0.6-3.8-1.1-7.6-1.5-11.4l-0.1-0.5l0.5-0.1
		l4.3-0.6l0.3,0l0,0.3c0.5,3.8,1.1,7.6,1.9,11.4l1.2,5.7c0.4,1.9,0.8,3.8,1.1,5.8c0.6,3.8,1.2,7.6,1.7,11.4
		C7691.8,646.8,7692.3,650.6,7692.7,654.2L7692.7,654.2z"/>
	
		<ellipse transform="matrix(0.9683 -0.2499 0.2499 0.9683 96.821 1936.7412)" class="st0" cx="7674.5" cy="587.1" rx="18.6" ry="24.2"/>
	<path class="st1" d="M7693.1,586.3c-0.7-5.6-3.1-10.8-6.8-15c-1.8-2-4-3.8-6.3-5.1c-2.3-1.3-5-2.1-7.7-2.2
		c-2.7-0.1-5.4,0.5-7.7,1.9l-0.8,0.6c-0.3,0.2-0.6,0.4-0.8,0.6l-0.8,0.7c-0.1,0.1-0.3,0.2-0.4,0.3l-0.4,0.4c-0.5,0.5-0.9,1-1.3,1.6
		l-0.6,0.8c-0.2,0.3-0.4,0.6-0.5,0.9c-1.4,2.4-2.3,5.1-2.7,7.8c-0.4,2.8-0.4,5.5,0,8.3c0.9,5.5,3.2,10.6,6.7,14.9
		c1.7,2.1,3.8,3.8,6.2,5.2c2.3,1.3,4.9,2.1,7.6,2.1c2.7,0.1,5.3-0.6,7.5-2c2.3-1.4,4.2-3.4,5.6-5.7c1.5-2.4,2.5-5,3-7.7
		C7693.4,591.9,7693.4,589.1,7693.1,586.3z M7693.3,586.3c0.4,2.8,0.4,5.6,0,8.4c-0.3,2.8-1.2,5.6-2.5,8.2c-1.3,2.6-3.3,4.9-5.7,6.5
		c-2.5,1.6-5.5,2.5-8.5,2.4c-3-0.1-5.9-0.9-8.5-2.4c-2.5-1.5-4.7-3.4-6.6-5.7c-3.6-4.5-5.8-10-6.4-15.8c-0.3-2.8-0.2-5.7,0.3-8.5
		c0.5-2.8,1.4-5.5,2.8-8c1.4-2.5,3.3-4.7,5.7-6.4c2.5-1.6,5.3-2.5,8.3-2.5c3,0,5.8,0.8,8.4,2.3c2.5,1.5,4.7,3.4,6.4,5.8
		c1.7,2.3,3.1,4.8,4.1,7.5C7692.2,580.8,7692.9,583.5,7693.3,586.3L7693.3,586.3z"/>
	
		<ellipse transform="matrix(0.9683 -0.2499 0.2499 0.9683 96.8207 1936.7412)" class="st0" cx="7674.5" cy="587.1" rx="15.6" ry="20.3"/>
	<path class="st1" d="M7690.1,586.5c-0.6-4.7-2.6-9-5.8-12.5c-1.5-1.7-3.3-3.1-5.3-4.2c-2-1.1-4.1-1.7-6.4-1.8
		c-2.3-0.1-4.5,0.4-6.4,1.5c-0.5,0.3-1,0.6-1.4,1l-0.7,0.6c-0.1,0.1-0.2,0.2-0.3,0.3l-0.3,0.3c-0.4,0.4-0.8,0.8-1.1,1.3l-0.5,0.7
		c-0.2,0.2-0.3,0.5-0.5,0.7c-1.2,2-1.9,4.2-2.3,6.5c-0.3,2.3-0.3,4.6,0.1,6.9c0.7,4.6,2.7,8.8,5.6,12.4c1.4,1.7,3.2,3.2,5.2,4.3
		c1.9,1.1,4.1,1.7,6.3,1.8c2.2,0.1,4.4-0.5,6.3-1.6c1.9-1.2,3.5-2.8,4.7-4.7c1.2-2,2.1-4.1,2.6-6.4
		C7690.3,591.2,7690.4,588.8,7690.1,586.5z M7690.3,586.4c0.3,2.4,0.3,4.7,0,7.1c-0.3,2.4-1,4.7-2,6.9c-1.1,2.2-2.8,4.1-4.8,5.5
		c-2.1,1.4-4.6,2.1-7.2,2.1c-2.5-0.1-5-0.8-7.2-2c-2.1-1.3-4-2.9-5.5-4.8c-3-3.8-4.9-8.5-5.3-13.3c-0.2-2.4-0.1-4.8,0.3-7.2
		c0.4-2.4,1.2-4.6,2.3-6.7c1.2-2.1,2.8-4,4.8-5.4c2.1-1.4,4.5-2.2,7-2.2c2.5,0,4.9,0.7,7.1,2c2.1,1.2,3.9,2.9,5.4,4.9
		c1.4,1.9,2.6,4,3.4,6.3C7689.4,581.8,7689.9,584.1,7690.3,586.4L7690.3,586.4z"/>
	<path class="st1" d="M7693.2,586.3c-1.7-13.2-11.5-23.5-21.8-23c-0.8,0-1.6,0.1-2.3,0.3l0,0l4.5-1.2l0,0c1.1-0.3,2.3-0.5,3.5-0.6
		c10.3-0.4,20.1,9.9,21.8,23c1.6,12.4-4.5,22.9-13.9,24.5l-4.6,1.3C7689.1,608.4,7694.7,598.2,7693.2,586.3z"/>
	<path class="st1" d="M7693.1,586.3c-0.4-3.1-1.3-6-2.6-8.8c-1.3-2.8-3.1-5.3-5.2-7.5c-2.1-2.2-4.6-3.9-7.4-5
		c-2.8-1.2-5.8-1.5-8.8-1l-0.5,0.1l-0.1-0.5l0,0l-0.1-0.4l0.4-0.1l4.6-1.1l0.1,0l0.1,0l0,0l-0.2,0c1.4-0.4,2.9-0.6,4.4-0.5l1.1,0
		c0.4,0,0.7,0.1,1.1,0.2c0.4,0,0.7,0.1,1.1,0.2l1.1,0.3c2.8,0.9,5.4,2.3,7.5,4.3c2.2,1.9,4.1,4.2,5.5,6.7c1.5,2.5,2.6,5.2,3.4,8
		c1.6,5.7,1.3,11.8-0.7,17.3c-1.1,2.8-2.7,5.3-4.9,7.4c-2.2,2-5,3.4-8,3.9l0.1,0l-4.6,1.2l-0.3-1.1c2.3-0.6,4.5-1.7,6.3-3.4
		c1.8-1.6,3.3-3.6,4.4-5.8c1.1-2.2,1.8-4.6,2.2-7.1C7693.4,591.3,7693.4,588.8,7693.1,586.3z M7693.3,586.3c0.3,2.5,0.3,5,0.1,7.5
		c-0.2,2.5-0.9,5-1.9,7.3c-1,2.4-2.4,4.5-4.3,6.3c-1.9,1.8-4.2,3.1-6.7,3.8l-0.3-1.1l4.6-1.3l0,0l0,0c2.7-0.5,5.3-1.8,7.3-3.7
		c2-1.9,3.6-4.3,4.6-6.9c2-5.3,2.4-11.2,1-16.7c-1.2-5.6-4.1-10.8-8.4-14.7c-2.1-1.9-4.7-3.3-7.4-4.1l-1-0.3
		c-0.3-0.1-0.7-0.1-1.1-0.2c-0.4-0.1-0.7-0.1-1.1-0.1h-1.1c-1.4,0-2.8,0.2-4.2,0.6l-0.1,0l-0.1,0l0,0l0.2,0l-4.5,1.3l0.4-0.5l0,0
		l-0.6-0.4c0.8-0.2,1.6-0.3,2.4-0.3l1.2,0c0.4,0,0.8,0,1.2,0.1c0.8,0.1,1.6,0.2,2.3,0.4l1.1,0.3c0.4,0.1,0.7,0.3,1.1,0.4
		c2.9,1.2,5.5,3.1,7.6,5.5c2.1,2.3,3.7,5,4.9,7.9C7692,580.3,7692.8,583.2,7693.3,586.3L7693.3,586.3z"/>
	<path class="st0" d="M7674.6,575.7c0,0-6.1,15.1-6.6,23.1"/>
	<path class="st1" d="M7674.7,575.7c-0.2,2-0.5,4-1,6c-0.2,1-0.5,1.9-0.7,2.9l-0.8,2.9c-0.3,0.9-0.6,1.9-0.9,2.8
		c-0.3,0.9-0.6,1.9-1,2.8c-0.7,1.9-1.4,3.7-2.1,5.6l-0.2,0c0.1-2,0.5-4,0.9-6c0.4-2,1-3.9,1.6-5.8c0.6-1.9,1.3-3.8,1.9-5.7
		s1.4-3.8,2.2-5.6L7674.7,575.7z"/>
	<path class="st0" d="M7675.8,586.6c0,0-3.3,8.2-3.6,12.5"/>
	<path class="st1" d="M7675.9,586.6c0.1,1.1,0.1,2.3-0.1,3.4c-0.2,1.1-0.4,2.1-0.7,3.1c-0.3,1-0.7,2-1.2,3c-0.5,1-1,2-1.7,2.9
		l-0.2,0c0.1-1.1,0.2-2.2,0.5-3.2c0.2-1.1,0.5-2.1,0.8-3.2c0.3-1,0.7-2.1,1.1-3.1c0.4-1,0.8-2,1.2-3L7675.9,586.6z"/>
	<path class="st0" d="M7680.9,614.1c-1.2,2.2-1.4,8-1.4,8s0.4,1.7-2,3.5c-4.8,3.5-20,6.2-20,6.2l5,16.2l28.5-14.8
		c0,0,2.1-5.2,1.2-8.8c0,0-2.4-7.7-5.2-4c0,0-1.5,2.6-4.1,2.3L7680.9,614.1z"/>
	<path class="st1" d="M7680.9,614.2c0,0.1-0.1,0.3-0.1,0.4l-0.2,0.5c-0.1,0.3-0.2,0.7-0.2,1c-0.1,0.7-0.2,1.3-0.3,2
		c-0.1,1.3-0.2,2.7-0.3,4l0-0.1c0.1,0.6,0,1.2-0.3,1.7c-0.2,0.5-0.6,1-1,1.4c-0.8,0.8-1.7,1.4-2.7,1.9c-1.9,1-3.9,1.8-5.9,2.4
		c-2,0.7-4.1,1.2-6.1,1.8c-2,0.5-4.1,1-6.2,1.5l0.7-1.1l5.1,16.1l-1.4-0.6l7.1-3.7c2.4-1.3,4.8-2.5,7.1-3.7l14.3-7.3l-0.4,0.5
		c0.5-1.3,0.9-2.6,1.2-4c0.3-1.3,0.4-2.7,0.2-4l0-0.2c0-0.1,0-0.1-0.1-0.2l-0.2-0.5c-0.1-0.3-0.2-0.7-0.4-1
		c-0.3-0.6-0.6-1.2-0.9-1.8c-0.3-0.5-0.7-0.9-1.2-1.1c-0.2-0.1-0.4,0-0.6,0.1c-0.3,0.2-0.5,0.4-0.7,0.6l0-0.1
		c-0.3,0.4-0.5,0.7-0.9,1c-0.3,0.3-0.7,0.6-1.1,0.8c-0.8,0.5-1.7,0.6-2.6,0.5l-0.2,0l0-0.2c-0.3-1.4-0.6-2.8-0.8-4.2
		C7681.6,617.1,7681.3,615.7,7680.9,614.2z M7681,614.1l2.1,8.6l-0.1,0c0.8,0.1,1.6-0.1,2.3-0.5c0.7-0.4,1.3-1,1.7-1.7v0l0,0
		c0.2-0.3,0.5-0.6,0.8-0.8c0.3-0.2,0.7-0.3,1.1-0.2c0.7,0.2,1.3,0.7,1.7,1.4c0.4,0.6,0.8,1.2,1.1,1.9c0.3,0.7,0.6,1.4,0.7,2.1
		c0.2,1.4,0.2,2.9-0.1,4.4c-0.3,1.4-0.7,2.8-1.2,4.2l0,0l0,0l-28.5,14.8l-0.1,0.1l0-0.1l-5-16.2l0-0.1l0.1,0
		c4.1-0.8,8.2-1.8,12.3-2.9c2-0.6,4-1.3,5.9-2.2c1-0.4,1.8-1,2.6-1.7c0.4-0.4,0.7-0.8,0.9-1.2c0.2-0.5,0.3-1,0.3-1.5v0l0,0
		c0.1-1.4,0.2-2.7,0.4-4.1c0.1-0.7,0.2-1.3,0.4-2c0.1-0.3,0.2-0.7,0.3-1l0.2-0.5C7680.8,614.4,7680.8,614.2,7681,614.1z"/>
	<path class="st0" d="M7637.3,658.5c8.3,1.3,11.1-4.9,16.2-7.6c6.8-4.2,17.4,2.6,22.1-5.2c-4.4-5.2-7.1-11.6-7.6-18.4l-28.2,8.2
		c0,0-11.7,5.4-22-13.4c0,0-9,6.8-7.5,11.1C7618.4,656.5,7637.3,658.5,7637.3,658.5"/>
	<path class="st1" d="M7637.3,658.5c1.5,0.2,3.1,0.1,4.6-0.2c1.5-0.4,2.9-1,4.1-1.9c1.2-0.9,2.4-1.9,3.6-2.9c1.2-1.1,2.4-2,3.8-2.8
		l0,0c1.8-1,3.8-1.6,5.9-1.6c2-0.1,4,0.1,6,0.2c1.9,0.2,3.9,0,5.7-0.4c0.9-0.2,1.7-0.7,2.5-1.2c0.7-0.6,1.3-1.3,1.8-2.1l0.1,0.6
		c-1.1-1.3-2.1-2.7-3-4.2c-0.9-1.5-1.6-3-2.2-4.6c-0.6-1.6-1.1-3.2-1.5-4.9c-0.4-1.7-0.6-3.4-0.7-5l0.3,0.2l-7.1,2l-7,2.1l-14.1,4.3
		l0.1,0c-1.1,0.5-2.3,0.7-3.6,0.8c-1.2,0.1-2.4,0-3.6-0.3c-2.4-0.5-4.6-1.6-6.5-3c-1.9-1.4-3.6-3.1-5.1-5c-1.5-1.9-2.8-3.9-3.9-6
		l0.9,0.2c-1.7,1.3-3.3,2.8-4.7,4.4c-0.7,0.8-1.3,1.7-1.9,2.6c-0.5,0.8-0.8,1.8-0.8,2.8c0,0.2,0.1,0.4,0.1,0.7l0.3,0.8
		c0.2,0.5,0.4,1,0.6,1.5c0.4,1,0.8,2,1.3,3c0.9,2,2,3.9,3.2,5.7c2.4,3.6,5.5,6.8,9.1,9.3c1.8,1.3,3.7,2.3,5.7,3.2
		C7633.1,657.4,7635.2,658.1,7637.3,658.5l0,0.1c-2.2-0.3-4.3-0.9-6.4-1.7c-2.1-0.8-4-1.8-5.9-3.1c-1.9-1.2-3.6-2.6-5.2-4.2
		c-1.6-1.6-3-3.3-4.3-5.1c-1.3-1.8-2.4-3.7-3.4-5.7c-0.2-0.5-0.5-1-0.7-1.5l-0.7-1.5c-0.2-0.5-0.4-1-0.6-1.6l-0.3-0.8
		c-0.1-0.3-0.2-0.6-0.2-1c0-1.2,0.3-2.4,1-3.5c0.6-1,1.2-1.9,2-2.8c1.5-1.7,3.1-3.2,4.9-4.6l0.6-0.4l0.3,0.6c1.1,2,2.3,4,3.7,5.8
		c1.4,1.8,3,3.5,4.8,4.9c1.8,1.4,3.9,2.4,6.1,2.9c1.1,0.3,2.2,0.4,3.4,0.3c1.1,0,2.2-0.2,3.3-0.6l0.1,0h0l14.2-3.9l7.1-2l7-2.1
		l0.3-0.1l0,0.3c0.3,3.3,1.1,6.6,2.5,9.7c0.7,1.5,1.4,3,2.3,4.4c0.9,1.4,1.9,2.7,3,4l0.2,0.3l-0.2,0.3c-0.5,0.9-1.2,1.7-2,2.4
		c-0.8,0.7-1.8,1.1-2.8,1.4c-2,0.5-4,0.6-6.1,0.4c-2-0.1-4-0.3-5.9-0.3c-1.9,0-3.8,0.5-5.5,1.4l0,0h0c-1.3,0.7-2.6,1.6-3.7,2.6
		c-1.2,1-2.4,2-3.7,2.9c-2.6,1.8-5.9,2.5-9,1.8L7637.3,658.5z"/>
	<path class="st0" d="M7595.7,693.4c0,0-15.6,2.9-14.5,0.5c0.5-1,7.3-4.7,13.2-4.7"/>
	<path class="st1" d="M7595.7,693.4c-2.4,0.5-4.8,0.9-7.3,1.3c-1.2,0.2-2.4,0.3-3.7,0.4c-0.6,0-1.2,0-1.9,0c-0.3,0-0.6-0.1-1-0.1
		c-0.2,0-0.3-0.1-0.5-0.2c-0.2-0.1-0.4-0.2-0.5-0.4c-0.1-0.2-0.1-0.5,0-0.7c0.1-0.2,0.2-0.4,0.3-0.5c0.2-0.2,0.5-0.5,0.7-0.7
		c0.5-0.4,1.1-0.7,1.7-0.9c0.6-0.2,1.2-0.4,1.8-0.6c0.6-0.3,1.1-0.5,1.7-0.9c0.5-0.3,1.1-0.6,1.7-0.8c0.3-0.1,0.6-0.2,0.9-0.3
		c0.3-0.1,0.6-0.2,0.9-0.2c1.3-0.2,2.5-0.2,3.8,0.1v0.1c-1.2,0.4-2.4,0.6-3.5,0.9c-0.3,0.1-0.6,0.1-0.9,0.2
		c-0.3,0.1-0.6,0.1-0.9,0.2c-0.6,0.1-1.2,0.3-1.8,0.4c-0.6,0.1-1.2,0.3-1.8,0.5c-0.6,0.3-1.1,0.6-1.5,1c-0.5,0.4-1,0.7-1.5,1
		c-0.3,0.1-0.5,0.3-0.7,0.4c-0.1,0.1-0.2,0.2-0.3,0.2c0,0.1,0,0.1,0,0.1c0.2,0.1,0.4,0.2,0.6,0.3c0.3,0.1,0.6,0.1,0.9,0.1
		c0.6,0,1.2,0,1.8,0c1.2,0,2.4-0.1,3.7-0.3c2.4-0.2,4.9-0.6,7.3-1L7595.7,693.4z"/>
	<path class="st1" d="M7554.8,752l-8.9-5.8l-7.7,10.7l-18.1,4.9c0,0-0.6,5.1,3.8,6h38.5l-2.1-16.4L7554.8,752z"/>
	<path class="st0" d="M7568.5,752.2l-8.2,0.4l1.9,14.1l10.5-0.2L7568.5,752.2z"/>
	<path class="st1" d="M7568.5,752.2c-1.4,0.2-2.8,0.3-4.2,0.5c-1.3,0.1-2.7,0.3-4,0.4l0.5-0.6c0.2,1.2,0.4,2.3,0.6,3.5
		c0.2,1.2,0.3,2.3,0.5,3.5c0.2,2.4,0.6,4.7,0.7,7.1l-0.4-0.3c1.7,0.1,3.5,0.1,5.2,0.1s3.5-0.1,5.2-0.2l-0.3,0.4
		c-0.4-1.2-0.8-2.3-1.2-3.5s-0.7-2.3-1-3.5C7569.6,757.2,7569,754.8,7568.5,752.2z M7568.6,752.1c0.9,2.2,1.7,4.5,2.4,6.9
		c0.4,1.2,0.8,2.4,1.1,3.7s0.6,2.5,0.9,3.7l0.1,0.4l-0.4,0c-1.7-0.1-3.5-0.1-5.2,0s-3.5,0.2-5.2,0.3l-0.3,0l-0.1-0.4
		c-0.4-2.3-0.8-4.7-1.1-7c-0.2-1.2-0.3-2.3-0.5-3.5c-0.1-1.2-0.3-2.4-0.4-3.5l-0.1-0.6l0.5,0c1.4,0,2.8,0,4.2,0
		C7565.9,752.1,7567.3,752.1,7568.6,752.1L7568.6,752.1z"/>
	<path class="st1" d="M7617.9,741.4l-24.7-32.4c0,0-9.2-16.8-5.4-28.7l35.6-0.3l33.8,68.7c0,0,4.2,18.5-15.5,19.2h-70l-6.9-16.6
		c-1.4-3.4-2.9-6.9-4.3-10.3c-0.8-1.9-1.3-2.7,0.9-3.8c2.6-1.3,6.2-0.6,8.8,0.5c3.5,1.4,6.7,3.8,10.5,4.5c5.4,1,10.7-1.4,16.1-2.3
		c4.5-0.8,9.1-0.5,13.4,0.8c2.7,0.8,5.3,2,8.1,2.1"/>
	<path class="st0" d="M7641.8,717.5l-18.4-37.6l-24.7,6.8C7608,706.2,7622.2,716.7,7641.8,717.5z"/>
	<path class="st0" d="M7681.3,748.5l1.6,4.1h12l-1.9-4.1H7681.3z"/>
	<path class="st1" d="M7681.3,748.6c0.7,1.5,1.5,2.7,2,3.9l-0.4-0.3c1,0,2-0.1,3-0.1c1,0,2,0.1,3,0.2c1,0.1,2,0.1,3,0.1
		c1,0,2-0.1,3-0.1l-0.3,0.5c-0.4-0.7-0.7-1.3-1.1-2s-0.7-1.3-1-2l0.5,0.3c-0.9,0-1.9,0.1-2.8,0c-0.9,0-1.9-0.1-2.8-0.1
		C7685.5,748.9,7683.5,748.7,7681.3,748.6z M7681.2,748.5c1.7-0.2,3.6-0.3,5.6-0.5c1-0.1,2-0.1,3-0.1c1,0,2.1,0,3.1,0l0.4,0l0.1,0.3
		c0.3,0.7,0.6,1.4,0.9,2.1s0.5,1.4,0.8,2.1l0.2,0.5l-0.5,0c-1-0.1-2-0.1-3-0.1c-1,0-2,0-3,0.1c-1,0.1-2,0.2-3,0.2c-1,0-2,0-3-0.1
		l-0.3,0l-0.1-0.3C7681.9,751.3,7681.5,749.7,7681.2,748.5L7681.2,748.5z"/>
	<path class="st1" d="M7681.7,751.5l5.9,16h30.2c0,0,1.4-4.7-6.6-7.1c0,0-11.8-0.9-14.7-9.3L7681.7,751.5z"/>
	<path class="st0" d="M7616.3,617.8c-2.5-4.8-3.6-10.1-2.5-13c0,0,8.5,2.8,9.7-2.9c0,0,2.4-9.4-4.6-20.2c0,0-8.9-10.3-17.7-0.3
		c0,0-4.9,5.9-2.1,11.2c0,0,5.4,7,3.7,10.4c-1.2,4.5-3.5,8.7-6.6,12.1"/>
	<path class="st1" d="M7615.8,618c-2.7-5.1-3.7-10.5-2.6-13.5l0.2-0.5l0.5,0.2c0,0,4.6,1.5,7.2,0c0.9-0.5,1.5-1.5,1.7-2.5
		c0-0.1,2.2-9.3-4.5-19.7c-0.3-0.4-4.1-4.4-8.8-4.4h-0.1c-2.8,0-5.5,1.4-7.9,4.2c0,0-4.6,5.7-2,10.5c0.5,0.6,5.5,7.3,3.8,10.9
		c-1.2,4.6-3.5,8.8-6.7,12.3l-0.9-0.8c3-3.4,5.2-7.5,6.4-11.9l0.1-0.1c1.3-2.5-2.2-7.9-3.6-9.7l-0.1-0.1c-3-5.5,1.9-11.6,2.2-11.8
		c2.7-3,5.7-4.6,8.8-4.6h0.1c5.5,0,9.5,4.7,9.7,4.9l0,0.1c7,10.9,4.8,20.3,4.7,20.7c-0.2,1.4-1,2.5-2.2,3.2
		c-2.5,1.4-6.2,0.7-7.6,0.3c-0.7,2.8,0.3,7.6,2.7,12.1L7615.8,618z"/>
	<path class="st5" d="M7601.6,605.7c0,0,3.4-7,4-10.1c0.1-0.7-0.1-1.3-0.5-1.8c-0.5-0.5-1.6-1.1-1.8-1.9c0,0-0.9-2.4,1.4-2.4
		c1.2,0,2.3,0.6,2.8,1.7c0,0,1.2,2.4,1.9,1.3c0.8-2.2,1-4.6,0.5-6.9l10.6-1.3c0,0-2.4-6.5-5.7-8.7c0,0-4.7-1.3-13,2.1
		c-2.5,1.2-4.6,2.9-6.3,5.1c0,0-2,3.8,1.3,9.1c0,0,4.1,5.7,4.8,7.1C7602.5,600.9,7601.6,605.7,7601.6,605.7z"/>
	<path class="st1" d="M7709.1,749.2l-28.7-52.7c0,0-2.6-6.8-11.8-9.1l-38-7.6l-42.8,0.3c0,0,9,30.6,58.6,35.8c2.3,0.5,4.7,0.8,7.1,1
		c3,0.1,4.4,2.5,4.9,5.3c0.5,2.4,0.4,5,1.3,7.2c1.5,3.6,5.2,5.9,7.2,9.2c0.9,1.8,1.7,3.6,2.4,5.4c2.1,4.4,4.6,5,9,5h30
		C7708.5,749.2,7708.8,749.2,7709.1,749.2z"/>
	<path class="st1" d="M7608.8,602c1,2.6,2.7,4.9,4.9,6.6c-0.2-1.5-0.1-3,0.3-4.4C7614,604.2,7609.8,603.1,7608.8,602z"/>
	<path class="st0" d="M7581.2,693.8c3.7-3,8.5-4.3,13.2-4.7c4.7-0.5,9.5-0.2,14.2-0.4c5.3-0.2,10.5-1,15.6-2.3
		c3.2-0.8,6.6-2,8.7-4.6l-6.3-42.9c-2-14.6-9.3-20.6-9.3-20.6c-6.1-6.4-16.9-5.2-16.9-5.2s-8.1-0.1-13.9,13.4
		c0,0-12.8,24.4-5.6,67.3"/>
	<path class="st1" d="M7581.1,693.8c1.8-1.4,3.8-2.6,5.9-3.3c2.1-0.8,4.4-1.3,6.6-1.6c4.5-0.6,9.1-0.4,13.6-0.5
		c4.5-0.1,9-0.6,13.4-1.6c2.2-0.4,4.4-1,6.5-1.7c2.1-0.7,4-1.9,5.4-3.5l-0.1,0.4c-0.8-5.5-1.5-11-2.2-16.4l-1.1-8.2l-1.2-8.2
		c-0.4-2.7-0.8-5.5-1.2-8.2c-0.2-1.4-0.4-2.7-0.7-4.1c-0.3-1.4-0.6-2.7-0.9-4c-0.8-2.6-1.8-5.2-3.1-7.6c-0.7-1.2-1.4-2.4-2.2-3.5
		c-0.8-1.1-1.7-2.1-2.7-3l0,0l0,0c-1-1.1-2.2-1.9-3.5-2.6c-1.3-0.7-2.7-1.2-4.2-1.6c-1.4-0.4-2.9-0.6-4.4-0.7c-1.5-0.1-3-0.1-4.5,0
		h-0.1c-0.8,0.1-1.5,0.2-2.3,0.5c-0.8,0.3-1.5,0.6-2.2,1.1c-1.4,0.9-2.6,1.9-3.7,3.2c-2.2,2.5-3.9,5.4-5.1,8.4v0l0,0
		c-1.2,2.5-2.2,5.2-3,7.9c-0.9,2.7-1.5,5.5-2.1,8.2c-1.2,5.6-2,11.2-2.4,16.9c-0.4,5.7-0.4,11.4-0.2,17.1
		C7579.7,682.5,7580.2,688.2,7581.1,693.8l-0.1,0.1c-1.1-5.6-1.8-11.3-2.2-17c-0.2-2.9-0.3-5.7-0.4-8.6c0-2.9,0-5.7,0.2-8.6
		c0.3-5.7,1-11.4,2.2-17c0.6-2.8,1.3-5.6,2.1-8.3c0.8-2.8,1.9-5.5,3.1-8.1l0,0c1.3-3.2,3.1-6.1,5.4-8.7c1.2-1.3,2.5-2.4,4-3.3
		c0.8-0.5,1.5-0.8,2.4-1.1c0.9-0.3,1.7-0.5,2.7-0.6h-0.1c1.6-0.1,3.1-0.1,4.7,0c1.5,0.1,3.1,0.4,4.6,0.8c1.5,0.4,3,1,4.3,1.7
		c1.4,0.8,2.6,1.7,3.7,2.9l0,0c1,1,2,2.1,2.8,3.2c0.8,1.1,1.5,2.3,2.2,3.6c1.3,2.5,2.3,5.1,3,7.8c0.4,1.3,0.7,2.7,0.9,4.1
		s0.4,2.7,0.6,4.1c0.4,2.7,0.8,5.5,1.2,8.2l1.2,8.2l1.3,8.2c0.9,5.5,1.8,10.9,2.6,16.4l0,0.2l-0.1,0.2c-1.6,1.8-3.6,3.1-5.8,3.8
		c-2.2,0.7-4.4,1.3-6.6,1.8c-4.5,0.9-9,1.4-13.6,1.5c-4.5,0.1-9.1-0.2-13.5,0.3c-2.2,0.2-4.4,0.7-6.6,1.3
		C7585,691.5,7583,692.5,7581.1,693.8L7581.1,693.8z"/>
	<path class="st6" d="M7597.5,693.4"/>
	<path class="st0" d="M7642.2,677.1c2.7,1.3,15.1,6.1,19.6,6.5c3.5,1.1,7.3,1.4,10.9,0.8c0.8-0.1,5.5-3.7,5.5-3.7s4.4-0.8,4.3-2.2
		c-0.1-1.6-5.3-0.2-7.4-0.7c-1.9-0.5-3.9-1.1-5.7-1.8c-0.4-0.3-0.1-0.6,1-0.6c1.2-0.1,6,0.6,6.1-1.1c0.1-1.7-6.7-2.6-8.7-2.3
		c-1.6,0.3-3.2,0.7-4.7,1.3c-3.9-1-15.1-2.1-15.8-2.5"/>
	<path class="st1" d="M7642.2,677.1c1.6,0.7,3.2,1.3,4.8,1.8c1.6,0.6,3.3,1.2,4.9,1.7s3.3,1.1,4.9,1.5c1.6,0.5,3.3,0.8,5,1.1h0l0,0
		c1.4,0.4,2.8,0.7,4.3,0.9c1.4,0.2,2.9,0.2,4.3,0.1c0.7,0,1.4-0.1,2.2-0.2c0.1,0,0.3-0.1,0.4-0.2c0.2-0.1,0.3-0.2,0.5-0.3
		c0.3-0.2,0.6-0.4,0.9-0.6c1.2-0.8,2.4-1.7,3.6-2.6l0.1-0.1l0.1,0c0.8-0.1,1.5-0.3,2.2-0.6c0.4-0.1,0.7-0.3,1-0.4
		c0.3-0.1,0.6-0.4,0.7-0.6c0.1-0.2,0-0.4-0.3-0.6c-0.3-0.1-0.7-0.2-1.1-0.2c-0.8,0-1.5,0-2.3,0c-0.8,0-1.6,0.1-2.4,0.1
		c-0.4,0-0.8-0.1-1.2-0.2c-0.4-0.1-0.8-0.2-1.1-0.3c-1.5-0.4-3-0.9-4.5-1.5l0,0l0,0c-0.1-0.1-0.2-0.3-0.2-0.4
		c0.1-0.1,0.2-0.3,0.3-0.3c0.2-0.1,0.5-0.1,0.7-0.1c0.5,0,0.9,0,1.4,0c0.9,0.1,1.9,0.1,2.8,0c0.4,0,0.9-0.1,1.3-0.3
		c0.2-0.1,0.3-0.2,0.5-0.3c0.1-0.1,0.1-0.3,0.1-0.5c-0.2-0.3-0.5-0.6-0.9-0.7c-0.4-0.2-0.8-0.3-1.3-0.4c-1.8-0.4-3.6-0.7-5.5-0.7
		c-0.9,0.1-1.8,0.2-2.7,0.5c-0.9,0.2-1.8,0.5-2.7,0.8l-0.1,0l-0.1,0c-1.3-0.3-2.6-0.5-3.9-0.8c-1.3-0.2-2.6-0.4-3.9-0.6
		c-1.3-0.2-2.6-0.4-4-0.6l-2-0.3c-0.7-0.1-1.3-0.2-2-0.4l0-0.1c0.6,0.2,1.3,0.3,2,0.3l2,0.2c1.3,0.2,2.6,0.3,4,0.5
		c1.3,0.2,2.6,0.3,4,0.5c1.3,0.2,2.6,0.4,4,0.7l-0.2,0c0.9-0.3,1.8-0.6,2.7-0.9c0.5-0.1,0.9-0.2,1.4-0.3c0.5-0.1,1-0.2,1.5-0.2
		c1,0,1.9,0.1,2.8,0.2c0.9,0.1,1.9,0.3,2.8,0.6c0.5,0.1,0.9,0.3,1.4,0.5c0.2,0.1,0.4,0.2,0.6,0.4c0.2,0.2,0.4,0.4,0.5,0.7
		c0.1,0.3,0,0.6-0.2,0.9c-0.2,0.2-0.4,0.4-0.7,0.5c-0.5,0.2-0.9,0.3-1.4,0.3c-0.9,0-1.9,0-2.8,0c-0.5,0-0.9,0-1.4,0
		c-0.2,0-0.4,0.1-0.7,0.1c-0.2,0.1-0.3,0.1-0.1,0.3l0,0c1.5,0.5,3,1,4.5,1.4c0.4,0.1,0.8,0.2,1.1,0.3c0.4,0.1,0.7,0.1,1.1,0.1
		c0.8,0,1.5-0.1,2.3-0.1c0.8-0.1,1.6-0.1,2.4-0.1c0.4,0,0.8,0.1,1.2,0.2c0.3,0.1,0.5,0.3,0.6,0.5c0.1,0.3,0.1,0.6,0,0.8
		c-0.2,0.4-0.6,0.7-1,0.9c-0.4,0.2-0.7,0.4-1.1,0.5c-0.8,0.3-1.5,0.5-2.3,0.6l0.1-0.1c-1.2,0.9-2.3,1.8-3.5,2.7
		c-0.3,0.2-0.6,0.4-0.9,0.6c-0.2,0.1-0.3,0.2-0.5,0.3c-0.2,0.1-0.4,0.2-0.6,0.3c-0.7,0.1-1.5,0.2-2.2,0.3c-1.5,0.1-3,0.1-4.5-0.1
		c-1.5-0.2-3-0.5-4.4-1l0.1,0c-1.7-0.2-3.4-0.6-5.1-1.2c-1.7-0.5-3.3-1.1-4.9-1.7C7648.5,679.9,7645.3,678.7,7642.2,677.1
		L7642.2,677.1z"/>
	<path class="st1" d="M7600.6,630c0,0-22.1,41.4,4.9,46.3"/>
	<path class="st0" d="M7596.6,662.8c0,0-2.8-18.7,1.6-33.3c0.6-2.1,1.8-4,3.5-5.4c1.6-1.5,3.8-2.2,5.9-1.8c2.2,0.5,3.9,2.1,4.5,4.2
		c1.6,5.3,5.7,19.6,6.3,32.8c0,0,26.1,4.8,35.6,11.4c0.7,1.3,1.1,2.7,1.3,4.1c0,0,1.3,6.1-3,9c-3.5,2.3-8.3-0.4-12.5-0.6
		c-4.5-0.3-9.5,1.5-13.4-0.8c-1.6-0.9-2.8-2.4-4.4-3.4c-3.5-2.3-8-1.9-12.1-1.8h-0.1c-5.8,0-10.8-4-12.1-9.6L7596.6,662.8z"/>
	<path class="st1" d="M7596.6,662.8c-0.5-3.6-0.8-7.2-0.9-10.8c-0.2-3.6-0.1-7.2,0.1-10.8c0.2-3.6,0.8-7.2,1.7-10.7
		c0.4-1.8,1.2-3.6,2.3-5.1c1.1-1.5,2.7-2.7,4.5-3.4c1.9-0.7,3.9-0.4,5.6,0.7c1.2,0.8,2.2,2,2.6,3.4c0.2,0.5,0.3,0.9,0.4,1.3
		c1,3.5,1.9,7,2.7,10.5c0.8,3.5,1.4,7.1,2,10.6c0.5,3.6,0.9,7.2,1.1,10.8l-0.2-0.2c3.1,0.6,6.2,1.2,9.2,1.9c3.1,0.7,6.1,1.4,9.1,2.3
		c3,0.8,6,1.8,9,2.9c3,1,5.9,2.4,8.5,4.1l0.1,0.1l0.1,0.1c0.2,0.3,0.4,0.7,0.5,1c0.2,0.4,0.3,0.7,0.4,1.1c0.2,0.7,0.4,1.5,0.4,2.3
		l0-0.1c0.1,0.8,0.2,1.7,0.2,2.5c0,0.8-0.1,1.7-0.3,2.5c-0.4,1.7-1.3,3.2-2.7,4.3c-0.7,0.6-1.5,1-2.3,1.2c-0.8,0.2-1.7,0.3-2.5,0.2
		c-1.6-0.2-3.2-0.5-4.8-0.9c-1.5-0.4-3-0.6-4.6-0.7c-1.5,0-3.1,0.2-4.7,0.3c-1.6,0.2-3.3,0.2-4.9-0.1c-1.7-0.2-3.3-1-4.5-2.1
		c-1.1-1.1-2.3-2.1-3.6-2.9c-1.4-0.7-2.8-1.2-4.4-1.3c-1.6-0.2-3.1-0.3-4.7-0.2c-0.8,0-1.6,0-2.4,0c-0.8,0-1.6-0.1-2.4-0.3
		c-1.6-0.4-3.1-1-4.4-1.9c-1.3-0.9-2.5-2.1-3.4-3.4c-0.9-1.3-1.5-2.8-1.9-4.4L7596.6,662.8z M7596.7,662.8c0.8,3,1.1,6.3,3,8.9
		c0.9,1.3,2,2.4,3.4,3.2c2,1.3,4.3,1.9,6.6,1.9c0.8,0,1.6,0,2.4-0.1c1.6-0.1,3.2-0.1,4.8,0.1c1.6,0.1,3.2,0.6,4.7,1.3
		c1.4,0.8,2.7,1.8,3.8,2.9c1.2,1,2.5,1.6,4,1.8c1.5,0.2,3.1,0.2,4.6,0c1.6-0.1,3.2-0.3,4.8-0.3c0.8,0,1.6,0.1,2.5,0.2
		c0.8,0.1,1.6,0.3,2.4,0.5c1.5,0.4,3,0.7,4.6,0.9c1.4,0.2,2.9-0.2,4.1-1.1c1.2-0.9,2-2.2,2.3-3.6c0.4-1.5,0.4-3,0.2-4.5l0-0.1v0
		c0-0.7-0.2-1.4-0.4-2c-0.1-0.3-0.2-0.7-0.3-1c-0.1-0.3-0.3-0.6-0.4-0.9l0.1,0.2c-2.6-1.7-5.4-3.1-8.3-4.2c-2.9-1.1-5.9-2.1-8.9-3
		c-6-1.8-12.1-3.3-18.2-4.5l-0.2,0l0-0.2c-0.2-3.6-0.5-7.2-1.1-10.7c-0.6-3.6-1.3-7.1-2.2-10.6s-1.8-7-2.9-10.4
		c-0.1-0.4-0.3-0.9-0.4-1.3c-0.1-0.4-0.3-0.8-0.6-1.1c-0.4-0.7-1-1.3-1.7-1.8c-1.4-0.9-3.2-1.1-4.8-0.5c-0.8,0.3-1.5,0.7-2.2,1.2
		c-0.7,0.5-1.3,1.1-1.8,1.8c-1.1,1.4-1.8,3-2.2,4.7c-1,3.4-1.6,7-2,10.5c-0.4,3.6-0.5,7.2-0.5,10.8
		C7596,655.6,7596.2,659.2,7596.7,662.8L7596.7,662.8z"/>
	<path class="st1" d="M8008.9,564.8c0,0,6.6,11.5-1.2,26.1"/>
	<path class="st0" d="M7958.1,615.9c-3.6,2.6-13.9,8.4-17.7,10.7c-3.4,1.2-9.1,1.7-12.2,4.8c-0.6,0.6-2.2,6.2-2.2,6.2
		s-3.1,3.2-2.2,4.3c1,1.2,4.5-2.9,6.4-3.8c1.8-0.8,3.7-1.4,5.7-1.9c0.5,0.1,0.4,0.4-0.4,1.1c-0.9,0.8-5.2,3-4.3,4.5
		c0.9,1.4,6.9-1.8,8.4-3.2c1.1-1.2,2.1-2.4,3-3.8c3.7-1.5,19.9-9.6,20.7-9.7"/>
	<path class="st1" d="M7958.1,615.9c-2.8,2.1-5.7,3.9-8.7,5.7l-8.9,5.4l0,0l0,0c-1.6,0.5-3.2,0.9-4.8,1.3c-1.6,0.4-3.1,0.9-4.6,1.6
		c-0.7,0.3-1.4,0.8-2,1.3c-0.2,0.1-0.3,0.2-0.4,0.4c-0.1,0.1-0.1,0.1-0.2,0.2c0,0.1-0.1,0.1-0.1,0.2c-0.2,0.4-0.3,0.7-0.5,1.1
		c-0.6,1.5-1.1,3.1-1.6,4.7l0,0.1l-0.1,0.1c-0.5,0.6-1,1.1-1.5,1.8c-0.2,0.3-0.4,0.6-0.6,1c-0.2,0.3-0.2,0.6-0.2,0.9
		c0.1,0.3,0.2,0.4,0.6,0.3c0.3-0.1,0.7-0.3,1-0.5c0.6-0.4,1.2-0.9,1.9-1.4s1.2-1,1.9-1.4c0.3-0.2,0.7-0.4,1.1-0.6
		c0.4-0.1,0.7-0.3,1.1-0.4c1.5-0.5,3-1,4.5-1.4l0,0h0c0.2,0,0.3,0.1,0.4,0.2c0,0.2,0,0.3-0.1,0.4c-0.1,0.2-0.3,0.4-0.5,0.5
		c-0.4,0.3-0.7,0.6-1.1,0.8c-0.8,0.5-1.5,1-2.2,1.7c-0.3,0.3-0.6,0.6-0.9,1c-0.1,0.2-0.2,0.4-0.2,0.6c0,0.2,0.1,0.3,0.2,0.4
		c0.4,0.1,0.8,0.2,1.2,0c0.4-0.1,0.9-0.2,1.3-0.4c1.7-0.7,3.3-1.6,4.8-2.7c0.7-0.6,1.3-1.2,1.9-1.9c0.6-0.7,1.1-1.5,1.7-2.2l0.1-0.1
		l0.1,0c1.7-0.7,3.5-1.5,5.2-2.3l5.2-2.4c1.7-0.8,3.5-1.6,5.2-2.4l2.6-1.2c0.9-0.4,1.7-0.8,2.7-1.1l0,0.1c-0.9,0.3-1.7,0.8-2.6,1.2
		l-2.6,1.3l-5.1,2.5l-5.1,2.5c-1.7,0.8-3.4,1.7-5.2,2.4l0.1-0.1c-0.5,0.8-1.1,1.5-1.7,2.3c-0.3,0.4-0.6,0.7-0.9,1.1
		c-0.3,0.4-0.7,0.7-1.1,1c-0.8,0.6-1.6,1.1-2.4,1.5c-0.8,0.5-1.7,0.8-2.6,1.1c-0.5,0.2-0.9,0.3-1.4,0.4c-0.2,0-0.5,0.1-0.8,0.1
		c-0.3,0-0.6-0.1-0.8-0.2c-0.2-0.2-0.4-0.5-0.4-0.8c0-0.3,0.1-0.5,0.3-0.8c0.3-0.4,0.6-0.8,1-1.1c0.7-0.6,1.5-1.1,2.3-1.6
		c0.4-0.2,0.8-0.5,1.1-0.8c0.2-0.1,0.3-0.3,0.5-0.5c0.1-0.2,0.1-0.3-0.1-0.3h0c-1.5,0.4-3,0.9-4.4,1.5c-0.4,0.1-0.7,0.3-1.1,0.5
		c-0.3,0.2-0.7,0.3-1,0.6c-0.6,0.5-1.2,1-1.8,1.5c-0.6,0.5-1.2,1-1.9,1.5c-0.3,0.3-0.7,0.4-1.1,0.6c-0.3,0.1-0.5,0.1-0.8,0
		c-0.2-0.1-0.4-0.4-0.5-0.7c-0.1-0.5,0-0.9,0.2-1.3c0.2-0.4,0.4-0.7,0.6-1.1c0.5-0.7,0.9-1.3,1.5-1.9l-0.1,0.1
		c0.4-1.6,0.9-3.2,1.5-4.8c0.1-0.4,0.3-0.8,0.5-1.2c0.1-0.1,0.1-0.2,0.2-0.3c0.1-0.1,0.2-0.2,0.3-0.3c0.2-0.2,0.3-0.3,0.5-0.4
		c0.7-0.5,1.4-1,2.2-1.4c1.5-0.7,3.1-1.3,4.8-1.7c1.6-0.4,3.2-0.8,4.8-1.3l-0.1,0c1.5-0.9,3-1.7,4.5-2.6l4.5-2.6
		c1.5-0.9,3-1.7,4.5-2.6C7955.1,617.7,7956.6,616.8,7958.1,615.9L7958.1,615.9z"/>
	<path class="st0" d="M7951.8,638.6c7.4-2.5,14.3-6.4,20.3-11.5c6.8-6.1,12.3-7.7,21-10.6c11.2-3.4,18-28.8,15.9-49.6
		c-0.5-4.9-2.8-6.3-5-6.6c-2.6-0.2-5.1,1.1-6.4,3.5c-4.9,8.9-9.2,30.3-12.3,36.7c0,0-26.9,13.3-39.4,19.6
		C7948.6,625.9,7950.6,632.2,7951.8,638.6z"/>
	<path class="st1" d="M7951.8,638.5c0,0,0.1,0,0.1-0.1l0.1-0.1l0.3-0.1l0.6-0.2c0.4-0.1,0.8-0.3,1.1-0.4c0.8-0.3,1.5-0.6,2.3-1
		c1.5-0.7,3-1.4,4.4-2.2c2.9-1.6,5.6-3.3,8.2-5.4c0.6-0.5,1.3-1,1.9-1.5l1.9-1.6c1.3-1.1,2.6-2.1,3.9-3c2.8-1.8,5.8-3.3,8.9-4.5
		c1.5-0.6,3.1-1.1,4.6-1.7l2.3-0.8c0.8-0.2,1.5-0.5,2.2-0.9c1.4-0.8,2.6-1.8,3.6-3c1.1-1.2,2-2.5,2.8-3.9c1.6-2.8,2.9-5.8,3.9-8.9
		c1-3.1,1.8-6.2,2.4-9.4c0.6-3.2,1-6.4,1.2-9.7c0.2-3.3,0.3-6.5,0.2-9.8c0-0.8-0.1-1.6-0.1-2.4c0-0.8-0.1-1.6-0.3-2.4
		c-0.2-1.6-0.9-3-2.1-4.1c-1.3-0.9-2.9-1.2-4.4-0.8c-1.5,0.4-2.9,1.3-3.8,2.6c-0.8,1.4-1.6,2.9-2.2,4.4c-0.6,1.5-1.2,3-1.7,4.6
		c-1.1,3.1-2,6.2-2.9,9.4s-1.8,6.3-2.6,9.5c-0.4,1.6-0.9,3.2-1.4,4.7c-0.5,1.6-1,3.2-1.7,4.7l-0.1,0.1l-0.1,0.1
		c-3.3,1.7-6.5,3.4-9.8,5c-3.3,1.6-6.6,3.3-9.9,4.9l-9.9,4.9c-3.3,1.6-6.6,3.2-9.9,4.8l0.2-0.5c0.7,1.5,1.3,3,1.9,4.5
		c0.6,1.5,1.1,3.1,1.6,4.6c0.5,1.6,0.9,3.1,1.3,4.7c0.2,0.8,0.4,1.6,0.5,2.4C7951.6,636.9,7951.7,637.7,7951.8,638.5z M7951.8,638.6
		l-0.6-2.4c-0.2-0.8-0.4-1.6-0.6-2.4c-0.4-1.6-0.9-3.1-1.4-4.7c-0.5-1.5-1.1-3.1-1.7-4.6c-0.6-1.5-1.2-3-2-4.4l-0.2-0.3l0.3-0.2
		c3.3-1.7,6.5-3.3,9.8-5l9.8-4.9c3.3-1.7,6.6-3.3,9.9-4.9c3.3-1.6,6.6-3.2,9.9-4.8l-0.2,0.2c0.7-1.5,1.3-3,1.8-4.5
		c0.5-1.5,1-3.1,1.5-4.7c1-3.1,1.8-6.3,2.8-9.4s1.9-6.3,2.9-9.4c0.5-1.6,1.1-3.1,1.7-4.6c0.6-1.5,1.3-3,2.1-4.5
		c0.9-1.4,2.4-2.5,4.1-2.9c2.6-0.8,5.4,0.4,6.6,2.9c0.4,0.8,0.6,1.6,0.8,2.4c0.2,0.8,0.3,1.6,0.3,2.5c0.1,0.8,0.1,1.6,0.2,2.5
		c0.4,6.6,0,13.2-1.2,19.7c-0.6,3.3-1.4,6.5-2.4,9.6c-1,3.2-2.3,6.2-4,9.1c-0.8,1.5-1.8,2.8-2.9,4.1c-1.1,1.3-2.5,2.4-3.9,3.2
		c-0.8,0.4-1.6,0.7-2.4,1l-2.3,0.8c-1.6,0.5-3.1,1-4.6,1.6c-3.1,1.1-6,2.5-8.7,4.2c-1.4,0.9-2.7,1.9-3.9,2.9l-1.9,1.6
		c-0.6,0.5-1.3,1-2,1.5c-2.7,2-5.5,3.7-8.4,5.2c-1.5,0.7-3,1.4-4.5,2.1c-0.8,0.3-1.5,0.6-2.3,0.9c-0.4,0.1-0.8,0.3-1.2,0.4l-0.6,0.2
		l-0.3,0.1l-0.1,0C7951.9,638.6,7951.9,638.6,7951.8,638.6L7951.8,638.6z"/>
	<path class="st1" d="M7947.7,632.4c0,0,1.9,6.9,4.1,6.2l-1.8-7.3L7947.7,632.4z"/>
	<path class="st1" d="M8034.5,613.1c0,0,1.2,1.9-3.9,2.9l-1.3-3.5l-1-3.1"/>
	<path class="st0" d="M8082.7,672.6l32.8,8.5l-14.1,35.8c0,0-7-7.1-3.1-18.5c1.2-3.5-2.7-8.5-10.8-10.8l-14.1-4.4L8082.7,672.6z"/>
	<path class="st1" d="M8082.7,672.5c5.4,1.2,10.9,2.6,16.4,3.9c5.5,1.4,11,2.7,16.6,4.1c0.3,0.1,0.5,0.4,0.4,0.7l0,0c0,0,0,0,0,0.1
		v0c-0.6,1.5-1.2,3-1.8,4.5c-0.6,1.5-1.2,3-1.8,4.5l-3.6,8.9c-1.2,3-2.4,5.9-3.7,8.9l-1.9,4.4l-1.8,4.5v0c0,0.1-0.1,0.1-0.2,0.1
		c0,0,0,0,0,0l0,0c0,0,0,0-0.1,0c-2.8-3.3-4.4-7.5-4.5-11.9c0-2.2,0.3-4.3,0.9-6.4c0.8-1.9-0.1-3.9-1.4-5.4
		c-1.4-1.5-3.1-2.8-4.9-3.7c-0.9-0.5-1.9-0.9-2.9-1.2l-3-1c-4.1-1.3-8.1-2.7-12.2-4h0c-0.2-0.1-0.2-0.2-0.2-0.4c0,0,0-0.1,0.1-0.1
		c1.6-1.8,3.2-3.5,4.8-5.2L8082.7,672.5z M8082.7,672.6l-4.6,5.4c-1.5,1.8-3,3.6-4.6,5.3l-0.1-0.5c4.1,1.2,8.2,2.4,12.3,3.7l3.1,0.9
		c1,0.3,2,0.7,3,1.2c2,0.9,3.8,2.3,5.3,3.9c0.7,0.9,1.3,1.9,1.6,3c0.2,0.6,0.2,1.1,0.2,1.7c0,0.3-0.1,0.6-0.1,0.9
		c-0.1,0.3-0.2,0.5-0.3,0.8c-0.7,2-1,4.1-1.1,6.2c-0.1,4.3,1.3,8.4,4.1,11.6l-0.3,0.1l1.7-4.5l1.7-4.5c1.1-3,2.2-6,3.4-9l3.4-9
		c0.6-1.5,1.1-3,1.7-4.5c0.6-1.5,1.2-3,1.8-4.5l0.4,0.8c-5.4-1.4-10.8-2.9-16.2-4.4C8093.6,675.7,8088.2,674.2,8082.7,672.6
		L8082.7,672.6z"/>
	<path class="st1" d="M8093,690.7c5.6,2.1,6.1,4.6,5.2,7.7c-3.6,12.4,3.1,18.5,3.1,18.5l8-20.3l6.1-15.5l-15.2-5.1L8093,690.7z"/>
	<path class="st0" d="M7994.6,672c18.4,7.1,13.9,17.4,40.6,20.8c9.2,1.2,5,7.4,13,11.7c7.5,4,16.3-4.5,24.8,5.2l17.4-35.8
		l-77.8-20.8l9.2-15.1c10.5-17.1,2.8-28.5,2.8-28.5l-25.3,1.5l-20.6,35.3c-4.3,7.4-1.8,17,5.6,21.3c0.4,0.2,0.7,0.4,1.1,0.6
		L7994.6,672z"/>
	<path class="st1" d="M7994.6,672c3.6,1.3,6.9,3.2,10,5.4c3.1,2.3,5.7,5.1,8.7,7.4c3,2.3,6.4,4.1,10,5.2c3.6,1.1,7.3,1.9,11.1,2.3
		c2,0.1,3.9,0.7,5.6,1.7c0.8,0.6,1.5,1.4,2,2.3c0.5,0.9,0.9,1.7,1.3,2.6c0.4,0.8,0.9,1.6,1.5,2.3c0.6,0.7,1.2,1.3,2,1.8
		c0.7,0.5,1.5,1,2.4,1.4c0.8,0.3,1.7,0.6,2.6,0.7c3.6,0.4,7.4-0.8,11.3-0.7c2,0,4,0.5,5.8,1.4c1.8,0.9,3.3,2.2,4.6,3.7l-1,0.1
		l8.7-17.9l8.7-17.9l0.4,0.8l-19.4-5.3l-19.4-5.3l-19.4-5.3l-19.4-5.3l-0.2-0.1l0.1-0.2l6.2-10.2c2-3.4,4.3-6.7,5.8-10.4
		c1.6-3.6,2.5-7.5,2.6-11.5c0-2-0.2-3.9-0.6-5.8c-0.4-1.9-1.1-3.7-2.1-5.4l0.4,0.2l-12.7,0.8l-12.7,0.8l0.4-0.3
		c-3.2,5.5-6.5,11-9.7,16.5c-3.2,5.5-6.5,11-9.8,16.5c-0.9,1.3-1.6,2.7-2.3,4.2c-0.6,1.5-1,3-1.1,4.6c-0.3,3.2,0.4,6.4,2.1,9.1
		c1.6,2.8,4.1,4.9,7,6.2L7994.6,672z M7994.6,672.1l-8.9-3.6c-3-1.3-5.5-3.5-7.1-6.3c-1.7-2.8-2.5-6-2.3-9.3
		c0.1-1.6,0.5-3.2,1.1-4.7c0.3-0.8,0.7-1.5,1.1-2.2l1.2-2.1c3.2-5.5,6.3-11.1,9.5-16.6c3.2-5.5,6.4-11.1,9.6-16.6l0.1-0.2l0.3,0
		l12.7-0.7l12.7-0.7l0.2,0l0.1,0.2c1,1.8,1.8,3.7,2.2,5.7c0.4,2,0.6,4,0.5,6c-0.2,4-1.1,8-2.8,11.6c-1.6,3.7-3.9,7-5.9,10.4
		l-6.2,10.2l-0.1-0.3l19.5,5.1l19.5,5.1l19.5,5.1l19.5,5.1l0.6,0.2l-0.3,0.6l-8.6,17.9l-8.7,17.9l-0.4,0.8l-0.6-0.7
		c-1.2-1.4-2.6-2.6-4.2-3.4c-1.6-0.8-3.4-1.2-5.2-1.2c-1.9,0-3.7,0.2-5.6,0.5c-1.9,0.3-3.9,0.4-5.8,0.2c-1-0.1-2-0.4-2.9-0.8
		c-0.9-0.4-1.8-0.9-2.6-1.5c-0.8-0.6-1.5-1.3-2.2-2.1c-0.6-0.8-1.1-1.6-1.6-2.5c-0.4-0.9-0.8-1.7-1.3-2.5c-0.4-0.8-1-1.5-1.7-2
		c-0.7-0.5-1.6-0.9-2.4-1.1c-0.9-0.2-1.8-0.4-2.7-0.5c-3.8-0.5-7.5-1.4-11.2-2.6c-3.6-1.2-7-3.1-10-5.5c-3-2.4-5.5-5.2-8.6-7.5
		C8001.5,675.3,7998.1,673.4,7994.6,672.1z"/>
	<path class="st1" d="M8026.3,691.2c1.8,0.5,3.7,0.9,5.9,1.2c-1.3-11.4-4.8-22.9-5.4-34.3C8023.1,670.2,8026,679.5,8026.3,691.2z"/>
	<path class="st0" d="M7990.7,746.3c0,0-0.2,11.2-12.4,15.8c0,0-10.1,3.4-10,8.5l33.7-2.3c0,0-4.4-14.1,0-22.4L7990.7,746.3z"/>
	<path class="st1" d="M7990.8,746.4c0,0,0,0.1,0,0.1v0.1l0,0.3l0,0.6c0,0.4-0.1,0.7-0.2,1.1s-0.1,0.7-0.2,1.1
		c-0.1,0.4-0.2,0.7-0.3,1.1c-0.4,1.4-1,2.8-1.8,4.1c-1.5,2.6-3.7,4.7-6.3,6.2c-0.6,0.4-1.3,0.7-2,1c-0.7,0.3-1.4,0.6-2,0.8
		c-1.3,0.5-2.6,1.1-3.9,1.8c-1.3,0.7-2.4,1.5-3.5,2.4c-1.1,0.9-1.7,2.2-1.9,3.6l-0.3-0.2c2.8-0.1,5.6-0.3,8.4-0.5
		c2.8-0.2,5.6-0.5,8.4-0.7c2.8-0.3,5.6-0.5,8.4-0.7l8.4-0.7l-0.5,0.8c-0.6-1.8-1-3.7-1.3-5.6c-0.3-1.9-0.5-3.8-0.6-5.8
		c-0.1-1.9,0-3.9,0.3-5.8c0.3-1.9,0.9-3.8,1.8-5.6l0.4,0.6h-5.6L7990.8,746.4z M7990.7,746.3l5.6-0.4l5.8-0.3c0.2,0,0.4,0.2,0.4,0.4
		c0,0.1,0,0.1,0,0.2l0,0c-0.8,1.7-1.3,3.5-1.6,5.3l-0.1,1.4c0,0.5,0,0.9-0.1,1.4s0,0.9,0,1.4s0,0.9,0,1.4c0.1,1.9,0.3,3.7,0.6,5.6
		c0.3,1.9,0.7,3.7,1.2,5.5v0c0.1,0.3-0.1,0.6-0.4,0.7c0,0,0,0,0,0l0,0c0,0-0.1,0-0.1,0l-8.4,0.5c-2.8,0.2-5.6,0.3-8.4,0.4
		c-2.8,0.1-5.6,0.3-8.4,0.4c-2.8,0.2-5.6,0.4-8.4,0.6c-0.1,0-0.3-0.1-0.3-0.2v0c0-0.8,0.2-1.5,0.5-2.2c0.3-0.7,0.8-1.3,1.3-1.9
		c1.1-1.1,2.2-2,3.5-2.7c1.3-0.8,2.6-1.4,4-1.9c0.7-0.3,1.3-0.5,2-0.8c0.7-0.3,1.3-0.6,1.9-1c3.8-2.1,6.7-5.5,8.2-9.6
		c0.1-0.3,0.3-0.7,0.4-1c0.1-0.3,0.2-0.7,0.3-1s0.2-0.7,0.2-1.1l0.1-0.5l0-0.3l0-0.1C7990.7,746.4,7990.7,746.3,7990.7,746.3
		L7990.7,746.3z"/>
	<path class="st1" d="M8000.2,753.8l-12.2,0.8c-2.3,3.5-5.6,6.1-9.6,7.5c0,0-10.1,3.4-10,8.5l33.7-2.3
		C8000.7,763.6,8000.1,758.7,8000.2,753.8z"/>
	<path class="st0" d="M8017.4,716.2c3.1-6.7,9-13.2,9.7-20.7c1.5-17.1-4.8-28,2.3-44.8c1.8-4.3,5.9-13.1,7-17.7
		c1.6-6.5-3.6-19.9-6.9-25.7l-24.8,1.2l-18.5,138.3h37.9C8024.2,746.8,8013.4,724.9,8017.4,716.2z"/>
	<path class="st1" d="M8017.4,716.2c2-4.3,4.9-8.2,7-12.5c1.1-2.1,1.9-4.4,2.4-6.7c0.2-1.2,0.3-2.4,0.3-3.5c0.1-1.2,0.1-2.4,0.1-3.6
		c-0.1-4.8-0.5-9.5-1.1-14.2c-0.6-4.8-0.7-9.6-0.2-14.4c0.3-2.4,0.8-4.8,1.5-7.1c0.7-2.3,1.6-4.5,2.6-6.7c0.9-2.2,1.9-4.4,2.8-6.6
		s1.7-4.4,2.4-6.7c0.2-0.6,0.3-1.1,0.4-1.7c0.1-0.5,0.2-1.1,0.2-1.6c0-1.1,0-2.3-0.2-3.4c-0.3-2.3-0.9-4.6-1.6-6.8
		c-0.7-2.3-1.5-4.5-2.4-6.7c-0.9-2.2-1.9-4.3-3-6.4l0.9,0.5l-24.8,1.3l0.9-0.9c-1.5,11.5-3.1,23.1-4.7,34.6
		c-1.6,11.5-3.1,23-4.8,34.6l-9.8,69.1l-0.2-0.2l37.9,0.1l-0.1,0.2c-1.2-2.4-2.2-4.9-3.2-7.4c-1-2.5-1.9-5-2.6-7.6
		c-0.8-2.6-1.3-5.2-1.7-7.8c-0.2-1.3-0.2-2.7-0.1-4C8016.5,718.7,8016.8,717.4,8017.4,716.2z M8017.5,716.2
		c-0.5,1.2-0.8,2.5-0.9,3.9c-0.1,1.3,0,2.7,0.2,4c0.3,2.6,0.9,5.3,1.7,7.8c0.8,2.6,1.6,5.1,2.6,7.6c1,2.5,2,4.9,3.2,7.3l0,0.1h-0.1
		l-37.9,0h-0.1l0-0.1l18.5-138.3l0-0.1h0.1l24.8-1.2h0.1l0,0.1c1.1,2.1,2.2,4.3,3,6.5c0.9,2.2,1.7,4.5,2.4,6.8
		c0.7,2.3,1.2,4.6,1.5,7c0.2,1.2,0.2,2.4,0.2,3.6c0,0.6-0.1,1.2-0.2,1.8c-0.1,0.6-0.3,1.2-0.5,1.7c-0.7,2.3-1.6,4.5-2.5,6.7
		s-1.9,4.4-2.8,6.6c-1,2.2-1.9,4.4-2.6,6.6c-0.7,2.3-1.3,4.6-1.6,6.9c-0.6,4.7-0.6,9.5,0,14.3c0.4,4.7,1,9.5,1,14.3
		c0,1.2,0,2.4-0.1,3.6c0,1.2-0.2,2.4-0.4,3.6c-0.5,2.3-1.3,4.6-2.4,6.7C8022.4,708.1,8019.5,711.9,8017.5,716.2L8017.5,716.2z"/>
	<path class="st1" d="M7993.3,536.8c-4.1,1.3-5.6,5.2-5,9c0.7,4.3-2.3,6.2-5,7.6l21.3,2.2l2.2-17.5L7993.3,536.8z"/>
	<path class="st0" d="M8005.5,525.9c-4.2-2-9.1-1.4-12.7,1.4c-3.8,3.8-5.7,9.2-5.1,14.6c0.5,4.2,6.2,4.1,6.2,4.1l3.3,13.7l13.6-3.6
		l-6.1-13.5c-0.1-1.4,0.6-2.7,1.7-3.5C8006.3,539.2,8011.9,532,8005.5,525.9z"/>
	<path class="st1" d="M8005.4,526c-2.9-1.3-6.1-1.5-9.1-0.5c-0.7,0.3-1.4,0.6-2.1,1c-0.3,0.2-0.7,0.4-1,0.6
		c-0.1,0.1-0.3,0.2-0.4,0.3c-0.1,0.1-0.3,0.3-0.4,0.4c-1,1.2-1.9,2.4-2.6,3.8c-1.4,2.7-2.1,5.8-1.9,8.9c0,0.4,0.1,0.8,0.1,1.1
		c0,0.4,0.1,0.7,0.3,1c0.3,0.7,0.8,1.2,1.4,1.6c1.3,0.8,2.8,1.2,4.3,1.2l0.3,0l0.1,0.3l3.4,13.6l-0.6-0.4l13.6-3.7l-0.4,0.8l-3-6.8
		l-3-6.8l0-0.1v-0.1c0-0.4,0-0.8,0.1-1.2c0.1-0.4,0.2-0.7,0.4-1c0.2-0.3,0.4-0.6,0.6-0.9c0.2-0.3,0.5-0.5,0.8-0.8l-0.1,0.1
		c0.7-0.9,1.3-2,1.7-3.1c0.4-1.1,0.6-2.3,0.6-3.5c0-0.6-0.1-1.2-0.2-1.8c-0.1-0.6-0.3-1.1-0.6-1.7
		C8007,527.8,8006.3,526.8,8005.4,526z M8005.5,525.9c0.9,0.8,1.7,1.8,2.3,2.9c0.6,1.1,0.9,2.3,1,3.6c0.1,1.3-0.1,2.5-0.5,3.7
		c-0.4,1.2-0.9,2.4-1.6,3.4l0,0l0,0c-0.2,0.2-0.4,0.4-0.6,0.7c-0.2,0.2-0.3,0.5-0.5,0.8c-0.1,0.3-0.2,0.5-0.3,0.8
		c-0.1,0.3-0.1,0.5-0.1,0.8l0-0.1l3.1,6.7l3.1,6.8l0.3,0.7l-0.7,0.2l-13.6,3.5l-0.5,0.1l-0.1-0.5l-3.2-13.7l0.4,0.3
		c-0.8,0-1.6-0.1-2.4-0.3c-0.8-0.2-1.6-0.5-2.2-1c-0.7-0.5-1.3-1.2-1.6-1.9c-0.2-0.4-0.3-0.8-0.3-1.2c0-0.4-0.1-0.8-0.1-1.2
		c-0.1-3.2,0.6-6.4,2.1-9.2c0.8-1.4,1.7-2.7,2.8-3.9c0.1-0.1,0.3-0.3,0.4-0.4c0.2-0.1,0.3-0.2,0.5-0.4c0.3-0.2,0.7-0.5,1-0.6
		c0.7-0.4,1.4-0.7,2.2-1C7999.3,524.3,8002.6,524.5,8005.5,525.9L8005.5,525.9z"/>
	<path class="st1" d="M7994,545.7c1.7-0.2,3.3-0.6,4.8-1.3c-1.2,1.7-2.7,3.1-4.5,4.1L7994,545.7z"/>
	<path class="st1" d="M8011.1,569.4c-0.6,7.3-9.5,9.6-17,9.5"/>
	<path class="st1" d="M8037.2,558.5c2.1-14.5-9.1-5.2-11.7-17.5c-2-9.1-10-2.4-15.2-13.8c-4.9-7.1-13.8-5.4-13.8-5.4
		c-5.2,1.4-7.1,5.1-7.1,7.6c0,0.3,11.1,6,11.6,5.4c0.7-0.7,1.3-0.8,2-0.2c0,0,1,1.5-1.3,4.3c0,0-2,1.6,0.8,5.9c0,0,4.3,9.4,8.3,10.8
		L8037.2,558.5z"/>
	<path class="st0" d="M7993.6,612.2c9.1,5.5,25.3-3.6,40.1,1.4c3.4,1.1-13.9-23.2-15.3-32.2c-0.6-3.7-0.3-7.1-0.2-10.9
		c0.1-3.6-0.6-7.1-2.1-10.3c-3.8-7.1-13.5-5.4-18.9-0.5c0,0-2.2,3.8-6,9.3c-2.7,3.9-3.1,9-1,13.3c0.1,0.2,0.2,0.4,0.3,0.6
		C7994.7,590.2,7995,606,7993.6,612.2L7993.6,612.2z"/>
	<path class="st1" d="M7993.7,612.2c0.5,0.3,1.1,0.5,1.7,0.7c0.6,0.2,1.2,0.4,1.8,0.5c1.2,0.2,2.5,0.4,3.7,0.4c2.5,0,5-0.2,7.5-0.6
		c5-0.9,10-1.4,15-1.6c2.6,0,5.1,0.2,7.6,0.7c0.6,0.1,1.2,0.3,1.9,0.5c0.3,0.1,0.6,0.2,0.9,0.3l0.2,0.1c0,0,0.1,0,0,0
		c-0.1,0-0.1,0-0.2,0.1c-0.1,0-0.1,0.1-0.2,0.2c0,0.1,0,0.1,0,0.1c0-0.2-0.1-0.5-0.2-0.7c-0.1-0.3-0.2-0.5-0.4-0.8
		c-0.3-0.6-0.5-1.1-0.8-1.7c-2.4-4.4-5-8.7-7.4-13.1c-1.2-2.2-2.4-4.4-3.5-6.7c-1.2-2.3-2.1-4.6-2.9-7c-0.2-0.6-0.3-1.3-0.4-1.9
		c-0.1-0.6-0.2-1.3-0.2-1.9c-0.1-1.3-0.1-2.5-0.1-3.8c0-1.3,0.1-2.5,0.2-3.8c0.1-1.2,0.1-2.5,0-3.7c-0.1-2.5-0.7-4.9-1.6-7.2
		c-0.5-1.1-1.1-2.2-2-3c-0.4-0.4-0.9-0.8-1.5-1.1c-0.5-0.3-1.1-0.6-1.7-0.8c-2.4-0.7-4.9-0.7-7.3,0.1c-2.4,0.7-4.6,2-6.4,3.7
		l0.1-0.1c-1.1,2-2.4,4-3.6,6c-0.6,1-1.3,2-1.9,2.9c-0.6,0.9-1.2,1.9-1.6,2.9c-0.9,2.1-1.1,4.3-0.8,6.6c0.2,1.1,0.5,2.2,0.9,3.2
		c0.2,0.5,0.5,1,0.8,1.5c0.1,0.3,0.3,0.5,0.4,0.8c0.1,0.3,0.2,0.5,0.4,0.8c0.9,2.2,1.5,4.5,1.9,6.8c0.4,2.3,0.7,4.6,0.8,6.9
		c0.1,2.3,0.2,4.7,0,7C7994.5,607.6,7994.3,609.9,7993.7,612.2L7993.7,612.2C7993.7,612.2,7993.7,612.2,7993.7,612.2z M7993.6,612.2
		C7993.6,612.2,7993.6,612.2,7993.6,612.2L7993.6,612.2c0.4-2.3,0.6-4.6,0.5-7c0-2.3-0.1-4.6-0.3-6.9c-0.2-2.3-0.5-4.6-0.9-6.8
		c-0.4-2.3-1-4.5-1.9-6.6c-0.1-0.3-0.2-0.5-0.3-0.8c-0.1-0.3-0.2-0.5-0.4-0.8c-0.3-0.5-0.6-1-0.8-1.6c-0.5-1.1-0.8-2.3-1-3.5
		c-0.3-2.4,0-4.8,0.9-7.1c0.2-0.6,0.5-1.1,0.8-1.6c0.3-0.5,0.7-1,1-1.5c0.7-0.9,1.3-1.9,2-2.8c1.3-1.9,2.6-3.8,3.8-5.8l0,0l0,0
		c1-0.8,2-1.6,3.1-2.2c1.1-0.6,2.3-1.1,3.5-1.5c2.4-0.8,5.1-0.8,7.5-0.1c0.6,0.2,1.2,0.5,1.7,0.8c0.6,0.3,1.1,0.7,1.5,1.2
		c0.9,0.9,1.7,2,2.2,3.1c1,2.3,1.6,4.8,1.8,7.4c0.1,1.3,0.1,2.5,0.1,3.8c0,1.3-0.1,2.5-0.1,3.8s0,2.5,0.2,3.7
		c0.1,0.6,0.1,1.2,0.2,1.8c0.1,0.6,0.3,1.2,0.4,1.8c0.8,2.3,1.8,4.6,2.9,6.8c1.1,2.2,2.3,4.4,3.6,6.6c2.5,4.4,5.1,8.6,7.5,13.1
		c0.3,0.6,0.6,1.1,0.9,1.7c0.1,0.3,0.3,0.6,0.4,0.9c0.1,0.3,0.2,0.7,0.3,1.1c0,0.2,0,0.4-0.1,0.5c-0.1,0.1-0.2,0.3-0.3,0.3
		c-0.1,0.1-0.2,0.1-0.4,0.1c-0.2,0-0.3,0-0.4-0.1l-0.2-0.1c-0.3-0.1-0.6-0.2-0.9-0.3c-0.6-0.2-1.2-0.3-1.8-0.5
		c-2.4-0.5-4.9-0.8-7.4-0.8c-5,0-9.9,0.7-14.9,1.3c-2.5,0.3-5,0.5-7.6,0.4C7998.3,614.2,7995.8,613.5,7993.6,612.2L7993.6,612.2z"/>
	<path class="st1" d="M8012.7,571.5c0,0,1.6,13.5-12.5,20.5"/>
	
		<rect x="7909.8" y="572.3" transform="matrix(0.9931 -0.117 0.117 0.9931 -15.3194 929.4863)" class="st0" width="4.4" height="45.9"/>
	<path class="st1" d="M7912.4,618.4c-0.3-1.8-0.6-3.7-0.8-5.5l-0.8-5.6c-0.5-3.8-1-7.6-1.5-11.4c-0.4-3.8-0.8-7.7-1.1-11.6
		c-0.2-1.9-0.4-3.8-0.6-5.7l-0.7-5.7l0-0.2l0.2,0l4.3-0.6l0.3,0l0,0.3c0.6,3.8,1.1,7.6,1.6,11.4c0.5,3.8,1,7.6,1.4,11.4
		c0.4,3.8,0.9,7.6,1.2,11.4c0.4,3.8,0.7,7.6,1.1,11.4l0,0.2l-0.2,0L7912.4,618.4z M7912.5,618.3l4.3-0.7l-0.2,0.3
		c-0.6-3.8-1.1-7.6-1.6-11.4c-0.5-3.8-1-7.6-1.5-11.4c-0.5-3.8-0.8-7.6-1.3-11.4c-0.4-3.8-0.8-7.6-1.1-11.4l0.4,0.3l-4.4,0.4
		l0.2-0.2l0.6,5.7c0.2,1.9,0.5,3.8,0.7,5.7c0.5,3.8,1.1,7.5,1.6,11.2c0.5,3.7,0.8,7.5,1.2,11.4l0.5,5.8L7912.5,618.3z"/>
	
		<ellipse transform="matrix(0.9996 -2.800474e-02 2.800474e-02 0.9996 -12.2702 221.7694)" class="st0" cx="7911.3" cy="548.9" rx="18.6" ry="24.2"/>
	<path class="st1" d="M7893,553.4c-0.9-5.6-0.3-11.4,1.7-16.7c1-2.7,2.6-5.1,4.6-7.2c2-2.1,4.5-3.7,7.3-4.5c2.8-0.8,5.8-0.8,8.5,0.1
		c2.7,0.9,5.2,2.4,7.2,4.5c4,4.1,6.6,9.3,7.5,15c1,5.7,0.4,11.5-1.8,16.8c-1.1,2.7-2.7,5.1-4.7,7.2c-2,2.1-4.5,3.7-7.3,4.6
		c-2.8,0.9-5.8,0.9-8.6,0c-2.8-0.9-5.3-2.5-7.3-4.6c-2-2.1-3.6-4.4-4.7-7.1C7894.3,558.9,7893.5,556.1,7893,553.4z M7893.1,553.3
		c0.8,5.6,3.4,10.7,7.5,14.6c2,1.9,4.4,3.3,7,4c2.6,0.7,5.4,0.7,8-0.1c2.6-0.8,4.9-2.3,6.8-4.2c1.9-2,3.5-4.3,4.5-6.8
		c2.2-5.1,2.9-10.7,2.2-16.3c-0.4-2.8-1.2-5.5-2.3-8c-1.2-2.5-2.8-4.9-4.8-6.8c-2-1.9-4.4-3.4-7.1-4.1c-2.7-0.7-5.5-0.6-8.1,0.2
		c-2.6,0.9-4.9,2.3-6.9,4.3c-1.9,2-3.5,4.3-4.6,6.8C7893.1,542.1,7892.3,547.8,7893.1,553.3L7893.1,553.3z"/>
	
		<ellipse transform="matrix(0.9996 -2.800474e-02 2.800474e-02 0.9996 -12.2702 221.7695)" class="st0" cx="7911.3" cy="548.9" rx="15.6" ry="20.3"/>
	<path class="st1" d="M7896,552.6c-0.8-4.7-0.3-9.5,1.4-14c0.9-2.3,2.2-4.3,3.8-6.1c1.7-1.8,3.8-3.1,6.2-3.8
		c2.4-0.7,4.9-0.7,7.2,0.1c2.3,0.8,4.3,2.1,6,3.8c3.3,3.4,5.5,7.8,6.3,12.6c0.9,4.8,0.3,9.6-1.5,14.1c-0.9,2.2-2.3,4.3-3.9,6.1
		c-1.7,1.8-3.8,3.1-6.2,3.9c-2.4,0.7-4.9,0.7-7.3,0c-2.3-0.8-4.4-2.1-6.1-3.9c-1.7-1.7-3-3.7-3.9-5.9
		C7897,557.3,7896.3,555,7896,552.6z M7896.1,552.6c0.7,4.7,2.9,9,6.3,12.2c1.7,1.5,3.7,2.7,5.9,3.3c2.2,0.6,4.5,0.6,6.6-0.1
		c2.2-0.7,4.1-1.9,5.7-3.5c1.6-1.6,2.9-3.6,3.8-5.7c1.8-4.3,2.5-9,1.9-13.6c-0.3-2.3-1-4.6-1.9-6.7c-1-2.1-2.3-4.1-4-5.7
		c-1.7-1.6-3.7-2.8-6-3.4c-2.2-0.6-4.6-0.5-6.7,0.2c-2.2,0.7-4.1,2-5.7,3.6c-1.6,1.7-2.9,3.6-3.9,5.7
		C7896.1,543.2,7895.4,548,7896.1,552.6L7896.1,552.6z"/>
	<path class="st1" d="M7893.1,553.3c-2-13.1,4.5-25.7,14.6-28.2c0.8-0.2,1.5-0.3,2.3-0.4l0,0l-4.7,0.1l0,0c-1.2,0-2.4,0.1-3.6,0.4
		c-10.1,2.4-16.6,15.1-14.6,28.2c1.9,12.4,10.7,20.8,20.2,19.7l4.8-0.1C7903.1,573.4,7894.9,565.2,7893.1,553.3z"/>
	<path class="st1" d="M7893,553.4c-0.5-3.1-0.5-6.2-0.1-9.2c0.4-3.1,1.2-6.1,2.6-8.9c1.3-2.9,3.3-5.4,5.8-7.4
		c0.3-0.2,0.6-0.5,0.9-0.7l1-0.6c0.7-0.4,1.4-0.8,2.1-1.1c0.4-0.2,0.7-0.3,1.1-0.4l1.1-0.3c0.8-0.2,1.6-0.3,2.4-0.4l-0.4,0.5l0,0
		l0.5,0.4l-4.7,0l0.2-0.1l0,0l-0.1,0.1h-0.1c-1.4-0.1-2.8,0.1-4.2,0.5l-1,0.3c-0.3,0.1-0.7,0.3-1,0.4c-0.3,0.1-0.7,0.3-1,0.4
		l-0.9,0.5c-2.4,1.5-4.5,3.6-6,6c-3,4.9-4.4,10.7-4,16.4c0.2,5.7,2.2,11.2,5.6,15.8c1.7,2.2,3.9,4.1,6.4,5.3
		c2.5,1.3,5.3,1.8,8.1,1.5h0.1l4.8-0.1l0,1.2c-2.6,0-5.2-0.6-7.5-1.8c-2.3-1.2-4.2-2.9-5.8-4.8c-1.6-2-2.9-4.1-3.8-6.5
		C7894.1,558.3,7893.4,555.8,7893,553.4z M7893.1,553.3c0.4,2.5,1.1,4.9,2.1,7.1c1,2.3,2.4,4.3,4,6.2c1.6,1.8,3.6,3.3,5.8,4.4
		c2.2,1.1,4.6,1.6,7,1.5l0,1.2l-4.8,0.1h0.1c-3,0.3-6-0.2-8.7-1.6c-2.6-1.4-4.9-3.4-6.7-5.8c-3.5-4.8-5.4-10.5-5.5-16.4
		c-0.1-2.9,0.3-5.8,1-8.7c0.7-2.8,1.9-5.5,3.4-8c1.5-2.5,3.6-4.6,6.1-6.2l0.9-0.6c0.3-0.2,0.7-0.3,1-0.5s0.7-0.3,1-0.5l1-0.3
		c1.4-0.5,2.9-0.7,4.4-0.7l-0.2,0.1l0,0l0.1-0.1l0.1,0l4.7-0.2l0.4,0l0.1,0.4l0,0l0.1,0.5l-0.5,0c-3,0.3-5.8,1.5-8.2,3.3
		c-2.4,1.9-4.3,4.2-5.7,6.9c-1.4,2.7-2.4,5.6-2.9,8.6C7892.7,547.2,7892.7,550.3,7893.1,553.3L7893.1,553.3z"/>
	<path class="st0" d="M7908,538c0,0,10.1,12.8,12.8,20.3"/>
	<path class="st1" d="M7908,537.9c1.5,1.3,2.9,2.8,4.2,4.4c0.7,0.8,1.3,1.6,1.9,2.4c0.6,0.8,1.2,1.6,1.7,2.5
		c0.5,0.9,1.1,1.7,1.6,2.6c0.5,0.9,1,1.8,1.4,2.7c0.9,1.8,1.6,3.8,1.9,5.8l-0.1,0c-0.7-1.9-1.6-3.7-2.6-5.4c-1-1.7-2.1-3.4-3.2-5.1
		c-1.1-1.7-2.2-3.3-3.4-5C7910.3,541.2,7909.2,539.6,7908,537.9L7908,537.9z"/>
	<path class="st0" d="M7909.9,548.8c0,0,5.5,6.9,6.9,11"/>
	<path class="st1" d="M7909.9,548.8c1,0.6,1.8,1.3,2.6,2.2c0.4,0.4,0.7,0.8,1.1,1.3c0.3,0.4,0.7,0.9,1,1.3c0.3,0.5,0.6,0.9,0.9,1.4
		c0.3,0.5,0.5,1,0.7,1.5c0.5,1.1,0.7,2.2,0.8,3.3l-0.1,0c-0.4-1-0.9-2-1.4-2.9c-0.5-0.9-1.1-1.9-1.7-2.8
		C7912.4,552.3,7911.1,550.6,7909.9,548.8L7909.9,548.8z"/>
	<path class="st1" d="M7925.4,596.1c0,0-2.5,8.1-0.4,9.3c0,0,3.2-5.3,3-9.3L7925.4,596.1z"/>
	<path class="st0" d="M7932.5,596.9l-25.5-3c0,0-2.3-0.5-2.4-4.2c0,0,0.2-8.1,3.9-5.3c0,0,2.1,2.1,4.5,1l-0.7-5.9
		c1.2,1.5,2.2,3.2,2.9,5c0,0.8,0.7,1.5,1.5,1.5l0,0c0,0,0.1,0,0.1,0c7.2,0.3,25.1,2,25.1,2"/>
	<path class="st1" d="M7932.5,597c-1.1,0-2.2,0-3.2-0.1c-1.1,0-2.2-0.1-3.2-0.1l-3.2-0.2l-1.6-0.1l-1.6-0.1
		c-2.1-0.2-4.3-0.4-6.4-0.7c-2.1-0.3-4.3-0.5-6.4-0.8l-0.1,0h0c-0.1,0-0.2-0.1-0.4-0.1c-0.1,0-0.2-0.1-0.3-0.1
		c-0.2-0.1-0.3-0.2-0.5-0.3c-0.3-0.2-0.6-0.5-0.8-0.8c-0.4-0.5-0.7-1.2-0.9-1.8c-0.1-0.6-0.2-1.3-0.2-1.9c0-0.3,0-0.6,0.1-0.9
		c0-0.3,0.1-0.6,0.1-0.9c0.1-1.2,0.5-2.4,1.1-3.5c0.2-0.3,0.4-0.6,0.7-0.8c0.3-0.3,0.7-0.4,1.1-0.5c0.7,0,1.4,0.2,1.9,0.7l0,0l0,0
		c0.3,0.3,0.6,0.5,0.9,0.7c0.3,0.2,0.7,0.4,1,0.5c0.7,0.2,1.5,0.2,2.2,0l-0.2,0.3l-0.7-5.9l-0.1-0.8l0.5,0.6
		c0.7,0.7,1.2,1.5,1.7,2.4c0.5,0.9,0.9,1.7,1.2,2.7l0,0v0.1c0,0.5,0.3,0.9,0.8,1.1c0.3,0.1,0.5,0.1,0.8,0.1l0.9,0
		c1.2,0.1,2.3,0.1,3.5,0.2c2.3,0.2,4.6,0.4,6.9,0.6c4.6,0.4,9.2,0.9,13.8,1.3l0,0.1c-4.6-0.4-9.2-0.9-13.8-1.2
		c-2.3-0.2-4.6-0.4-6.9-0.5c-1.1-0.1-2.3-0.1-3.4-0.2l-0.9,0c-0.3,0-0.6,0-0.9-0.1c-0.6-0.2-1-0.8-1-1.4v0c-0.3-0.9-0.7-1.8-1.2-2.6
		c-0.5-0.8-1-1.6-1.7-2.3l0.1-0.1l0.7,5.9v0l0,0c-0.8,0.3-1.6,0.4-2.4,0.1c-0.8-0.2-1.5-0.6-2.2-1.2h0c-0.4-0.4-1-0.6-1.5-0.5
		c-0.5,0.1-1,0.5-1.2,1c-0.5,1-0.8,2.1-0.9,3.2c-0.1,0.6-0.1,1.1-0.1,1.7c0,0.6,0.1,1.1,0.3,1.7c0.2,0.5,0.4,1,0.7,1.5
		c0.3,0.4,0.8,0.8,1.3,0.9h0c4.3,0.5,8.5,1,12.8,1.5l12.8,1.6L7932.5,597z"/>
	<path class="st0" d="M7924.9,605.4c0,0,14,4.4,23.3,1c8.6-3.1,14.5,0,23.4,2.1c11.3,3.1,30.6-14.8,39.9-33.5c2.2-4.4,1-6.9-0.8-8.2
		c-2.1-1.6-5-1.8-7.2-0.5c-8.9,4.9-23.9,20.8-29.9,24.5c0,0-29.8-3-43.8-4.4C7928.9,592.9,7927.3,599.3,7924.9,605.4z"/>
	<path class="st1" d="M7925,605.3c0,0,0.1,0,0.1,0l0.1,0l0.3,0.1l0.6,0.1l1.2,0.3c0.8,0.2,1.6,0.3,2.4,0.5c1.6,0.3,3.2,0.5,4.9,0.7
		c3.2,0.4,6.5,0.3,9.8-0.1c0.8-0.1,1.6-0.3,2.4-0.5c0.8-0.2,1.5-0.5,2.3-0.8c1.6-0.5,3.3-0.9,4.9-1c3.3-0.1,6.7,0.3,9.9,1.3l4.8,1.3
		c0.8,0.2,1.6,0.4,2.4,0.6c0.8,0.2,1.5,0.4,2.3,0.5c1.6,0.1,3.2,0,4.7-0.5c1.6-0.4,3.1-1,4.5-1.7c2.9-1.5,5.7-3.3,8.2-5.3
		c2.6-2.1,5-4.3,7.2-6.7c2.2-2.4,4.3-4.9,6.3-7.6c1.9-2.7,3.7-5.4,5.3-8.3c0.4-0.7,0.8-1.4,1.2-2.2c0.4-0.7,0.7-1.5,1-2.2
		c0.3-0.7,0.5-1.5,0.6-2.3c0.4-2.4-1.1-4.7-3.5-5.4c-1.5-0.5-3.1-0.4-4.5,0.2c-0.4,0.2-0.7,0.3-1,0.6c-0.4,0.2-0.7,0.4-1,0.6
		c-0.7,0.4-1.4,0.9-2,1.4c-1.3,1-2.6,2-3.9,3c-2.5,2.1-5,4.3-7.4,6.5l-7.3,6.6c-1.2,1.1-2.5,2.2-3.7,3.3c-1.3,1.1-2.6,2.1-4,3
		l-0.2,0.1l-0.2,0l-11-1.1c-3.7-0.4-7.3-0.7-11-1.1c-7.3-0.8-14.6-1.5-21.9-2.4l0.4-0.3c-0.2,1.6-0.5,3.2-0.8,4.8
		c-0.3,1.6-0.7,3.2-1.1,4.8c-0.4,1.6-0.9,3.1-1.4,4.7c-0.3,0.8-0.5,1.5-0.8,2.3C7925.6,603.9,7925.3,604.6,7925,605.3z
		 M7924.9,605.4c0.3-0.8,0.6-1.6,0.8-2.3s0.5-1.5,0.7-2.3c0.5-1.6,0.9-3.1,1.3-4.7c0.4-1.6,0.7-3.2,1-4.8c0.3-1.6,0.5-3.2,0.7-4.8
		l0-0.4l0.4,0c7.3,0.6,14.6,1.3,21.9,2c3.7,0.3,7.3,0.7,11,1.1l11,1.1l-0.4,0.1c1.3-0.9,2.6-1.9,3.9-2.9c1.3-1,2.5-2.1,3.7-3.2
		l7.4-6.6c2.5-2.2,5-4.3,7.5-6.4c1.3-1,2.6-2,4-3c0.7-0.5,1.4-0.9,2.1-1.4c0.4-0.2,0.7-0.4,1.1-0.6c0.4-0.2,0.8-0.4,1.1-0.6
		c1.6-0.7,3.4-0.7,5.1-0.1c0.8,0.3,1.6,0.8,2.2,1.3c0.6,0.6,1.1,1.3,1.4,2.2c0.3,0.8,0.3,1.7,0.2,2.6c-0.1,0.8-0.4,1.7-0.7,2.4
		c-0.3,0.8-0.7,1.5-1.1,2.2c-0.4,0.7-0.8,1.5-1.2,2.2c-1.6,2.9-3.4,5.6-5.4,8.3c-1.9,2.7-4,5.2-6.2,7.7c-2.2,2.4-4.6,4.8-7.1,6.9
		c-2.5,2.2-5.3,4-8.2,5.6c-1.5,0.8-3,1.4-4.7,1.9c-1.6,0.5-3.4,0.7-5.1,0.5c-0.8-0.1-1.7-0.3-2.5-0.5c-0.8-0.2-1.6-0.4-2.4-0.6
		l-4.7-1.3c-3.1-1-6.3-1.4-9.6-1.3c-1.6,0.1-3.2,0.4-4.7,0.9c-0.8,0.2-1.6,0.5-2.4,0.7c-0.8,0.2-1.6,0.4-2.5,0.5
		c-3.3,0.4-6.6,0.4-9.9-0.1c-1.6-0.2-3.3-0.5-4.9-0.9c-0.8-0.2-1.6-0.4-2.4-0.6l-1.2-0.3l-0.6-0.2l-0.3-0.1l-0.1,0
		C7925,605.5,7924.9,605.4,7924.9,605.4L7924.9,605.4z"/>
	<g>
		<defs>
			<path id="SVGID_3_" d="M7780.1,803.1L7641.4,645l82.9-68.9c0,0,81.6-3.2,83.5-3.2c1.9,0,72.1,51.8,72.1,51.8l-0.8,31.6
				l48.5,106.2l-12.9,40.9l0,0c13.7,1.6,21.9,3.6,21.9,5.8c0,4.9-40.7,9-90.9,9c-50.2,0-90.9-4-90.9-9
				C7754.8,806.9,7764.4,804.7,7780.1,803.1z"/>
		</defs>
		<clipPath id="SVGID_1_">
			<use xlink:href="#SVGID_3_"  style="overflow:visible;"/>
		</clipPath>
		<g class="st7">
			<path class="st0" d="M7836.8,706.8l-12.4-1.8l-22.5-19.6c-1.3-1.3-2.4-2.7-3.3-4.4c-0.3-0.8-3.3-5.3-3.9-4.7
				c-0.8,0.7,1,4.2,1.5,4.8c0,0-5.5-0.9-9-1.8c3.4,2,6.6,4.4,9.5,7.1c3.4,3.7,18.9,24,21.2,26.9c1.8,2.2,21.7,7,21.7,7"/>
			<path class="st1" d="M7836.7,706.8c-2.1-0.2-4.1-0.5-6.2-0.8l-6.2-0.8l-0.1,0l-0.1-0.1c-3-2.5-5.9-5.1-8.9-7.7
				c-2.9-2.6-5.9-5.2-8.8-7.8l-4.4-3.9c-0.7-0.7-1.4-1.4-2-2.2c-0.6-0.8-1.2-1.6-1.6-2.5c-0.2-0.4-0.4-0.9-0.7-1.3
				c-0.3-0.4-0.5-0.8-0.8-1.2c-0.3-0.4-0.6-0.8-0.9-1.2c-0.3-0.4-0.6-0.7-1-1c-0.1-0.1-0.2-0.1-0.3-0.1c-0.1,0-0.1,0-0.1,0.1
				c-0.1,0.2-0.1,0.4-0.1,0.6c0.1,0.5,0.2,0.9,0.4,1.4c0.3,0.9,0.8,1.8,1.3,2.6l0.3,0.4l-0.5-0.1c-1.6-0.3-3.2-0.5-4.8-0.8
				c-0.8-0.2-1.6-0.3-2.4-0.5l-1.2-0.3l-0.6-0.1h0c-0.2,0.4,0.2-0.6,0.2-0.5l0,0l0.1,0l0.1,0.1l0.3,0.2c2.9,1.6,5.5,3.6,8,5.8
				c1.2,1.1,2.3,2.4,3.3,3.6c1.1,1.2,2.1,2.5,3.1,3.8c2,2.5,4.1,5.1,6.1,7.7l6,7.8l3,3.9l0.7,1l0.2,0.2c0,0.1,0.1,0.1,0.2,0.2
				c0.1,0.1,0.3,0.2,0.4,0.3c0.7,0.4,1.4,0.7,2.1,1c1.5,0.6,3,1.1,4.6,1.6s3.1,1,4.7,1.5c3.1,0.9,6.3,1.8,9.4,2.7l0,0.1
				c-3.2-0.7-6.4-1.4-9.5-2.2c-3.2-0.8-6.3-1.7-9.4-2.8c-0.8-0.3-1.6-0.6-2.3-1c-0.2-0.1-0.4-0.2-0.6-0.4c-0.1-0.1-0.2-0.2-0.3-0.3
				l-0.2-0.2l-0.8-1c-1-1.3-2-2.6-3-3.9l-6-7.7c-2-2.6-4-5.2-6-7.7l-3-3.8c-1-1.3-2.1-2.5-3.2-3.6c-2.4-2.2-5-4.1-7.8-5.8l-0.3-0.2
				l-0.1-0.1l-0.1,0l0,0c-0.1,0.1,0.4-1,0.2-0.5h0l0.6,0.2l1.2,0.3c0.8,0.2,1.6,0.4,2.4,0.5c1.6,0.3,3.2,0.6,4.8,0.9l-0.2,0.3
				c-0.3-0.4-0.5-0.9-0.7-1.3c-0.2-0.4-0.4-0.9-0.6-1.4c-0.2-0.5-0.3-1-0.4-1.5c0-0.3,0-0.6,0.1-0.8c0-0.1,0.1-0.1,0.2-0.2
				c0.1,0,0.2,0,0.3,0c0.1,0,0.3,0.1,0.4,0.2c0.4,0.3,0.7,0.7,1.1,1.1c0.3,0.4,0.6,0.8,0.9,1.2s0.6,0.8,0.8,1.2
				c0.3,0.4,0.5,0.8,0.7,1.3c0.5,0.8,1,1.6,1.6,2.4c0.6,0.8,1.3,1.5,2,2.1l4.5,3.8c3,2.5,5.9,5.1,8.9,7.7c2.9,2.6,5.9,5.2,8.8,7.8
				l-0.2-0.1l6.2,1C7832.6,706,7834.7,706.4,7836.7,706.8L7836.7,706.8z"/>
			<path class="st1" d="M7810.4,680.7l-46.7-24.5c0.4,6.5-1.5,12.9-5.4,18.1l52.2,9.6L7810.4,680.7z"/>
			<ellipse class="st1" cx="7845.7" cy="809.3" rx="90.9" ry="9"/>
			<path class="st0" d="M7831,704.5c0,0-1.3,0.7-1.9,3.5l2.7-0.1L7831,704.5z"/>
			<path class="st1" d="M7831,704.5C7831,704.5,7831,704.6,7831,704.5L7831,704.5L7831,704.5l0,0.1l-0.1,0.1l-0.1,0.2
				c-0.1,0.1-0.1,0.3-0.2,0.4l-0.4,0.8c-0.1,0.3-0.3,0.6-0.5,0.8c-0.2,0.3-0.4,0.6-0.4,0.9l-0.2-0.2c0.5,0,0.9-0.1,1.4-0.2
				c0.4-0.1,0.9-0.2,1.4-0.2l-0.5,0.7c-0.1-0.2-0.2-0.5-0.2-0.7c0-0.3-0.1-0.5-0.1-0.8C7831,706,7831,705.3,7831,704.5z M7831,704.4
				c0.3,0.4,0.6,0.9,0.8,1.4c0.1,0.3,0.3,0.6,0.4,0.9c0.1,0.3,0.2,0.6,0.2,1l0.1,0.7l-0.7,0c-0.5,0-0.9-0.1-1.4-0.1
				c-0.4-0.1-0.9-0.2-1.4-0.2l-0.2,0l0-0.2c0.1-0.3,0.1-0.7,0.1-1c0-0.4,0.1-0.7,0.3-1c0.2-0.3,0.4-0.6,0.7-0.9
				c0.1-0.1,0.3-0.2,0.5-0.3c0.1,0,0.2-0.1,0.3-0.1c0,0,0.1,0,0.1,0l0.1,0L7831,704.4L7831,704.4C7831,704.4,7831,704.4,7831,704.4
				L7831,704.4z"/>
			
				<rect x="7819.3" y="682.6" transform="matrix(0.9352 -0.3541 0.3541 0.9352 233.5631 2819.407)" class="st1" width="2.1" height="177.9"/>
			
				<rect x="7862.6" y="682.6" transform="matrix(0.9352 -0.3541 0.3541 0.9352 236.3665 2834.7266)" class="st1" width="2.1" height="177.9"/>
			<rect x="7795.9" y="705.9" class="st1" width="42.9" height="2.1"/>
			<rect x="7804.1" y="728.2" class="st1" width="42.9" height="2.1"/>
			<rect x="7821.9" y="772.4" class="st1" width="42.9" height="2.1"/>
			<rect x="7830.5" y="795.4" class="st1" width="42.9" height="2.1"/>
			<rect x="7838.5" y="818.4" class="st1" width="42.9" height="2.1"/>
			<rect x="7848.4" y="841.4" class="st1" width="42.9" height="2.1"/>
			<path class="st0" d="M7811.1,677.4c0,0-2.1,7.2-1.1,12.7c0,0,0.8,4.8,5.4,2.5l1.3-1.4l2.6,8.6l13.6,0.5l-7.5-10.5
				c0,0-2.8-2.2-2.5-4.8c0,0,2.5-2.9,1.5-6.1c0,0-1.4-4.8-7.7-4.8C7816.7,674.1,7812.2,674.2,7811.1,677.4z"/>
			<path class="st1" d="M7811.1,677.4c-0.4,1.6-0.8,3.2-1,4.9c-0.2,1.6-0.3,3.3-0.2,5c0,0.4,0.1,0.8,0.1,1.2s0.1,0.8,0.2,1.2
				c0.1,0.8,0.4,1.5,0.9,2.1c0.4,0.6,1.1,0.9,1.9,1c0.8,0,1.5-0.2,2.2-0.5l-0.1,0.1l1.3-1.3l0.5-0.5l0.2,0.6l1.2,4.3
				c0.4,1.4,0.8,2.9,1.2,4.3l-0.2-0.1c2.3,0.1,4.5,0.2,6.8,0.2c2.3,0.1,4.5,0.1,6.8,0.1l-0.2,0.5c-1.3-1.7-2.6-3.5-3.9-5.2l-3.8-5.2
				l0.1,0.1c-0.4-0.3-0.7-0.7-1.1-1c-0.3-0.4-0.6-0.8-0.9-1.2c-0.3-0.4-0.5-0.9-0.6-1.4c-0.1-0.5-0.2-1-0.1-1.6l0-0.1l0.1-0.1
				c1.2-1.4,1.7-3.2,1.6-5c0-0.2-0.1-0.4-0.1-0.7c-0.1-0.2-0.1-0.4-0.2-0.6c-0.2-0.4-0.4-0.8-0.7-1.2c-0.5-0.7-1.2-1.4-2-1.9
				c-0.8-0.5-1.7-0.8-2.6-1l-0.7-0.1l-0.7-0.1l-0.4,0c-0.1,0-0.2,0-0.3,0c-0.2,0-0.5,0-0.7,0.1c-0.9,0.1-1.9,0.4-2.7,0.9
				C7812.1,675.8,7811.5,676.5,7811.1,677.4z M7811,677.4c0.3-0.9,1-1.7,1.8-2.2c0.8-0.5,1.8-0.9,2.7-1.1c0.2,0,0.5-0.1,0.7-0.1
				c0.1,0,0.2,0,0.4,0l0.4,0l0.7,0l0.7,0.1c1,0.1,2,0.4,2.8,0.9c0.9,0.5,1.7,1.1,2.3,1.9c0.3,0.4,0.6,0.8,0.8,1.3
				c0.1,0.2,0.2,0.5,0.3,0.7c0.4,1.3,0.4,2.6-0.1,3.8c-0.3,1-0.8,1.9-1.5,2.7l0.1-0.3c0,0.4,0,0.8,0.1,1.2c0.1,0.4,0.3,0.8,0.5,1.2
				c0.2,0.4,0.5,0.7,0.8,1.1c0.3,0.3,0.6,0.6,0.9,0.9l0.1,0l0,0l3.7,5.3c1.2,1.8,2.5,3.5,3.7,5.3l0.3,0.5l-0.6,0
				c-2.3-0.1-4.5-0.3-6.8-0.4c-2.3-0.1-4.5-0.2-6.8-0.2h-0.1l0-0.1c-0.4-1.4-0.9-2.9-1.4-4.3l-1.4-4.3l0.6,0.2l-1.3,1.4l-0.1,0.1
				l-0.1,0c-0.8,0.4-1.7,0.6-2.6,0.7c-1,0-1.9-0.5-2.4-1.3c-0.3-0.4-0.5-0.8-0.7-1.2c-0.1-0.2-0.1-0.4-0.2-0.6
				c0-0.1-0.1-0.2-0.1-0.3l0-0.3c-0.1-0.4-0.1-0.8-0.1-1.3c0-0.4,0-0.8,0-1.3c0-1.7,0.2-3.4,0.5-5c0.1-0.8,0.3-1.6,0.5-2.5
				C7810.6,679,7810.8,678.2,7811,677.4L7811,677.4z"/>
			<path class="st1" d="M7826.7,673.8c0,0,4,3.3,0.4,9.1c-0.5,0.9-0.8,1.9-0.8,2.9l0.2,5.1c-1.3-0.5-2.5-1.1-3.7-1.8
				c0,0-3.4-2.1-2.2-3.8c2-2.9,0.8-3.7,0.8-3.7c-1.1-1-2.8,0.2-2.8,0.2s-1.6,0.5-1.7-0.9c0,0,0-1.7-1.2-1.7c0,0-4.3,0.2-5.7-1.8
				c-0.9-1.9-1.4-3.9-1.3-6c0,0,6.1,0.9,8.7,0.4C7817.4,671.9,7823,670,7826.7,673.8z"/>
			<path class="st1" d="M7817.4,681.7c0,0-2.1,10.4-7.6,4.9c0,0-1.3,4.9,2.5,6.5c1.8,0.6,3.7-0.2,4.6-1.9l0.8-3.8l1.7-7.9"/>
			<path class="st1" d="M7904.1,854.8c1.9-10.4-7.9-17.1-12.6-25.1c-2.5-6.7-1.8-15-7.1-20.3c-3.8-3.1-6.7-7.2-8.3-11.9l0.5-27.9
				c-1.3-23.2-11.1-27.9-11.1-27.9l-24.4,1l11,57c0.3,1.8,0.9,3.5,1.6,5.2l20.3,49.5L7904.1,854.8z"/>
			<path class="st0" d="M7858.1,742c1,8.1,1.1,14.5-1.6,22.3c-2,5.9-4.1,8.7-8.8,13.2l-6.7-34.7L7858.1,742z"/>
			<path class="st1" d="M7854.6,825.5c-1.7-8.4-10.7-13.3-13.9-21.2c-0.9-2.2-1.3-4.6-2.2-6.9c-1.4-3.6-4.1-6.5-6.9-9.2
				c-1.6-1.5-3.5-3.3-3.4-5.5l15.5-7.9c0,0,17.6-7.7,16.8-19.1c0,0-0.7-7.3-2.9-10.4l-28.2,2.6l2.3,4.1l-25.3,19.2
				c-5.7,4.2-6.9,12.3-2.7,18l21.1,36.2L7854.6,825.5z"/>
			<path class="st0" d="M7869.6,742.5c0,0-16.7-39.6-37.6-46.9c0,0-6.2-3-14.9,5.4c0,0-5.9,6.8,0.5,21.1c0,0,8.8,15.2,11,25.3
				c1.1,5.2,9.9,0,17.3-0.7c5.1-0.5,10.3,0.5,15.4,0.5c3.3,0,6.9-0.2,9.2-2.4L7869.6,742.5z"/>
			<path class="st1" d="M7869.5,742.6c-2.1-4.7-4.4-9.2-7-13.7c-2.6-4.4-5.3-8.7-8.3-12.9c-2.9-4.2-6.3-8-9.9-11.6
				c-1.8-1.8-3.8-3.4-5.8-4.8c-2.1-1.5-4.3-2.6-6.7-3.5h0l0,0c-0.6-0.2-1.2-0.4-1.9-0.4c-0.7-0.1-1.3-0.1-2,0
				c-1.3,0.2-2.6,0.5-3.9,1.1c-2.5,1.1-4.8,2.7-6.7,4.6l0,0c-0.5,0.7-1,1.5-1.3,2.3c-0.3,0.8-0.6,1.7-0.8,2.6
				c-0.4,1.8-0.5,3.6-0.3,5.4c0.1,1.8,0.5,3.6,0.9,5.4c0.5,1.8,1.1,3.5,1.9,5.1l0,0c2.9,5.2,5.6,10.6,8,16.1c1.2,2.8,2.2,5.6,3,8.5
				c0.1,0.4,0.2,0.8,0.3,1.1c0.1,0.3,0.2,0.6,0.4,0.9c0.4,0.5,1.1,0.8,1.7,0.8c1.4,0,2.9-0.1,4.3-0.6c2.9-0.7,5.7-1.6,8.7-2.1
				c3-0.4,6-0.4,9-0.1c3,0.3,6,0.6,8.9,0.6c1.5,0,3-0.1,4.4-0.4c1.5-0.3,2.8-1,3.9-1.9l0,0.1L7869.5,742.6z M7869.6,742.5l1,2.2l0,0
				l0,0c-1.1,1-2.5,1.7-4,2c-1.5,0.3-3,0.5-4.5,0.5c-3,0.1-6-0.2-9-0.3c-3-0.2-5.9-0.1-8.9,0.3c-2.9,0.5-5.7,1.5-8.7,2.2
				c-0.7,0.2-1.5,0.3-2.2,0.5c-0.8,0.1-1.6,0.2-2.3,0.1c-0.4,0-0.8-0.1-1.2-0.3c-0.4-0.2-0.8-0.4-1-0.8c-0.3-0.3-0.5-0.7-0.6-1.1
				c-0.1-0.4-0.2-0.7-0.3-1.1c-0.7-2.9-1.6-5.7-2.8-8.5c-1.1-2.8-2.3-5.5-3.6-8.2c-1.3-2.7-2.7-5.3-4.2-7.9v0
				c-0.8-1.7-1.4-3.4-1.9-5.2c-0.5-1.8-0.9-3.6-1.1-5.4c-0.2-1.9-0.1-3.7,0.2-5.5c0.2-0.9,0.4-1.8,0.8-2.7c0.3-0.9,0.8-1.7,1.4-2.5
				v0l0,0c2-2,4.3-3.7,6.9-4.9c1.3-0.6,2.7-1,4.1-1.2c0.7-0.1,1.4-0.1,2.2,0c0.7,0.1,1.5,0.2,2.2,0.5l0,0c2.4,0.9,4.8,2.1,6.9,3.6
				c2.1,1.5,4.1,3.1,6,4.9c3.7,3.6,7,7.6,9.9,11.8c2.9,4.2,5.6,8.6,8,13.2c1.2,2.3,2.4,4.5,3.5,6.8S7868.6,740.2,7869.6,742.5
				L7869.6,742.5z"/>
			<path class="st1" d="M7808.4,729.9c0.9,1.5,2.2,2.8,3.8,3.6l1.4-2.6L7808.4,729.9z"/>
			<path class="st0" d="M7814.4,727.1l-3.9,8.2l-11.1-18.2l-2.7-7.4c0-0.1-0.1-0.1-0.2-0.1c-0.1,0-0.1,0.1-0.1,0.1l-0.4,3.8l0,0
				c-1,2.2-1.1,4.7-0.5,7c2.6,9.2,10,32.9,17.9,32.8c5.2,0,12.9-22,12.9-22"/>
			<path class="st1" d="M7814.4,727.1c-0.6,1.4-1.2,2.8-1.8,4.2c-0.6,1.4-1.2,2.8-1.9,4.1l-0.2,0.5l-0.3-0.4c-1-1.5-1.9-3-2.9-4.5
				l-2.8-4.5l-2.8-4.5c-0.9-1.5-1.8-3-2.7-4.6l0,0l0,0l-1.7-5l-0.9-2.5c0,0,0.1,0,0.1,0c0-0.1,0,0.1,0,0.2l-0.1,0.7l-0.1,1.3
				l-0.1,1.3l0,0.3c0,0.1,0,0,0,0.1l0,0l0,0l0,0.1l-0.1,0.1c-0.1,0.2-0.2,0.4-0.2,0.6c-0.3,0.8-0.4,1.7-0.5,2.5
				c-0.1,0.9,0,1.7,0.2,2.6c0.2,0.8,0.5,1.7,0.7,2.5c1,3.3,2.1,6.7,3.4,9.9c1.2,3.3,2.5,6.5,4,9.7c0.8,1.6,1.6,3.1,2.5,4.6
				c0.9,1.5,1.9,2.9,3.1,4.1c0.3,0.3,0.6,0.6,0.9,0.9c0.2,0.1,0.3,0.3,0.5,0.4c0.1,0.1,0.2,0.1,0.2,0.2l0.3,0.2
				c0.7,0.5,1.4,0.7,2.2,0.8c0.8,0,1.5-0.4,2-0.9c0.6-0.6,1.2-1.2,1.7-1.9c2-2.9,3.7-5.9,5.1-9.1c1.5-3.2,2.9-6.4,4.2-9.6l0.1,0
				c-1.1,3.3-2.3,6.6-3.7,9.9c-0.7,1.6-1.4,3.2-2.2,4.8c-0.8,1.6-1.7,3.1-2.7,4.6c-0.5,0.7-1.1,1.4-1.8,2.1
				c-0.3,0.3-0.7,0.6-1.2,0.8c-0.2,0.1-0.5,0.2-0.7,0.3c-0.3,0.1-0.5,0.1-0.8,0.1c-1,0-1.9-0.3-2.7-0.9c-0.2-0.1-0.4-0.2-0.6-0.4
				c-0.2-0.1-0.4-0.3-0.5-0.4c-0.3-0.3-0.7-0.6-1-0.9c-1.2-1.3-2.3-2.8-3.2-4.3c-0.9-1.5-1.7-3.1-2.4-4.7c-2.8-6.4-5.2-13.1-7-19.9
				c-0.2-0.8-0.5-1.7-0.7-2.6c-0.2-0.9-0.2-1.8-0.1-2.7c0.1-0.9,0.2-1.8,0.5-2.6c0.1-0.2,0.1-0.4,0.2-0.6l0.1-0.2l0-0.1l0,0l0,0
				c0,0,0-0.1,0,0l0-0.3l0.1-1.3l0.1-1.3l0.1-0.7l0-0.2c0-0.1,0-0.2,0.1-0.3c0.1-0.1,0.2-0.1,0.3-0.1c0.1,0,0.2,0.1,0.3,0.2l1,2.5
				l1.9,4.9l0-0.1c1,1.5,1.9,3,2.8,4.5l2.8,4.5l2.8,4.6c0.9,1.5,1.8,3.1,2.7,4.6l-0.5,0c0.7-1.4,1.3-2.7,2-4.1
				C7812.9,729.7,7813.6,728.4,7814.4,727.1L7814.4,727.1z"/>
			<path class="st0" d="M7814,715.7c-1.8,4.5-3.4,5-4.9,7.3c-1.8,2.8-1.4,4.6-0.2,6.7c0,0,10.4,2.4,16.2,7.2c0,0,1.2-3.4,2.7-7.9
				c0.9-2.7,10.5-18.6,4.5-24.9c-1.9-2.1-4.9-2.8-7.5-1.6c-1.8,0.8-3.3,2.1-4.2,3.9C7818.4,710.6,7815.9,710.9,7814,715.7z"/>
			<path class="st1" d="M7814,715.7c-0.5,1.3-1.1,2.5-1.8,3.6c-0.4,0.6-0.8,1.1-1.2,1.6c-0.4,0.5-0.9,1-1.3,1.5
				c-0.8,1-1.3,2.2-1.5,3.5c-0.1,0.6,0,1.2,0.2,1.8c0.2,0.6,0.5,1.2,0.8,1.7l-0.3-0.2c0.7,0.2,1.5,0.4,2.2,0.6
				c0.7,0.2,1.4,0.4,2.1,0.7c1.4,0.5,2.8,1.1,4.2,1.7c1.4,0.6,2.7,1.3,4,2c0.6,0.4,1.3,0.8,1.9,1.2c0.6,0.4,1.2,0.9,1.8,1.3
				l-0.2,0.1c0.8-2.4,1.6-4.8,2.4-7.2l0.3-0.9c0.1-0.3,0.2-0.6,0.4-0.9l0.8-1.7c0.5-1.1,1-2.3,1.5-3.4c1-2.3,1.9-4.6,2.6-7
				c0.7-2.3,1-4.8,0.8-7.3c-0.1-1.2-0.5-2.3-1.2-3.3c-0.2-0.2-0.4-0.5-0.6-0.7c-0.2-0.2-0.4-0.4-0.6-0.6c-0.5-0.4-1-0.7-1.5-0.9
				c-1.1-0.5-2.3-0.7-3.4-0.5c-1.2,0.2-2.3,0.7-3.3,1.4c-1,0.7-1.8,1.7-2.4,2.8c-0.6,1.1-1.4,2.2-2.2,3.1c-0.9,0.9-1.8,1.8-2.6,2.8
				C7815.1,713.4,7814.5,714.5,7814,715.7z M7813.9,715.7c0.5-1.2,1.1-2.3,1.8-3.3c0.7-1,1.7-1.9,2.5-2.9c0.8-0.9,1.5-2,2.1-3.1
				c0.6-1.2,1.4-2.2,2.4-3c1-0.8,2.2-1.4,3.5-1.7c1.3-0.3,2.7-0.1,4,0.4c0.6,0.3,1.2,0.6,1.7,1c0.3,0.2,0.5,0.4,0.7,0.7
				c0.2,0.2,0.4,0.5,0.6,0.8c0.8,1.1,1.2,2.4,1.4,3.7c0.1,1.3,0.1,2.6-0.1,3.9c-0.2,1.3-0.5,2.5-0.8,3.7c-0.7,2.4-1.7,4.8-2.8,7.1
				c-0.5,1.1-1.1,2.3-1.7,3.4l-0.9,1.7c-0.1,0.3-0.3,0.6-0.4,0.8c-0.1,0.3-0.2,0.6-0.3,0.9c-0.9,2.4-1.7,4.7-2.5,7.1l-0.1,0.2
				l-0.2-0.1c-2.3-1.8-4.9-3.3-7.7-4.3c-1.4-0.5-2.8-1-4.2-1.4s-2.8-0.8-4.3-1.2l-0.2,0l-0.1-0.2c-0.3-0.6-0.6-1.3-0.8-1.9
				c-0.2-0.7-0.2-1.4-0.1-2.1c0.3-1.4,0.9-2.6,1.9-3.7c0.9-1.1,1.9-1.9,2.7-3C7812.8,718.1,7813.4,716.9,7813.9,715.7L7813.9,715.7z
				"/>
			
				<ellipse transform="matrix(0.2478 -0.9688 0.9688 0.2478 5193.0151 8018.8564)" class="st0" cx="7760.7" cy="665.1" rx="9.1" ry="3.8"/>
			<path class="st1" d="M7764.3,666c0.2-0.9,0.4-1.7,0.4-2.6c0.1-0.9,0-1.7,0-2.6c-0.1-0.8-0.2-1.7-0.5-2.5
				c-0.1-0.2-0.1-0.4-0.2-0.6c0-0.1-0.1-0.2-0.1-0.3l-0.2-0.2c-0.2-0.3-0.5-0.5-0.8-0.6c-0.4-0.1-0.7-0.1-1.1,0.1l-0.3,0.1
				c-0.1,0-0.2,0.1-0.3,0.2c-0.2,0.1-0.3,0.2-0.5,0.4c-0.7,0.6-1.2,1.2-1.7,2c-0.4,0.8-0.8,1.5-1.1,2.4c-0.3,0.8-0.5,1.7-0.7,2.5
				c-0.4,1.7-0.5,3.4-0.4,5.2c0,0.8,0.2,1.7,0.4,2.5c0.1,0.2,0.1,0.4,0.2,0.5c0,0.1,0.1,0.2,0.1,0.3l0.2,0.2
				c0.2,0.3,0.5,0.5,0.8,0.6c0.3,0.1,0.7,0,1-0.1l0.3-0.1c0.1,0,0.2-0.1,0.2-0.2c0.2-0.1,0.3-0.2,0.5-0.4c0.6-0.6,1.2-1.2,1.6-1.9
				C7763.2,669.3,7763.9,667.7,7764.3,666L7764.3,666z M7764.4,666c-0.4,1.7-1,3.4-1.7,5c-0.4,0.8-0.9,1.6-1.6,2.3
				c-0.3,0.4-0.7,0.6-1.2,0.9c-1,0.6-2.3,0.2-2.9-0.7c-0.3-0.4-0.5-0.9-0.6-1.3c-0.3-0.9-0.4-1.8-0.4-2.7c0-1.8,0.3-3.6,0.8-5.3
				c0.5-1.7,1.2-3.4,2.1-4.9c0.4-0.8,1-1.5,1.6-2.2c0.2-0.2,0.3-0.3,0.5-0.5c0.1-0.1,0.2-0.1,0.3-0.2l0.3-0.2c0.5-0.3,1-0.3,1.5-0.2
				c0.5,0.1,1,0.5,1.3,0.9c0.3,0.4,0.5,0.8,0.6,1.3c0.3,0.9,0.4,1.8,0.3,2.7C7765.2,662.5,7764.9,664.3,7764.4,666L7764.4,666z"/>
			
				<ellipse transform="matrix(0.2478 -0.9688 0.9688 0.2478 5192.7627 8017.8252)" class="st0" cx="7759.9" cy="664.7" rx="8.3" ry="2.9"/>
			<path class="st1" d="M7762.7,665.4c0.4-1.5,0.5-3,0.4-4.6c0-0.7-0.1-1.5-0.3-2.2c-0.1-0.3-0.2-0.7-0.4-1
				c-0.1-0.3-0.3-0.5-0.6-0.6c-0.3-0.1-0.6,0-0.8,0.2c-0.3,0.2-0.6,0.4-0.8,0.7c-0.5,0.5-1,1.2-1.3,1.8c-0.7,1.4-1.2,2.8-1.5,4.3
				c-0.3,1.5-0.4,3-0.5,4.5c0,0.7,0.1,1.5,0.2,2.2c0.1,0.3,0.2,0.6,0.4,0.9c0.1,0.2,0.3,0.4,0.5,0.5c0.3,0,0.5,0,0.7-0.2
				c0.3-0.2,0.6-0.4,0.8-0.7c0.5-0.6,1-1.1,1.4-1.8C7761.7,668.4,7762.3,666.9,7762.7,665.4z M7762.8,665.5c-0.4,1.5-0.8,3-1.4,4.5
				c-0.3,0.8-0.7,1.5-1.2,2.1c-0.3,0.3-0.6,0.6-1,0.9c-0.4,0.3-1,0.4-1.5,0.3c-0.1,0-0.3-0.1-0.4-0.2c-0.1-0.1-0.2-0.2-0.3-0.2
				c-0.2-0.2-0.3-0.4-0.4-0.6c-0.2-0.4-0.4-0.8-0.4-1.2c-0.1-0.8-0.2-1.6-0.2-2.4c0.1-1.6,0.4-3.1,0.9-4.7c0.5-1.5,1.1-3,1.7-4.4
				c0.3-0.7,0.8-1.4,1.2-2c0.3-0.3,0.6-0.6,0.9-0.9c0.4-0.3,0.9-0.4,1.4-0.3c0.5,0.1,0.9,0.5,1.1,0.9c0.2,0.4,0.4,0.8,0.4,1.2
				c0.2,0.8,0.2,1.6,0.1,2.4C7763.5,662.4,7763.2,663.9,7762.8,665.5L7762.8,665.5z"/>
			<path class="st0" d="M7768,674.4c0.5-1,0.9-2,1.3-3c0.4-1,0.7-2,0.9-3c0.3-1,0.5-2.1,0.7-3.1c0.2-1.1,0.3-2.1,0.4-3.2
				c0.3,1.1,0.4,2.2,0.4,3.3c0,1.1-0.2,2.2-0.5,3.3c-0.3,1.1-0.7,2.1-1.2,3.1C7769.4,672.8,7768.8,673.7,7768,674.4z"/>
			<path class="st0" d="M7777.9,677.3c0.8-1.6,1.5-3.4,1.9-5.1c0.5-1.8,0.8-3.6,0.8-5.4c0.3,0.9,0.5,1.9,0.4,2.8
				c0,1.9-0.5,3.8-1.4,5.5C7779.3,675.9,7778.7,676.7,7777.9,677.3z"/>
			<path class="st0" d="M7789.3,678.5c0.1-0.6,0.2-1.1,0.3-1.6c0.1-0.5,0.3-1,0.4-1.5c0.1-0.5,0.3-1,0.5-1.5c0.2-0.5,0.4-1,0.6-1.5
				c0.1,0.5,0.2,1.1,0.1,1.7c0,0.6-0.1,1.1-0.3,1.6c-0.2,0.5-0.4,1-0.6,1.5C7790.1,677.7,7789.7,678.2,7789.3,678.5z"/>
		</g>
	</g>
</g>
</svg>
