<?xml version="1.0" encoding="utf-8"?>
<!-- Generator: Adobe Illustrator 21.0.0, SVG Export Plug-In . SVG Version: 6.00 Build 0)  -->
<svg version="1.1" id="Layer_1" xmlns="http://www.w3.org/2000/svg" xmlns:xlink="http://www.w3.org/1999/xlink" x="0px" y="0px"
	 viewBox="0 0 400 248" style="enable-background:new 0 0 400 248;" xml:space="preserve">
<style type="text/css">
	.st0{fill:#FFFFFF;}
	.st1{opacity:0.3;}
	.st2{fill:none;}
	.st3{fill:#F5A623;}
	.st4{fill:#4284F3;}
	.st5{fill:#5E87FC;}
	.st6{fill:#1D1D1B;}
</style>
<g transform="translate(-315.92 -2747.577)">
	<g transform="translate(532.977 2747.577)">
		<path class="st0" d="M7.1,0L5.9,109.4l175.4,17.2l1.2-121.2L7.1,0z"/>
		<path d="M7.1,0.1L6.8,54.8L6.6,82.1l-0.2,27.3L6,109l43.8,4.3l43.8,4.5l21.9,2.2l21.9,2.2l43.8,4.2l-0.3,0.2l0.4-60.6L182,5.4
			l0.5,0.5l-43.7-1.4L94.9,3.1L7.1,0.1z M7.1,0l87.6,2.3l43.9,1.2l43.9,1.3l0.5,0l0,0.5L182.3,66l-0.8,60.6v0.3l-0.3,0l-43.8-4.4
			l-21.9-2.1l-21.9-2.1L49.7,114l-43.8-4.3l-0.4,0v-0.4L5.9,82l0.4-27.4L7.1,0z"/>
		<g transform="translate(126.708 23.466)" class="st1">
			<line class="st2" x1="9.4" y1="0.6" x2="9.4" y2="85.9"/>
			<path d="M9.4,0.6c0.2,3.6,0.3,7.1,0.4,10.7s0.1,7.1,0,10.7l-0.2,5.3c-0.1,1.8-0.1,3.6-0.1,5.3c0,3.6,0,7.1,0.1,10.7
				c0.1,3.6,0.2,7.1,0.2,10.7c0,3.6,0.1,7.1,0.1,10.7c0,7.1-0.2,14.2-0.5,21.3H9.3c-0.4-7.1-0.5-14.2-0.5-21.3c0-3.6,0-7.1,0.1-10.7
				c0-3.6,0.1-7.1,0.2-10.7c0.1-3.6,0.2-7.1,0.1-10.7c0-1.8-0.1-3.6-0.1-5.3L8.9,22c-0.1-3.6,0-7.1,0-10.7S9.1,4.2,9.3,0.6H9.4z"/>
		</g>
		<g transform="translate(43.302 18.27)" class="st1">
			<line class="st2" x1="7.2" y1="0.5" x2="7.2" y2="85.8"/>
			<path d="M7.3,0.5C7.5,4,7.6,7.6,7.7,11.2c0.1,3.6,0.1,7.1,0,10.7l-0.2,5.3c-0.1,1.8-0.1,3.6-0.1,5.3c0,3.6,0,7.1,0.1,10.7
				c0.1,3.6,0.2,7.1,0.2,10.7c0,3.6,0.1,7.1,0.1,10.7c0,7.1-0.2,14.2-0.5,21.3H7.2c-0.4-7.1-0.5-14.2-0.5-21.3c0-3.6,0-7.1,0.1-10.7
				c0-3.6,0.1-7.1,0.2-10.7C7,39.6,7.1,36,7.1,32.5c0-1.8-0.1-3.6-0.1-5.3l-0.2-5.3c-0.1-3.6,0-7.1,0-10.7S7,4,7.2,0.5H7.3z"/>
		</g>
		<g transform="translate(82.073 21.004)" class="st1">
			<line class="st2" x1="8.2" y1="0.6" x2="8.2" y2="85.8"/>
			<path d="M8.3,0.6c0.2,3.6,0.3,7.1,0.4,10.7s0.1,7.1,0,10.7l-0.2,5.3c-0.1,1.8-0.1,3.6-0.1,5.3c0,3.6,0,7.1,0.1,10.7
				c0.1,3.6,0.2,7.1,0.2,10.7c0,3.6,0.1,7.1,0.1,10.7c0,7.1-0.2,14.2-0.5,21.3H8.2c-0.4-7.1-0.5-14.2-0.5-21.3c0-3.6,0-7.1,0.1-10.7
				c0-3.6,0.1-7.1,0.2-10.7C8,39.7,8.1,36.1,8,32.5C8,30.8,8,29,7.9,27.2l-0.2-5.3c-0.1-3.6,0-7.1,0-10.7S8,4.1,8.2,0.6H8.3z"/>
		</g>
		<g transform="translate(0.232 106.458)">
			<path class="st0" d="M5.7,2.9l175.4,17.2v5.3L5.7,8.8V2.9z"/>
			<path d="M5.7,2.9l43.7,4L71.3,9l11,1l11,1.1l11,1.1l11,1.1l22,2.3l21.9,2.2l21.9,2.1l0.2,0v0.2l0.1,5.3v0.3l-0.3,0l-43.9-4
				l-21.9-2l-21.9-2.1c-14.6-1.4-29.2-2.8-43.8-4.2C34.9,11.9,20.3,10.4,5.7,9l-0.2,0V8.8L5.7,2.9z M5.7,2.9l0.1,5.8L5.7,8.6
				c14.6,1.3,29.2,2.6,43.9,3.9c14.6,1.3,29.2,2.7,43.8,4.1l21.9,2.1l21.9,2.1l43.8,4.3l-0.3,0.2l0.1-5.3l0.2,0.2l-21.9-2.2
				L137.2,16l-21.9-2l-10.9-1l-10.9-1.1l-10.9-1.1L71.6,9.7L49.7,7.5L5.7,2.9z"/>
		</g>
		<path d="M92.6,124.5l2.9,121.6h-5.8L92.6,124.5z"/>
		<path d="M92.6,205.8l-29.3,40.5l-4.5-3.7L92.6,205.8z"/>
		<path d="M92.6,205.8l36.9,38.4l-4.4,3.8L92.6,205.8z"/>
		<rect x="60.3" y="24.4" transform="matrix(0.9402 -0.3407 0.3407 0.9402 -6.2986 25.1726)" width="16.4" height="12.2"/>
		<g transform="translate(60.328 30.363)">
			<rect x="7.7" y="2.5" transform="matrix(0.1471 -0.9891 0.9891 0.1471 3.7407 22.2583)" class="st3" width="14.2" height="13"/>
			<path d="M20.2,17c-2.1-0.2-4.2-0.5-6.4-0.8c-2.2-0.3-4.3-0.6-6.5-0.9l-0.2,0l0-0.2c0.4-2.3,0.8-4.7,1.2-7
				c0.2-1.2,0.4-2.3,0.5-3.5C9,3.3,9.1,2.1,9.3,0.9l0-0.1l0.1,0c2.1,0.3,4.3,0.6,6.4,0.9C18,2,20.2,2.3,22.3,2.6l0.3,0l0,0.3
				c-0.4,2.4-0.7,4.7-1.1,7.1l-0.6,3.5L20.2,17z M20.1,16.9L21,9.8c0.3-2.3,0.6-4.7,1-7l0.2,0.3c-2.1-0.3-4.3-0.7-6.4-1
				s-4.3-0.7-6.4-1.1L9.5,1C9.3,2.2,9.1,3.3,9,4.5C8.8,5.7,8.6,6.8,8.4,8c-0.3,2.3-0.6,4.7-0.9,7l-0.2-0.2c2.1,0.3,4.2,0.6,6.4,1
				C15.8,16.2,18,16.5,20.1,16.9L20.1,16.9z"/>
		</g>
		<g transform="translate(138.781 83.109)">
			<path class="st0" d="M25.9,16.4L9.4,15V2.5l16.4,1.4V16.4z"/>
			<path d="M25.9,16.5c-2.6-0.1-5.3-0.2-8.1-0.3c-1.4-0.1-2.8-0.2-4.2-0.3c-1.4-0.1-2.8-0.3-4.2-0.4l-0.3,0l0-0.3
				c0.1-2.1,0.2-4.2,0.2-6.2s0-4.2-0.1-6.2l0-0.3l0.3,0l4.1,0.2l4.1,0.3c1.4,0.1,2.7,0.2,4.1,0.3c1.4,0.1,2.7,0.2,4.1,0.4l0.5,0
				l0,0.5c0,2.1-0.1,4.3-0.2,6.4L26,13.4L25.9,16.5z M25.8,16.4L25.5,10C25.4,8,25.4,6,25.3,3.9l0.5,0.5c-1.4-0.1-2.7-0.2-4.1-0.3
				C20.3,4,19,3.9,17.6,3.7l-4.1-0.4L9.4,2.8l0.3-0.3C9.6,4.6,9.6,6.7,9.6,8.8s0.1,4.2,0.2,6.2l-0.3-0.3c1.4,0.1,2.7,0.1,4,0.2
				s2.7,0.3,4,0.4C20.2,15.6,22.9,16,25.8,16.4L25.8,16.4z"/>
		</g>
		<path class="st3" d="M164.6,46.5l-16.4-1.4V32.6l16.4,1.4V46.5z"/>
	</g>
	<g transform="translate(425.119 2852.564)">
		<g transform="translate(39.579 21.362)">
			<g transform="translate(74.519 0.011)">
				<path d="M13.6,3.4c0,0,5.9,21-7.6,34.1L13.6,3.4z"/>
				<path d="M13.6,3.4C13.6,3.4,13.6,3.4,13.6,3.4L13.6,3.4L13.6,3.4l0.1,0.2l0,0.1L13.8,4l0.1,0.6c0.1,0.4,0.2,0.7,0.3,1.1
					c0.2,0.7,0.3,1.5,0.4,2.3c0.2,1.5,0.4,3,0.5,4.6c0.1,1.5,0.1,3.1,0,4.6c-0.1,1.5-0.3,3-0.6,4.5c-0.6,3-1.6,5.9-3,8.6
					C10,33,8.2,35.4,6,37.6L5.7,38l0.1-0.5c0.6-2.9,1.2-5.7,1.8-8.6l1-4.3l1-4.3L13.6,3.4z M13.6,3.5L9.9,20.7L9,24.9l-0.9,4.2
					c-0.6,2.8-1.3,5.6-2,8.4l-0.2-0.1c2.2-2.1,4.1-4.5,5.4-7.2c1.3-2.7,2.3-5.6,2.7-8.6c0.3-1.5,0.4-3,0.5-4.5
					c0.1-1.5,0.1-3,0.1-4.5C14.5,9.4,14.2,6.4,13.6,3.5L13.6,3.5z"/>
			</g>
			<g transform="translate(44.875 33.198)">
				<path class="st4" d="M16.8,4.7l-2.6,9.4h-9l3.1-9.4H16.8z"/>
				<path d="M16.8,4.7L16.3,7c-0.2,0.8-0.3,1.6-0.5,2.4c-0.2,0.8-0.4,1.6-0.6,2.4c-0.2,0.8-0.4,1.6-0.7,2.4l-0.1,0.2l-0.2,0
					c-1.5-0.1-3-0.2-4.5-0.2s-3,0-4.5,0.1l-0.3,0L5,14.1c0.4-1.6,0.9-3.2,1.4-4.8c0.5-1.6,1-3.2,1.5-4.7l0.1-0.3h0.3
					c1.5,0,2.9,0.1,4.4,0.1L16.8,4.7z M16.8,4.7L12.4,5C11,5.1,9.7,5.1,8.3,5.1l0.4-0.3C8.2,6.4,7.7,8,7.1,9.6S6,12.7,5.4,14.2
					l-0.2-0.3C6.7,14,8.2,14,9.7,14s3-0.1,4.5-0.2l-0.3,0.2c0.2-0.8,0.4-1.5,0.6-2.3c0.2-0.8,0.5-1.5,0.7-2.3
					c0.2-0.8,0.5-1.5,0.8-2.3L16.8,4.7z"/>
			</g>
			<path d="M3.8,47.6c3.7-0.2,7.3-0.3,11-0.3c3.7-0.1,7.3-0.1,11,0l5.5,0.1c1.8,0.1,3.7,0.1,5.5,0.1c3.7,0,7.3,0,11-0.1
				s7.3-0.2,11-0.2c3.7,0,7.3-0.1,11-0.1c7.3,0.1,14.7,0.2,22,0.5v0.1c-7.3,0.3-14.7,0.4-22,0.5c-3.7,0-7.3,0-11-0.1
				s-7.3-0.1-11-0.2c-3.7-0.1-7.3-0.2-11-0.1c-1.8,0-3.7,0.1-5.5,0.1L25.8,48c-3.7,0.1-7.3,0-11,0c-3.7-0.1-7.3-0.2-11-0.3V47.6z"/>
			<g transform="translate(26.564)">
				<path class="st5" d="M53.6,37.9L5.4,37.4L15.3,5l45.6-1L53.6,37.9z"/>
				<path d="M53.7,38l-12,0.1c-4,0-8,0.1-12,0.1l-12.1,0c-4,0-8.1,0-12.2,0l-0.9,0l0.3-0.9l9.8-32.5l0.2-0.6l0.6,0l22.8-0.4
					l11.4-0.2l11.4-0.1l0.7,0l-0.2,0.7l-1.9,8.5l-1,4.3l-1,4.2L53.7,38z M53.6,37.9L60.8,4L60.9,4L15.3,5.1L15.4,5L5.5,37.5
					l-0.1-0.1L53.6,37.9z"/>
			</g>
			<path d="M61.9,47.3l1.4-9.4h-1.6l-2.6,9.4H61.9z"/>
			<g transform="translate(30.114 2.124)">
				<path class="st0" d="M4.6,33.3l8.7-28.4l41.5-0.9l-6.4,29.8L4.6,33.3z"/>
				<path d="M4.6,33.3l4.2-14.2l1-3.6l1.1-3.6L13,4.8l0.1-0.2l0.2,0l41.5-1.1l0.6,0L55.3,4c-0.5,2.5-1.1,5-1.6,7.5L52,18.9
					l-3.2,14.9l-0.1,0.3h-0.3l-22-0.3L4.6,33.3z M4.6,33.3l43.9,0.4l0,0l6.4-29.8L54.8,4L13.3,4.9l0,0L4.6,33.3z"/>
			</g>
			<g transform="translate(40.033 7.852)">
				<path class="st3" d="M6.2,17.3c0.8,0,1.7,0,2.5,0s1.7,0,2.5,0s1.7,0,2.5,0.1s1.7,0.1,2.5,0.1l-0.4,0.1c0.7-0.5,1.3-0.9,2-1.4
					l2-1.3l2-1.3c0.7-0.4,1.3-0.9,2-1.3l-0.1,0.1c0.6-0.6,1.3-1.2,1.9-1.8c0.7-0.6,1.3-1.2,2-1.8l1-0.9l1-0.9
					c0.7-0.6,1.3-1.2,2.1-1.7l0.1,0.1L24.4,13l0,0h0c-2.7,1.8-5.4,3.5-8,5.3l0,0h0L6.2,17.3L6.2,17.3z"/>
				<ellipse class="st3" cx="6.2" cy="17" rx="1.4" ry="1.4"/>
				<ellipse class="st3" cx="16.3" cy="17.8" rx="1.4" ry="1.4"/>
				<ellipse class="st3" cx="24.3" cy="12.6" rx="1.4" ry="1.4"/>
				<ellipse class="st3" cx="31.8" cy="5" rx="1.4" ry="1.4"/>
			</g>
		</g>
		<g transform="translate(0 0)">
			<g transform="translate(17.029 66.316)">
				<g transform="translate(71.732 52.552)">
					<path class="st0" d="M11.4,6.1c0,0,7.6,8.9,15.6,11.9c0,0,5,1.6,5,4.1l-16.3-0.3c0,0-5.1-7.3-10.4-11.5L11.4,6.1z"/>
					<path d="M11.4,6.1l1.2,1.2C13,7.6,13.4,8,13.8,8.4c0.8,0.8,1.6,1.5,2.5,2.2c1.7,1.4,3.4,2.8,5.2,4c1.8,1.2,3.7,2.2,5.8,3
						c1.1,0.4,2.1,0.9,3,1.5c0.5,0.3,0.9,0.7,1.3,1.2c0.4,0.5,0.6,1,0.6,1.7v0c0,0.1-0.1,0.2-0.2,0.2l0,0c-1.4-0.1-2.7-0.1-4.1-0.1
						c-1.4,0-2.7,0-4.1,0c-1.4,0-2.7,0-4.1,0.1l-4.1,0c-0.1,0-0.2-0.1-0.3-0.2l0,0c-0.8-1-1.6-2.1-2.4-3.1s-1.6-2-2.5-3
						S8.9,14.1,8,13.1c-0.9-0.9-1.9-1.8-2.8-2.6l0,0c-0.1-0.1-0.1-0.3,0-0.4c0,0,0,0,0.1-0.1L8.3,8L11.4,6.1z M11.4,6.1l-3,2.2
						l-2.9,2.2l0-0.5c1,0.8,2,1.7,3,2.6c0.9,0.9,1.9,1.8,2.7,2.8c1.7,1.9,3.4,4,4.9,6.1l-0.3-0.2l4.1,0.1c1.4,0,2.7,0.1,4.1,0.2
						c1.4,0.1,2.7,0.1,4.1,0.2c1.4,0,2.7,0,4.1,0L31.9,22c0-0.5-0.3-1-0.6-1.4c-0.4-0.4-0.8-0.7-1.2-1c-0.9-0.5-1.9-1-2.9-1.3
						c-2.1-0.8-4.1-1.9-5.9-3.2c-1.8-1.3-3.6-2.7-5.2-4.2c-0.8-0.8-1.6-1.5-2.4-2.3c-0.4-0.4-0.8-0.8-1.1-1.2
						c-0.2-0.2-0.4-0.4-0.5-0.6l-0.3-0.3l-0.1-0.2L11.4,6.1C11.5,6.2,11.4,6.1,11.4,6.1L11.4,6.1z"/>
				</g>
				<path d="M71.4,70.1c-1.1-6.2-8.1-14.7-13.7-17.5c-1-0.4-1.8-1-2.6-1.7c-1.3-1.5-1.3-3.7-1.7-5.6c-1.1-4.9-4.5-5.9-7.9-8.8
					c-2.6-3.1-0.5-8.1-3.2-11.1l-22.5-0.1C3.7,25.6,3.2,7.6,3.2,7.6l25.4-2.9l23.9,9c2.8,1.4,5.2,3.4,7,5.9l27.7,39.9
					C87.3,59.4,77.4,67.4,71.4,70.1z"/>
				<path d="M103.8,74.6c0-2.5-5-4.1-5-4.1c-3-1.4-5.8-3-8.4-5c0,0,0.7,4-7.8,2.7l4.9,6.1L103.8,74.6z"/>
			</g>
			<g transform="translate(15.005 64.941)">
				<path d="M58.1,66.3c0,0,1.1,4.2-7.3-3.2l-0.3-9.1H54L58.1,66.3z"/>
				<g transform="translate(37.627 47.825)">
					<g transform="translate(1.446)">
						<path class="st0" d="M13.9,6.2H6.2l-1.9,7.6l7.8,2.8L13.9,6.2z"/>
						<path d="M13.9,6.3l-2,0.1c-0.7,0-1.3,0.1-1.9,0.1c-1.3,0.1-2.5,0.1-3.7,0l0.3-0.2l-1.1,3.8c-0.4,1.3-0.7,2.5-1,3.8l-0.1-0.2
							c1.3,0.4,2.7,0.8,4,1.2c0.7,0.2,1.3,0.4,2,0.7c0.7,0.2,1.3,0.4,2,0.7l-0.6,0.3c0.3-1.7,0.6-3.4,1-5.1L13.9,6.3z M13.9,6.2
							l-0.3,2.5l-0.3,2.6c-0.2,1.8-0.5,3.6-0.8,5.4l-0.1,0.5L12,17.1c-0.7-0.2-1.3-0.5-1.9-0.7s-1.3-0.5-1.9-0.8
							c-1.3-0.5-2.5-1.1-3.8-1.6l-0.1,0l0-0.1c0.3-1.3,0.7-2.5,0.9-3.8l0.8-3.9l0-0.2l0.3,0c1.3-0.1,2.7,0,4,0
							c0.7,0,1.3,0.1,1.9,0.1L13.9,6.2z"/>
					</g>
					<path d="M17.9,25c0,0-4.9-3.5-4.3-8.3l0.3-2l-7.6-3.1l-2.1,6.7c0,0-1.3,4.2,6.4,10.1l11.8,0.4C22.2,27,17.9,25,17.9,25z"/>
				</g>
				<path class="st0" d="M43.3,55.3c-1.8-10.5,2.9-9.8,5.7-17.2c0.4-2.3-0.8-4.6-0.3-6.9c0.7-3.1,4.6-5.2,4.2-8.4
					c-14.1,2.9-32.7,2.3-32.7,2.3C8,25,3.6,9.7,3.6,9.7s14.1-2.1,23.2-4.8c0,0,33.8,4.3,37.8,8.8c0,0,3.6,3.3,2.2,12.1l-8.8,40.6
					C58.1,66.3,55.3,54.8,43.3,55.3z"/>
				<path d="M43.2,55.4c-0.1-0.4-0.2-0.8-0.2-1.2c-0.1-0.4-0.1-0.8-0.1-1.2c-0.1-0.8-0.1-1.6-0.1-2.4c0-1.6,0.4-3.2,1.1-4.6
					c0.8-1.3,1.7-2.6,2.7-3.9c0.9-1.3,1.6-2.7,2.1-4.1l0,0c0.1-1.4,0-2.7-0.3-4c-0.1-0.7-0.2-1.4-0.1-2.1c0-0.4,0.1-0.7,0.2-1.1
					c0.1-0.3,0.2-0.7,0.4-1c0.7-1.2,1.5-2.3,2.4-3.4c0.4-0.5,0.7-1.1,1-1.7c0.3-0.6,0.4-1.2,0.3-1.8l0.4,0.3
					c-4.7,0.9-9.4,1.6-14.2,1.9c-4.8,0.4-9.5,0.5-14.3,0.5c-1.2,0-2.4,0-3.6,0c-0.6,0-1.2,0-1.8-0.1c-0.6-0.1-1.2-0.2-1.8-0.3
					c-2.4-0.6-4.6-1.7-6.4-3.3c-1.8-1.6-3.4-3.5-4.6-5.6C5,14.3,4,12.1,3.3,9.8L3.2,9.4l0.4-0.1c3.9-0.6,7.8-1.3,11.7-2
					c3.9-0.8,7.7-1.6,11.5-2.7l0,0l0,0c3.2,0.4,6.5,0.9,9.7,1.5c3.2,0.5,6.4,1.1,9.6,1.7c3.2,0.6,6.4,1.3,9.6,2.1
					c1.6,0.4,3.2,0.8,4.7,1.4c0.8,0.3,1.5,0.6,2.3,0.9c0.4,0.2,0.7,0.4,1.1,0.6c0.4,0.2,0.7,0.5,1,0.8l0,0c0.4,0.4,0.8,0.9,1,1.4
					c0.3,0.5,0.5,1,0.7,1.6c0.4,1.1,0.6,2.2,0.8,3.4c0.1,1.1,0.2,2.3,0.1,3.4c0,0.6-0.1,1.1-0.1,1.7c0,0.3-0.1,0.6-0.1,0.9L67,26.6
					c-0.9,4.4-1.9,8.8-2.8,13.3l-2.9,13.2c-1,4.4-1.9,8.8-2.9,13.2l-0.2,1l-0.3-1c-0.4-1.6-1.1-3.1-2-4.5c-0.9-1.4-2-2.6-3.3-3.7
					c-1.3-1-2.8-1.8-4.4-2.3c-0.4-0.1-0.8-0.2-1.2-0.3l-0.6-0.1l-0.6-0.1c-0.4-0.1-0.8-0.1-1.2-0.1C44.1,55.4,43.7,55.4,43.2,55.4z
					 M43.3,55.3c0.4,0,0.8,0,1.2,0c0.4,0,0.8,0,1.3,0.1l0.6,0.1l0.6,0.1c0.4,0.1,0.8,0.2,1.2,0.3c1.6,0.4,3.2,1.2,4.5,2.2
					c1.3,1,2.5,2.3,3.4,3.7c0.9,1.4,1.7,3,2.1,4.6h-0.5c0.9-4.4,1.8-8.8,2.8-13.3l2.8-13.3c1-4.4,1.9-8.8,2.9-13.2l0.2-0.8
					c0-0.3,0.1-0.5,0.1-0.8c0.1-0.6,0.1-1.1,0.2-1.7c0.1-1.1,0.1-2.2,0-3.3c-0.1-1.1-0.3-2.2-0.7-3.3c-0.2-0.5-0.4-1-0.7-1.5
					c-0.3-0.5-0.6-0.9-0.9-1.3l0,0c-0.3-0.3-0.6-0.5-0.9-0.7c-0.3-0.2-0.7-0.4-1.1-0.6c-0.7-0.3-1.5-0.7-2.2-0.9
					c-1.5-0.5-3.1-1-4.7-1.4c-3.1-0.8-6.3-1.5-9.5-2.1c-6.4-1.2-12.8-2.2-19.3-3l0.1,0c-3.8,1.1-7.7,2-11.5,2.8S7.6,9.4,3.7,10
					L4,9.6C4.7,11.8,5.7,14,6.9,16c1.2,2,2.7,3.8,4.5,5.4c2.2,1.9,4.9,3.1,7.8,3.4c0.6,0.1,1.2,0.1,1.8,0.1c1.2,0,2.4,0,3.6,0
					c4.7,0,9.5-0.2,14.2-0.5c4.7-0.3,9.4-0.9,14.1-1.8l0.4-0.1l0,0.4c0.1,0.7-0.1,1.5-0.4,2.2c-0.3,0.7-0.7,1.3-1.1,1.8
					c-0.9,1-1.7,2.2-2.4,3.3c-0.3,0.6-0.5,1.2-0.6,1.9c-0.1,0.7,0,1.3,0.1,2c0.3,1.4,0.4,2.8,0.3,4.2v0l0,0
					c-0.6,1.5-1.3,2.9-2.3,4.2c-0.9,1.3-2,2.5-2.7,3.8c-0.8,1.4-1.2,2.9-1.2,4.4C42.9,52.2,43,53.8,43.3,55.3z"/>
			</g>
			<g transform="translate(9.742)">
				<g transform="translate(20.301 27.613)">
					<path d="M26.6,21.7c-0.1,1-0.7,2-1.5,2.6l-1-1.8L26.6,21.7z"/>
					<g transform="translate(10.098 16.538)">
						<path class="st0" d="M3.8,7.7c0,0,10.9,11.1,13.1,11.3c2.8,0.4,32.2,5.8,32.2,5.8c1.3-0.2,2.3-0.9,2.9-2.1c0,0,1-2.6-0.6-2.2
							c-0.6,0-1.1-0.3-1.6-0.7l2.2-2.5c-1.1-0.5-3,1.4-3,1.4c-0.4,0.5-1,0.8-1.7,0.7c-2.1-0.2-4.1-0.7-6.1-1.3l-21.6-6.8l-6.1-7.3
							L3.8,7.7z"/>
						<path d="M3.9,7.7l4.6,4.2c1.5,1.4,3.1,2.8,4.7,4.1c0.8,0.7,1.6,1.3,2.5,1.9c0.2,0.1,0.4,0.3,0.6,0.4c0.2,0.1,0.4,0.2,0.6,0.3
							c0,0,0.1,0,0.1,0l0.2,0l0.4,0.1l0.8,0.1c2.1,0.3,4.1,0.7,6.2,1c4.1,0.7,8.3,1.4,12.4,2.1l12.3,2.2l-0.2,0
							c0.2,0,0.5-0.1,0.7-0.2c0.2-0.1,0.5-0.2,0.7-0.4c0.2-0.1,0.4-0.3,0.6-0.5c0.2-0.2,0.3-0.4,0.4-0.6l0,0
							c0.1-0.2,0.1-0.4,0.2-0.6c0-0.2,0.1-0.4,0.1-0.6c0-0.1,0-0.1,0-0.2c0,0,0,0,0,0c0,0,0.1,0.1,0.1,0.1c0,0-0.1,0-0.1,0l-0.1,0
							h-0.1c-0.2,0-0.4,0-0.6-0.1c-0.2,0-0.3-0.1-0.5-0.2c-0.3-0.1-0.7-0.3-0.9-0.6L49,19.9l0.4-0.5l2.2-2.5l0.3,1.1
							c-0.1,0-0.3,0-0.4,0c-0.2,0.1-0.4,0.2-0.6,0.3c-0.2,0.1-0.4,0.3-0.6,0.4c-0.2,0.2-0.4,0.3-0.6,0.5l0-0.1
							c-0.1,0.2-0.3,0.3-0.5,0.4c-0.2,0.1-0.3,0.2-0.5,0.3c-0.4,0.2-0.8,0.3-1.2,0.2c-0.7,0-1.3-0.1-2-0.3c-1.3-0.3-2.5-0.6-3.8-0.9
							l-7.3-2.3c-2.4-0.8-4.9-1.6-7.3-2.4l-7.3-2.4l-0.1,0l-0.1-0.1l-3-3.7l-3-3.7l0.3,0.1L8.9,6C7.3,6.5,5.6,7.1,3.9,7.7z M3.8,7.6
							L13.7,4l0,0l0,0l6.1,7.3l0,0L34.5,16l7.3,2.3c1.2,0.3,2.5,0.7,3.7,0.9c0.6,0.1,1.3,0.2,1.9,0.2c0.6,0,1.2-0.2,1.6-0.7v0l0,0
							c0.4-0.4,0.9-0.8,1.4-1.1c0.2-0.2,0.5-0.3,0.8-0.4c0.3-0.1,0.6-0.1,0.9,0l0.1,0l-0.1,0.1L50,19.9l0-0.1
							c0.4,0.4,0.9,0.6,1.5,0.6h0c0.1,0,0.3-0.1,0.4,0c0.1,0,0.3,0.1,0.4,0.2c0.2,0.2,0.2,0.5,0.2,0.7c0,0.5-0.1,1-0.3,1.4l0,0
							c-0.1,0.3-0.3,0.6-0.5,0.8c-0.2,0.2-0.4,0.5-0.7,0.6c-0.5,0.4-1.1,0.6-1.8,0.7h0h0l-24.7-4.5c-2.1-0.4-4.1-0.7-6.2-1.1
							c-0.5-0.1-1-0.2-1.6-0.3c-0.5-0.2-1-0.4-1.4-0.8c-0.9-0.6-1.7-1.3-2.5-2c-1.6-1.4-3.1-2.8-4.6-4.2L6,9.9L4.9,8.8L4.4,8.2
							L4.1,8L4,7.8L3.8,7.6L3.8,7.6C3.8,7.7,3.8,7.7,3.8,7.6L3.8,7.6z"/>
					</g>
					<path d="M16.8,30.9c0,0,0.6,0.4,2.4-1.6l-1.4-2L16.8,30.9z"/>
					<path class="st0" d="M6,18.7c-0.3,3.2,2.7,3.9,4.4,5.8c2.1,2.2,0.4,3.2,2,5c1.1,1.3,2.9,1.8,4.5,1.1c0,0,1.6-7.5,8.9-8.5
						c1.9-0.3-0.9-3.3-1.5-4c-0.9-0.9-1.7-1.4-2.4-2c-2.5-2.5-4.9-5.1-7.1-7.8c0,0-3.2-5.3-6.6-4.1C5.8,4.8,4.1,6.9,3.8,9.3
						C3.7,11,4.1,12.6,4.9,14C5.7,15.5,6.1,17.1,6,18.7z"/>
					<path d="M6,18.7c-0.1,0.7,0.1,1.5,0.4,2.2c0.4,0.6,0.9,1.2,1.6,1.6c0.6,0.4,1.3,0.8,1.9,1.3c0.6,0.5,1.2,1.1,1.6,1.7
						c0.2,0.4,0.3,0.8,0.4,1.2c0.1,0.4,0.1,0.8,0.1,1.1c0,0.3,0.2,0.7,0.3,0.9c0.2,0.3,0.4,0.6,0.7,0.8c0.5,0.5,1.1,0.8,1.8,0.9
						c0.7,0.1,1.4,0,2.1-0.2l-0.2,0.3c0.4-1.3,0.9-2.6,1.7-3.7c0.7-1.1,1.7-2.1,2.8-2.9c1.1-0.8,2.3-1.4,3.6-1.7l1-0.2
						c0.2,0,0.3-0.1,0.4-0.1c0.1,0,0.2-0.2,0.2-0.3c0-0.3-0.1-0.6-0.2-0.9c-0.1-0.3-0.3-0.6-0.5-0.8c-0.8-1.1-1.7-2-2.8-2.8
						c-0.3-0.2-0.5-0.4-0.8-0.6s-0.5-0.5-0.7-0.7c-0.5-0.5-1-0.9-1.4-1.4c-1.9-1.9-3.7-3.9-5.4-5.9l0,0l0,0
						c-0.4-0.6-0.8-1.1-1.2-1.6c-0.4-0.5-0.9-1-1.4-1.4c-0.5-0.4-1.1-0.7-1.7-0.9c-0.6-0.2-1.2-0.2-1.8,0l0,0l0,0
						C7.6,4.7,7,5,6.5,5.4c-0.5,0.4-1,0.8-1.4,1.4C4.3,7.9,4,9.3,4,10.6c0,0.7,0.2,1.4,0.4,2c0.1,0.3,0.2,0.7,0.4,1
						c0.1,0.3,0.3,0.6,0.5,1c0.3,0.7,0.5,1.3,0.6,2.1C6,17.3,6,18,6,18.7z M5.9,18.7c0.1-1.4-0.2-2.8-0.8-4.1
						C5,14.3,4.8,14,4.6,13.7c-0.2-0.3-0.3-0.6-0.5-1c-0.3-0.7-0.5-1.4-0.5-2.1c-0.2-1.5,0.1-3,0.9-4.3C4.9,5.8,5.4,5.2,6,4.8
						c0.6-0.4,1.3-0.8,2-1l0,0c0.7-0.3,1.6-0.3,2.3,0c0.7,0.2,1.4,0.6,2,1.1c0.6,0.5,1.1,1,1.6,1.5c0.5,0.5,0.9,1.1,1.3,1.7l0,0
						c1.6,2.1,3.4,4.1,5.2,6l1.4,1.4c0.2,0.2,0.5,0.5,0.7,0.7c0.2,0.2,0.5,0.4,0.8,0.6c0.5,0.4,1,0.9,1.5,1.4c0.5,0.5,0.9,1,1.3,1.6
						c0.2,0.3,0.4,0.6,0.5,0.9c0.2,0.3,0.3,0.7,0.2,1c-0.1,0.2-0.2,0.4-0.4,0.5c-0.2,0.1-0.3,0.1-0.5,0.1l-1,0.2
						c-1.3,0.3-2.5,0.9-3.5,1.7c-2,1.7-3.4,4-4,6.5l0,0.2L17,30.9c-0.8,0.3-1.6,0.3-2.4,0.2C13.8,31,13,30.6,12.4,30
						c-0.3-0.3-0.6-0.6-0.8-1c-0.2-0.4-0.3-0.8-0.4-1.2c0-0.4,0-0.8-0.1-1.1c0-0.3-0.1-0.7-0.3-1c-0.3-0.6-0.8-1.2-1.3-1.7
						c-0.6-0.5-1.2-0.9-1.8-1.4c-0.6-0.5-1.1-1-1.5-1.7C6,20.3,5.8,19.5,5.9,18.7L5.9,18.7z"/>
				</g>
				<path d="M10.8,77.6c0,0-5.9,2.5-6.3,0.3l6-3.3"/>
				<g transform="translate(1.332 25.586)">
					<path class="st0" d="M3.2,52.4c17.9-9.5,27.5-2.2,34.6-10.4c-2.4-7.9-4.2-13.2-2.1-19.2c1.2-3.5,0.7-7.4-1.5-10.5
						c-2.2-2.9-5.8-7.7-5.8-7.7C22.8,1.8,15.8,5.6,15,8.8c-1.9,7.8-1.7,13.7-4.4,19.2C10.6,27.9,2.4,44.2,3.2,52.4z"/>
					<path d="M3.2,52.3c0.3-0.2,0.6-0.4,1-0.5c0.3-0.2,0.7-0.4,1-0.5c0.7-0.3,1.4-0.7,2.1-1c1.4-0.6,2.8-1.2,4.3-1.7
						c2.9-0.9,6-1.6,9-1.9c1.5-0.2,3.1-0.3,4.6-0.4c1.5-0.1,3-0.2,4.5-0.5c1.5-0.2,2.9-0.7,4.3-1.3c1.3-0.7,2.5-1.6,3.5-2.7
						l-0.1,0.4c-1.1-3.2-2-6.4-2.6-9.7c-0.3-1.7-0.4-3.4-0.3-5.1c0.1-0.9,0.2-1.7,0.4-2.5c0.1-0.4,0.2-0.8,0.3-1.2s0.3-0.8,0.4-1.2
						c0.5-1.6,0.6-3.2,0.4-4.8c-0.2-1.6-0.8-3.2-1.7-4.6l-5.9-8.1l0.1,0c-2.3-1.1-4.9-1.4-7.3-0.7c-1.2,0.3-2.4,0.9-3.4,1.6
						c-1.1,0.7-1.9,1.6-2.4,2.8c-0.3,1.2-0.5,2.5-0.8,3.7s-0.4,2.5-0.6,3.8c-0.3,2.5-0.7,5.1-1.3,7.5c-0.3,1.3-0.7,2.5-1.2,3.7
						l-0.4,0.9L10.5,29l-0.8,1.7c-1.1,2.3-2.1,4.6-3,7C5.8,40,5,42.4,4.3,44.9c-0.3,1.2-0.6,2.5-0.8,3.7c-0.1,0.3-0.1,0.6-0.1,0.9
						c0,0.3-0.1,0.6-0.1,0.9c0,0.3,0,0.6,0,0.9C3.2,51.7,3.2,52,3.2,52.3z M3.2,52.4c0-0.3-0.1-0.7-0.1-1c0-0.3,0-0.6,0-1
						s0-0.6,0.1-1c0-0.3,0.1-0.6,0.1-1c0.2-1.3,0.4-2.5,0.7-3.8c0.6-2.5,1.4-4.9,2.3-7.3c0.9-2.4,1.9-4.7,2.9-7.1l0.8-1.7l0.4-0.9
						l0.4-0.9c0.5-1.2,0.9-2.3,1.2-3.6c0.3-1.2,0.6-2.5,0.8-3.7c0.2-1.2,0.4-2.5,0.7-3.8c0.4-2.5,0.9-5,1.6-7.5
						c0.2-0.6,0.6-1.2,1.1-1.6c0.4-0.5,0.9-0.9,1.5-1.2C18.5,4.8,19.7,4.3,21,4c1.2-0.4,2.5-0.5,3.8-0.4c1.3,0.1,2.5,0.4,3.7,1l0,0
						l0,0l6.1,8c2,2.9,2.5,6.5,1.5,9.9c-0.1,0.4-0.3,0.8-0.4,1.2c-0.1,0.4-0.2,0.8-0.3,1.2c-0.2,0.8-0.3,1.6-0.3,2.4
						c-0.1,1.6,0.1,3.3,0.4,4.9c0.3,1.6,0.7,3.2,1.2,4.8c0.5,1.6,1,3.2,1.4,4.8l0.1,0.2l-0.1,0.2c-1,1.2-2.3,2.2-3.7,2.9
						c-1.4,0.7-2.9,1.1-4.5,1.4c-1.5,0.2-3.1,0.3-4.6,0.4c-1.5,0.1-3.1,0.2-4.6,0.3c-3,0.3-6,0.8-9,1.7c-1.5,0.4-2.9,0.9-4.3,1.5
						c-0.7,0.3-1.4,0.6-2.1,0.9c-0.3,0.2-0.7,0.3-1,0.5L3.2,52.4z"/>
				</g>
				<g transform="translate(15.536 6.68)">
					<path class="st0" d="M15.3,4.7c0,0,4.3,6.8,1.1,12.2c0,0-0.8,1.3-3.8,0.7c0.4,2.5,1.2,4.8,2.4,7l-9.7-1.2c0,0,1.5-2.4,1-7.3
						c0,0-3.1-3.5-2.5-7.8c0,0,1.3-4.5,4.8-5C8.7,3.3,13.5,3.1,15.3,4.7z"/>
					<path d="M15.3,4.7c0.4,0.6,0.7,1.2,1.1,1.8c0.3,0.6,0.6,1.3,0.8,2c0.5,1.4,0.7,2.8,0.7,4.2c0,1.5-0.4,2.9-1.1,4.2L16.7,17
						l0,0.1c0,0,0,0.1-0.1,0.1c-0.1,0.1-0.1,0.2-0.2,0.2c-0.2,0.1-0.3,0.2-0.5,0.3c-0.3,0.2-0.7,0.3-1.1,0.3c-0.7,0.1-1.5,0-2.2-0.1
						l0.4-0.3c0.1,0.6,0.2,1.2,0.3,1.8c0.1,0.6,0.3,1.2,0.4,1.8c0.2,0.6,0.4,1.2,0.6,1.7c0.2,0.6,0.5,1.1,0.9,1.6l0.2,0.2l-0.3,0
						c-1.6-0.2-3.2-0.4-4.8-0.6l-4.8-0.5l-0.4,0l0.2-0.4c0.3-0.5,0.5-1.1,0.6-1.7C5.9,21,6,20.4,6,19.8c0.1-0.6,0.1-1.2,0.1-1.8
						c0-0.3,0-0.6,0-0.9L6,16.1l0.1,0.2c-0.5-0.6-0.9-1.2-1.3-1.8c-0.4-0.6-0.7-1.3-0.9-2c-0.2-0.7-0.4-1.4-0.5-2.1
						C3.4,9.7,3.4,9,3.5,8.3v0l0,0C3.7,7.6,4,7,4.3,6.5C4.6,5.9,5,5.4,5.4,4.9C5.8,4.4,6.3,4,6.8,3.7C7.4,3.3,8,3.1,8.7,3h0h0
						c0.6,0,1.2,0,1.7,0.1c0.6,0,1.1,0.1,1.7,0.2c0.6,0.1,1.1,0.3,1.7,0.5C14.4,4,14.9,4.3,15.3,4.7z M15.2,4.7
						c-0.5-0.3-1-0.6-1.5-0.7c-0.5-0.2-1.1-0.3-1.6-0.3c-0.6-0.1-1.1-0.1-1.7-0.1c-0.6,0-1.1,0-1.7,0h0C8.2,3.7,7.7,3.9,7.2,4.2
						C6.7,4.5,6.3,4.9,5.9,5.4C5.5,5.8,5.2,6.3,5,6.8C4.7,7.3,4.5,7.9,4.3,8.4l0-0.1c-0.1,0.7-0.1,1.3,0,2c0.1,0.7,0.2,1.3,0.4,2
						C5,13,5.3,13.6,5.6,14.2c0.3,0.6,0.7,1.2,1.1,1.7L6.8,16l0,0.1l0.1,1c0,0.3,0,0.6,0,1c0,0.6,0,1.3-0.1,1.9
						c-0.1,0.6-0.2,1.3-0.4,1.9c-0.2,0.6-0.4,1.2-0.7,1.8l-0.2-0.4l4.8,0.7c1.6,0.2,3.2,0.5,4.8,0.6l-0.1,0.2
						c-0.3-0.5-0.7-1.1-0.9-1.6c-0.3-0.6-0.5-1.1-0.7-1.7c-0.2-0.6-0.4-1.2-0.6-1.8c-0.2-0.6-0.3-1.2-0.4-1.8l-0.1-0.4l0.4,0.1
						c0.7,0.1,1.3,0.1,2,0.1c0.3,0,0.6-0.1,0.9-0.3c0.1-0.1,0.3-0.1,0.4-0.2c0.1,0,0.1-0.1,0.1-0.1l0,0l0-0.1l0.1-0.1
						c0.7-1.2,1-2.5,1.1-3.9c0-1.4-0.1-2.8-0.5-4.1c-0.1-0.3-0.2-0.7-0.3-1c-0.1-0.3-0.2-0.7-0.3-1C15.8,6,15.6,5.3,15.2,4.7z"/>
				</g>
				<path d="M20.8,34.6c4.2-6,3.2-8.8,2.6-11.8c-0.5-2.5-2.6-3.5-2.4-5c0.1-1.2,2.1-0.6,2.1-0.6c0.8-0.1,2.1-3.5,2.1-3.5
					s0.2,1.3,0.8,1.5c0,0,5.9-1.2,6.1-1.2c0,0,0.4-7.2-9.1-6.4c-4.3,0.4-6.5,4.6-7.6,8c-1.8,5.4-6.8,9-12.4,10.1
					c0.7,1.9,1.8,3.6,3.1,5.1c2.1,1.8,4.6,3.2,7.3,4c2.1,0.6,4.3,0.9,6.5,1L20.8,34.6z"/>
				<ellipse cx="20.5" cy="6.7" rx="3.8" ry="3.8"/>
				<path d="M24.8,22.8l4.6,1.4c-0.4,0.3-0.8,0.3-1.2,0.2c0.1,0.7,0.2,1.4,0.4,2.1C27,25.6,25.7,24.4,24.8,22.8z"/>
				<g transform="translate(16.465 31.795)">
					<path d="M24.1,19.9c-0.4,1.1-1,2.2-2,2.9l-1.3-1.5L24.1,19.9z"/>
					<g transform="translate(8.785 13.979)">
						<path class="st0" d="M11.8,4.1l10,10.7l31.9-0.1l8.6-0.9c0.9-0.1,1.1,0.5,0.6,0.9l-2.3,1.5l0,0c-0.9,1.3-2.3,2.3-3.9,2.7
							c-6.3,1.7-37.5,8.3-42.6,3.6L3.7,10.3"/>
						<path d="M11.9,4.1l2.6,2.6c0.9,0.9,1.7,1.7,2.6,2.6l2.6,2.6c0.9,0.9,1.7,1.8,2.5,2.7l-0.2-0.1l8-0.1c2.7,0,5.3,0,8,0l8,0.1
							c2.7,0,5.3,0,8,0h0c1.7-0.2,3.4-0.4,5.1-0.6l2.6-0.3l0.6-0.1c0.2,0,0.5-0.1,0.7,0c0.1,0,0.3,0.1,0.4,0.1
							c0.1,0.1,0.2,0.2,0.3,0.4c0,0.3-0.1,0.5-0.3,0.7h0l0,0l-1.3,0.9L61,16.1l-0.2,0.1l-0.1,0.1l0,0l0,0c0.1-0.1,0,0,0,0l0,0
							c-0.1,0.1-0.2,0.2-0.2,0.3c-0.7,0.9-1.5,1.6-2.5,2c-0.5,0.2-1,0.4-1.5,0.6l-1.5,0.4c-1,0.3-2.1,0.5-3.1,0.7
							c-4.1,0.9-8.3,1.8-12.5,2.5s-8.4,1.3-12.7,1.6c-2.1,0.2-4.3,0.2-6.4,0.1c-1.1-0.1-2.2-0.2-3.2-0.4c-0.5-0.1-1.1-0.3-1.6-0.5
							c-0.5-0.2-1-0.5-1.5-0.9l0,0l0,0c-1.7-2.1-3.4-4.1-5.1-6.2c-1.7-2.1-3.4-4.2-5.1-6.2l0.1-0.1c1.8,2,3.6,4,5.3,6s3.5,4,5.3,6.1
							l0,0c0.8,0.6,1.8,1,2.8,1.1c1,0.2,2.1,0.3,3.1,0.3c2.1,0.1,4.2,0,6.3-0.1c4.2-0.3,8.4-0.9,12.6-1.5c4.2-0.7,8.4-1.4,12.5-2.3
							c1-0.2,2.1-0.4,3.1-0.7l1.5-0.4c0.5-0.1,1-0.3,1.5-0.5c0.9-0.4,1.8-1.1,2.4-1.9c0.1-0.1,0.2-0.2,0.2-0.3l0,0
							c0,0-0.1,0,0.1-0.1l0,0l0,0l0.1-0.1l0.2-0.1l0.7-0.4l1.4-0.8l0,0c0.1-0.1,0.2-0.2,0.2-0.4c0-0.1-0.2-0.2-0.3-0.2
							c-0.2,0-0.4,0-0.6,0L61.5,14l-2.6,0.3c-1.7,0.2-3.4,0.3-5.1,0.5h0c-2.7,0-5.3,0-8,0.1l-8,0.1c-2.7,0.1-5.3,0-8,0.1l-8,0h-0.1
							L21.6,15c-0.8-0.9-1.7-1.8-2.5-2.7l-2.5-2.7c-0.8-0.9-1.6-1.8-2.5-2.7L11.9,4.1L11.9,4.1z"/>
					</g>
					<path class="st0" d="M18.3,11.2c1.9,2.7,3,2.8,4.4,4.1c1.3,1.1,1.8,2.9,1.2,4.4c0,0-6.7,4.1-9.9,8.2c0,0-1.5-2.3-3.1-5
						c-1-1.6-9.3-11.6-6.3-16.7c0.9-1.7,2.8-2.6,4.7-2.2C10.6,4.3,11.7,5,12.6,6C14.6,8.5,16.3,8.3,18.3,11.2z"/>
					<path d="M18.4,11.2c0.5,0.8,1.1,1.4,1.8,2c0.7,0.6,1.5,1,2.2,1.6c0.8,0.6,1.4,1.3,1.8,2.2c0.2,0.5,0.3,1,0.3,1.5
						c0,0.5-0.1,1-0.2,1.4l0,0.1L24,20.1c-0.9,0.6-1.8,1.2-2.7,1.8s-1.8,1.2-2.6,1.8c-0.9,0.6-1.7,1.3-2.5,2
						c-0.8,0.7-1.5,1.5-2.2,2.3l-0.1,0.1L13.8,28c-0.9-1.5-1.9-2.9-2.8-4.4l-0.4-0.5c-0.1-0.2-0.2-0.3-0.4-0.5l-0.8-1
						c-0.5-0.7-1.1-1.4-1.6-2.1c-1-1.4-1.9-2.9-2.7-4.5c-0.4-0.8-0.8-1.6-1.1-2.4c-0.3-0.8-0.5-1.7-0.6-2.6C3.4,8.9,3.5,8,3.7,7.1
						C4,6.2,4.6,5.4,5.3,4.8c0.7-0.6,1.6-1,2.6-1c0.5,0,0.9,0,1.4,0.1c0.4,0.1,0.9,0.2,1.3,0.4c0.8,0.4,1.6,0.9,2.1,1.6
						c0.5,0.7,1.1,1.3,1.8,1.8c0.7,0.5,1.4,1,2.1,1.6C17.3,9.8,17.9,10.5,18.4,11.2z M18.3,11.3c-0.5-0.7-1.1-1.4-1.7-1.9
						c-0.7-0.5-1.4-1-2.2-1.5c-0.7-0.5-1.4-1.1-2-1.8c-0.6-0.6-1.3-1.1-2-1.4C10,4.5,9.6,4.4,9.2,4.4C8.8,4.3,8.4,4.3,8,4.4
						c-0.8,0.1-1.5,0.4-2.1,1c-0.6,0.5-1.1,1.2-1.3,2C4.3,8.1,4.2,8.9,4.3,9.7c0.3,1.7,0.8,3.3,1.5,4.8c0.8,1.6,1.6,3.1,2.6,4.5
						c0.5,0.7,0.9,1.5,1.4,2.2l0.7,1.1c0.1,0.2,0.2,0.4,0.4,0.6l0.3,0.6c0.9,1.5,1.8,3,2.7,4.5l-0.2,0c0.7-0.8,1.4-1.6,2.2-2.4
						c0.8-0.8,1.6-1.5,2.4-2.2c0.8-0.7,1.7-1.4,2.5-2c0.4-0.3,0.9-0.6,1.3-0.9c0.4-0.3,0.9-0.6,1.4-0.9l-0.1,0.2
						c0.1-0.4,0.2-0.8,0.3-1.3c0-0.4,0-0.8-0.1-1.2c-0.3-0.8-0.8-1.5-1.5-2.1c-0.7-0.6-1.4-1.1-2.1-1.7C19.4,12.7,18.8,12,18.3,11.3
						L18.3,11.3z"/>
				</g>
			</g>
			<g transform="translate(0 43.472)">
				<path d="M52,51.9l11.5,46.6l-2.7,0.6L52,51.9z"/>
				<path d="M43,51.9L35.9,99l-2.7-0.5L43,51.9z"/>
				<path d="M13.7,46.2L5.5,99l-2.7-0.5L13.7,46.2z"/>
				<path d="M4.8,4v30.1c0,0-0.7,18.7,20.1,20.8h28.1c0,0,0.7-14.1-14.7-20.1c-8.2-3.2-8.3-11.1-10.5-18.2C25.9,11,22.3,4,15.5,4
					L4.8,4z"/>
				<path d="M37,84.9L6.8,86.3v-2.8L37,84.9z"/>
			</g>
		</g>
	</g>
	<g transform="translate(541.788 2778.904)">
		<g transform="translate(0 180.543)">
			<path class="st0" d="M20.1,5.8L6.1,22.8L25,34.6l12.1-1c0,0,0.6-3.9-10.6-7.8c0,0-4.6-2.8-1.2-9.3l6.3-9.7L20.1,5.8z"/>
			<path d="M20.1,5.8c-2.3,3-4.6,5.8-6.9,8.7l-3.5,4.3c-1.1,1.4-2.3,2.8-3.5,4.2l-0.1-0.5c3.1,2,6.2,4,9.4,6c1.6,1,3.1,2,4.7,3
				c1.6,1,3.2,2,4.7,2.9l-0.1,0l6-0.6l6-0.6l-0.3,0.3c0-0.1,0-0.2,0-0.3c0-0.1-0.1-0.2-0.1-0.4c-0.1-0.2-0.2-0.5-0.4-0.7
				c-0.3-0.5-0.6-0.9-1-1.3c-0.8-0.8-1.7-1.4-2.7-2c-1-0.6-2-1.1-3-1.5c-1-0.5-2.1-0.9-3.2-1.2l0,0c0,0,0,0-0.1,0
				c-0.8-0.5-1.4-1.2-1.8-2c-0.4-0.8-0.7-1.7-0.8-2.6c-0.1-0.9,0-1.8,0.3-2.7c0.2-0.9,0.6-1.7,1-2.5l0,0l0,0
				c2.1-3.2,4.3-6.5,6.4-9.7L31.5,7C27.8,6.6,24,6.2,20.1,5.8z M20.1,5.7c3.8,0.3,7.6,0.5,11.4,0.8c0.1,0,0.2,0.1,0.2,0.2
				c0,0,0,0.1,0,0.1v0c-2.1,3.3-4.1,6.5-6.2,9.8l0,0c-0.4,0.7-0.7,1.5-0.9,2.3c-0.2,0.8-0.3,1.6-0.2,2.4c0.1,0.8,0.3,1.6,0.7,2.3
				c0.4,0.7,0.9,1.3,1.6,1.8l-0.1,0c2.2,0.7,4.3,1.7,6.3,2.8c1,0.6,2,1.3,2.8,2.1c0.4,0.4,0.8,0.9,1.1,1.4c0.2,0.3,0.3,0.5,0.4,0.8
				c0.1,0.2,0.1,0.3,0.1,0.5c0,0.2,0,0.4,0,0.5c0,0.1-0.1,0.3-0.3,0.3h0L31,34.4L25,34.8h0c0,0-0.1,0-0.1,0c-1.6-1-3.1-2-4.7-3
				c-1.6-1-3.2-1.9-4.7-2.9c-3.2-1.9-6.4-3.8-9.5-5.7c-0.1-0.1-0.2-0.3-0.1-0.4l0,0l0,0c1.2-1.4,2.3-2.9,3.5-4.3l3.6-4.3
				C15.3,11.3,17.7,8.5,20.1,5.7L20.1,5.7z"/>
		</g>
		<path d="M15.7,191.7l9.6,5.2l-0.1,0.2c-3.4,6.5,1.2,9.3,1.2,9.3c11.2,3.9,10.6,7.8,10.6,7.8l-12.1,1L6.1,203.4L15.7,191.7z"/>
		<path d="M30.6,150.1l-3-25c-0.7-8.1,0.4-16.2,3.2-23.8L58.5,94L53,149.5c-0.2,1-0.5,2-1,2.9L28.6,198L7.1,187.1
			c1.7-4.2,3.6-6.5,6.7-9.8c1.5-1.6,3.4-2.9,5-4.4c3.6-3.3,2.3-9.2,6.2-14.1C27.4,155.8,30.3,155.2,30.6,150.1z"/>
		<path class="st0" d="M44.2,97.8c-0.7,3.5-2.3,19.7-2.1,23.2c0.3,4.6,0.4,6.7,3.7,19.7c1.7,7,3.1,11.3,4.7,14.4l1.4-2.6
			c0.5-0.9,0.8-1.9,1-2.9L58.5,94L44.2,97.8z"/>
		<g transform="translate(38.458 189.373)">
			<g transform="translate(4.281)">
				<path class="st0" d="M10.3,6l-3,8.1h12.3l3.7-6.8L10.3,6z"/>
				<path d="M10.3,6L9,10.2c-0.5,1.4-0.9,2.7-1.4,4l-0.3-0.4c1,0,2.1,0,3.1,0c1,0,2.1,0.1,3.1,0.1c1,0.1,2.1,0.1,3.1,0.1
					c1,0,2.1-0.1,3.1-0.1L19.4,14c0.6-1.2,1.2-2.3,1.8-3.4L23,7.1l0.3,0.5c-1.1-0.1-2.1-0.2-3.2-0.3S18,7.1,16.9,7
					C14.8,6.7,12.6,6.4,10.3,6z M10.3,6c2.1,0.1,4.3,0.2,6.5,0.4c1.1,0.1,2.2,0.2,3.3,0.3c1.1,0.1,2.2,0.2,3.3,0.4L23.9,7l-0.3,0.5
					l-1.9,3.4c-0.6,1.1-1.3,2.2-2,3.3l-0.1,0.1h-0.1c-1,0-2.1-0.1-3.1-0.1s-2.1,0-3.1,0.1c-1,0-2.1,0.1-3.1,0.1s-2.1,0-3.1,0l-0.4,0
					L7,14c0.5-1.4,1.1-2.7,1.6-4.1C9.2,8.6,9.7,7.3,10.3,6L10.3,6z"/>
			</g>
			<path d="M11.4,13.3L6.7,24.9h29.6c0,0-0.4-3.6-5.3-5.1c0,0-9-0.6-6.4-6.8L11.4,13.3z"/>
		</g>
		<path d="M56.2,156.7l-10.7-22.8c-5.3-12.6-4.4-29.8-4.4-29.8l24.3-3.8l11.9,48.9c0.1,1,0.1,2.1-0.1,3.1L68.5,200l-22.3,1
			c0.3-4.5,0.6-9.2,2.6-13.2c1-2,2.3-3.8,3.4-5.8c2.4-4.2-0.7-9.5,1.5-15.3C54.9,163.1,57.5,161.6,56.2,156.7z"/>
		<polygon class="st3" points="95.1,0.8 105.1,8.7 98.1,17.6 88.1,9.8 		"/>
		<g transform="translate(79.899 9.566)">
			<path class="st0" d="M17.5,11.4C18,9.8,18.1,8,17.9,6.3c0.4-0.9,0.7-1.9,0.8-2.9c0.3-2.8-1-1.9-1-1.9c-3.6,4.5-3.4,10.7-3.4,10.7
				s-3.6,6.7-6.2,9.5l7.3,5.1c1.6-10.1,7.2-14.3,7.2-14.3c1.5-1.2,2-3.3,1.1-5c0-3.3-2.3-3.5-2.3-3.5L18,7.9"/>
			<path d="M17.5,11.4c0.2-0.8,0.4-1.7,0.4-2.5c0-0.8,0-1.7-0.1-2.5l0-0.1l0-0.1c0.2-0.4,0.4-0.9,0.5-1.3c0.1-0.5,0.2-0.9,0.2-1.4
				c0.1-0.5,0.1-0.9,0-1.4c0-0.2-0.1-0.3-0.2-0.4c0,0-0.1,0-0.1,0c-0.1,0-0.1,0-0.2,0.1L18,1.8c-0.6,0.7-1,1.5-1.4,2.4
				c-0.4,0.8-0.7,1.7-1,2.6c-0.3,0.9-0.5,1.8-0.6,2.7c-0.1,0.9-0.2,1.8-0.2,2.8v0.1l0,0.1c-0.9,1.7-1.9,3.3-2.9,4.9
				c-0.5,0.8-1.1,1.6-1.6,2.4c-0.6,0.8-1.2,1.5-1.8,2.2l0-0.4l3.6,2.6c1.2,0.9,2.4,1.7,3.6,2.6l-0.2,0.1c0.2-0.9,0.3-1.8,0.6-2.7
				c0.2-0.9,0.5-1.8,0.8-2.6c0.6-1.7,1.3-3.4,2.3-5c0.9-1.6,2.1-3,3.5-4.3c0.7-0.5,1.1-1.3,1.3-2.1c0.2-0.8,0-1.7-0.3-2.5l0-0.1V7.6
				c0-0.4,0-0.7-0.1-1.1c-0.1-0.3-0.2-0.7-0.3-1c-0.2-0.3-0.4-0.6-0.6-0.8c-0.3-0.2-0.6-0.4-0.9-0.4l0.2-0.1
				c-0.6,0.6-1.2,1.3-1.8,1.9S18.7,7.3,18,7.9l-0.1,0c0.5-0.7,1.1-1.3,1.7-2c0.6-0.7,1.1-1.3,1.7-2l0.1-0.1l0.1,0
				c0.4,0.1,0.8,0.2,1.2,0.5c0.3,0.3,0.6,0.6,0.8,0.9C23.9,6,24.1,6.8,24,7.6l0-0.1c0.5,0.9,0.6,1.9,0.4,2.9c-0.2,1-0.7,1.9-1.5,2.5
				c-0.7,0.6-1.3,1.2-1.9,1.9c-0.6,0.7-1.1,1.4-1.6,2.1c-1,1.5-1.8,3.1-2.5,4.8c-0.6,1.7-1.1,3.5-1.4,5.3l0,0.2L15.4,27
				c-1.2-0.9-2.5-1.7-3.7-2.5L8,21.9l-0.2-0.2L8,21.6c0.6-0.7,1.2-1.5,1.7-2.2c0.5-0.8,1-1.6,1.5-2.4c1-1.6,1.9-3.3,2.8-4.9l0,0.2
				c0-1,0.1-1.9,0.2-2.9c0.1-1,0.4-1.9,0.6-2.8c0.3-0.9,0.6-1.8,1.1-2.7c0.4-0.9,1-1.7,1.6-2.4l0,0l0,0c0.1-0.1,0.3-0.2,0.5-0.2
				c0.2,0,0.4,0,0.6,0.1c0.2,0.1,0.3,0.2,0.3,0.4C19,1.8,19,1.9,19,2c0.1,0.5,0,1,0,1.5c-0.1,0.5-0.2,1-0.3,1.5
				c-0.1,0.5-0.3,1-0.6,1.4l0-0.1c0.1,0.9,0.1,1.7,0,2.6C18,9.8,17.8,10.6,17.5,11.4L17.5,11.4z"/>
		</g>
		<g transform="translate(47.905 24.768)">
			<path class="st0" d="M40.3,34c5.3-3.2,4-8,5.7-12c1.9-5.6,11.2-6.7,10.2-13.3c-5-0.9-9.5-3.3-13-7L30.9,19.7
				c0,0-8.3,6.4-22.9,0.4c0,0-1.9,8.1,1,9.9C24.4,39.5,40.3,34,40.3,34"/>
			<path d="M40.3,34c1-0.6,1.8-1.4,2.5-2.3c0.7-0.9,1.2-1.9,1.4-3c0.3-1.1,0.5-2.2,0.7-3.4c0.2-1.2,0.5-2.3,0.9-3.4l0,0
				c0.5-1.4,1.4-2.7,2.6-3.7c1.1-1,2.3-1.8,3.5-2.7c1.2-0.8,2.2-1.8,3.1-2.9c0.4-0.6,0.7-1.2,0.8-1.9c0.1-0.7,0.2-1.4,0.1-2.1
				L56.1,9c-1.3-0.2-2.5-0.5-3.7-1c-1.2-0.4-2.3-1-3.4-1.6c-1.1-0.6-2.2-1.3-3.2-2.1c-1-0.8-1.9-1.6-2.8-2.5l0.2,0l-3.1,4.5l-3,4.5
				l-6,9l0,0l0,0c-0.8,0.6-1.7,1.1-2.7,1.5c-0.9,0.4-1.9,0.7-2.9,1c-2,0.5-4,0.7-6,0.7c-2,0-4-0.3-6-0.7c-2-0.4-3.9-1-5.7-1.8
				l0.5-0.3c-0.4,1.7-0.6,3.5-0.6,5.2c0,0.9,0.1,1.7,0.3,2.5c0.1,0.4,0.3,0.8,0.5,1.1c0.1,0.2,0.2,0.3,0.4,0.4
				c0.1,0.1,0.2,0.1,0.2,0.2l0.3,0.2c3,1.8,6.3,3.2,9.7,4.2c3.4,0.9,7,1.4,10.5,1.4c1.8,0,3.6-0.1,5.3-0.3
				C36.8,34.8,38.6,34.4,40.3,34L40.3,34c-1.7,0.6-3.4,1-5.2,1.3c-1.8,0.3-3.6,0.5-5.4,0.5c-3.6,0.1-7.2-0.3-10.7-1.2
				c-3.5-0.9-6.9-2.3-10-4.1l-0.3-0.2c-0.3-0.2-0.6-0.5-0.8-0.8c-0.3-0.4-0.5-0.9-0.6-1.3C7.1,27.3,7,26.3,7,25.4
				c0-1.8,0.2-3.6,0.6-5.4l0.1-0.4l0.4,0.2c1.8,0.8,3.7,1.4,5.6,1.8c1.9,0.5,3.9,0.7,5.8,0.8c2,0.1,3.9-0.1,5.8-0.6
				c1-0.2,1.9-0.5,2.8-0.9c0.9-0.4,1.8-0.8,2.6-1.4l-0.1,0.1l6.2-8.9L40,6.2l3-4.5l0.1-0.1l0.1,0.1C45,3.4,47,4.9,49.2,6
				c1.1,0.6,2.2,1.1,3.4,1.5c1.2,0.4,2.4,0.7,3.6,0.9l0.2,0l0,0.2c0.1,0.8,0.1,1.5-0.1,2.3c-0.2,0.8-0.5,1.5-0.9,2.1
				c-0.9,1.2-2,2.2-3.3,3.1c-1.2,0.9-2.4,1.7-3.5,2.6c-1.1,0.9-2,2.1-2.5,3.4v0v0c-0.4,1-0.7,2.1-0.9,3.2c-0.2,1.1-0.4,2.3-0.8,3.4
				C43.9,31,42.4,32.9,40.3,34L40.3,34z"/>
		</g>
		<g transform="translate(39.399 16.879)">
			<path class="st0" d="M15.8,1.5c2.6,0.5,4.8,2.2,6,4.6c1.1,1.8,1.9,3.8,2.2,5.9c0.4,2,0.1,4.1-0.7,6c-0.6,1.4-1.7,2.9-3.5,2.8
				c0,0-0.9,5.5,1.2,9.2c0,0-6,5.8-13.6-1.5c0,0,4.1-6.9,2.9-11.5c-3-3-4-7.4-2.7-11.4C7.7,5.7,10.4,0.3,15.8,1.5z"/>
			<path d="M15.8,1.5c0.6,0.1,1.3,0.3,1.9,0.6c0.6,0.3,1.2,0.6,1.7,1C20.4,3.8,21.3,4.8,22,6l0,0c0.4,0.6,0.8,1.2,1.1,1.9
				c0.3,0.7,0.6,1.3,0.8,2c0.5,1.4,0.7,2.9,0.7,4.3c0,1.5-0.4,2.9-1.1,4.3c-0.3,0.7-0.8,1.3-1.4,1.8c-0.6,0.5-1.4,0.7-2.1,0.7
				l0.2-0.2c-0.1,0.8-0.2,1.5-0.2,2.3c0,0.8,0,1.6,0.1,2.3c0.1,0.8,0.2,1.6,0.4,2.3c0.2,0.8,0.5,1.5,0.9,2.2l0.1,0.1l-0.1,0.1
				c-1,0.9-2.1,1.5-3.3,1.9c-1.2,0.4-2.5,0.5-3.8,0.3c-0.6-0.1-1.3-0.2-1.9-0.5c-0.6-0.2-1.2-0.5-1.8-0.8c-1.1-0.6-2.2-1.4-3.1-2.3
				l-0.2-0.2l0.1-0.2c0.5-0.9,0.9-1.8,1.3-2.7c0.4-0.9,0.7-1.8,1-2.8C9.8,22,10,21,10.2,20c0.1-1,0.1-1.9-0.1-2.9l0.1,0.2
				c-0.4-0.4-0.7-0.8-1.1-1.2c-0.3-0.4-0.6-0.9-0.9-1.3c-0.5-0.9-0.9-1.9-1.2-3c-0.2-1-0.3-2.1-0.3-3.2c0.1-1.1,0.3-2.1,0.7-3.1l0,0
				v0c0.4-0.7,1-1.4,1.6-2c0.6-0.6,1.3-1.1,2-1.5c0.7-0.4,1.5-0.6,2.4-0.8C14.2,1.3,15,1.3,15.8,1.5z M15.8,1.6
				c-0.8-0.2-1.6-0.2-2.4-0.1c-0.8,0.1-1.6,0.4-2.3,0.8c-0.7,0.4-1.3,0.9-1.8,1.5c-0.5,0.6-1,1.3-1.4,2l0,0c-0.3,1-0.5,2-0.5,3
				c0,1,0.1,2,0.3,3c0.2,1,0.6,1.9,1.1,2.8c0.5,0.9,1.1,1.7,1.8,2.4l0.1,0.1l0,0.1c0.2,1,0.3,2.1,0.1,3.1c-0.1,1-0.4,2-0.7,3
				c-0.3,1-0.7,1.9-1.1,2.9c-0.4,0.9-0.9,1.8-1.4,2.7l-0.1-0.4c0.9,0.9,1.9,1.6,2.9,2.3c0.5,0.3,1.1,0.6,1.7,0.8
				c0.6,0.2,1.2,0.4,1.8,0.5c1.2,0.2,2.5,0.1,3.7-0.2c1.2-0.3,2.3-0.9,3.3-1.8l0,0.2c-0.4-0.7-0.7-1.4-0.9-2.2
				c-0.2-0.8-0.3-1.6-0.4-2.3c-0.1-0.8-0.1-1.6-0.1-2.4c0-0.8,0-1.6,0.1-2.4l0-0.2h0.2c0.7,0,1.3-0.3,1.8-0.7c0.5-0.5,0.9-1,1.2-1.6
				c0.6-1.3,0.9-2.6,1-4c0-1.4-0.2-2.8-0.6-4.2c-0.4-1.4-0.9-2.7-1.6-3.9l0,0l0,0c-0.3-0.6-0.6-1.1-1-1.6c-0.8-1-1.8-1.8-3-2.4
				C17.1,1.9,16.5,1.7,15.8,1.6L15.8,1.6z"/>
		</g>
		<path d="M55.8,19.9c0,0,1.9,3.4-1.1,8.6c0,0-1.2,1.7-1.3-0.3c0,0-0.4-1.8-1.6-0.5c-1.1,1.6-0.7,3.8,0.9,4.9
			c0.4,0.2,0.7,0.4,1.2,0.5c0,0,1.2,0.6,1.1,1.2c0,0,0.2,0.6-1.3,1.9c0,0-2,1.7-4.1,1c-1.8-1.4-3.4-3-4.8-4.8c0,0-6.3-7.7,0.7-12.3
			c0.9-3.1,3.7-5.1,6.9-5c0,0,9.2,0,9.4,9.1C60.5,22,58.4,20.4,55.8,19.9z"/>
		<g transform="translate(16.948 41.833)">
			<g transform="translate(0 57.729)">
				<path class="st0" d="M9.5,10.6c0,0-3.8,0.5-3-1.5c1.4-2.8,4-4.9,7.1-5.5"/>
				<path d="M9.5,10.6c-0.6,0.1-1.1,0.1-1.7,0.1c-0.3,0-0.6-0.1-0.9-0.2c-0.3-0.1-0.6-0.3-0.7-0.6c-0.1-0.2-0.1-0.3,0-0.5
					c0-0.2,0.1-0.3,0.1-0.5c0.1-0.3,0.2-0.6,0.3-0.8c0.1-0.3,0.3-0.5,0.5-0.7C7.3,7.2,7.5,7,7.8,6.8C8.2,6.4,8.6,6,9,5.6
					c0.4-0.4,0.8-0.8,1.3-1.1c0.5-0.3,1-0.6,1.6-0.7c0.6-0.2,1.1-0.2,1.7-0.2l0,0.1c-0.5,0.3-1,0.5-1.5,0.8c-0.5,0.2-1,0.5-1.4,0.7
					c-0.5,0.2-0.9,0.5-1.4,0.8C8.8,6.2,8.3,6.6,8,7C7.9,7.3,7.8,7.5,7.6,7.8C7.5,8,7.3,8.2,7.2,8.4S6.9,8.9,6.7,9.1
					C6.6,9.3,6.5,9.5,6.6,9.8c0.1,0.2,0.3,0.4,0.5,0.5c0.2,0.1,0.5,0.2,0.8,0.2C8.4,10.5,8.9,10.6,9.5,10.6L9.5,10.6z"/>
			</g>
			<path class="st0" d="M6.5,66.8"/>
			<g transform="translate(0.123)">
				<path class="st0" d="M6.3,66.8c12.6-8.1,31.3,1.9,43.3-7.7l-0.1-31.6C50.7,15.6,47.3,9,47.3,9c-2.7-7.5-13.2-6.6-13.2-6.6
					s-4.9-0.4-9.3,6.1c0,0-16.5,22.9-18.6,58.3H6.3z"/>
				<path d="M6.3,66.8c1.6-1,3.3-1.8,5.1-2.4c1.8-0.5,3.7-0.9,5.5-1.1c3.7-0.3,7.5-0.3,11.2-0.1c3.7,0.2,7.5,0.1,11.2-0.3
					c1.8-0.3,3.6-0.7,5.4-1.4c1.7-0.7,3.3-1.6,4.8-2.7l-0.1,0.2c0-5.3,0.1-10.5,0.1-15.8l0-7.9l0-7.9v0c0-0.8,0.1-1.6,0.1-2.4
					c0-0.8,0.1-1.6,0-2.4c0-1.6-0.1-3.1-0.3-4.7c-0.2-1.6-0.5-3.1-0.8-4.6c-0.4-1.5-0.8-3-1.5-4.4l0,0v0C46.7,7.8,46,6.7,45,5.8
					c-0.9-0.9-2-1.6-3.2-2c-1.2-0.5-2.5-0.8-3.7-1c-1.3-0.2-2.6-0.2-3.9-0.2h-0.1c-0.7,0-1.4,0.1-2.1,0.3c-0.7,0.2-1.4,0.5-2,0.9
					c-1.3,0.8-2.4,1.7-3.4,2.9c-0.5,0.6-1,1.2-1.4,1.8c-0.4,0.6-0.8,1.3-1.3,1.9c-0.8,1.3-1.6,2.6-2.3,3.9c-3,5.3-5.5,10.9-7.6,16.7
					c-2.1,5.7-3.8,11.6-5.1,17.6C7.6,54.6,6.7,60.7,6.3,66.8l-0.1,0L6.3,66.8z M6.4,66.9H6.2h0v0c0.2-3.1,0.4-6.1,0.8-9.2
					c0.4-3,0.9-6.1,1.5-9.1c1.2-6,2.9-12,4.9-17.7C15.5,25,18,19.4,21,14c0.7-1.3,1.5-2.7,2.4-4c0.4-0.6,0.8-1.3,1.3-1.9
					c0.4-0.6,0.9-1.3,1.4-1.8c1-1.2,2.2-2.2,3.6-3c0.7-0.4,1.4-0.7,2.2-1C32.6,2.1,33.4,2,34.2,2h-0.1c1.3-0.1,2.7,0,4,0.2
					c1.3,0.2,2.6,0.6,3.9,1.1c1.3,0.5,2.4,1.3,3.4,2.2c1,1,1.7,2.1,2.2,3.4l0,0c0.6,1.5,1.1,3,1.5,4.5c0.3,1.5,0.6,3.1,0.7,4.7
					c0.1,0.8,0.1,1.6,0.2,2.4c0.1,0.8,0.1,1.6,0.1,2.4c0,0.8,0,1.6-0.1,2.4c0,0.8-0.1,1.6-0.2,2.4v0l0,7.9l0.1,7.9
					c0.1,5.3,0.1,10.5,0.2,15.8v0.1l-0.1,0.1c-1.5,1.2-3.1,2.2-4.9,2.9c-1.8,0.7-3.6,1.1-5.5,1.4c-3.7,0.4-7.5,0.5-11.3,0.3
					c-3.7-0.3-7.5-0.3-11.2-0.1c-1.9,0.1-3.7,0.4-5.5,0.9C9.7,65.1,7.9,65.9,6.4,66.9L6.4,66.9z"/>
			</g>
		</g>
		<g transform="translate(39.108 48.388)">
			<polygon class="st4" points="60.8,23.1 85,6.6 86.4,8.8 62.3,25.2 			"/>
			<g transform="translate(43.98 14.766)">
				<path class="st0" d="M29.8,2.6c-0.1-0.2-4.9,2.6-7.2,3.8c1-1,2.5-2.1,1.4-3.1l-4.5,3.2L8.2,6.8l0,7.3l13.2-3.7
					c1.2-0.3,2.4-0.9,3.4-1.8C28.9,5.3,30.5,4,29.8,2.6z"/>
				<path d="M29.8,2.6C29.8,2.6,29.7,2.6,29.8,2.6c-0.1,0-0.2,0-0.2,0.1c-0.1,0-0.2,0.1-0.2,0.1c-0.2,0.1-0.3,0.1-0.5,0.2L28,3.5
					l-1.8,1c-1.2,0.7-2.4,1.4-3.6,2l-0.3,0.2l0.2-0.2C23,5.9,23.5,5.5,23.9,5c0.2-0.2,0.3-0.5,0.4-0.8c0-0.3-0.1-0.6-0.3-0.8l0.1,0
					l-4.4,3.3l0,0h-0.1L8.2,7.1l0.3-0.3l0,7.3l-0.4-0.3l6.2-1.8c2.1-0.6,4.1-1.1,6.2-1.7c0.5-0.1,1-0.3,1.5-0.4
					c0.5-0.2,1-0.4,1.4-0.6C24,9,24.4,8.7,24.8,8.4l1.3-1c0.9-0.6,1.7-1.3,2.5-2.1c0.4-0.4,0.7-0.8,1-1.2c0.1-0.2,0.2-0.5,0.3-0.7
					C29.9,3.1,29.9,2.9,29.8,2.6z M29.9,2.6C30,2.8,30,3.1,30,3.4c0,0.3-0.1,0.5-0.3,0.8c-0.3,0.5-0.6,0.9-1,1.3
					c-0.8,0.8-1.6,1.5-2.4,2.2l-1.2,1.1c-0.4,0.4-0.9,0.7-1.3,1c-0.5,0.3-1,0.5-1.5,0.7c-0.3,0.1-0.5,0.2-0.8,0.3l-0.8,0.2
					c-2.1,0.6-4.1,1.2-6.2,1.8l-6.2,1.7l-0.4,0.1l0-0.4L8,6.8V6.5h0.3l11.3-0.1l-0.1,0L24,3.3l0.1,0l0.1,0c0.3,0.2,0.4,0.6,0.4,0.9
					c-0.1,0.3-0.2,0.6-0.5,0.9c-0.4,0.5-0.9,0.9-1.4,1.4l-0.1-0.1c1.2-0.6,2.4-1.3,3.6-2l1.8-1L28.9,3c0.2-0.1,0.3-0.2,0.5-0.2
					c0.1,0,0.2-0.1,0.2-0.1c0,0,0.1,0,0.1,0c0,0,0,0,0.1,0C29.8,2.6,29.8,2.5,29.9,2.6L29.9,2.6z"/>
			</g>
			<path d="M8.8,9.5c0,0-1.6,32.5,16.7,27.6"/>
			<path class="st0" d="M15.9,31.2c0,0-7.3-10.9-8.8-21.3c-0.2-1.5,0-3,0.6-4.4C8.3,4,9.5,3,10.9,2.6c1.5-0.3,3,0.2,4.1,1.3
				c2.6,2.8,9.3,10.6,13.6,18.7c0,0,17.7-4.7,25.6-3.3c0.8,0.6,1.5,1.3,2,2.2c0,0,2.6,3.5,0.7,6.5c-1.5,2.5-5.3,2.2-8,3.3
				c-2.9,1.2-5.5,3.7-8.6,3.5c-1.3-0.1-2.5-0.7-3.7-0.9c-2.8-0.4-5.5,1.2-8.1,2.4l-0.1,0C24.8,38,20.4,37,18,33.8L15.9,31.2z"/>
			<path d="M15.9,31.2c-1.4-2.1-2.6-4.3-3.7-6.5c-1.2-2.2-2.2-4.5-3.1-6.8c-0.9-2.3-1.6-4.8-2.1-7.2C6.7,9.5,6.7,8.1,6.9,6.9
				c0.2-1.3,0.9-2.5,1.8-3.4c1-1,2.3-1.4,3.7-1.2c1,0.1,1.9,0.6,2.6,1.3c0.2,0.2,0.4,0.5,0.6,0.7c1.6,1.9,3.2,3.8,4.8,5.8
				c1.5,2,3,4,4.4,6.1c1.4,2.1,2.7,4.2,3.9,6.4l-0.1-0.1c2.1-0.6,4.2-1,6.3-1.5c2.1-0.5,4.2-0.9,6.4-1.3c2.1-0.4,4.3-0.7,6.5-0.8
				c2.2-0.2,4.4-0.2,6.6,0.1l0.1,0l0.1,0c0.2,0.2,0.4,0.3,0.6,0.5c0.2,0.2,0.4,0.4,0.6,0.6c0.4,0.4,0.7,0.8,0.9,1.3l0,0
				c0.3,0.5,0.6,1,0.8,1.5c0.2,0.5,0.4,1.1,0.5,1.6c0.3,1.2,0.1,2.4-0.4,3.4c-0.3,0.5-0.6,1-1.1,1.4c-0.5,0.4-1,0.7-1.5,0.9
				c-1.1,0.4-2.1,0.6-3.2,0.8c-1.1,0.2-2.1,0.5-3.1,0.9c-1,0.5-1.9,1-2.9,1.6c-1,0.6-2,1.1-3.1,1.4c-0.6,0.2-1.1,0.3-1.7,0.3
				c-0.6,0-1.2-0.1-1.7-0.2c-1-0.4-2.1-0.6-3.1-0.8c-1.1,0-2.1,0.1-3.1,0.5c-1,0.3-2,0.8-3,1.2c-0.5,0.2-1,0.5-1.5,0.7
				c-0.5,0.2-1,0.4-1.6,0.5c-1.1,0.2-2.2,0.3-3.3,0.1c-1.1-0.2-2.1-0.6-3.1-1.1c-1-0.6-1.8-1.3-2.5-2.2L15.9,31.2z M15.9,31.2
				c1.4,1.7,2.6,3.6,4.5,4.7c0.9,0.5,2,0.9,3.1,1c1.6,0.2,3.2-0.1,4.7-0.8c0.5-0.2,1-0.5,1.5-0.7c1-0.5,2-1,3-1.4
				c1.1-0.4,2.2-0.6,3.3-0.6c1.1,0.1,2.2,0.4,3.3,0.7c0.5,0.1,1,0.2,1.5,0.2c0.5,0,1-0.1,1.5-0.2c1-0.3,2-0.8,2.9-1.3
				c0.9-0.5,1.9-1.1,2.9-1.6c1-0.5,2.1-0.8,3.2-1c1.1-0.2,2.1-0.5,3.1-0.8c1-0.3,1.8-1,2.2-1.9c0.5-0.9,0.6-2,0.4-3
				c-0.2-1-0.6-2-1.2-2.9l0,0l0,0c-0.2-0.4-0.5-0.8-0.8-1.2c-0.2-0.2-0.3-0.4-0.5-0.5c-0.2-0.2-0.4-0.3-0.5-0.4l0.1,0
				c-2.1-0.3-4.3-0.4-6.4-0.2c-2.2,0.1-4.3,0.4-6.4,0.7c-4.3,0.6-8.5,1.5-12.7,2.6l-0.1,0l0-0.1c-1.2-2.2-2.5-4.3-3.9-6.4
				c-1.4-2.1-2.9-4-4.5-6s-3.2-3.8-4.9-5.7C15,4.4,14.8,4.2,14.6,4c-0.2-0.2-0.4-0.4-0.7-0.5c-0.5-0.3-1-0.5-1.6-0.6
				C11.2,2.7,10,3.1,9.2,3.9c-0.4,0.4-0.8,0.9-1,1.4C7.9,5.9,7.7,6.4,7.6,7c-0.3,1.2-0.2,2.4,0,3.6c0.4,2.4,1,4.9,1.8,7.2
				c0.8,2.3,1.8,4.6,2.9,6.9C13.4,26.9,14.6,29.1,15.9,31.2L15.9,31.2z"/>
		</g>
		<path class="st6" d="M59.1,41c0-1.1,0-2.3,0.2-3.4c-1.2-0.4-2.3-1.1-3.1-2C56.7,37.6,57.7,39.5,59.1,41z"/>
	</g>
	<path d="M316.3,2993.9c4.1-0.1,8.3-0.2,12.4-0.3c4.1-0.1,8.3-0.2,12.4-0.2l12.4-0.2l12.4-0.1l12.4-0.1l12.4,0
		c8.3,0,16.5,0,24.8,0.1l24.8,0.3l12.4,0.2l12.4,0.1c8.3,0,16.5,0,24.8,0l6.2,0l6.2-0.1l12.4-0.1c16.5-0.2,33-0.4,49.6-0.5l24.8-0.1
		l12.4,0h12.4c33,0.1,66.1,0.4,99.1,1.1v0.2c-33,0.7-66.1,1-99.1,1.1h-12.4l-12.4,0l-24.8-0.1c-16.5-0.1-33-0.2-49.6-0.5l-12.4-0.1
		l-6.2-0.1l-6.2,0c-8.3-0.1-16.5-0.1-24.8,0l-12.4,0.1l-12.4,0.2l-24.8,0.3c-8.3,0.1-16.5,0.1-24.8,0.1l-12.4,0l-12.4-0.1l-12.4-0.1
		l-12.4-0.2c-4.1-0.1-8.3-0.1-12.4-0.2c-4.1-0.1-8.3-0.2-12.4-0.3L316.3,2993.9z"/>
	<g transform="translate(315.92 2804.026)">
		<g transform="translate(55.699 24.555)">
			<path d="M4.2,5.4c0,0-5.5,7.8-0.9,18.8"/>
			<g transform="translate(30.728 42.046)">
				<path class="st0" d="M6.5,3.4c2.4,2.1,9.4,7,12,8.9c2.3,1.1,6.4,1.8,8.4,4.2c0.5,1.5,0.9,3.1,1.2,4.6c0,0,2,2.5,1.3,3.2
					c-0.8,0.8-3-2.4-4.3-3.1c-1.3-0.7-2.6-1.3-3.9-1.8c-0.4,0-0.3,0.3,0.2,0.8c0.6,0.6,3.6,2.5,2.8,3.5s-4.9-1.8-5.8-2.9
					C17.6,20,17,19,16.4,17.9C13.9,16.6,2.8,9.8,2.2,9.6"/>
				<path d="M6.5,3.3c1,0.7,2,1.5,3,2.2s2.1,1.4,3.1,2.1l3.1,2.1c1,0.7,2.1,1.4,3.1,2.1l-0.1-0.1c1.1,0.5,2.2,0.8,3.3,1.2
					c1.2,0.4,2.3,0.9,3.3,1.5c0.5,0.3,1,0.7,1.5,1.2c0.1,0.1,0.2,0.2,0.3,0.4c0.1,0.1,0.1,0.2,0.2,0.2c0,0.1,0.1,0.2,0.1,0.3
					c0.1,0.3,0.2,0.6,0.3,0.9c0.3,1.2,0.5,2.4,0.7,3.5l-0.1-0.2c0.4,0.5,0.7,1,0.9,1.5c0.1,0.3,0.3,0.5,0.4,0.8
					c0.1,0.3,0.2,0.7,0.1,1c-0.1,0.2-0.2,0.4-0.5,0.5c-0.2,0.1-0.4,0.1-0.6,0c-0.3-0.1-0.6-0.3-0.8-0.5c-0.4-0.4-0.8-0.8-1.2-1.2
					c-0.4-0.4-0.8-0.8-1.2-1.2c-0.2-0.2-0.4-0.3-0.6-0.5c-0.2-0.1-0.5-0.3-0.7-0.4c-1-0.5-2-1-3.1-1.4l0.1,0c-0.1,0-0.1,0-0.1,0
					c0,0,0,0.1,0,0.1c0.1,0.1,0.2,0.3,0.3,0.4c0.2,0.2,0.5,0.4,0.8,0.6c0.5,0.4,1.1,0.8,1.6,1.3c0.3,0.2,0.5,0.5,0.7,0.8
					c0.1,0.2,0.2,0.4,0.2,0.6c0,0.3-0.2,0.5-0.4,0.6c-0.2,0.1-0.4,0.2-0.7,0.1c-0.2,0-0.4,0-0.6-0.1c-0.3-0.1-0.7-0.2-1-0.4
					c-0.6-0.3-1.2-0.6-1.8-1c-0.6-0.4-1.1-0.8-1.7-1.2c-0.1-0.1-0.3-0.3-0.4-0.4c-0.1-0.1-0.2-0.3-0.3-0.4c-0.2-0.3-0.4-0.6-0.6-0.9
					c-0.4-0.6-0.7-1.2-1-1.8l0.2,0.2c-1.2-0.7-2.4-1.4-3.6-2.1s-2.3-1.4-3.5-2.2l-3.5-2.2l-1.7-1.1c-0.6-0.4-1.2-0.8-1.8-1l0-0.1
					C2.5,9.7,2.9,9.9,3.2,10c0.3,0.2,0.6,0.3,0.9,0.5l1.8,1c1.2,0.7,2.4,1.3,3.6,2l3.6,2c1.2,0.7,2.4,1.4,3.6,2l0.1,0.1l0.1,0.1
					c0.3,0.6,0.7,1.1,1.1,1.7c0.3,0.5,0.7,1,1.2,1.5c1,0.9,2.1,1.6,3.2,2.2c0.3,0.1,0.6,0.3,0.9,0.4c0.2,0.1,0.5,0.1,0.8,0.1
					c0.1,0,0.1-0.1,0.1-0.2c0-0.1,0-0.2-0.1-0.4c-0.1-0.3-0.3-0.5-0.5-0.8c-0.5-0.5-0.9-0.9-1.5-1.3c-0.3-0.2-0.5-0.4-0.8-0.7
					c-0.1-0.1-0.2-0.3-0.3-0.4c-0.1-0.1-0.1-0.2,0-0.4c0-0.1,0.1-0.1,0.2-0.1c0.1,0,0.1,0,0.2,0h0l0,0c1.1,0.4,2.1,0.8,3.1,1.3
					c0.3,0.1,0.5,0.2,0.8,0.4c0.3,0.1,0.5,0.3,0.7,0.5c0.5,0.4,0.9,0.8,1.3,1.2c0.4,0.4,0.8,0.8,1.2,1.1c0.2,0.2,0.4,0.3,0.6,0.4
					c0.1,0,0.1,0,0.2,0c0,0,0.1-0.1,0.1-0.1c0-0.2,0-0.4-0.1-0.6c-0.1-0.2-0.2-0.5-0.3-0.7c-0.3-0.5-0.6-0.9-0.9-1.3l-0.1-0.1l0-0.1
					c-0.3-1.2-0.5-2.3-0.8-3.5c-0.1-0.3-0.2-0.5-0.3-0.8c0,0,0-0.1-0.1-0.1c0,0,0-0.1-0.1-0.1c-0.1-0.1-0.2-0.2-0.3-0.3
					c-0.4-0.4-0.9-0.7-1.3-1c-1-0.6-2.1-1.1-3.2-1.4c-1.1-0.4-2.2-0.8-3.4-1.3l0,0l0,0l-3-2.2c-1-0.7-2-1.5-3-2.2
					c-1-0.8-2-1.5-2.9-2.3C8.3,5,7.4,4.3,6.5,3.3L6.5,3.3z"/>
			</g>
			<g transform="translate(1.072)">
				<path class="st0" d="M39.1,62.1c-5.2-2.3-9.8-5.5-13.8-9.6c-4.5-4.8-8.3-6.3-14.3-9c-7.8-3.2-11-21.9-8.1-36.6
					c0.7-3.5,2.4-4.4,4-4.4c1.9,0,3.6,1.2,4.3,2.9c2.9,6.7,4.6,22.4,6.4,27.1c0,0,18.4,11.3,27,16.7C42.3,53.2,40.4,57.6,39.1,62.1z
					"/>
				<path d="M39.2,62.1c0,0-0.1,0-0.1,0l-0.1,0L38.7,62l-0.4-0.2c-0.3-0.1-0.5-0.2-0.8-0.4c-0.5-0.2-1.1-0.5-1.6-0.8
					c-1-0.5-2.1-1.1-3.1-1.8c-2-1.3-3.9-2.7-5.7-4.3c-0.4-0.4-0.9-0.8-1.3-1.2l-1.3-1.2c-0.8-0.8-1.7-1.6-2.6-2.3
					c-1.9-1.4-3.9-2.6-6-3.6c-1.1-0.5-2.1-1-3.2-1.5L11.1,44c-0.6-0.2-1.1-0.5-1.6-0.9c-1-0.7-1.9-1.6-2.6-2.6c-0.7-1-1.3-2-1.8-3.1
					c-1-2.2-1.8-4.5-2.3-6.8c-0.5-2.3-0.9-4.7-1.1-7.1C1.3,18.8,1.4,14,2.1,9.3c0.1-0.6,0.2-1.2,0.3-1.8C2.5,7,2.7,6.4,2.8,5.8
					C3,5.2,3.3,4.6,3.6,4.1c0.3-0.5,0.8-1,1.3-1.3c0.5-0.3,1.2-0.5,1.8-0.6c0.6,0,1.2,0.1,1.8,0.3c1.2,0.4,2.1,1.3,2.7,2.4
					c0.1,0.3,0.3,0.5,0.4,0.8c0.1,0.3,0.2,0.6,0.3,0.8c0.2,0.6,0.4,1.1,0.6,1.7c0.3,1.1,0.6,2.3,0.9,3.4c0.5,2.3,1,4.6,1.5,6.9
					s0.9,4.6,1.4,7c0.2,1.2,0.5,2.3,0.8,3.5c0.3,1.1,0.6,2.3,1,3.4l-0.1-0.2c2.3,1.4,4.5,2.7,6.8,4.1s4.5,2.8,6.7,4.2l6.7,4.2
					c2.2,1.4,4.5,2.8,6.7,4.2l0.3,0.2l-0.2,0.3c-0.6,1-1.2,2-1.7,3.1c-0.5,1-1,2.1-1.5,3.2c-0.5,1.1-0.9,2.1-1.3,3.2
					c-0.2,0.5-0.4,1.1-0.6,1.7L39.2,62.1z M39.1,62.1c0.2-0.6,0.3-1.1,0.4-1.7s0.3-1.1,0.5-1.7c0.4-1.1,0.8-2.2,1.2-3.3
					c0.4-1.1,0.9-2.2,1.4-3.2c0.5-1.1,1-2.1,1.6-3.1l0.1,0.4c-2.3-1.4-4.5-2.7-6.8-4.1l-6.8-4.1c-2.3-1.4-4.5-2.8-6.7-4.2
					s-4.5-2.8-6.7-4.2l-0.1-0.1l0-0.1c-0.4-1.1-0.7-2.3-0.9-3.5c-0.2-1.2-0.5-2.3-0.7-3.5c-0.4-2.3-0.8-4.7-1.2-7s-0.9-4.6-1.5-6.9
					c-0.3-1.1-0.6-2.3-0.9-3.4c-0.3-1.1-0.7-2.2-1.3-3.3c-0.6-1-1.5-1.8-2.5-2.1C7.3,2.5,6.2,2.6,5.2,3.2C4.3,3.9,3.7,4.9,3.5,6
					C3.3,6.5,3.2,7.1,3.1,7.7C3,8.3,2.9,8.8,2.8,9.4c-0.3,2.3-0.5,4.7-0.5,7c0,2.3,0,4.7,0.3,7c0.2,2.3,0.6,4.7,1.1,6.9
					C4.2,32.7,5,34.9,5.9,37c0.5,1,1.1,2,1.7,3c0.7,0.9,1.5,1.7,2.4,2.4c0.5,0.3,1,0.6,1.5,0.8l1.6,0.7c1.1,0.5,2.2,1,3.2,1.5
					c2.2,1,4.2,2.3,6.1,3.8c0.9,0.8,1.8,1.6,2.6,2.4l1.2,1.3c0.4,0.4,0.8,0.8,1.2,1.2c1.7,1.6,3.5,3.1,5.5,4.4c1,0.7,2,1.3,3,1.9
					c0.5,0.3,1,0.6,1.6,0.8c0.3,0.1,0.5,0.3,0.8,0.4l0.4,0.2L39,62L39.1,62.1C39.1,62,39.1,62,39.1,62.1z"/>
			</g>
			<path d="M43.6,58c0,0-1.8,4.9-3.4,4.1L42,57L43.6,58z"/>
		</g>
		<path d="M51.3,71.1c0,0,0.1,4.3,7.4,6l2.1-5.3L51.3,71.1z"/>
		<g transform="translate(58.12 2.389)">
			<path class="st0" d="M13.5,4.1c0,0,5.3,7.7,1.2,13.3c0,0-1,1.3-4.2,0.4c0.1,2.5,0.7,4.9,1.7,7.2L2.1,23.3c0,0,1.9-2.5,1.9-7.8
				c0,0-3-4.1-1.9-8.7c0,0,1.9-4.7,5.8-4.9C7.9,1.8,11.8,2.2,13.5,4.1z"/>
			<path d="M13.5,4.1c0.8,1.3,1.5,2.7,2.1,4.1c0.6,1.5,0.9,3,0.9,4.6c0,0.8-0.1,1.6-0.3,2.4c-0.2,0.8-0.6,1.5-1,2.2l-0.1,0.1
				c0,0.1-0.1,0.1-0.1,0.1c-0.1,0.1-0.2,0.2-0.3,0.2c-0.2,0.1-0.4,0.2-0.6,0.3c-0.4,0.1-0.8,0.2-1.2,0.2c-0.8,0-1.6-0.1-2.4-0.4
				l0.3-0.3c0,0.6,0,1.2,0.1,1.8c0.1,0.6,0.2,1.2,0.3,1.8c0.2,1.2,0.6,2.4,1.2,3.5l0.1,0.2l-0.2,0c-0.9-0.1-1.7-0.3-2.6-0.4
				l-2.6-0.4L2,23.5l-0.4-0.1l0.2-0.3c0.4-0.6,0.6-1.1,0.9-1.8c0.2-0.6,0.4-1.3,0.5-1.9c0.1-0.7,0.2-1.3,0.3-2c0-0.3,0-0.7,0.1-1
				l0-1l0.1,0.2c-0.5-0.7-0.8-1.3-1.2-2.1c-0.3-0.7-0.6-1.5-0.8-2.2C1.6,10.6,1.5,9.8,1.5,9c0-0.8,0.1-1.6,0.3-2.4l0,0l0,0
				c0.3-0.6,0.6-1.2,1-1.8c0.4-0.6,0.8-1.1,1.3-1.6c0.5-0.5,1.1-0.9,1.7-1.1c0.6-0.3,1.3-0.4,2-0.5h0h0c1,0.2,2,0.5,3,0.9
				C11.9,2.8,12.8,3.4,13.5,4.1z M13.5,4.2c-0.4-0.4-0.8-0.7-1.2-0.9c-0.4-0.3-0.9-0.5-1.4-0.6c-0.5-0.2-1-0.3-1.5-0.4
				C8.9,2.1,8.4,2,7.9,1.9h0C7.2,2,6.6,2.2,6.1,2.5C5.5,2.8,5,3.2,4.5,3.6c-0.4,0.5-0.8,1-1.2,1.5C3,5.7,2.7,6.2,2.4,6.8l0,0
				C2.3,7.5,2.2,8.2,2.3,9c0,0.7,0.1,1.5,0.3,2.2c0.2,0.7,0.4,1.4,0.7,2.1c0.3,0.7,0.6,1.3,1,2l0.1,0.1v0.1l0,1c0,0.3,0,0.7-0.1,1
				c-0.1,0.7-0.2,1.4-0.3,2.1c-0.2,0.7-0.4,1.3-0.6,2c-0.3,0.7-0.6,1.3-1,1.9L2.1,23l5.1,1l2.6,0.4c0.9,0.1,1.7,0.3,2.6,0.4L12.2,25
				c-0.3-0.6-0.5-1.1-0.8-1.7c-0.2-0.6-0.4-1.2-0.6-1.8c-0.2-0.6-0.3-1.2-0.4-1.8c-0.1-0.6-0.2-1.2-0.2-1.9l0-0.4l0.4,0.1
				c0.7,0.2,1.4,0.3,2.2,0.3c0.4,0,0.7-0.1,1-0.2c0.2-0.1,0.3-0.1,0.4-0.2c0.1,0,0.1-0.1,0.2-0.1c0,0,0-0.1,0.1-0.1l0.1-0.1
				c0.8-1.2,1.3-2.7,1.4-4.2c0.1-1.5-0.1-3.1-0.6-4.5C15,6.9,14.3,5.5,13.5,4.2L13.5,4.2z"/>
		</g>
		<g transform="translate(0 62.111)">
			<g transform="translate(6.422)">
				<path class="st0" d="M70.3,5.5l4,44.2c0,0,0.9,8.9-8.4,16.4l-51.5,47.7L1.1,96.1l0.1-0.2c5.3-3.3,9.5-8,12.3-13.5
					c1.5-2.9,2.5-6.2,4.9-8.4c2.8-2.7,6.9-3.4,10.6-4.6c4.2-1.4,8.1-3.6,11.4-6.4c0,0,4.1-47.5,12.4-59.5L70.3,5.5z"/>
				<path d="M70.4,5.5l3.3,33.2c0.3,2.8,0.6,5.6,0.8,8.4l0.2,2.1l0.1,0.5c0,0.2,0,0.4,0,0.6c0,0.4,0,0.7,0,1.1
					c-0.1,1.4-0.4,2.8-0.8,4.2c-0.9,2.7-2.3,5.3-4.1,7.5c-0.9,1.1-1.9,2.1-3,3c-0.5,0.4-1,0.9-1.5,1.4l-1.5,1.4
					c-8.1,7.6-16.3,15.2-24.4,22.8l-24.5,22.7l-0.7,0.6l-0.6-0.8c-2.2-2.9-4.4-5.9-6.6-8.8l-6.6-8.8l-0.3-0.4l0.2-0.4l0.1-0.2
					l0.1-0.3l0.2-0.1c3.7-2.3,6.9-5.3,9.4-8.8c1.3-1.8,2.3-3.7,3.2-5.6c0.9-2.1,2-4.1,3.3-6c0.7-0.9,1.6-1.8,2.6-2.4
					c1-0.6,2-1.2,3.1-1.6c2.1-0.9,4.3-1.4,6.4-2c4.1-1.4,8-3.5,11.3-6.2l-0.3,0.5c0.5-5.1,1.1-10.1,1.8-15.2
					c0.7-5.1,1.4-10.1,2.3-15.1c0.9-5,1.9-10,3.2-15c0.7-2.5,1.4-4.9,2.3-7.3c0.8-2.4,1.9-4.8,3.3-6.9l0.1-0.1l0.1,0L70.4,5.5z
					 M70.3,5.6l-17.4-2l0.1,0c-1.4,2.1-2.4,4.5-3.2,6.9c-0.8,2.4-1.5,4.9-2.2,7.3c-1.2,4.9-2.2,9.9-3.1,15c-0.9,5-1.6,10.1-2.2,15.1
					S41,57.9,40.6,62.9v0l0,0c-3.4,2.9-7.3,5-11.6,6.4c-2.1,0.7-4.3,1.2-6.3,2c-1,0.4-2,0.9-2.9,1.5c-0.9,0.6-1.7,1.4-2.4,2.3
					c-1.3,1.8-2.3,3.8-3.1,5.8c-0.9,2-2,4-3.3,5.8c-2.6,3.6-5.9,6.7-9.6,9.1l0,0l-0.1,0.2l0-0.1l13.2,17.7l-0.1,0l49-45.3l1.5-1.4
					c0.5-0.5,1-1,1.6-1.4c1.1-0.9,2-1.9,2.9-2.9c1.8-2.1,3.2-4.6,4.1-7.2c0.4-1.3,0.7-2.7,0.8-4.1c0.1-0.7,0-1.4,0-2.1L74,47.1
					l-0.7-8.3L70.3,5.6z"/>
			</g>
			<path d="M80.7,49.7l-4-44.2L59.3,3.5c-2.4,3.4-4.4,9.8-6.1,17.1c2.8,5.4,4.5,11.3,4.9,17.3c1.6,15.9-1.5,19.8-2.9,26.6
				c-1.2,5.8-0.9,11.8-0.9,18.3l18-16.6C81.6,58.6,80.7,49.7,80.7,49.7z"/>
			<g transform="translate(0 98.353)">
				<path class="st0" d="M13.7,5.9L0.4,16.6l12.4,12.9h9.3c0,0,1-2.8-6.8-7.5c0,0-3.1-2.9,0.5-7.2l2.4-2.8L13.7,5.9z"/>
				<path d="M13.7,6l-3.3,2.9l-3.2,2.8C5,13.4,2.9,15.2,0.7,17l0-0.6c2.1,2.2,4,4.4,6.1,6.6s4.1,4.3,6.2,6.4l-0.2-0.1l4.6-0.1
					c1.5,0,3.1-0.1,4.6-0.1l-0.4,0.3c0,0,0-0.1,0-0.2c0-0.3-0.1-0.6-0.2-0.8c-0.1-0.4-0.3-0.7-0.6-1.1c-0.5-0.7-1.1-1.3-1.7-1.9
					c-0.7-0.6-1.3-1.1-2-1.6c-0.7-0.5-1.4-1-2.2-1.4l0,0c0,0,0,0-0.1-0.1c-0.2-0.2-0.4-0.4-0.5-0.7c-0.1-0.2-0.3-0.5-0.4-0.7
					c-0.2-0.5-0.4-1-0.4-1.6c-0.1-1.1,0.1-2.1,0.6-3.1c0.2-0.5,0.5-0.9,0.8-1.3c0.2-0.2,0.3-0.4,0.5-0.6L16,14
					c0.7-0.7,1.3-1.5,1.9-2.2l0,0.4l-2.1-3.1L13.7,6z M13.7,5.9l2.4,2.9l2.4,3c0.1,0.1,0.1,0.3,0,0.4l0,0c-0.6,0.8-1.2,1.5-1.8,2.2
					L16.2,15l-0.4,0.6c-0.3,0.4-0.5,0.8-0.7,1.2c-0.4,0.8-0.5,1.7-0.5,2.6c0,0.4,0.2,0.8,0.4,1.2c0.1,0.2,0.2,0.4,0.3,0.6
					c0.1,0.2,0.2,0.3,0.4,0.5l-0.1-0.1c0.8,0.5,1.5,0.9,2.3,1.5c0.7,0.5,1.4,1.1,2.1,1.7c0.7,0.6,1.3,1.3,1.8,2.1
					c0.3,0.4,0.5,0.8,0.7,1.3c0,0.1,0.1,0.2,0.1,0.4c0,0.1,0.1,0.2,0.1,0.4c0,0.1,0,0.3,0,0.4c0,0.2,0,0.3-0.1,0.5
					c-0.1,0.2-0.2,0.3-0.4,0.3h0c-1.5,0-3.1,0-4.6-0.1l-4.6-0.1h0c-0.1,0-0.1,0-0.1-0.1c-2-2.2-4.1-4.4-6.2-6.5
					c-2.1-2.1-4.3-4.2-6.4-6.3c-0.2-0.2-0.2-0.4,0-0.6l0,0l0,0c2.2-1.8,4.5-3.6,6.8-5.4l3.4-2.6L13.7,5.9z"/>
			</g>
			<path d="M9.5,107.6L16,113l-0.1,0.1c-3.6,4.3-0.5,7.2-0.5,7.2c7.8,4.7,6.8,7.5,6.8,7.5h-9.3L0.4,115L9.5,107.6z"/>
		</g>
		<g transform="translate(68.285 165.605)">
			<path class="st0" d="M10.9,6c0.8,5.6,4.9,10.1,10.4,11.6c0,0,8,2.1,8.2,6.1H3.3c0,0,2.7-11.2-1.2-17.3L10.9,6z"/>
			<path d="M11,6c0,0,0,0.1,0,0.1l0,0.1c0,0.1,0,0.1,0,0.2l0.1,0.4c0.1,0.3,0.1,0.5,0.2,0.8c0.1,0.3,0.2,0.5,0.3,0.8
				C11.8,8.7,11.9,9,12,9.2c1.4,3.1,3.8,5.5,6.8,7l0.7,0.4c0.3,0.1,0.5,0.2,0.8,0.3c0.5,0.2,1,0.4,1.6,0.5c1.1,0.3,2.2,0.8,3.2,1.3
				c1,0.5,2,1.2,2.9,1.9c0.4,0.4,0.8,0.9,1.1,1.4c0.3,0.5,0.5,1.1,0.5,1.7v0c0,0.1-0.1,0.2-0.2,0.2c0,0,0,0,0,0h0
				c-2.2,0-4.4-0.1-6.5,0c-2.2,0-4.4,0.1-6.5,0.1l-3.3,0.1l-3.3,0.1l-6.5,0.1c-0.3,0-0.5-0.2-0.5-0.5c0,0,0-0.1,0-0.1v0
				c0.3-1.4,0.5-2.9,0.7-4.3c0.2-1.5,0.2-2.9,0.2-4.4c0-0.4,0-0.7,0-1.1c0-0.4,0-0.7-0.1-1.1c0-0.4-0.1-0.7-0.1-1.1l-0.2-1.1
				C3,9.2,2.5,7.8,1.8,6.6l0,0c-0.1-0.2,0-0.4,0.1-0.5c0,0,0,0,0,0C2,6.1,2,6,2.1,6l4.5,0L11,6z M10.9,6.1L6.4,6.4L2.1,6.7l0.3-0.5
				c0.8,1.3,1.4,2.7,1.7,4.2c0.3,1.5,0.5,3,0.6,4.5c0,1.5,0,3-0.2,4.5c-0.1,1.5-0.4,3-0.7,4.4l-0.5-0.6l6.5,0.1l3.3,0.1l3.3,0.1
				c2.2,0.1,4.4,0.1,6.5,0.1c2.2,0,4.4,0,6.5,0l-0.2,0.2c-0.2-1.1-0.8-2-1.6-2.7c-0.9-0.7-1.8-1.3-2.8-1.7c-1-0.5-2.1-0.9-3.1-1.2
				c-0.5-0.1-1.1-0.4-1.6-0.5c-0.3-0.1-0.5-0.2-0.8-0.3l-0.8-0.4c-2.1-1-3.9-2.6-5.2-4.5c-0.7-0.9-1.2-2-1.6-3.1
				c-0.1-0.3-0.2-0.5-0.3-0.8c-0.1-0.3-0.2-0.6-0.2-0.8C11.1,7.5,11,7.2,11,6.9l-0.1-0.4c0-0.1,0-0.1,0-0.2L10.9,6.1
				C10.9,6.1,10.9,6.1,10.9,6.1L10.9,6.1z"/>
		</g>
		<path d="M72.3,177.9h9.5c1.9,2.6,4.7,4.5,7.8,5.3c0,0,8,2.1,8.2,6.1H71.6C72.4,185.6,72.6,181.7,72.3,177.9z"/>
		<g transform="translate(51.68 64.228)">
			<path class="st0" d="M9.6,109.1c4.5-6.3,6.8-11.8,3.8-19.2c-2.3-5.7-7-11.5-7.1-17.8C6,58,12.2,49.6,7.1,35.2
				c-1.3-3.7-4.3-11.2-5-15c-0.9-5.4,3.3-11.5,6.5-16l17.1,3.9l17,103.6L8,111.2L9.6,109.1z"/>
			<path d="M9.6,109.1c1.4-1.9,2.6-3.8,3.5-5.9c0.5-1,0.8-2.1,1.1-3.3c0.3-1.1,0.4-2.3,0.4-3.4c0-2.3-0.5-4.6-1.4-6.7
				c-0.9-2.1-2-4.2-3.1-6.2c-1.1-2-2.1-4.1-3-6.3c-0.2-0.5-0.4-1.1-0.5-1.7c-0.1-0.6-0.3-1.1-0.4-1.7c-0.1-0.6-0.2-1.2-0.2-1.7
				c0-0.6,0-1.2,0-1.7v-0.9c0-0.3,0-0.6,0-0.9L6.2,67c0.1-1.2,0.2-2.3,0.4-3.5c0.3-2.3,0.7-4.6,1.1-6.9c0.4-2.3,0.8-4.5,0.9-6.8
				c0.2-2.3,0.1-4.6-0.1-6.8c-0.1-0.6-0.2-1.1-0.3-1.7L8,40.5c-0.1-0.3-0.1-0.6-0.2-0.8L7.4,38l-0.5-1.6c-0.3-1.1-0.8-2.2-1.2-3.2
				l-1.2-3.2c-0.8-2.2-1.6-4.3-2.3-6.6c-0.4-1.1-0.6-2.3-0.8-3.5c-0.2-1.2-0.1-2.5,0.1-3.7c0.5-2.3,1.4-4.6,2.7-6.6
				c1.2-2,2.5-4,3.8-5.9l0.3-0.4l0.5,0.1L26,7.3l0.5,0.1l0.1,0.6l1.1,6.5l1,6.5l2.1,13c1.4,8.6,2.8,17.3,4.1,25.9l8.1,51.9l0,0.2
				h-0.2L8,111.3H7.9l0.1-0.1L9.6,109.1z M9.6,109.1L8,111.3l0-0.1l34.9,0.4l-0.1,0.1L25.7,8.1l0.1,0.1L8.6,4.2l0.1,0
				C7.4,6.1,6.1,8,4.9,10c-1.2,2-2.1,4.1-2.6,6.4c-0.2,1.1-0.3,2.3-0.2,3.4C2.4,20.9,2.6,22,3,23.1c0.7,2.2,1.4,4.4,2.2,6.6l1.2,3.3
				c0.4,1.1,0.8,2.2,1.1,3.3L8,37.8l0.4,1.7c0.1,0.3,0.1,0.6,0.2,0.8l0.1,0.9C8.8,41.8,8.9,42.4,9,43c0.2,2.3,0.3,4.6,0.1,6.9
				c-0.2,2.3-0.6,4.6-1,6.9c-0.4,2.3-0.8,4.5-1.1,6.8c-0.2,1.1-0.3,2.3-0.4,3.4l-0.1,1.7c0,0.3,0,0.6,0,0.9l0,0.9
				c-0.1,2.3,0.2,4.6,1,6.8c0.8,2.2,1.8,4.3,2.9,6.3c1.1,2,2.2,4.1,3.1,6.2c0.9,2.1,1.4,4.4,1.4,6.8c0,1.2-0.2,2.3-0.4,3.4
				c-0.3,1.1-0.7,2.2-1.2,3.3C12.2,105.3,11,107.3,9.6,109.1L9.6,109.1z"/>
		</g>
		<g transform="translate(50.064 22.646)">
			<path class="st0" d="M29.4,51.3l-1.8-13.5c-0.3-2.8-0.4-5.7-0.1-8.5l3.1-7.3c1.1-3.2-6.2-13.6-6.2-13.6c-3.5-4.7-10-5.9-10-5.9
				C5.6,1.3,6,15.1,6,15.1S7,26,7.9,31c0.2,1.1,0.3,2.3,0.2,3.4c-0.2,2.1-0.8,4.2-1.9,6.1l-4.3,8c0,0,3.2,4.2,16.5,2.3
				C18.4,50.8,26.6,48.9,29.4,51.3z"/>
			<path d="M29.4,51.2c-0.3-1.9-0.6-3.7-0.9-5.6c-0.3-1.8-0.6-3.6-0.9-5.4l-0.4-2.7c-0.1-0.9-0.2-1.9-0.3-2.8
				c-0.1-1.9-0.1-3.7,0.1-5.6v-0.1l0-0.1l2.1-5l0.5-1.3l0.3-0.6l0.1-0.3l0-0.1l0-0.1c0,0,0-0.1,0-0.1c0.1-0.4,0.1-0.8,0-1.2
				c-0.1-0.4-0.2-0.9-0.3-1.3c-0.6-1.7-1.3-3.3-2.2-4.9c-0.9-1.6-1.8-3.2-2.8-4.7c-0.2-0.4-0.5-0.8-0.7-1.1c-0.3-0.4-0.5-0.7-0.8-1
				c-0.6-0.7-1.3-1.3-2-1.8c-1.5-1-3.1-1.9-4.8-2.4C16,3,15.6,2.8,15.2,2.7c-1.3-0.4-2.7-0.3-3.9,0.1c-0.8,0.3-1.5,0.9-2.1,1.5
				c-0.6,0.7-1,1.4-1.4,2.3c-0.7,1.7-1.1,3.4-1.3,5.2c-0.1,0.9-0.1,1.8-0.1,2.7v0.3c0,0.1,0,0.2,0,0.3l0.1,0.7l0.1,1.4
				c0.2,1.8,0.4,3.6,0.6,5.4c0.2,1.8,0.4,3.6,0.7,5.4C8,29,8.2,29.9,8.3,30.8c0.2,0.9,0.3,1.9,0.3,2.8c-0.1,1.9-0.4,3.7-1.2,5.5
				c-0.2,0.4-0.4,0.9-0.6,1.3l-0.7,1.2L4.9,44l-2.6,4.8l0-0.5c0.1,0.1,0.2,0.2,0.3,0.3c0.1,0.1,0.3,0.2,0.4,0.3
				c0.3,0.2,0.6,0.4,0.9,0.5c0.6,0.3,1.3,0.6,1.9,0.8c1.3,0.4,2.7,0.6,4.1,0.7c1.4,0.1,2.8,0.1,4.2,0.1c1.4-0.1,2.8-0.2,4.2-0.4h0
				c0.9-0.2,1.9-0.3,2.8-0.4c0.9-0.1,1.9-0.2,2.8-0.2c1,0,1.9,0.1,2.8,0.2c0.5,0.1,0.9,0.2,1.4,0.4l0.3,0.1l0.3,0.2l0.3,0.2
				C29.2,51.1,29.3,51.1,29.4,51.2z M29.4,51.3c-0.1-0.1-0.2-0.1-0.3-0.2l-0.3-0.2l-0.3-0.1l-0.3-0.1c-0.4-0.1-0.9-0.2-1.4-0.3
				c-0.9-0.1-1.9-0.1-2.8-0.1c-0.9,0-1.9,0.2-2.8,0.3s-1.8,0.3-2.7,0.5h0h0c-2.8,0.5-5.7,0.7-8.6,0.6c-1.5-0.1-2.9-0.3-4.3-0.7
				c-0.7-0.2-1.4-0.5-2.1-0.8c-0.3-0.2-0.7-0.4-1-0.6c-0.2-0.1-0.3-0.2-0.5-0.3c-0.2-0.1-0.3-0.3-0.5-0.4l-0.2-0.2l0.2-0.3L4,43.5
				l1.3-2.4l0.6-1.2c0.2-0.4,0.4-0.8,0.6-1.2c0.7-1.6,1-3.4,1.1-5.1c0-0.9-0.1-1.8-0.2-2.6C7.2,30,7.1,29.1,7,28.2
				C6.5,24.6,6.2,21,5.8,17.3L5.7,16l-0.1-0.7c0-0.1,0-0.2,0-0.4l0-0.3c0-0.9,0.1-1.8,0.2-2.8C6.1,10,6.6,8.2,7.3,6.5
				c0.4-0.9,0.9-1.6,1.5-2.3c0.6-0.7,1.4-1.3,2.3-1.6C12.5,2,13.9,2,15.2,2.4c0.4,0.1,0.9,0.3,1.3,0.4c1.7,0.6,3.4,1.4,4.9,2.4
				c0.8,0.5,1.5,1.1,2.1,1.8c0.3,0.3,0.6,0.7,0.9,1c0.3,0.4,0.5,0.7,0.8,1.1c1,1.5,2,3,2.9,4.6c1,1.6,1.8,3.2,2.4,5
				c0.2,0.4,0.3,0.9,0.4,1.4c0.1,0.5,0.1,1,0,1.5c0,0.1-0.1,0.3-0.1,0.4l-0.1,0.3l-0.3,0.6L30,24.3l-2.1,5l0-0.1
				c-0.2,1.8-0.2,3.7-0.2,5.5c0,0.9,0.1,1.8,0.2,2.7l0.3,2.8c0.2,1.9,0.4,3.8,0.6,5.6S29.2,49.5,29.4,51.3L29.4,51.3z"/>
		</g>
		<g transform="translate(65.028 41.118)">
			<line class="st2" x1="1.7" y1="2.7" x2="12.8" y2="20.7"/>
			<path d="M1.7,2.6C2.3,3.3,2.8,4,3.4,4.7C3.9,5.4,4.5,6.1,5,6.9c0.5,0.7,1,1.5,1.5,2.2l1.4,2.2l1.4,2.3c0.4,0.8,0.9,1.5,1.3,2.3
				s0.8,1.6,1.2,2.4c0.4,0.8,0.8,1.6,1.1,2.4l-0.1,0l-5.6-9L1.7,2.6L1.7,2.6z"/>
		</g>
		<path d="M66,18.5c0.8,0.6,1.7,1,2.6,1.4c0,0,0.2,1.3,0.4,2.6C67.8,21.4,66.7,20,66,18.5z"/>
		<g transform="translate(60.889 22.831)">
			<polygon class="st4" points="52.9,23.8 67.4,2.1 69.6,3.6 55,25.2 			"/>
			<g transform="translate(42.413 8.565)">
				<path class="st0" d="M21.7,2.4c-0.2-0.2-3.1,4.7-4.6,7c0.4-1.4,1.2-3.1-0.2-3.5L14.5,11L3.1,18l3.1,6.4L18,13.5
					c0.9-0.9,1.7-2,2.2-3.2C22.3,5.3,23,3.3,21.7,2.4z"/>
				<path d="M21.7,2.5C21.7,2.5,21.7,2.5,21.7,2.5C21.7,2.5,21.7,2.5,21.7,2.5c-0.1,0.1-0.1,0.1-0.1,0.1c-0.1,0.1-0.1,0.1-0.2,0.2
					c-0.1,0.1-0.2,0.3-0.3,0.4l-0.6,0.9l-1.1,1.8l-1.1,1.8c-0.4,0.6-0.7,1.2-1.1,1.8L17,9.8l0.1-0.4c0.2-0.6,0.4-1.3,0.5-1.9
					c0.1-0.3,0.1-0.6,0-0.9c-0.1-0.3-0.4-0.5-0.7-0.5L17,6c-0.8,1.7-1.5,3.4-2.3,5.1l0,0.1l-0.1,0L3.3,18.3l0.1-0.5l3.2,6.3L5.9,24
					l5.2-4.8c0.9-0.8,1.7-1.6,2.6-2.4c0.9-0.8,1.7-1.6,2.6-2.4l1.3-1.2c0.4-0.4,0.8-0.8,1.2-1.2c0.4-0.4,0.7-0.9,0.9-1.4
					C20,10,20.2,9.5,20.5,9c0.5-1.1,1-2.2,1.4-3.3C22,5.1,22.2,4.6,22.3,4c0-0.3,0-0.6-0.1-0.9C22.1,2.9,21.9,2.6,21.7,2.5z
					 M21.8,2.4c0.3,0.2,0.4,0.4,0.5,0.7c0.1,0.3,0.1,0.6,0.1,0.9c-0.1,0.6-0.2,1.2-0.4,1.8c-0.3,1.1-0.7,2.3-1.1,3.4
					c-0.2,0.6-0.4,1.1-0.6,1.7c-0.2,0.6-0.5,1.1-0.9,1.6c-0.3,0.5-0.7,1-1.2,1.4L17,15.1c-0.9,0.8-1.7,1.6-2.6,2.4
					c-0.9,0.8-1.7,1.6-2.6,2.4l-5.3,4.8L6.1,25l-0.3-0.5l-3.1-6.4l-0.1-0.3l0.3-0.2l11.5-6.9l-0.1,0.1c0.8-1.7,1.7-3.4,2.5-5l0-0.1
					l0.1,0c0.2,0,0.3,0.1,0.5,0.2c0.1,0.1,0.3,0.3,0.3,0.4c0.1,0.3,0.1,0.7,0,1c-0.1,0.7-0.4,1.3-0.5,1.9l-0.1-0.1
					c0.8-1.1,1.5-2.3,2.3-3.5l1.1-1.8L21,3.2c0.1-0.1,0.2-0.3,0.3-0.4c0.1-0.1,0.1-0.1,0.2-0.2c0,0,0.1-0.1,0.1-0.1c0,0,0,0,0.1,0
					C21.7,2.4,21.7,2.4,21.8,2.4L21.8,2.4z"/>
			</g>
			<path d="M54.4,27.6c0,0,1.7,3.5,1.3,5.7L53,28.9L54.4,27.6z"/>
			<g transform="translate(0 6.99)">
				<path class="st0" d="M5.1,2.7C10.9,0,22,15.3,22,15.3l10.8,12l17.9-10.7c0,2.4,4.8,9.1,4.8,9.1l0.1,1c0.1,3.3-0.1,7.2-2.8,9.2
					c-2.5,1.8-5.8,1.1-8.9,1c-3-0.1-6,0.4-8.7,1.6c-1.5,0.8-3.1,1.3-4.8,1.6c-2.3,0.1-4.4-1.3-6.2-2.7c-2.2-1.7-6.3-5.3-6.3-5.3
					S10.8,24.3,8,20.3l-3.6-4.7C-2.2,5.6,5.1,2.7,5.1,2.7z"/>
				<path d="M5.1,2.7C6,2.3,6.9,2.2,7.8,2.5c0.9,0.2,1.8,0.6,2.6,1.1c0.8,0.5,1.6,1,2.3,1.6c0.7,0.6,1.4,1.2,2.1,1.8
					c1.4,1.2,2.7,2.6,3.9,3.9s2.4,2.8,3.6,4.3l0,0l5.5,5.9l2.7,3l2.7,3l-0.6-0.1l4.5-2.7l4.5-2.7l9-5.3l0.7-0.4l0,0.8
					c0,0.4,0.1,0.8,0.2,1.1c0.1,0.4,0.3,0.8,0.5,1.2c0.3,0.8,0.7,1.5,1.2,2.3c0.8,1.5,1.8,2.9,2.7,4.3l0.1,0.1l0,0.1l0.1,1v0v0
					c0.1,2-0.1,4.1-0.7,6.1c-0.3,1-0.9,1.9-1.6,2.7c-0.7,0.7-1.7,1.3-2.7,1.5c-2,0.4-4,0.4-6.1,0.1c-2-0.2-4-0.1-5.9,0.3
					c-1,0.2-1.9,0.5-2.9,0.8c-0.9,0.3-1.8,0.8-2.8,1.2c-0.9,0.4-1.9,0.7-3,0.8c-1,0-2.1-0.2-3-0.6c-0.9-0.4-1.8-0.9-2.7-1.5
					c-0.8-0.6-1.6-1.2-2.4-1.8c-1.6-1.3-3.1-2.6-4.6-3.9l0,0l0,0c-2.1-2.2-4-4.5-6-6.8c-1-1.2-1.9-2.3-2.8-3.6
					c-0.5-0.6-0.9-1.2-1.3-1.8l-1.3-1.8l-1.3-1.8c-0.2-0.3-0.5-0.6-0.7-0.9c-0.2-0.3-0.4-0.6-0.6-1c-0.8-1.3-1.4-2.7-1.7-4.2
					C1.6,9.6,1.5,8.8,1.5,8.1c0-0.8,0.2-1.5,0.5-2.2C2.6,4.4,3.7,3.3,5.1,2.7z M5.1,2.8c-1.4,0.6-2.4,1.8-3,3.2
					c-0.5,1.4-0.5,3-0.1,4.4c0.4,1.4,1,2.8,1.8,4.1c0.2,0.3,0.4,0.6,0.6,0.9c0.2,0.3,0.5,0.6,0.7,0.9L6.6,18L8,19.7
					c0.5,0.6,0.9,1.2,1.4,1.8c0.9,1.2,1.9,2.3,2.9,3.5c1.9,2.3,4,4.5,6,6.7l0,0c1.5,1.3,3,2.7,4.5,4c1.5,1.3,3.1,2.5,4.8,3.4
					c0.9,0.4,1.8,0.6,2.8,0.6c1-0.1,1.9-0.3,2.8-0.7c0.9-0.4,1.8-0.8,2.8-1.2c1-0.3,1.9-0.6,2.9-0.8c2-0.4,4-0.5,6-0.4
					c1,0.1,2,0.2,3,0.2c1,0,2-0.1,2.9-0.3c0.9-0.3,1.8-0.8,2.5-1.5c0.7-0.7,1.1-1.6,1.4-2.5c0.5-1.9,0.7-3.9,0.5-5.9v0l-0.1-1
					l0.1,0.2c-1-1.4-2-2.8-2.8-4.3c-0.4-0.7-0.9-1.5-1.2-2.3c-0.2-0.4-0.4-0.8-0.5-1.2c-0.2-0.4-0.3-0.9-0.3-1.4l0.7,0.4l-8.9,5.4
					l-4.5,2.7L33,27.7L32.7,28l-0.3-0.3l-2.7-3l-2.7-3l-5.3-6.1l0,0l0,0c-1.1-1.5-2.2-2.9-3.4-4.4c-1.2-1.4-2.4-2.8-3.7-4.1
					c-1.3-1.3-2.7-2.5-4.3-3.4C9.5,3.2,8.7,2.8,7.8,2.6C6.9,2.3,6,2.4,5.1,2.8L5.1,2.8z"/>
			</g>
		</g>
		<path d="M40.2,49.5c0.2-0.9,6.2-1,7-1.1c5.3-0.6,10.3-3.2,11.4-8.9c0.5-2.9-1.2-6.4,1-8.9c5.2-6.1,4.8-9.2,4.6-12.5
			c-0.2-2.7-2.9-4.2-2.6-5.8c0.2-1.3,2.4-0.4,2.4-0.4c2.8,0.5,2.6-3.5,2.6-3.5c4.8,3.6,7.2,1.8,7.5,1.8c0,0,1.2-8.6-9.2-8.7
			c-3.4,0.4-6.3,2.7-7.4,6c-0.3,3.2-2.5,5.8-4.6,8.1c-2,2.1-4.5,3.1-5.6,6c-0.6,1.5-0.7,3.2-1.3,4.7c-0.9,2.4-2.7,4.3-3.5,6.7
			c-1,2.9-0.5,6.2-0.8,9.2C41.4,44.7,40.9,47.1,40.2,49.5z"/>
	</g>
</g>
</svg>
