<?xml version="1.0" encoding="utf-8"?>
<!-- Generator: Adobe Illustrator 25.2.1, SVG Export Plug-In . SVG Version: 6.00 Build 0)  -->
<svg version="1.1" id="Layer_1" xmlns="http://www.w3.org/2000/svg" xmlns:xlink="http://www.w3.org/1999/xlink" x="0px" y="0px"
	 viewBox="0 0 800 476.1" style="enable-background:new 0 0 800 476.1;" xml:space="preserve">
<style type="text/css">
	.st0{fill:#4685EE;}
	.st1{fill:#F1A336;}
</style>
<g id="Group_3652" transform="translate(-72.39 -236.566)">
	<path id="Path_4897" class="st0" d="M177.2,552.6c-57.9-0.1-104.8-47-104.8-104.9h56.5c-0.1,26.7,21.5,48.3,48.2,48.4
		c26.7,0.1,48.3-21.5,48.4-48.2V256.2H282v191.5C282,505.6,235.1,552.5,177.2,552.6z"/>
	<g id="Group_3652-2">
		<path id="Path_4898" class="st1" d="M483.8,236.6c-90.2,0-163.2,73.1-163.2,163.2s73.1,163.2,163.2,163.2
			c90.1,0,163.2-73,163.2-163.2l0,0C647,309.7,573.9,236.7,483.8,236.6z M590.5,399.9c0,59-47.8,106.8-106.8,106.8
			c-59,0-106.8-47.8-106.8-106.8c0-59,47.8-106.8,106.8-106.8c0,0,0,0,0,0C542.7,293.1,590.5,340.9,590.5,399.9z"/>
	</g>
	<path id="Path_4899" class="st0" d="M872.4,496.1H747.6V256.2H691v296.4h181.4V496.1z"/>
	<path id="Path_4900" class="st1" d="M677.6,707.9c13-8.6,16.6-26.2,7.9-39.2l-64.3-97.1c-9-12.7-26.7-15.7-39.4-6.7
		c-12.2,8.6-15.5,25.2-7.7,37.9l64.3,97.1C647,713,664.6,716.5,677.6,707.9L677.6,707.9L677.6,707.9z"/>
</g>
</svg>
